<?xml version="1.0" encoding="utf-8"?>
<!-- Generator: Adobe Illustrator 21.0.0, SVG Export Plug-In . SVG Version: 6.00 Build 0)  -->
<svg version="1.1" id="repeat" xmlns="http://www.w3.org/2000/svg" xmlns:xlink="http://www.w3.org/1999/xlink" x="0px" y="0px"
	 viewBox="0 0 24 24" style="enable-background:new 0 0 24 24;" xml:space="preserve">
<style type="text/css">
	.st0{fill:#00000050;}
	.st1{fill:#FFFFFF;}
</style>
<title>break</title>
  <path class="st0" d="M 23.3 13.835 c -0.3 -0.6 -0.9 -1 -1.5 -1 h -1.6 c -0.1 -1.3 -0.5 -2.5 -1.1 -3.6 c -0.9 -1.7 -2.3 -3.2 -4.1 -4.1 c -1.7 -0.9 -3.6 -1.2 -5.5 -0.9 c -1.8 0.3 -3.5 1.1 -4.9 2.3 c -0.7 0.7 -0.7 1.9 0 2.6 c 0.6 0.6 1.6 0.7 2.3 0.2 H 7 c 0.9 -0.6 1.9 -0.9 2.9 -0.9 s 1.9 0.3 2.7 0.9 c 1.1 0.8 1.8 2.1 1.8 3.5 h -1.5 c -0.9 0 -1.7 0.7 -1.7 1.7 c 0 0.4 0.2 0.9 0.5 1.2 l 4.4 4.4 c 0.7 0.6 1.7 0.6 2.4 0 L 23 15.635 C 23.5 15.135 23.6 14.435 23.3 13.835 z"/>
  <path class="st1" d="M 21.8 13.815 h -2.6 c 0 -1.5 -0.3 -2.9 -1 -4.2 c -0.8 -1.6 -2.1 -2.8 -3.7 -3.6 c -1.5 -0.8 -3.3 -1.1 -4.9 -0.8 c -1.6 0.2 -3.2 1 -4.4 2.1 c -0.4 0.3 -0.4 0.9 -0.1 1.2 c 0.3 0.4 0.9 0.4 1.2 0.1 l 0 0 c 1 -0.7 2.2 -1.1 3.4 -1.1 s 2.3 0.3 3.3 1 c 0.9 0.6 1.6 1.5 2 2.6 c 0.3 0.9 0.4 1.8 0.2 2.8 h -2.4 c -0.4 0 -0.7 0.3 -0.7 0.7 c 0 0.2 0.1 0.3 0.2 0.4 l 4.4 4.4 c 0.3 0.3 0.7 0.3 0.9 0 L 22 15.015 c 0.3 -0.3 0.4 -0.6 0.3 -0.9 S 22 13.815 21.8 13.815 z"/>
</svg>
