<?xml version="1.0" standalone="no"?>
<!DOCTYPE svg PUBLIC "-//W3C//DTD SVG 1.1//EN" "http://www.w3.org/Graphics/SVG/1.1/DTD/svg11.dtd" >
<svg xmlns="http://www.w3.org/2000/svg">
<metadata></metadata>
<defs>
<font id="bitsumishi_promedium_oblique" horiz-adv-x="1247" >
<font-face units-per-em="2048" ascent="1638" descent="-410" />
<missing-glyph horiz-adv-x="634" />
<glyph horiz-adv-x="0" />
<glyph unicode="&#xd;" horiz-adv-x="634" />
<glyph unicode=" "  horiz-adv-x="634" />
<glyph unicode="&#x09;" horiz-adv-x="634" />
<glyph unicode="&#xa0;" horiz-adv-x="634" />
<glyph unicode="!" horiz-adv-x="368" d="M-31 0l35 209h246l-35 -209h-246zM53 365l121 690h205l-121 -690h-205z" />
<glyph unicode="&#x22;" horiz-adv-x="575" d="M68 561l86 494h194l-186 -494h-94zM326 561l86 494h194l-184 -494h-96z" />
<glyph unicode="#" horiz-adv-x="1177" d="M16 274l25 138h274l41 229h-274l24 137h275l47 277h137l-47 -277h230l47 277h137l-47 -277h276l-24 -137h-277l-41 -229h277l-25 -138h-276l-47 -274h-138l47 274h-229l-47 -274h-137l47 274h-275zM453 412h229l41 229h-229z" />
<glyph unicode="$" horiz-adv-x="1298" d="M-10 0l35 205h886q92 0 115 110q10 53 -11.5 82t-64.5 29h-641q-63 0 -113.5 23.5t-83 65.5t-45 99.5t0.5 124.5q12 66 43.5 123.5t78 100.5t105.5 67.5t125 24.5h219l33 180h205l-33 -180h465l-35 -205h-889q-43 0 -72.5 -28.5t-40.5 -82.5q-10 -53 10.5 -80.5 t63.5 -27.5h641q63 0 114.5 -23.5t83.5 -66.5t45 -100.5t1 -125.5t-45 -125t-80 -100t-105.5 -66.5t-123.5 -23.5h-218l-32 -182h-205l33 182h-465z" />
<glyph unicode="%" horiz-adv-x="1079" d="M-10 0l930 1055h165l-931 -1055h-164zM82 815l6 35q8 43 30.5 81t56.5 65.5t76 43t85 15.5h67q43 0 79 -16.5t60.5 -44t35 -64.5t2.5 -80l-7 -35q-8 -43 -30.5 -81t-56 -65.5t-75.5 -43t-85 -15.5h-68q-43 0 -79 15.5t-60.5 43t-34.5 65.5t-2 81zM215 815 q-6 -35 12.5 -53.5t55.5 -18.5h67q76 0 88 72l6 35q6 35 -11 52.5t-52 17.5h-68q-37 0 -61.5 -17.5t-30.5 -52.5zM500 205l6 37q8 43 31.5 80.5t57.5 65.5t76 43t85 15h67q43 0 79 -16t59.5 -44t34 -64.5t1.5 -79.5l-6 -37q-8 -43 -30.5 -81t-56.5 -65.5t-75 -43t-84 -15.5 h-67q-43 0 -80 15.5t-61.5 43t-34.5 65.5t-2 81zM633 205q-6 -35 12.5 -53.5t54.5 -18.5h68q76 0 88 72l6 37q6 35 -11 52t-52 17h-68q-37 0 -61.5 -17.5t-30.5 -51.5z" />
<glyph unicode="&#x26;" horiz-adv-x="1255" d="M18 289q31 164 175 246q-96 82 -72 229q12 63 43 116.5t77 92.5t104 60.5t124 21.5h147l33 182h205l-33 -182h150q66 0 116 -22.5t82.5 -61.5t45 -92.5t-0.5 -116.5l-6 -35h-204q10 53 -4.5 88t-63.5 35h-502q-41 0 -71.5 -29.5t-40.5 -83.5q-10 -55 11 -80.5t62 -25.5 h479l-36 -205h-498q-41 0 -70.5 -26.5t-40.5 -84.5q-10 -55 10.5 -82.5t61.5 -27.5h541q49 0 75.5 33.5t36.5 87.5h205l-6 -35q-12 -63 -43 -116.5t-77 -92.5t-103.5 -60.5t-122.5 -21.5h-170l-35 -186h-205l35 186h-166q-66 0 -117 22.5t-83.5 60.5t-45 91t-2.5 115z" />
<glyph unicode="'" horiz-adv-x="368" d="M68 561l86 494h245l-186 -494h-145z" />
<glyph unicode="(" horiz-adv-x="548" d="M-12 109l147 837q12 72 50 133.5t93.5 105.5t122 69.5t138.5 25.5h112l-37 -205h-112q-66 0 -109 -34.5t-53 -94.5l-147 -837q-10 -61 20.5 -95t95.5 -34h113l-37 -205h-113q-72 0 -130 25.5t-97 69.5t-54.5 105.5t-2.5 133.5z" />
<glyph unicode=")" horiz-adv-x="548" d="M-100 -225l34 205h113q63 0 107.5 33.5t54.5 95.5l147 837q10 59 -21.5 94t-94.5 35h-113l37 205h112q70 0 128.5 -25.5t97.5 -69.5t55 -105.5t4 -133.5l-147 -837q-12 -72 -51 -133.5t-93.5 -105.5t-122 -69.5t-137.5 -25.5h-110z" />
<glyph unicode="*" horiz-adv-x="585" d="M78 625l176 151h-150l21 109h176l29 170h108l-28 -170h178l-21 -109h-149l123 -151l-88 -78l-131 158l-181 -158z" />
<glyph unicode="+" horiz-adv-x="1052" d="M43 426l37 205h360l64 360h205l-64 -360h365l-37 -205h-365l-63 -363h-205l63 363h-360z" />
<glyph unicode="," horiz-adv-x="368" d="M-82 -289l86 494h246l-187 -494h-145z" />
<glyph unicode="-" horiz-adv-x="845" d="M43 426l37 205h723l-37 -205h-723z" />
<glyph unicode="." horiz-adv-x="368" d="M-31 0l35 205h246l-35 -205h-246z" />
<glyph unicode="/" horiz-adv-x="915" d="M-102 0l911 1055h209l-912 -1055h-208z" />
<glyph unicode="0" horiz-adv-x="1150" d="M27 334l69 387q12 72 50 133t92.5 105.5t121 70t138.5 25.5h340q70 0 128 -25.5t98 -71t56.5 -106.5t3.5 -131l-69 -387q-12 -72 -50 -133.5t-92.5 -106.5t-121 -69.5t-138.5 -24.5h-340q-72 0 -130 24.5t-97 69.5t-55.5 106.5t-3.5 133.5zM231 334q-10 -61 21 -95 t96 -34h340q63 0 107.5 33.5t54.5 95.5l70 387q10 59 -22 94t-95 35h-340q-66 0 -109 -35t-53 -94z" />
<glyph unicode="1" horiz-adv-x="555" d="M88 850l35 205h463l-185 -1055h-204l149 850h-258z" />
<glyph unicode="2" horiz-adv-x="1185" d="M-61 0l18 113q25 137 79 234t134 160.5t182.5 93.5t225.5 30h276q43 0 72.5 27.5t40.5 80.5q10 53 -9.5 82t-64.5 29h-754l35 205h754q66 0 116 -24.5t82.5 -66.5t45 -99.5t-0.5 -125.5q-12 -68 -44.5 -126t-81 -99t-106.5 -64.5t-122 -23.5h-276q-141 0 -225.5 -47 t-118.5 -174h831l-35 -205h-1054z" />
<glyph unicode="3" horiz-adv-x="1228" d="M-10.5 176q-12.5 53 0.5 115l6 35h205l-6 -35q-8 -41 14 -63.5t61 -22.5h543q41 0 71.5 27.5t41.5 82.5q10 57 -11.5 84t-62.5 27h-502l37 205h481q41 0 71 25.5t40 80.5t-10.5 84t-61.5 29h-501q-41 0 -71 -22.5t-38 -65.5l-6 -35h-205l6 35q12 63 43 116.5t77 92.5 t104.5 61.5t123.5 22.5h502q66 0 117 -22.5t84 -61.5t45 -92.5t0 -114.5q-25 -143 -148 -229q115 -80 86 -244q-12 -61 -42.5 -114.5t-76.5 -92.5t-104.5 -61.5t-124.5 -22.5h-542q-66 0 -117 22.5t-84 61.5t-45.5 92z" />
<glyph unicode="4" horiz-adv-x="1169" d="M-25 213l35 199l772 643h277l-113 -637h172l-35 -205h-172l-37 -213h-204l37 213h-732zM305 418h436l76 426z" />
<glyph unicode="5" horiz-adv-x="1122" d="M27 328h204q-10 -59 21 -91t96 -32h342q63 0 107.5 31.5t54.5 91.5l6 41q10 59 -21.5 91t-95.5 32h-665l98 563h950l-34 -205h-746l-29 -154h461q70 0 129.5 -24.5t98 -67.5t55 -103.5t4.5 -131.5l-6 -41q-12 -72 -50 -132.5t-92.5 -103.5t-122 -67.5t-137.5 -24.5h-342 q-72 0 -130 24.5t-97 67.5t-55.5 103.5t-3.5 132.5z" />
<glyph unicode="6" horiz-adv-x="1122" d="M27 328l69 395q12 72 50 132t92.5 105.5t121 70t138.5 24.5h583l-34 -205h-584q-66 0 -109 -34t-53 -93l-12 -61q66 35 145 34h342q70 0 129.5 -24.5t98 -67.5t55 -103.5t4.5 -131.5l-6 -41q-12 -72 -50 -132.5t-92.5 -103.5t-122 -67.5t-137.5 -24.5h-342 q-72 0 -130 24.5t-97 67.5t-55.5 103.5t-3.5 132.5zM231 328q-10 -59 21 -91t96 -32h342q63 0 107.5 31.5t54.5 91.5l6 41q10 59 -21.5 91t-95.5 32h-342q-66 0 -108.5 -32t-52.5 -91z" />
<glyph unicode="7" horiz-adv-x="1165" d="M88 850l35 205h1104l-35 -203l-809 -852h-277l828 850h-846z" />
<glyph unicode="8" horiz-adv-x="1257" d="M20 291q29 164 170 244q-94 82 -69 229q12 63 43 116.5t77 92.5t103 60.5t123 21.5h506q66 0 116 -21.5t82.5 -60.5t45 -92.5t0.5 -116.5q-25 -143 -148 -229q115 -80 86 -244q-12 -63 -43 -116.5t-77 -92.5t-104.5 -60.5t-123.5 -21.5h-541q-133 0 -200.5 81t-45.5 210z M229 315q-10 -55 9.5 -82.5t60.5 -27.5h543q41 0 71.5 27.5t40.5 82.5q10 57 -11 84t-62 27h-543q-41 0 -69.5 -26.5t-39.5 -84.5zM322 737q-10 -55 10 -80.5t61 -25.5h506q41 0 69.5 25.5t39.5 80.5q10 55 -9.5 84t-60.5 29h-506q-41 0 -70.5 -28.5t-39.5 -84.5z" />
<glyph unicode="9" horiz-adv-x="1120" d="M57 682l9 41q12 72 50 133.5t92 105.5t120.5 68.5t138.5 24.5h340q72 0 130 -24.5t97 -70t55.5 -105.5t4.5 -132l-70 -393q-12 -72 -50 -132.5t-92.5 -104.5t-121 -68.5t-137.5 -24.5h-521l35 205h520q63 0 107.5 32.5t54.5 92.5l4 26h-479q-72 0 -130 23.5t-97 66.5 t-55.5 103.5t-4.5 132.5zM262 682q-10 -63 26 -92t107 -29h465l29 162q12 74 -32 100.5t-128 26.5h-254q-88 0 -140 -27.5t-65 -99.5z" />
<glyph unicode=":" horiz-adv-x="368" d="M4 209l37 205h246l-37 -205h-246zM82 641l35 205h245l-34 -205h-246z" />
<glyph unicode=";" horiz-adv-x="368" d="M-45 -74l88 494h246l-189 -494h-145zM82 641l35 205h245l-34 -205h-246z" />
<glyph unicode="&#x3c;" horiz-adv-x="854" d="M8 518l590 385h311l-590 -385l457 -373h-311z" />
<glyph unicode="=" horiz-adv-x="1050" d="M12 248l35 205h928l-35 -205h-928zM74 600l37 205h927l-37 -205h-927z" />
<glyph unicode="&#x3e;" horiz-adv-x="854" d="M-57 145l587 373l-454 385h311l455 -385l-588 -373h-311z" />
<glyph unicode="?" horiz-adv-x="1124" d="M88 850l35 205h764q63 0 114.5 -25.5t83 -70t44 -103.5t-0.5 -127q-12 -68 -44.5 -127t-81 -103t-107.5 -68.5t-123 -24.5h-500l37 204h500q41 0 72.5 32t42.5 87q10 55 -9.5 88t-62.5 33h-764zM203 0l35 205h247l-34 -205h-248z" />
<glyph unicode="@" horiz-adv-x="1789" d="M-16 88l155 879q12 68 47 125t87.5 99t115 65.5t129.5 23.5h1020q66 0 120 -23.5t91 -65.5t53.5 -99.5t3.5 -124.5l-84 -475q-12 -68 -48 -125.5t-87 -98.5t-114.5 -64.5t-129.5 -23.5h-643q-68 0 -122 23.5t-90.5 65.5t-51 99.5t-2.5 125.5l12 69q12 66 47 123t86.5 99 t114 67t129.5 25h547l-86 -492h96q55 0 91 27.5t47 79.5l84 475q10 51 -18 79.5t-83 28.5h-1020q-55 0 -91 -28.5t-46 -79.5l-156 -879q-18 -109 101 -108h923l-36 -205h-924q-68 0 -122 23.5t-91 65.5t-52.5 99t-2.5 125zM639 494q-10 -53 16.5 -81t81.5 -28h342l49 287 h-342q-55 0 -89.5 -29t-45.5 -80z" />
<glyph unicode="A" horiz-adv-x="1415" d="M-31 0l127 729q12 66 44 125t78 103t105.5 71t127.5 27h696q66 0 116 -27t81.5 -71t43.5 -103q6 -30 6 -62q0 -31 -5 -63l-127 -729h-205l61 356h-882l-62 -356h-205zM272 561h883l29 168q3 18 3 34q-1 31 -13 53q-20 34 -62 34h-696q-45 0 -75 -34t-40 -87z" />
<glyph unicode="B" horiz-adv-x="1441" d="M-31 0l185 1055h1003q66 0 116 -21.5t83 -60.5t45 -93q6 -27 6 -55.5t-6 -60.5q-25 -143 -148 -229q92 -64 92 -181q0 -30 -6 -63q-12 -61 -42.5 -114.5t-76.5 -92.5t-104.5 -61.5t-124.5 -22.5h-1022zM209 205h817q41 0 71.5 27.5t41.5 82.5q3 18 3 33q0 32 -14 51 q-22 27 -63 27h-817zM285 631h798q41 0 70 25.5t39 80.5q3 19 3 34q-1 31 -13 50q-20 29 -60 29h-798z" />
<glyph unicode="C" horiz-adv-x="1282" d="M27 334l69 387q12 72 50 133t92.5 105.5t121 70t138.5 25.5h815l-35 -205h-815q-66 0 -109 -35t-53 -94l-70 -387q-2 -15 -3 -28q0 -41 24 -67q31 -34 96 -34h815l-35 -205h-815q-72 0 -130 24.5t-97 69.5q-40 44 -56 106q-9 34 -9 73q0 29 6 61z" />
<glyph unicode="D" horiz-adv-x="1359" d="M-31 0l185 1055h895q70 0 128 -25.5t97 -71.5q40 -45 56 -106q9 -34 8 -71q0 -29 -5 -60l-69 -387q-12 -72 -49 -133.5t-91.5 -105.5t-121 -69.5t-138.5 -25.5h-895zM209 205h690q63 0 106.5 33.5t53.5 95.5l69 387q2 14 2 27q0 40 -24 67q-32 35 -92 35h-690z" />
<glyph unicode="E" d="M-31 0l185 1055h1124l-35 -205h-919l-39 -219h862l-37 -205h-862l-39 -221h919l-34 -205h-1125z" />
<glyph unicode="F" horiz-adv-x="1216" d="M-31 0l185 1055h1124l-35 -205h-919l-39 -219h864l-37 -205h-864l-74 -426h-205z" />
<glyph unicode="G" horiz-adv-x="1282" d="M27 334l69 387q12 72 50 133t92.5 105.5t121 70t138.5 25.5h815l-35 -205h-815q-66 0 -109 -35t-53 -94l-70 -387q-2 -15 -2 -28q0 -41 23 -67q31 -34 96 -34h610l39 221h-374l36 205h580l-111 -631h-815q-72 0 -130 24.5t-97 69.5t-56 106q-9 35 -9 73q0 29 6 61z" />
<glyph unicode="H" d="M-31 0l185 1055h204l-73 -424h714l74 424h205l-184 -1055h-205l74 426h-715l-74 -426h-205z" />
<glyph unicode="I" horiz-adv-x="327" d="M-31 0l185 1055h204l-184 -1055h-205z" />
<glyph unicode="J" horiz-adv-x="958" d="M-61 0l34 205h523q61 0 106 33.5t55 95.5l127 721h205l-127 -721q-12 -72 -50 -133.5t-92 -106.5t-122 -69.5t-137 -24.5h-522z" />
<glyph unicode="K" horiz-adv-x="1196" d="M-31 0l185 1055h204l-73 -424h200l500 424h285l-623 -529l467 -526h-285l-378 426h-203l-74 -426h-205z" />
<glyph unicode="L" horiz-adv-x="1044" d="M-31 0l185 1055h204l-149 -850h747l-34 -205h-953z" />
<glyph unicode="M" horiz-adv-x="1490" d="M-31 0l185 1055h217l348 -680l588 680h215l-185 -1055h-204l124 713l-602 -695l-356 695l-125 -713h-205z" />
<glyph unicode="N" d="M-31 0l185 1055h204l582 -764l133 764h205l-184 -1055h-205l-580 768l-135 -768h-205z" />
<glyph unicode="O" horiz-adv-x="1429" d="M27 334l69 387q12 72 50 133t92.5 105.5t121 70t138.5 25.5h618q70 0 128.5 -25.5t98 -70t55.5 -105.5q10 -35 10 -74q0 -28 -5 -59l-70 -387q-12 -72 -50 -133.5t-92 -106.5t-122 -69.5t-137 -24.5h-619q-72 0 -130 24.5t-97 69.5q-40 44 -56 106q-9 34 -9 73q0 29 6 61 zM231 334q-2 -15 -3 -28q0 -41 24 -67q31 -34 96 -34h619q63 0 107 33.5t54 95.5l70 387q2 14 2 27q0 40 -24 67q-32 35 -95 35h-618q-66 0 -109 -35t-53 -94z" />
<glyph unicode="P" horiz-adv-x="1370" d="M-31 0l185 1055h979q66 0 115.5 -27t81.5 -73q32 -45 43 -109q5 -30 6 -63q0 -36 -7 -74q-12 -74 -46 -136.5t-82 -108.5t-107.5 -72.5t-124.5 -26.5h-774l-64 -365h-205zM274 569h775q43 0 74.5 35t43.5 105q4 25 4 46q0 37 -12 59q-18 36 -61 36h-774z" />
<glyph unicode="Q" horiz-adv-x="1431" d="M27 334l69 387q12 72 50 133t92.5 105.5t121 70t138.5 25.5h620q70 0 128.5 -25.5t98 -70t55.5 -105.5q10 -35 10 -74q0 -29 -5 -59l-70 -387q-12 -72 -50 -133.5t-92 -106.5t-121.5 -69.5t-137.5 -24.5h-209l-29 -158h-204l28 158h-207q-72 0 -130 24.5t-97 69.5 t-56 106q-9 35 -9 73q0 29 6 61zM231 334q-2 -15 -2 -28q0 -41 23 -67q31 -34 96 -34h207l29 160h204l-28 -160h209q63 0 107 33.5t54 95.5l70 387q2 14 2 27q0 40 -24 67q-31 35 -95 35h-620q-66 0 -109 -35t-53 -94z" />
<glyph unicode="R" horiz-adv-x="1370" d="M-31 0l185 1055h979q68 0 117.5 -27t81.5 -73q32 -45 42 -109q5 -29 4 -60q0 -37 -6 -77q-12 -74 -45 -137.5t-81 -109.5t-107.5 -71.5t-126.5 -25.5h-117l276 -365h-280l-277 365h-376l-64 -365h-205zM274 569h764q49 0 83 36t46 104q4 26 4 47q0 94 -84 94h-763z" />
<glyph unicode="S" horiz-adv-x="1298" d="M-10 0l35 205h886q92 0 115 110q3 17 3 31q-1 31 -15 51q-22 29 -64 29h-639q-63 0 -113.5 23.5t-83.5 65.5q-32 41 -46 99q-7 29 -6 62q0 31 6 63q12 66 43.5 123.5t79 100.5t106.5 67.5t125 24.5h889l-35 -205h-889q-45 0 -74.5 -28.5t-40.5 -82.5q-3 -17 -3 -31 q1 -32 15 -50q22 -28 64 -27h639q63 0 114.5 -23.5t83.5 -66.5t45 -101q7 -30 7 -62q0 -30 -6 -63q-12 -68 -45 -125t-80 -100t-105.5 -66.5t-123.5 -23.5h-887z" />
<glyph unicode="T" horiz-adv-x="1257" d="M88 850l35 205h1196l-35 -205h-496l-149 -850h-205l150 850h-496z" />
<glyph unicode="U" horiz-adv-x="1417" d="M26 200q-5 28 -6 58q0 33 7 68l127 729h204l-127 -729q-4 -19 -4 -36q1 -31 13 -52q18 -33 63 -33h696q43 0 75 32.5t42 88.5l127 729h205l-127 -729q-12 -66 -44 -125.5t-80 -103.5t-107.5 -70.5t-124.5 -26.5h-697q-68 0 -119 25.5t-81 70t-42 104.5z" />
<glyph unicode="V" horiz-adv-x="1263" d="M82 1055h229l279 -785l547 785h229l-735 -1055h-180z" />
<glyph unicode="W" horiz-adv-x="1652" d="M82 1055h219l129 -707l377 707h217l129 -707l383 707h219l-569 -1055h-182l-140 745l-399 -745h-184z" />
<glyph unicode="X" horiz-adv-x="1183" d="M-102 0l559 532l-363 523h268l259 -363l383 363h270l-549 -523l377 -532h-271l-266 373l-399 -373h-268z" />
<glyph unicode="Y" horiz-adv-x="1392" d="M90 624q-6 30 -6 61.5t6 64.5l53 305h205l-53 -305q-3 -18 -3 -34q0 -30 12 -52q20 -33 63 -33h696q41 0 71.5 31.5t41.5 87.5l53 305h205l-54 -305q-12 -68 -46 -127.5t-81 -103.5t-105 -68.5t-122 -24.5h-244l-73 -426h-205l74 426h-248q-66 0 -115 25.5t-81 69.5 t-44 103z" />
<glyph unicode="Z" horiz-adv-x="1230" d="M-41 0l35 205l897 645h-782l34 205h1104l-35 -205l-888 -645h798l-35 -205h-1128z" />
<glyph unicode="[" horiz-adv-x="548" d="M-72 -225l267 1505h456l-37 -205h-252l-192 -1095h252l-37 -205h-457z" />
<glyph unicode="\" horiz-adv-x="915" d="M82 1055h209l543 -1055h-209z" />
<glyph unicode="]" horiz-adv-x="548" d="M-100 -225l34 205h252l193 1095h-252l37 205h457l-267 -1505h-454z" />
<glyph unicode="^" horiz-adv-x="899" d="M20 475l529 580l309 -580h-223l-141 266l-242 -266h-232z" />
<glyph unicode="_" horiz-adv-x="1050" d="M-90 -328l37 205h927l-36 -205h-928z" />
<glyph unicode="`" horiz-adv-x="575" d="M221 1346h250l133 -207h-194z" />
<glyph unicode="a" horiz-adv-x="1415" d="M-31 0l127 729q12 66 44 125t78 103t105.5 71t127.5 27h696q66 0 116 -27t81.5 -71t43.5 -103q6 -30 6 -62q0 -31 -5 -63l-127 -729h-205l61 356h-729l37 205h729l29 168q3 18 3 34q-1 31 -13 53q-20 34 -62 34h-696q-45 0 -75 -34t-40 -87l-127 -729h-205z" />
<glyph unicode="b" horiz-adv-x="1441" d="M-31 0l185 1055h1003q66 0 116 -21.5t83 -60.5t45 -93q6 -27 6 -55.5t-6 -60.5q-25 -143 -148 -229q92 -64 92 -181q0 -30 -6 -63q-12 -61 -42.5 -114.5t-76.5 -92.5t-104.5 -61.5t-124.5 -22.5h-1022zM209 205h817q41 0 71.5 27.5t41.5 82.5q3 18 3 33q0 32 -14 51 q-22 27 -63 27h-664l37 205h645q41 0 70 25.5t39 80.5q3 19 3 34q-1 31 -13 50q-20 29 -60 29h-798z" />
<glyph unicode="c" horiz-adv-x="1282" d="M27 334l69 387q12 72 50 133t92.5 105.5t121 70t138.5 25.5h815l-35 -205h-815q-66 0 -109 -35t-53 -94l-70 -387q-2 -15 -3 -28q0 -41 24 -67q31 -34 96 -34h815l-35 -205h-815q-72 0 -130 24.5t-97 69.5q-40 44 -56 106q-9 34 -9 73q0 29 6 61z" />
<glyph unicode="d" horiz-adv-x="1359" d="M-31 0l121 692h205l-86 -487h690q63 0 106.5 33.5t53.5 95.5l69 387q2 14 2 27q0 40 -24 67q-32 35 -92 35h-895l35 205h895q70 0 128 -25.5t97 -71.5q40 -45 56 -106q9 -34 8 -71q0 -29 -5 -60l-69 -387q-12 -72 -49 -133.5t-91.5 -105.5t-121 -69.5t-138.5 -25.5h-895z " />
<glyph unicode="e" d="M-31 0l185 1055h1124l-35 -205h-919l-115 -645h919l-34 -205h-1125zM401 426l37 205h709l-37 -205h-709z" />
<glyph unicode="f" horiz-adv-x="1216" d="M-31 0l185 1055h1124l-35 -205h-919l-150 -850h-205zM401 426l37 205h711l-37 -205h-711z" />
<glyph unicode="g" horiz-adv-x="1282" d="M27 334l69 387q12 72 50 133t92.5 105.5t121 70t138.5 25.5h815l-35 -205h-815q-66 0 -109 -35t-53 -94l-70 -387q-2 -15 -2 -28q0 -41 23 -67q31 -34 96 -34h610l39 221h-374l36 205h580l-111 -631h-815q-72 0 -130 24.5t-97 69.5t-56 106q-9 35 -9 73q0 29 6 61z" />
<glyph unicode="h" horiz-adv-x="1339" d="M-31 0l185 1055h204l-73 -424h807l73 424h205l-184 -1055h-205l74 426h-807l-74 -426h-205z" />
<glyph unicode="i" horiz-adv-x="327" d="M-31 0l185 1055h204l-184 -1055h-205z" />
<glyph unicode="j" horiz-adv-x="1060" d="M-61 0l34 205h625q61 0 106.5 33.5t55.5 95.5l127 721h205l-127 -721q-12 -72 -50 -133.5t-92.5 -106.5t-122 -69.5t-137.5 -24.5h-624z" />
<glyph unicode="k" horiz-adv-x="1185" d="M-31 0l185 1055h204l-184 -1055h-205zM358 526l611 529h284l-614 -529l465 -526h-285z" />
<glyph unicode="l" horiz-adv-x="1146" d="M-31 0l185 1055h204l-149 -850h850l-35 -205h-1055z" />
<glyph unicode="m" horiz-adv-x="1490" d="M-31 0l185 1055h217l348 -680l588 680h215l-185 -1055h-204l124 713l-602 -695l-356 695l-125 -713h-205z" />
<glyph unicode="n" d="M-31 0l127 729q12 66 44 125t78 103t105.5 71t127.5 27h528q66 0 116 -27t81.5 -71t43.5 -103q6 -30 6 -62q0 -31 -5 -63l-127 -729h-205l127 729q3 18 3 34q-1 31 -13 53q-20 34 -62 34h-528q-45 0 -75 -34t-40 -87l-127 -729h-205z" />
<glyph unicode="o" horiz-adv-x="1429" d="M27 334l69 387q12 72 50 133t92.5 105.5t121 70t138.5 25.5h618q70 0 128.5 -25.5t98 -70t55.5 -105.5q10 -35 10 -74q0 -28 -5 -59l-70 -387q-12 -72 -50 -133.5t-92 -106.5t-122 -69.5t-137 -24.5h-619q-72 0 -130 24.5t-97 69.5q-40 44 -56 106q-9 34 -9 73q0 29 6 61 zM231 334q-2 -15 -3 -28q0 -41 24 -67q31 -34 96 -34h619q63 0 107 33.5t54 95.5l70 387q2 14 2 27q0 40 -24 67q-32 35 -95 35h-618q-66 0 -109 -35t-53 -94z" />
<glyph unicode="p" horiz-adv-x="1370" d="M-31 0l185 1055h979q66 0 115.5 -27t81.5 -73t43 -109q5 -31 5 -63q0 -36 -6 -74q-12 -74 -46 -136.5t-82 -108.5t-107.5 -72.5t-124.5 -26.5h-621l37 204h621q43 0 74.5 35t43.5 105q4 25 4 46q0 37 -12 59q-18 36 -61 36h-774l-150 -850h-205z" />
<glyph unicode="q" horiz-adv-x="1431" d="M27 334l69 387q12 72 50 133t92.5 105.5t121 70t138.5 25.5h620q70 0 128.5 -25.5t98 -70t55.5 -105.5q10 -35 10 -74q0 -29 -5 -59l-70 -387q-12 -72 -50 -133.5t-92 -106.5t-121.5 -69.5t-137.5 -24.5h-209l-29 -158h-204l28 158h-207q-72 0 -130 24.5t-97 69.5 t-56 106q-9 35 -9 73q0 29 6 61zM231 334q-2 -15 -2 -28q0 -41 23 -67q31 -34 96 -34h621q63 0 107 33.5t54 95.5l70 387q2 14 2 27q0 40 -24 67q-31 35 -95 35h-620q-66 0 -109 -35t-53 -94z" />
<glyph unicode="r" horiz-adv-x="1370" d="M-31 0l185 1055h979q68 0 117.5 -27t81.5 -73q32 -45 42 -109q5 -29 4 -60q0 -37 -6 -77q-12 -74 -45 -137.5t-81 -109.5t-107.5 -71.5t-126.5 -25.5h-117l276 -365h-280l-424 569h571q49 0 83 36t46 104q4 26 4 47q0 94 -84 94h-763l-150 -850h-205z" />
<glyph unicode="s" horiz-adv-x="1298" d="M-10 0l35 205h886q92 0 115 110q3 17 3 31q-1 31 -15 51q-22 29 -64 29h-639q-63 0 -113.5 23.5t-83.5 65.5q-32 41 -46 99q-7 29 -6 62q0 31 6 63q12 66 43.5 123.5t79 100.5t106.5 67.5t125 24.5h889l-35 -205h-889q-45 0 -74.5 -28.5t-40.5 -82.5q-3 -17 -3 -31 q1 -32 15 -50q22 -28 64 -27h639q63 0 114.5 -23.5t83.5 -66.5t45 -101q7 -30 7 -62q0 -30 -6 -63q-12 -68 -45 -125t-80 -100t-105.5 -66.5t-123.5 -23.5h-887z" />
<glyph unicode="t" horiz-adv-x="1257" d="M88 850l35 205h1196l-35 -205h-1196zM434 0l121 692h205l-121 -692h-205z" />
<glyph unicode="u" horiz-adv-x="1417" d="M26 200q-5 28 -6 58q0 33 7 68l127 729h204l-127 -729q-4 -19 -4 -36q1 -31 13 -52q18 -33 63 -33h696q43 0 75 32.5t42 88.5l127 729h205l-127 -729q-12 -66 -44 -125.5t-80 -103.5t-107.5 -70.5t-124.5 -26.5h-697q-68 0 -119 25.5t-81 70t-42 104.5z" />
<glyph unicode="v" horiz-adv-x="1263" d="M82 1055h229l279 -785l547 785h229l-735 -1055h-180z" />
<glyph unicode="w" horiz-adv-x="1652" d="M82 1055h219l129 -707l377 707h217l129 -707l383 707h219l-569 -1055h-182l-140 745l-399 -745h-184z" />
<glyph unicode="x" horiz-adv-x="1183" d="M-102 0l559 532l-363 523h268l259 -363l383 363h270l-549 -523l377 -532h-271l-266 373l-399 -373h-268z" />
<glyph unicode="y" horiz-adv-x="1392" d="M90 624q-6 30 -6 61.5t6 64.5l53 305h205l-53 -305q-3 -18 -3 -34q0 -30 12 -52q20 -33 63 -33h696q41 0 71.5 31.5t41.5 87.5l53 305h205l-54 -305q-12 -68 -46 -127.5t-81 -103.5t-105 -68.5t-122 -24.5h-244l-73 -426h-205l74 426h-248q-66 0 -115 25.5t-81 69.5 t-44 103z" />
<glyph unicode="z" horiz-adv-x="1230" d="M-41 0l35 205l897 645h-782l34 205h1104l-35 -205l-888 -645h798l-35 -205h-1128z" />
<glyph unicode="{" horiz-adv-x="770" d="M12 426l37 205h113q63 0 107 33.5t55 95.5l32 186q12 72 50 133.5t93.5 105.5t122 69.5t138.5 25.5h112l-36 -205h-113q-66 0 -109 -34.5t-53 -94.5l-33 -186q-12 -72 -51 -131.5t-92 -102.5q39 -41 56.5 -100t4.5 -129l-32 -188q-10 -61 20.5 -95t95.5 -34h113l-37 -205 h-112q-72 0 -130.5 25.5t-97.5 69.5t-54 105.5t-3 133.5l33 188q10 59 -22 93t-95 36h-113z" />
<glyph unicode="|" horiz-adv-x="327" d="M-84 -293l289 1639h205l-289 -1639h-205z" />
<glyph unicode="}" horiz-adv-x="770" d="M-100 -225l34 205h113q63 0 107.5 33.5t54.5 95.5l33 188q12 70 50 129t93 100q-41 43 -57.5 102.5t-3.5 131.5l32 186q10 59 -21.5 94t-94.5 35h-113l37 205h112q70 0 128.5 -25.5t97.5 -69.5t55 -105.5t4 -133.5l-33 -186q-10 -61 21 -95t96 -34h113l-37 -205h-113 q-66 -2 -108.5 -36t-53.5 -93l-32 -188q-12 -72 -50 -133.5t-93.5 -105.5t-122 -69.5t-138.5 -25.5h-110z" />
<glyph unicode="~" horiz-adv-x="778" d="M43 428q16 98 79.5 159.5t168.5 61.5q43 0 72.5 -15.5t55 -33.5t53.5 -33.5t69 -15.5q72 0 96 78h98q-20 -111 -90 -166t-153 -55q-43 0 -74 15t-57.5 32.5t-56.5 33t-68 15.5q-39 0 -59.5 -18.5t-37.5 -57.5h-96z" />
<glyph unicode="&#xa1;" horiz-adv-x="368" d="M-10 0l121 692h204l-120 -692h-205zM117 844l37 211h245l-37 -211h-245z" />
<glyph unicode="&#xa2;" horiz-adv-x="1179" d="M39 406l45 245q12 72 50 133.5t92.5 105.5t121 69.5t137.5 25.5h144l45 250h205l-45 -250h364l-35 -205h-712q-66 0 -109 -34.5t-53 -94.5l-45 -245q-10 -61 20.5 -95.5t95.5 -34.5h713l-35 -204h-364l-45 -254h-205l45 254h-143q-72 0 -130.5 24.5t-97.5 69.5t-55 106.5 t-4 133.5z" />
<glyph unicode="&#xa3;" horiz-adv-x="1146" d="M-31 0l35 205h143l39 221h-143l37 205h143l17 98q12 66 43.5 125t80 103t107.5 71t125 27h451l-35 -205h-451q-45 0 -75.5 -34t-41.5 -87l-16 -98h340l-37 -205h-340l-39 -221h707l-35 -205h-1055z" />
<glyph unicode="&#xa4;" horiz-adv-x="1052" d="M39 238l147 124q-4 4 -3 19.5t1 24.5l43 239q2 12 6.5 22.5t10.5 20.5l-103 129l170 144l101 -123q14 4 31.5 8t33.5 4h211q16 0 29.5 -4t27.5 -8l150 127l119 -146l-154 -131q6 -18 2 -43l-43 -239q-2 -20 -16 -46l106 -124l-172 -146l-102 123q-31 -12 -62 -12h-211 q-37 0 -61 12l-143 -121zM346 422q-4 -29 10.5 -46.5t46.5 -17.5h181q33 0 55.5 17.5t26.5 46.5l36 207q10 61 -59 61h-180q-70 0 -80 -61z" />
<glyph unicode="&#xa5;" horiz-adv-x="1413" d="M100 750l54 305h204l-53 -305q-10 -53 9.5 -86t62.5 -33h696q41 0 72 31.5t41 87.5l53 305h205l-53 -305q-12 -68 -46 -127.5t-81 -103.5t-105.5 -68.5t-122.5 -24.5h-243l-19 -111h295l-37 -204h-295l-18 -111h-205l18 111h-299l37 204h299l19 111h-248q-66 0 -115 25.5 t-80.5 69.5t-44 103.5t-0.5 125.5z" />
<glyph unicode="&#xa6;" horiz-adv-x="327" d="M-84 -293l123 699h205l-123 -699h-205zM84 651l121 695h205l-121 -695h-205z" />
<glyph unicode="&#xa7;" horiz-adv-x="1298" d="M-51 -211l37 205h888q94 0 113 110q10 53 -10.5 81t-63.5 28h-641q-66 0 -116 23.5t-81.5 66.5t-44 100.5t0.5 124.5q10 63 39.5 117.5t72.5 95.5q-61 80 -39 211q12 66 44 123.5t80 100.5t107.5 67.5t125.5 24.5h889l-37 -205h-889q-45 0 -75 -28.5t-40 -82.5 q-8 -51 11.5 -79.5t64.5 -28.5h639q63 0 114.5 -23.5t84 -66.5t45 -100.5t0.5 -125.5q-25 -131 -121 -215q31 -41 44 -93t1 -116q-10 -66 -42 -123t-80 -100t-107.5 -67.5t-124.5 -24.5h-889zM236 528q-10 -53 10 -81.5t63 -28.5h639q45 0 75 28.5t40 81.5t-10.5 82 t-63.5 29h-639q-45 0 -74.5 -28.5t-39.5 -82.5z" />
<glyph unicode="&#xa8;" horiz-adv-x="741" d="M199 1133l34 194h209l-34 -194h-209zM545 1133l35 194h211l-35 -194h-211z" />
<glyph unicode="&#xa9;" horiz-adv-x="1595" d="M-16 88l155 879q12 68 47 125t87.5 99t115 65.5t129.5 23.5h825q66 0 120.5 -23.5t91 -65.5t53 -99.5t4.5 -124.5l-156 -881q-12 -68 -48 -125t-87 -98t-114.5 -64.5t-129.5 -23.5h-825q-68 0 -122 23.5t-91 65.5t-52.5 99t-2.5 125zM188 88q-18 -109 101 -108h825 q55 0 91 27.5t46 78.5l156 881q10 51 -17.5 79.5t-82.5 28.5h-826q-55 0 -91 -28.5t-46 -79.5zM434 494l12 69q12 70 50.5 131.5t92.5 106.5t120.5 70.5t138.5 25.5h321l-36 -205h-322q-63 0 -106 -34.5t-54 -94.5l-12 -69q-10 -61 20.5 -95t94.5 -34h321l-37 -205h-321 q-72 0 -129.5 25.5t-96 69.5t-54 105.5t-3.5 133.5z" />
<glyph unicode="&#xaa;" horiz-adv-x="833" d="M76 610l43 240q8 43 30.5 80t56.5 64.5t75 44t84 16.5h499l-114 -649h-500q-43 0 -79 15t-59.5 43t-33.5 65.5t-2 80.5zM264 655q-12 -70 62 -69h276l51 288h-276q-35 0 -58.5 -19t-27.5 -52z" />
<glyph unicode="&#xab;" horiz-adv-x="1191" d="M10 524l652 420l-41 -227l-299 -193l231 -190l-39 -228zM553 524l651 420l-41 -227l-299 -193l232 -190l-39 -228z" />
<glyph unicode="&#xac;" horiz-adv-x="1050" d="M43 426l37 205h928l-84 -471h-205l47 266h-723z" />
<glyph unicode="&#xad;" horiz-adv-x="845" d="M43 426l37 205h723l-37 -205h-723z" />
<glyph unicode="&#xae;" horiz-adv-x="1153" d="M8 221l107 615q8 47 33.5 87t61.5 69.5t80 46t91 16.5h577q45 0 84 -16.5t65 -46t36 -69.5t2 -87l-109 -617q-8 -47 -32.5 -88t-60.5 -69.5t-80 -45t-89 -16.5h-577q-96 0 -150.5 62.5t-38.5 158.5zM152 221q-8 -37 10 -57.5t59 -20.5h578q82 0 94 76l108 617 q12 76 -67 75h-578q-41 0 -66.5 -20.5t-31.5 -54.5zM309 270l49 283q8 49 35 92t65 74t85 49t96 18h225l-24 -143h-226q-43 0 -73.5 -24.5t-38.5 -65.5l-49 -283h-144z" />
<glyph unicode="&#xaf;" horiz-adv-x="677" d="M182 1157l27 146h534l-26 -146h-535z" />
<glyph unicode="&#xb0;" horiz-adv-x="614" d="M113 815l6 35q8 43 30.5 81t56.5 65.5t76 43t85 15.5h67q43 0 79 -16.5t60.5 -44t34.5 -64.5t2 -80l-6 -35q-8 -43 -30.5 -81t-56.5 -65.5t-76 -43t-85 -15.5h-67q-43 0 -79 15.5t-60.5 43t-35 65.5t-1.5 81zM246 815q-6 -35 12 -53.5t55 -18.5h68q76 0 88 72l6 35 q6 35 -11.5 52.5t-51.5 17.5h-68q-37 0 -61.5 -17.5t-30.5 -52.5z" />
<glyph unicode="&#xb1;" horiz-adv-x="1052" d="M-31 0l35 205h928l-35 -205h-928zM68 563l36 205h361l49 287h205l-49 -287h362l-37 -205h-362l-51 -289h-205l51 289h-360z" />
<glyph unicode="&#xb2;" horiz-adv-x="811" d="M39 406l14 77q29 162 124 237t263 75h172q49 0 60 63q12 61 -37 62h-471l22 135h471q80 0 123 -56.5t27 -142.5q-6 -43 -26.5 -78t-50.5 -61.5t-66.5 -40.5t-75.5 -14h-172q-98 0 -142.5 -28t-64.5 -95h512l-25 -133h-657z" />
<glyph unicode="&#xb3;" horiz-adv-x="823" d="M72 584l4 22h133l-4 -22q-4 -23 8 -34t35 -11h332q49 0 59 61q4 29 -6 45.5t-33 16.5h-307l24 135h295q49 0 60 59q14 63 -37 64h-307q-23 0 -38.5 -12.5t-19.5 -35.5l-4 -18h-133l4 20q14 78 72.5 129.5t140.5 51.5h307q82 0 125 -51.5t29 -129.5q-14 -90 -92 -139 q72 -49 53 -151q-14 -76 -75.5 -127t-141.5 -51h-332q-82 0 -124 51t-27 127z" />
<glyph unicode="&#xb4;" horiz-adv-x="575" d="M186 1139l203 207h250l-258 -207h-195z" />
<glyph unicode="&#xb6;" horiz-adv-x="1370" d="M59.5 560.5q-10.5 64.5 1.5 137.5q12 74 46 138.5t82.5 113.5t107.5 77t125 28h979l-238 -1348h-205l203 1143h-194l-203 -1143h-205l113 637h-375q-66 0 -116 27.5t-80.5 76t-41 113z" />
<glyph unicode="&#xb7;" horiz-adv-x="368" d="M43 424l37 205h246l-37 -205h-246z" />
<glyph unicode="&#xb8;" horiz-adv-x="460" d="M-92 -354l18 112h201q23 0 29 23l6 35q2 23 -21 22h-200l18 113h250q35 0 57.5 -24.5t16.5 -61.5l-25 -133q-6 -37 -35.5 -61.5t-66.5 -24.5h-248z" />
<glyph unicode="&#xb9;" horiz-adv-x="391" d="M100 920l23 135h299l-115 -649h-135l92 514h-164z" />
<glyph unicode="&#xba;" horiz-adv-x="845" d="M76 610l43 240q8 43 30.5 81t56.5 65.5t76 43t85 15.5h299q88 0 139 -58.5t37 -146.5l-43 -240q-8 -43 -31 -80.5t-56.5 -65.5t-75.5 -43t-85 -15h-299q-43 0 -79 15t-60.5 43t-34.5 65.5t-2 80.5zM264 655q-12 -70 66 -69h207q78 0 90 69l26 148q10 72 -65 71h-207 q-37 0 -61.5 -18t-28.5 -53z" />
<glyph unicode="&#xbb;" horiz-adv-x="1191" d="M-12 106l39 228l301 190l-234 193l41 227l504 -420zM530 106l39 228l301 190l-233 193l41 227l504 -420z" />
<glyph unicode="&#xbc;" horiz-adv-x="1417" d="M86 0l929 1055h166l-932 -1055h-163zM100 920l23 135h299l-115 -649h-135l92 514h-164zM633 142l24 131l453 381h182l-65 -379h114l-24 -133h-115l-24 -140h-134l25 140h-436zM829 275h265l43 248z" />
<glyph unicode="&#xbd;" horiz-adv-x="1605" d="M86 0l929 1055h166l-932 -1055h-163zM100 920l23 135h299l-115 -649h-135l92 514h-164zM762 3l14 77q29 162 124 237t263 75h172q49 0 60 63q12 61 -37 62h-471l22 135h471q80 0 123 -56.5t27 -142.5q-6 -43 -26.5 -78t-50.5 -61.5t-66.5 -40.5t-75.5 -14h-172 q-98 0 -142.5 -28t-64.5 -95h512l-25 -133h-657z" />
<glyph unicode="&#xbe;" horiz-adv-x="1775" d="M72 584l4 22h133l-4 -22q-4 -23 8 -34t35 -11h332q49 0 59 61q4 29 -6 45.5t-33 16.5h-307l24 135h295q49 0 60 59q14 63 -37 64h-307q-23 0 -38.5 -12.5t-19.5 -35.5l-4 -18h-133l4 20q14 78 72.5 129.5t140.5 51.5h307q82 0 125 -51.5t29 -129.5q-14 -90 -92 -139 q72 -49 53 -151q-14 -76 -75.5 -127t-141.5 -51h-332q-82 0 -124 51t-27 127zM445 0l929 1055h166l-932 -1055h-163zM991 142l24 131l453 381h182l-65 -379h114l-24 -133h-115l-24 -140h-134l25 140h-436zM1187 275h265l43 248z" />
<glyph unicode="&#xbf;" horiz-adv-x="1124" d="M-5 198.5q-11 59.5 1 127.5t45 127t81 103t106.5 69.5t121.5 25.5h500l-37 -205h-500q-41 0 -71.5 -32.5t-40.5 -87.5t8 -88t61 -33h766l-35 -205h-765q-66 0 -115 25.5t-82 69.5t-44 103.5zM637 850l35 205h248l-35 -205h-248z" />
<glyph unicode="&#xc0;" horiz-adv-x="1415" d="M-31 0l127 729q12 66 44 125t78 103t105.5 71t127.5 27h696q66 0 116 -27t81.5 -71t44 -103t0.5 -125l-127 -729h-205l61 356h-882l-62 -356h-205zM272 561h883l29 168q10 53 -9.5 87t-62.5 34h-696q-45 0 -75 -34t-40 -87zM559 1346h250l133 -207h-194z" />
<glyph unicode="&#xc1;" horiz-adv-x="1415" d="M-31 0l127 729q12 66 44 125t78 103t105.5 71t127.5 27h696q66 0 116 -27t81.5 -71t44 -103t0.5 -125l-127 -729h-205l61 356h-882l-62 -356h-205zM272 561h883l29 168q10 53 -9.5 87t-62.5 34h-696q-45 0 -75 -34t-40 -87zM688 1139l203 207h250l-258 -207h-195z" />
<glyph unicode="&#xc2;" horiz-adv-x="1415" d="M-31 0l127 729q12 66 44 125t78 103t105.5 71t127.5 27h696q66 0 116 -27t81.5 -71t44 -103t0.5 -125l-127 -729h-205l61 356h-882l-62 -356h-205zM272 561h883l29 168q10 53 -9.5 87t-62.5 34h-696q-45 0 -75 -34t-40 -87zM531 1139l202 207h234l133 -207h-189l-81 88 l-111 -88h-188z" />
<glyph unicode="&#xc3;" horiz-adv-x="1415" d="M-31 0l127 729q12 66 44 125t78 103t105.5 71t127.5 27h696q66 0 116 -27t81.5 -71t44 -103t0.5 -125l-127 -729h-205l61 356h-882l-62 -356h-205zM272 561h883l29 168q10 53 -9.5 87t-62.5 34h-696q-45 0 -75 -34t-40 -87zM483 1122q16 98 79.5 161t168.5 63 q43 0 72.5 -15.5t55 -34t53.5 -34t69 -15.5q72 0 96 78h98q-20 -111 -91 -167t-155 -56q-43 0 -72.5 15.5t-57 33.5t-56.5 33.5t-68 15.5t-59 -18.5t-37 -59.5h-96z" />
<glyph unicode="&#xc4;" horiz-adv-x="1415" d="M-31 0l127 729q12 66 44 125t78 103t105.5 71t127.5 27h696q66 0 116 -27t81.5 -71t44 -103t0.5 -125l-127 -729h-205l61 356h-882l-62 -356h-205zM272 561h883l29 168q10 53 -9.5 87t-62.5 34h-696q-45 0 -75 -34t-40 -87zM535 1133l34 194h209l-34 -194h-209zM881 1133 l35 194h211l-35 -194h-211z" />
<glyph unicode="&#xc5;" horiz-adv-x="1415" d="M-31 0l127 729q12 66 44 125t78 103t105.5 71t127.5 27h67l27 145q10 61 61 103.5t113 42.5h260q61 0 98 -42t27 -104l-27 -145h70q66 0 116 -27t81.5 -71t44 -103t0.5 -125l-127 -729h-205l61 356h-882l-62 -356h-205zM272 561h883l29 168q10 53 -9.5 87t-62.5 34h-696 q-45 0 -75 -34t-40 -87zM676 1100q-6 -45 41 -45h162q51 0 57 45l10 51q6 45 -43 45h-162q-49 0 -55 -45z" />
<glyph unicode="&#xc6;" horiz-adv-x="1884" d="M-31 0l127 729q12 66 44 125t78 103t105.5 71t127.5 27h1464l-35 -205h-731l-39 -219h674l-37 -205h-674l-39 -221h731l-34 -205h-936l61 356h-620l-62 -356h-205zM272 561h621l51 289h-528q-45 0 -75 -34t-40 -87z" />
<glyph unicode="&#xc7;" horiz-adv-x="1282" d="M27 334l69 387q12 72 50 133t92.5 105.5t121 70t138.5 25.5h815l-35 -205h-815q-66 0 -109 -35t-53 -94l-70 -387q-10 -61 21 -95t96 -34h815l-35 -205h-815q-72 0 -130 24.5t-97 69.5t-55.5 106.5t-3.5 133.5zM385 -354l18 112h201q23 0 29 23l6 35q2 23 -21 22h-200 l18 113h250q35 0 57.5 -24.5t16.5 -61.5l-25 -133q-6 -37 -35.5 -61.5t-66.5 -24.5h-248z" />
<glyph unicode="&#xc8;" d="M-31 0l185 1055h1124l-35 -205h-919l-39 -219h862l-37 -205h-862l-39 -221h919l-34 -205h-1125zM475 1346h250l133 -207h-194z" />
<glyph unicode="&#xc9;" d="M-31 0l185 1055h1124l-35 -205h-919l-39 -219h862l-37 -205h-862l-39 -221h919l-34 -205h-1125zM604 1139l203 207h250l-258 -207h-195z" />
<glyph unicode="&#xca;" d="M-31 0l185 1055h1124l-35 -205h-919l-39 -219h862l-37 -205h-862l-39 -221h919l-34 -205h-1125zM447 1139l202 207h234l133 -207h-189l-81 88l-111 -88h-188z" />
<glyph unicode="&#xcb;" d="M-31 0l185 1055h1124l-35 -205h-919l-39 -219h862l-37 -205h-862l-39 -221h919l-34 -205h-1125zM451 1133l34 194h209l-34 -194h-209zM797 1133l35 194h211l-35 -194h-211z" />
<glyph unicode="&#xcc;" horiz-adv-x="327" d="M-31 0l185 1055h204l-184 -1055h-205zM18 1346h250l133 -207h-194z" />
<glyph unicode="&#xcd;" horiz-adv-x="327" d="M-31 0l185 1055h204l-184 -1055h-205zM147 1139l203 207h250l-258 -207h-195z" />
<glyph unicode="&#xce;" horiz-adv-x="327" d="M-31 0l185 1055h204l-184 -1055h-205zM-10 1139l202 207h234l133 -207h-189l-81 88l-111 -88h-188z" />
<glyph unicode="&#xcf;" horiz-adv-x="327" d="M-31 0l185 1055h204l-184 -1055h-205zM-6 1133l34 194h209l-34 -194h-209zM340 1133l35 194h211l-35 -194h-211z" />
<glyph unicode="&#xd0;" horiz-adv-x="1400" d="M12 426l37 205h113l74 424h854q70 0 128 -25.5t97 -71t55 -106.5t4 -131l-69 -387q-12 -72 -49 -133.5t-91.5 -105.5t-121 -69.5t-138.5 -25.5h-854l74 426h-113zM291 205h649q63 0 106.5 33.5t53.5 95.5l69 387q10 59 -21.5 94t-92.5 35h-649l-39 -219h258l-37 -205 h-258z" />
<glyph unicode="&#xd1;" d="M-31 0l185 1055h204l582 -764l133 764h205l-184 -1055h-205l-580 768l-135 -768h-205zM399 1122q16 98 79.5 161t168.5 63q43 0 72.5 -15.5t55 -34t53.5 -34t69 -15.5q72 0 96 78h98q-20 -111 -91 -167t-155 -56q-43 0 -72.5 15.5t-57 33.5t-56.5 33.5t-68 15.5 t-59 -18.5t-37 -59.5h-96z" />
<glyph unicode="&#xd2;" horiz-adv-x="1429" d="M27 334l69 387q12 72 50 133t92.5 105.5t121 70t138.5 25.5h618q70 0 128.5 -25.5t98 -70t56 -105.5t4.5 -133l-70 -387q-12 -72 -50 -133.5t-92 -106.5t-122 -69.5t-137 -24.5h-619q-72 0 -130 24.5t-97 69.5t-55.5 106.5t-3.5 133.5zM231 334q-10 -61 21 -95t96 -34 h619q63 0 107 33.5t54 95.5l70 387q10 59 -21.5 94t-95.5 35h-618q-66 0 -109 -35t-53 -94zM565 1346h250l133 -207h-194z" />
<glyph unicode="&#xd3;" horiz-adv-x="1429" d="M27 334l69 387q12 72 50 133t92.5 105.5t121 70t138.5 25.5h618q70 0 128.5 -25.5t98 -70t56 -105.5t4.5 -133l-70 -387q-12 -72 -50 -133.5t-92 -106.5t-122 -69.5t-137 -24.5h-619q-72 0 -130 24.5t-97 69.5t-55.5 106.5t-3.5 133.5zM231 334q-10 -61 21 -95t96 -34 h619q63 0 107 33.5t54 95.5l70 387q10 59 -21.5 94t-95.5 35h-618q-66 0 -109 -35t-53 -94zM694 1139l203 207h250l-258 -207h-195z" />
<glyph unicode="&#xd4;" horiz-adv-x="1429" d="M27 334l69 387q12 72 50 133t92.5 105.5t121 70t138.5 25.5h618q70 0 128.5 -25.5t98 -70t56 -105.5t4.5 -133l-70 -387q-12 -72 -50 -133.5t-92 -106.5t-122 -69.5t-137 -24.5h-619q-72 0 -130 24.5t-97 69.5t-55.5 106.5t-3.5 133.5zM231 334q-10 -61 21 -95t96 -34 h619q63 0 107 33.5t54 95.5l70 387q10 59 -21.5 94t-95.5 35h-618q-66 0 -109 -35t-53 -94zM537 1139l202 207h234l133 -207h-189l-81 88l-111 -88h-188z" />
<glyph unicode="&#xd5;" horiz-adv-x="1429" d="M27 334l69 387q12 72 50 133t92.5 105.5t121 70t138.5 25.5h618q70 0 128.5 -25.5t98 -70t56 -105.5t4.5 -133l-70 -387q-12 -72 -50 -133.5t-92 -106.5t-122 -69.5t-137 -24.5h-619q-72 0 -130 24.5t-97 69.5t-55.5 106.5t-3.5 133.5zM231 334q-10 -61 21 -95t96 -34 h619q63 0 107 33.5t54 95.5l70 387q10 59 -21.5 94t-95.5 35h-618q-66 0 -109 -35t-53 -94zM492 1122q16 98 79.5 161t168.5 63q43 0 72.5 -15.5t55 -34t53.5 -34t69 -15.5q72 0 96 78h98q-20 -111 -91 -167t-155 -56q-43 0 -72.5 15.5t-57 33.5t-56.5 33.5t-68 15.5 t-59 -18.5t-37 -59.5h-96z" />
<glyph unicode="&#xd6;" horiz-adv-x="1429" d="M27 334l69 387q12 72 50 133t92.5 105.5t121 70t138.5 25.5h618q70 0 128.5 -25.5t98 -70t56 -105.5t4.5 -133l-70 -387q-12 -72 -50 -133.5t-92 -106.5t-122 -69.5t-137 -24.5h-619q-72 0 -130 24.5t-97 69.5t-55.5 106.5t-3.5 133.5zM231 334q-10 -61 21 -95t96 -34 h619q63 0 107 33.5t54 95.5l70 387q10 59 -21.5 94t-95.5 35h-618q-66 0 -109 -35t-53 -94zM543 1133l34 194h209l-34 -194h-209zM889 1133l35 194h211l-35 -194h-211z" />
<glyph unicode="&#xd7;" horiz-adv-x="1052" d="M39 238l340 288l-238 291l170 144l238 -289l346 293l119 -146l-344 -293l239 -290l-172 -146l-239 291l-340 -289z" />
<glyph unicode="&#xd8;" horiz-adv-x="1429" d="M-31 0l113 98q-37 45 -52.5 104.5t-2.5 131.5l69 387q12 72 50 133t92.5 105.5t121 70t138.5 25.5h962l-114 -101q39 -45 54 -104t3 -129l-70 -387q-12 -72 -50 -133.5t-92 -106.5t-122 -69.5t-137 -24.5h-963zM231 334q-10 -57 15 -90l692 606h-475q-66 0 -109 -35 t-53 -94zM487 205h480q63 0 107 33.5t54 95.5l70 387q8 53 -18 88z" />
<glyph unicode="&#xd9;" horiz-adv-x="1417" d="M25.5 200.5q-11.5 59.5 1.5 125.5l127 729h204l-127 -729q-10 -55 8.5 -88t63.5 -33h696q43 0 75 32.5t42 88.5l127 729h205l-127 -729q-12 -66 -44 -125.5t-80 -103.5t-107.5 -70.5t-124.5 -26.5h-697q-68 0 -119 25.5t-81.5 70.5t-42 104.5zM559 1346h250l133 -207 h-194z" />
<glyph unicode="&#xda;" horiz-adv-x="1417" d="M25.5 200.5q-11.5 59.5 1.5 125.5l127 729h204l-127 -729q-10 -55 8.5 -88t63.5 -33h696q43 0 75 32.5t42 88.5l127 729h205l-127 -729q-12 -66 -44 -125.5t-80 -103.5t-107.5 -70.5t-124.5 -26.5h-697q-68 0 -119 25.5t-81.5 70.5t-42 104.5zM688 1139l203 207h250 l-258 -207h-195z" />
<glyph unicode="&#xdb;" horiz-adv-x="1417" d="M25.5 200.5q-11.5 59.5 1.5 125.5l127 729h204l-127 -729q-10 -55 8.5 -88t63.5 -33h696q43 0 75 32.5t42 88.5l127 729h205l-127 -729q-12 -66 -44 -125.5t-80 -103.5t-107.5 -70.5t-124.5 -26.5h-697q-68 0 -119 25.5t-81.5 70.5t-42 104.5zM531 1139l202 207h234 l133 -207h-189l-81 88l-111 -88h-188z" />
<glyph unicode="&#xdc;" horiz-adv-x="1417" d="M25.5 200.5q-11.5 59.5 1.5 125.5l127 729h204l-127 -729q-10 -55 8.5 -88t63.5 -33h696q43 0 75 32.5t42 88.5l127 729h205l-127 -729q-12 -66 -44 -125.5t-80 -103.5t-107.5 -70.5t-124.5 -26.5h-697q-68 0 -119 25.5t-81.5 70.5t-42 104.5zM537 1133l34 194h209 l-34 -194h-209zM883 1133l35 194h211l-35 -194h-211z" />
<glyph unicode="&#xdd;" horiz-adv-x="1392" d="M90 624.5q-12 59.5 0 125.5l53 305h205l-53 -305q-10 -53 9.5 -86t62.5 -33h696q41 0 71.5 31.5t41.5 87.5l53 305h205l-54 -305q-12 -68 -46 -127.5t-81 -103.5t-105 -68.5t-122 -24.5h-244l-73 -426h-205l74 426h-248q-66 0 -115 25.5t-81 69.5t-44 103.5zM675 1139 l203 207h250l-258 -207h-195z" />
<glyph unicode="&#xde;" horiz-adv-x="1329" d="M-31 0l185 1055h204l-30 -172h733q66 0 116 -28t81.5 -77t42 -113.5t-2.5 -138.5q-12 -74 -45.5 -138t-83 -112.5t-109 -76t-124.5 -27.5h-733l-29 -172h-205zM240 377h733q43 0 75.5 40t45.5 109q12 70 -6.5 111t-61.5 41h-733z" />
<glyph unicode="&#xdf;" horiz-adv-x="1413" d="M-31 0l127 721q12 72 50 133t92.5 105.5t121 70t138.5 25.5h905l-35 -203l-303 -221h37q68 0 118 -25.5t80.5 -68.5t42 -100.5t0.5 -121.5q-12 -66 -42.5 -123t-77.5 -100t-105.5 -67.5t-126.5 -24.5h-663l34 205h666q88 0 111 110q10 55 -10.5 83t-61.5 28h-367l37 205 l310 219h-584q-66 0 -109 -35t-53 -94l-127 -721h-205z" />
<glyph unicode="&#xe0;" horiz-adv-x="1415" d="M-31 0l127 729q12 66 44 125t78 103t105.5 71t127.5 27h696q66 0 116 -27t81.5 -71t44 -103t0.5 -125l-127 -729h-205l61 356h-729l37 205h729l29 168q10 53 -9.5 87t-62.5 34h-696q-45 0 -75 -34t-40 -87l-127 -729h-205zM559 1346h250l133 -207h-194z" />
<glyph unicode="&#xe1;" horiz-adv-x="1415" d="M-31 0l127 729q12 66 44 125t78 103t105.5 71t127.5 27h696q66 0 116 -27t81.5 -71t44 -103t0.5 -125l-127 -729h-205l61 356h-729l37 205h729l29 168q10 53 -9.5 87t-62.5 34h-696q-45 0 -75 -34t-40 -87l-127 -729h-205zM688 1139l203 207h250l-258 -207h-195z" />
<glyph unicode="&#xe2;" horiz-adv-x="1415" d="M-31 0l127 729q12 66 44 125t78 103t105.5 71t127.5 27h696q66 0 116 -27t81.5 -71t44 -103t0.5 -125l-127 -729h-205l61 356h-729l37 205h729l29 168q10 53 -9.5 87t-62.5 34h-696q-45 0 -75 -34t-40 -87l-127 -729h-205zM531 1139l202 207h234l133 -207h-189l-81 88 l-111 -88h-188z" />
<glyph unicode="&#xe3;" horiz-adv-x="1415" d="M-31 0l127 729q12 66 44 125t78 103t105.5 71t127.5 27h696q66 0 116 -27t81.5 -71t44 -103t0.5 -125l-127 -729h-205l61 356h-729l37 205h729l29 168q10 53 -9.5 87t-62.5 34h-696q-45 0 -75 -34t-40 -87l-127 -729h-205zM483 1122q16 98 79.5 161t168.5 63 q43 0 72.5 -15.5t55 -34t53.5 -34t69 -15.5q72 0 96 78h98q-20 -111 -91 -167t-155 -56q-43 0 -72.5 15.5t-57 33.5t-56.5 33.5t-68 15.5t-59 -18.5t-37 -59.5h-96z" />
<glyph unicode="&#xe4;" horiz-adv-x="1415" d="M-31 0l127 729q12 66 44 125t78 103t105.5 71t127.5 27h696q66 0 116 -27t81.5 -71t44 -103t0.5 -125l-127 -729h-205l61 356h-729l37 205h729l29 168q10 53 -9.5 87t-62.5 34h-696q-45 0 -75 -34t-40 -87l-127 -729h-205zM535 1133l34 194h209l-34 -194h-209zM881 1133 l35 194h211l-35 -194h-211z" />
<glyph unicode="&#xe5;" horiz-adv-x="1415" d="M-31 0l127 729q12 66 44 125t78 103t105.5 71t127.5 27h67l27 145q10 61 61 103.5t113 42.5h260q61 0 98 -42t27 -104l-27 -145h70q66 0 116 -27t81.5 -71t44 -103t0.5 -125l-127 -729h-205l61 356h-729l37 205h729l29 168q10 53 -9.5 87t-62.5 34h-696q-45 0 -75 -34 t-40 -87l-127 -729h-205zM676 1100q-6 -45 41 -45h162q51 0 57 45l10 51q6 45 -43 45h-162q-49 0 -55 -45z" />
<glyph unicode="&#xe6;" horiz-adv-x="1884" d="M-31 0l127 729q12 66 44 125t78 103t105.5 71t127.5 27h1464l-35 -205h-731l-115 -645h731l-34 -205h-936l61 356h-467l37 205h467l51 289h-528q-45 0 -75 -34t-40 -87l-127 -729h-205zM1227 426l37 205h520l-37 -205h-520z" />
<glyph unicode="&#xe7;" horiz-adv-x="1282" d="M27 334l69 387q12 72 50 133t92.5 105.5t121 70t138.5 25.5h815l-35 -205h-815q-66 0 -109 -35t-53 -94l-70 -387q-10 -61 21 -95t96 -34h815l-35 -205h-815q-72 0 -130 24.5t-97 69.5t-55.5 106.5t-3.5 133.5zM385 -354l18 112h201q23 0 29 23l6 35q2 23 -21 22h-200 l18 113h250q35 0 57.5 -24.5t16.5 -61.5l-25 -133q-6 -37 -35.5 -61.5t-66.5 -24.5h-248z" />
<glyph unicode="&#xe8;" d="M-31 0l185 1055h1124l-35 -205h-919l-115 -645h919l-34 -205h-1125zM401 426l37 205h709l-37 -205h-709zM475 1346h250l133 -207h-194z" />
<glyph unicode="&#xe9;" d="M-31 0l185 1055h1124l-35 -205h-919l-115 -645h919l-34 -205h-1125zM401 426l37 205h709l-37 -205h-709zM604 1139l203 207h250l-258 -207h-195z" />
<glyph unicode="&#xea;" d="M-31 0l185 1055h1124l-35 -205h-919l-115 -645h919l-34 -205h-1125zM401 426l37 205h709l-37 -205h-709zM447 1139l202 207h234l133 -207h-189l-81 88l-111 -88h-188z" />
<glyph unicode="&#xeb;" d="M-31 0l185 1055h1124l-35 -205h-919l-115 -645h919l-34 -205h-1125zM401 426l37 205h709l-37 -205h-709zM451 1133l34 194h209l-34 -194h-209zM797 1133l35 194h211l-35 -194h-211z" />
<glyph unicode="&#xec;" horiz-adv-x="327" d="M-31 0l185 1055h204l-184 -1055h-205zM18 1346h250l133 -207h-194z" />
<glyph unicode="&#xed;" horiz-adv-x="327" d="M-31 0l185 1055h204l-184 -1055h-205zM147 1139l203 207h250l-258 -207h-195z" />
<glyph unicode="&#xee;" horiz-adv-x="327" d="M-31 0l185 1055h204l-184 -1055h-205zM-10 1139l202 207h234l133 -207h-189l-81 88l-111 -88h-188z" />
<glyph unicode="&#xef;" horiz-adv-x="327" d="M-31 0l185 1055h204l-184 -1055h-205zM-6 1133l34 194h209l-34 -194h-209zM340 1133l35 194h211l-35 -194h-211z" />
<glyph unicode="&#xf0;" horiz-adv-x="1400" d="M12 426l37 205h113l10 61h199l-11 -61h265l-37 -205h-258l-39 -221h649q63 0 106.5 33.5t53.5 95.5l69 387q10 59 -21.5 94t-92.5 35h-854l35 205h854q70 0 128 -25.5t97 -71t55 -106.5t4 -131l-69 -387q-12 -72 -49 -133.5t-91.5 -105.5t-121 -69.5t-138.5 -25.5h-854 l74 426h-113z" />
<glyph unicode="&#xf1;" d="M-31 0l127 729q12 66 44 125t78 103t105.5 71t127.5 27h528q66 0 116 -27t81.5 -71t44 -103t0.5 -125l-127 -729h-205l127 729q10 53 -9.5 87t-62.5 34h-528q-45 0 -75 -34t-40 -87l-127 -729h-205zM399 1122q16 98 79.5 161t168.5 63q43 0 72.5 -15.5t55 -34t53.5 -34 t69 -15.5q72 0 96 78h98q-20 -111 -91 -167t-155 -56q-43 0 -72.5 15.5t-57 33.5t-56.5 33.5t-68 15.5t-59 -18.5t-37 -59.5h-96z" />
<glyph unicode="&#xf2;" horiz-adv-x="1429" d="M27 334l69 387q12 72 50 133t92.5 105.5t121 70t138.5 25.5h618q70 0 128.5 -25.5t98 -70t56 -105.5t4.5 -133l-70 -387q-12 -72 -50 -133.5t-92 -106.5t-122 -69.5t-137 -24.5h-619q-72 0 -130 24.5t-97 69.5t-55.5 106.5t-3.5 133.5zM231 334q-10 -61 21 -95t96 -34 h619q63 0 107 33.5t54 95.5l70 387q10 59 -21.5 94t-95.5 35h-618q-66 0 -109 -35t-53 -94zM565 1346h250l133 -207h-194z" />
<glyph unicode="&#xf3;" horiz-adv-x="1429" d="M27 334l69 387q12 72 50 133t92.5 105.5t121 70t138.5 25.5h618q70 0 128.5 -25.5t98 -70t56 -105.5t4.5 -133l-70 -387q-12 -72 -50 -133.5t-92 -106.5t-122 -69.5t-137 -24.5h-619q-72 0 -130 24.5t-97 69.5t-55.5 106.5t-3.5 133.5zM231 334q-10 -61 21 -95t96 -34 h619q63 0 107 33.5t54 95.5l70 387q10 59 -21.5 94t-95.5 35h-618q-66 0 -109 -35t-53 -94zM694 1139l203 207h250l-258 -207h-195z" />
<glyph unicode="&#xf4;" horiz-adv-x="1429" d="M27 334l69 387q12 72 50 133t92.5 105.5t121 70t138.5 25.5h618q70 0 128.5 -25.5t98 -70t56 -105.5t4.5 -133l-70 -387q-12 -72 -50 -133.5t-92 -106.5t-122 -69.5t-137 -24.5h-619q-72 0 -130 24.5t-97 69.5t-55.5 106.5t-3.5 133.5zM231 334q-10 -61 21 -95t96 -34 h619q63 0 107 33.5t54 95.5l70 387q10 59 -21.5 94t-95.5 35h-618q-66 0 -109 -35t-53 -94zM537 1139l202 207h234l133 -207h-189l-81 88l-111 -88h-188z" />
<glyph unicode="&#xf5;" horiz-adv-x="1429" d="M27 334l69 387q12 72 50 133t92.5 105.5t121 70t138.5 25.5h618q70 0 128.5 -25.5t98 -70t56 -105.5t4.5 -133l-70 -387q-12 -72 -50 -133.5t-92 -106.5t-122 -69.5t-137 -24.5h-619q-72 0 -130 24.5t-97 69.5t-55.5 106.5t-3.5 133.5zM231 334q-10 -61 21 -95t96 -34 h619q63 0 107 33.5t54 95.5l70 387q10 59 -21.5 94t-95.5 35h-618q-66 0 -109 -35t-53 -94zM492 1122q16 98 79.5 161t168.5 63q43 0 72.5 -15.5t55 -34t53.5 -34t69 -15.5q72 0 96 78h98q-20 -111 -91 -167t-155 -56q-43 0 -72.5 15.5t-57 33.5t-56.5 33.5t-68 15.5 t-59 -18.5t-37 -59.5h-96z" />
<glyph unicode="&#xf6;" horiz-adv-x="1429" d="M27 334l69 387q12 72 50 133t92.5 105.5t121 70t138.5 25.5h618q70 0 128.5 -25.5t98 -70t56 -105.5t4.5 -133l-70 -387q-12 -72 -50 -133.5t-92 -106.5t-122 -69.5t-137 -24.5h-619q-72 0 -130 24.5t-97 69.5t-55.5 106.5t-3.5 133.5zM231 334q-10 -61 21 -95t96 -34 h619q63 0 107 33.5t54 95.5l70 387q10 59 -21.5 94t-95.5 35h-618q-66 0 -109 -35t-53 -94zM543 1133l34 194h209l-34 -194h-209zM889 1133l35 194h211l-35 -194h-211z" />
<glyph unicode="&#xf7;" horiz-adv-x="1050" d="M43 426l37 205h928l-37 -205h-928zM315 41l37 205h248l-37 -205h-248zM451 809l36 205h248l-37 -205h-247z" />
<glyph unicode="&#xf8;" horiz-adv-x="1429" d="M27 334l69 387q12 72 50 133t92.5 105.5t121 70t138.5 25.5h618q70 0 128.5 -25.5t98 -70t56 -105.5t4.5 -133l-70 -387q-12 -72 -50 -133.5t-92 -106.5t-122 -69.5t-137 -24.5h-619q-72 0 -130 24.5t-97 69.5t-55.5 106.5t-3.5 133.5zM231 334q-10 -53 13 -86l698 602 h-479q-66 0 -109 -35t-53 -94zM481 205h486q63 0 107 33.5t54 95.5l70 387q4 27 -1 48.5t-15 37.5z" />
<glyph unicode="&#xf9;" horiz-adv-x="1417" d="M25.5 200.5q-11.5 59.5 1.5 125.5l127 729h204l-127 -729q-10 -55 8.5 -88t63.5 -33h696q43 0 75 32.5t42 88.5l127 729h205l-127 -729q-12 -66 -44 -125.5t-80 -103.5t-107.5 -70.5t-124.5 -26.5h-697q-68 0 -119 25.5t-81.5 70.5t-42 104.5zM559 1346h250l133 -207 h-194z" />
<glyph unicode="&#xfa;" horiz-adv-x="1417" d="M25.5 200.5q-11.5 59.5 1.5 125.5l127 729h204l-127 -729q-10 -55 8.5 -88t63.5 -33h696q43 0 75 32.5t42 88.5l127 729h205l-127 -729q-12 -66 -44 -125.5t-80 -103.5t-107.5 -70.5t-124.5 -26.5h-697q-68 0 -119 25.5t-81.5 70.5t-42 104.5zM688 1139l203 207h250 l-258 -207h-195z" />
<glyph unicode="&#xfb;" horiz-adv-x="1417" d="M25.5 200.5q-11.5 59.5 1.5 125.5l127 729h204l-127 -729q-10 -55 8.5 -88t63.5 -33h696q43 0 75 32.5t42 88.5l127 729h205l-127 -729q-12 -66 -44 -125.5t-80 -103.5t-107.5 -70.5t-124.5 -26.5h-697q-68 0 -119 25.5t-81.5 70.5t-42 104.5zM531 1139l202 207h234 l133 -207h-189l-81 88l-111 -88h-188z" />
<glyph unicode="&#xfc;" horiz-adv-x="1417" d="M25.5 200.5q-11.5 59.5 1.5 125.5l127 729h204l-127 -729q-10 -55 8.5 -88t63.5 -33h696q43 0 75 32.5t42 88.5l127 729h205l-127 -729q-12 -66 -44 -125.5t-80 -103.5t-107.5 -70.5t-124.5 -26.5h-697q-68 0 -119 25.5t-81.5 70.5t-42 104.5zM537 1133l34 194h209 l-34 -194h-209zM883 1133l35 194h211l-35 -194h-211z" />
<glyph unicode="&#xfd;" horiz-adv-x="1392" d="M90 624.5q-12 59.5 0 125.5l53 305h205l-53 -305q-10 -53 9.5 -86t62.5 -33h696q41 0 71.5 31.5t41.5 87.5l53 305h205l-54 -305q-12 -68 -46 -127.5t-81 -103.5t-105 -68.5t-122 -24.5h-244l-73 -426h-205l74 426h-248q-66 0 -115 25.5t-81 69.5t-44 103.5zM675 1139 l203 207h250l-258 -207h-195z" />
<glyph unicode="&#xfe;" horiz-adv-x="1329" d="M-31 0l185 1055h204l-30 -172h733q66 0 116 -28t81.5 -77t42 -113.5t-2.5 -138.5q-12 -74 -45.5 -138t-83 -112.5t-109 -76t-124.5 -27.5h-733l-29 -172h-205zM240 377h733q43 0 75.5 40t45.5 109q12 70 -6.5 111t-61.5 41h-733z" />
<glyph unicode="&#xff;" horiz-adv-x="1392" d="M90 624.5q-12 59.5 0 125.5l53 305h205l-53 -305q-10 -53 9.5 -86t62.5 -33h696q41 0 71.5 31.5t41.5 87.5l53 305h205l-54 -305q-12 -68 -46 -127.5t-81 -103.5t-105 -68.5t-122 -24.5h-244l-73 -426h-205l74 426h-248q-66 0 -115 25.5t-81 69.5t-44 103.5zM525 1133 l34 194h209l-34 -194h-209zM871 1133l35 194h211l-35 -194h-211z" />
<glyph unicode="&#x152;" horiz-adv-x="1898" d="M27 334l69 387q12 72 50 133t92.5 105.5t121 70t138.5 25.5h1431l-35 -205h-704l-39 -219h647l-37 -205h-647l-39 -221h705l-35 -205h-1432q-72 0 -130 24.5t-97 69.5t-55.5 106.5t-3.5 133.5zM231 334q-10 -61 21 -95t96 -34h522l115 645h-522q-66 0 -109 -35t-53 -94z " />
<glyph unicode="&#x153;" horiz-adv-x="1898" d="M27 334l69 387q12 72 50 133t92.5 105.5t121 70t138.5 25.5h1431l-35 -205h-704l-115 -645h705l-35 -205h-1432q-72 0 -130 24.5t-97 69.5t-55.5 106.5t-3.5 133.5zM231 334q-10 -61 21 -95t96 -34h522l115 645h-522q-66 0 -109 -35t-53 -94zM1268 426l37 205h493 l-37 -205h-493z" />
<glyph unicode="&#x178;" horiz-adv-x="1392" d="M90 624.5q-12 59.5 0 125.5l53 305h205l-53 -305q-10 -53 9.5 -86t62.5 -33h696q41 0 71.5 31.5t41.5 87.5l53 305h205l-54 -305q-12 -68 -46 -127.5t-81 -103.5t-105 -68.5t-122 -24.5h-244l-73 -426h-205l74 426h-248q-66 0 -115 25.5t-81 69.5t-44 103.5zM525 1133 l34 194h209l-34 -194h-209zM871 1133l35 194h211l-35 -194h-211z" />
<glyph unicode="&#x2c6;" horiz-adv-x="743" d="M195 1139l202 207h234l133 -207h-189l-81 88l-111 -88h-188z" />
<glyph unicode="&#x2dc;" horiz-adv-x="778" d="M166 1122q16 98 79.5 161t168.5 63q43 0 72.5 -15.5t55 -34t53.5 -34t69 -15.5q72 0 96 78h98q-20 -111 -91 -167t-155 -56q-43 0 -72.5 15.5t-57 33.5t-56.5 33.5t-68 15.5t-59 -18.5t-37 -59.5h-96z" />
<glyph unicode="&#x2000;" horiz-adv-x="682" />
<glyph unicode="&#x2001;" horiz-adv-x="1365" />
<glyph unicode="&#x2002;" horiz-adv-x="682" />
<glyph unicode="&#x2003;" horiz-adv-x="1365" />
<glyph unicode="&#x2004;" horiz-adv-x="455" />
<glyph unicode="&#x2005;" horiz-adv-x="341" />
<glyph unicode="&#x2006;" horiz-adv-x="227" />
<glyph unicode="&#x2007;" horiz-adv-x="227" />
<glyph unicode="&#x2008;" horiz-adv-x="170" />
<glyph unicode="&#x2009;" horiz-adv-x="273" />
<glyph unicode="&#x200a;" horiz-adv-x="75" />
<glyph unicode="&#x2010;" horiz-adv-x="845" d="M43 426l37 205h723l-37 -205h-723z" />
<glyph unicode="&#x2011;" horiz-adv-x="845" d="M43 426l37 205h723l-37 -205h-723z" />
<glyph unicode="&#x2012;" horiz-adv-x="845" d="M43 426l37 205h723l-37 -205h-723z" />
<glyph unicode="&#x2013;" horiz-adv-x="1255" d="M43 426l37 205h1132l-36 -205h-1133z" />
<glyph unicode="&#x2014;" horiz-adv-x="1665" d="M43 426l37 205h1542l-37 -205h-1542z" />
<glyph unicode="&#x2018;" horiz-adv-x="337" d="M45 610q45 111 88 221.5t90 223.5h115l-78 -445h-215z" />
<glyph unicode="&#x2019;" horiz-adv-x="337" d="M76 610l78 445h215l-179 -445h-114z" />
<glyph unicode="&#x201a;" horiz-adv-x="337" d="M-74 -236l78 445h215l-178 -445h-115z" />
<glyph unicode="&#x201c;" horiz-adv-x="620" d="M45 610q45 111 88 221.5t90 223.5h115l-78 -445h-215zM328 610q45 111 88 221.5t90 223.5h115l-78 -445h-215z" />
<glyph unicode="&#x201d;" horiz-adv-x="620" d="M76 610l78 445h215l-179 -445h-114zM358 610l78 445h215l-178 -445h-115z" />
<glyph unicode="&#x201e;" horiz-adv-x="620" d="M-74 -240l78 445h215l-178 -445h-115zM209 -240l78 445h215l-178 -445h-115z" />
<glyph unicode="&#x2022;" horiz-adv-x="856" d="M50 359.5q-9 52.5 5 132.5l13 69q14 80 40.5 132t68.5 81t96.5 40t123.5 11h166q162 0 212 -62.5t26 -201.5l-13 -69q-14 -80 -42.5 -132.5t-69.5 -81t-96.5 -40t-122.5 -11.5h-166q-68 0 -119 11.5t-82 40t-40 81z" />
<glyph unicode="&#x2026;" horiz-adv-x="1067" d="M-31 0l35 205h246l-35 -205h-246zM317 0l35 205h248l-35 -205h-248zM668 0l34 205h246l-35 -205h-245z" />
<glyph unicode="&#x202f;" horiz-adv-x="273" />
<glyph unicode="&#x2039;" horiz-adv-x="649" d="M10 524l652 420l-41 -227l-299 -193l231 -190l-39 -228z" />
<glyph unicode="&#x203a;" horiz-adv-x="649" d="M-12 106l39 228l301 190l-234 193l41 227l504 -420z" />
<glyph unicode="&#x205f;" horiz-adv-x="341" />
<glyph unicode="&#x20ac;" horiz-adv-x="1282" d="M29 344l24 143h123l14 78h-122l26 146h123q12 72 49 135t91.5 109t122 73t141.5 27h692l-35 -205h-692q-61 0 -107.5 -39t-56.5 -100h432l-27 -146h-432l-14 -78h432l-25 -143h-432q-10 -61 22 -100t93 -39h692l-35 -205h-692q-74 0 -132 26.5t-97 72.5t-53.5 108.5 t-1.5 136.5h-123z" />
<glyph unicode="&#x2122;" horiz-adv-x="1716" d="M92 874l31 181h737l-31 -181h-278l-84 -468h-180l84 468h-279zM788 406l115 649h187l172 -359l299 359h186l-115 -649h-180l68 374l-308 -368l-176 368l-67 -374h-181z" />
<glyph unicode="&#x25fc;" horiz-adv-x="1054" d="M0 0v1055h1055v-1055h-1055z" />
</font>
</defs>
</svg>
