<svg xmlns="http://www.w3.org/2000/svg" viewBox="0 0 300 186" width="300px" height="186px" xmlns:bx="https://boxy-svg.com">
  <defs>
    <bx:export>
      <bx:file format="png" width="600" height="372"></bx:file>
    </bx:export>
  </defs>
  <rect width="300" height="186" style="stroke-width: 32px; stroke: rgb(53, 190, 102); fill: rgb(59, 212, 113);"></rect>
  <g style="" transform="matrix(8.59397, 0, 0, 8.59397, 72.654266, 15.65427)">
    <path d="M 12.578 12.613 C 11.958 12.613 11.42 12.52 10.964 12.336 C 10.508 12.15 10.116 11.906 9.79 11.602 C 9.464 11.298 9.176 10.969 8.926 10.616 C 8.676 10.262 8.443 9.901 8.225 9.532 C 8.008 9.162 7.777 8.828 7.533 8.529 C 7.289 8.23 7.014 7.988 6.71 7.804 C 6.406 7.619 6.041 7.527 5.617 7.527 C 5.303 7.527 5.02 7.6 4.77 7.747 C 4.52 7.893 4.325 8.086 4.183 8.326 C 4.042 8.564 3.971 8.841 3.971 9.157 C 3.971 9.461 4.042 9.735 4.183 9.98 C 4.325 10.224 4.52 10.42 4.77 10.567 C 5.02 10.713 5.303 10.787 5.617 10.787 C 6.041 10.787 6.406 10.694 6.71 10.51 C 7.014 10.325 7.289 10.083 7.533 9.785 C 7.777 9.485 8.008 9.156 8.225 8.798 C 8.443 8.44 8.676 8.078 8.926 7.714 C 9.176 7.35 9.464 7.016 9.79 6.712 C 10.116 6.408 10.508 6.163 10.964 5.979 C 11.42 5.793 11.958 5.701 12.578 5.701 C 13.241 5.701 13.833 5.853 14.354 6.158 C 14.876 6.462 15.289 6.869 15.593 7.38 C 15.897 7.89 16.049 8.477 16.049 9.141 C 16.049 9.803 15.897 10.395 15.593 10.917 C 15.289 11.439 14.876 11.852 14.354 12.156 C 13.833 12.46 13.241 12.613 12.578 12.613 Z M 5.454 12.613 C 4.792 12.613 4.194 12.46 3.661 12.156 C 3.129 11.852 2.711 11.439 2.406 10.917 C 2.102 10.395 1.95 9.809 1.95 9.157 C 1.95 8.494 2.102 7.904 2.406 7.388 C 2.711 6.872 3.129 6.462 3.661 6.158 C 4.194 5.853 4.792 5.701 5.454 5.701 C 6.063 5.701 6.596 5.793 7.052 5.979 C 7.508 6.163 7.899 6.408 8.225 6.712 C 8.551 7.016 8.839 7.347 9.089 7.706 C 9.339 8.064 9.576 8.426 9.798 8.79 C 10.022 9.154 10.25 9.485 10.483 9.785 C 10.717 10.083 10.988 10.325 11.298 10.51 C 11.608 10.694 11.97 10.787 12.382 10.787 C 12.698 10.787 12.98 10.716 13.23 10.575 C 13.48 10.433 13.672 10.238 13.808 9.988 C 13.944 9.738 14.012 9.455 14.012 9.141 C 14.012 8.836 13.944 8.562 13.808 8.318 C 13.672 8.073 13.48 7.88 13.23 7.739 C 12.98 7.597 12.698 7.527 12.382 7.527 C 11.97 7.527 11.608 7.619 11.298 7.804 C 10.988 7.988 10.717 8.23 10.483 8.529 C 10.25 8.828 10.022 9.16 9.798 9.524 C 9.576 9.888 9.339 10.249 9.089 10.608 C 8.839 10.966 8.551 11.298 8.225 11.602 C 7.899 11.906 7.508 12.15 7.052 12.336 C 6.596 12.52 6.063 12.613 5.454 12.613 Z" style="fill: rgb(255, 255, 255); text-wrap-mode: nowrap;"></path>
  </g>
</svg>