<svg xmlns="http://www.w3.org/2000/svg" width="257.579" height="150.09" viewBox="0 0 257.579 150.09"><g stroke-miterlimit="10"><path d="M0 149.99V0h257.578v149.99z" fill="#ff8c1a"/><path d="m50.534 150.09 74.997-74.999v74.998z" fill="#db7816"/><path d="m125.441 75.093 70.996-70.994c2.156-2.156 3.752 2.176 3.752 7.744 0 12.76.25 63.25.25 63.25zm75.088 74.997 57.05-57.051v57.05zM50.534 75.093v74.997H.001v-24.463zM163.03 150.09l37.498-37.5v37.5zm0-37.499 37.497-37.498v37.498zm-37.589 37.499 37.5-37.5v37.5zM88.145 37.595l37.498-37.5v37.5zm112.294.006 37.499-37.5v37.5z" fill="#db7816"/><path d="m125.441 112.591 37.5-37.498v37.498zm74.998-37.492 37.499-37.498v37.498zm-112.294-.006 37.498-37.498v37.498zM50.558 37.595 88.056.095v37.5zm0 37.498 37.498-37.498v37.498zm187.469-37.492 19.551-19.553V37.6zm0 37.498 19.551-19.552v19.552z" fill="#db7816"/><path d="M13.188 37.601 50.685.101v37.5zm-.089 0v37.497h-13.1V50.699zm.089 37.498 37.497-37.498v37.498zM13.099.102v37.499h-13.1v-24.4z" fill="#db7816"/><g fill="#fff"><path d="M156.61 71.05c-2.261-.485-4.897-.822-7.542-.435-2.959.432-5.98 1.78-8.585 4.867-.168.2-.523.289-.842.212s-.513-.297-.46-.525a8.7 8.7 0 0 1 1.04-3.245c1.46-2.626 4.193-4.319 7.284-5.316 3.062-.987 6.477-1.287 9.345-1.13 1.1.06 2.125.186 3.024.368l1.012-3.003c.066-.196.304-.343.595-.368.293-.025.577.077.71.256l6.376 8.442c.178.235.042.523-.303.644l-.105.032-13.534 2.984c-.281.062-.588-.002-.77-.16-.181-.158-.2-.377-.046-.548z" stroke-opacity=".502" stroke="#000" stroke-width="5"/><path d="M156.609 71.05c-2.26-.485-4.897-.822-7.54-.435-2.96.432-5.98 1.78-8.586 4.867-.168.2-.523.289-.842.212s-.513-.297-.46-.525a8.7 8.7 0 0 1 1.04-3.245c1.46-2.626 4.193-4.319 7.284-5.316 3.062-.987 6.477-1.287 9.345-1.13 1.1.06 2.125.186 3.024.368l1.012-3.003c.066-.196.304-.343.596-.368s.576.077.71.256l6.375 8.442c.178.235.042.523-.303.644l-.105.032-13.534 2.984c-.281.062-.588-.002-.77-.16-.181-.158-.2-.377-.046-.548z"/></g><g fill="#fff" stroke-linejoin="round"><path d="m188.331 52.87 27.657 4.21a1.75 1.75 0 0 1 1.43 2.162l-6.451 25.192a4.08 4.08 0 0 1-4.566 3.021l-17.954-2.733a4.08 4.08 0 0 1-3.46-4.243l1.336-25.97a1.75 1.75 0 0 1 2.008-1.639zm12.488 22.534 1.753-11.523a1.749 1.749 0 1 0-3.456-.526l-1.755 11.523a1.749 1.749 0 1 0 3.458.526zm5.761.878 1.755-11.524a1.749 1.749 0 1 0-3.457-.526l-1.755 11.523a1.749 1.749 0 1 0 3.457.527zm-11.523-1.755 1.753-11.522a1.749 1.749 0 1 0-3.456-.527L191.6 74.001a1.749 1.749 0 1 0 3.457.526zm-8.14-20.104 29.96 4.56zm.35-2.304 29.962 4.56a2.332 2.332 0 0 1-.703 4.61l-29.96-4.561a2.331 2.331 0 1 1 .701-4.61zm17.773 3.295.44-2.88a.58.58 0 0 0-.489-.665l-4.61-.702a.58.58 0 0 0-.664.489l-.439 2.88zm-4.133-7.704 4.61.701a4.08 4.08 0 0 1 3.419 4.648l-.965 6.338-12.675-1.93.964-6.338a4.08 4.08 0 0 1 4.647-3.419z" stroke-opacity=".502" stroke="#000" stroke-width="6"/><path d="m188.331 52.87 27.657 4.21a1.75 1.75 0 0 1 1.43 2.162l-6.451 25.192a4.08 4.08 0 0 1-4.566 3.021l-17.954-2.733a4.08 4.08 0 0 1-3.46-4.243l1.336-25.97a1.75 1.75 0 0 1 2.008-1.639m12.488 22.534 1.753-11.523a1.749 1.749 0 1 0-3.456-.526l-1.755 11.523a1.749 1.749 0 1 0 3.458.526m5.761.878 1.755-11.524a1.749 1.749 0 1 0-3.457-.526l-1.755 11.523a1.749 1.749 0 1 0 3.457.527m-11.523-1.755 1.753-11.522a1.749 1.749 0 1 0-3.456-.527L191.6 74.001a1.749 1.749 0 1 0 3.457.526m-8.14-20.104 29.96 4.56zm.35-2.304 29.962 4.56a2.332 2.332 0 0 1-.703 4.61l-29.96-4.561a2.331 2.331 0 1 1 .701-4.61m17.773 3.296.44-2.88a.58.58 0 0 0-.489-.665l-4.61-.702a.58.58 0 0 0-.664.489l-.439 2.88zm-4.133-7.704 4.61.701a4.08 4.08 0 0 1 3.419 4.648l-.965 6.337-12.675-1.93.964-6.337a4.08 4.08 0 0 1 4.647-3.419"/></g><path d="m55.247 76.013 55.718 3.936c9.39.674 16.457 8.832 15.783 18.223-.673 9.391-8.832 16.457-18.223 15.783l-55.718-3.934c-9.39-.674-16.457-8.832-15.783-18.223.673-9.391 8.832-16.458 18.223-15.784z" fill="#ff791a" stroke-opacity=".502" stroke="#000" stroke-width="7.5"/><path d="m55.247 76.013 55.718 3.936c9.39.674 16.457 8.832 15.783 18.223-.673 9.391-8.832 16.457-18.223 15.783l-55.718-3.934c-9.39-.674-16.457-8.832-15.783-18.223.673-9.391 8.832-16.458 18.223-15.784z" fill="#ff791a" stroke="#cc6115" stroke-width="2.5"/><path d="m71.646 98.749-1.991-7.307 1.278.092 1.49 5.917 2.428-5.637 1.278.092-3.246 6.933zm11.195.994c-.388.069-.54.085-.785.067-.734-.053-1.065-.39-1.094-1.132-.856.678-1.598.94-2.497.875-1.441-.104-2.28-.984-2.188-2.277.067-.924.533-1.52 1.388-1.814.448-.146.697-.183 2.316-.272.934-.055 1.192-.214 1.24-.703l.022-.3c.049-.68-.482-1.1-1.515-1.175-1.061-.076-1.606.282-1.764 1.145l-1.143-.082c.079-.705.244-1.104.597-1.447.526-.495 1.378-.736 2.426-.66 1.754.125 2.63.872 2.54 2.137l-.3 4.19c-.026.353.177.573.571.601.069.005.123.009.247-.01zm-1.72-3.856c-.393.15-.629.188-1.85.264-1.238.09-1.754.435-1.809 1.183-.051.721.436 1.18 1.32 1.244.667.047 1.24-.13 1.732-.519.363-.288.488-.512.516-.893zm4.516-3.3-.092 1.294c.73-1.014 1.318-1.41 2.052-1.358.137.01.244.032.432.073l-.082 1.156c-1.561-.153-2.324.558-2.46 2.271l-.265 3.7-1.143-.082.51-7.129zm4.087 7.459-1.129-.081.511-7.128 1.129.08zm.608-8.489-1.142-.081.102-1.429 1.143.082zm7.634 9.271c-.387.068-.539.085-.783.067-.734-.053-1.066-.39-1.095-1.131-.855.677-1.598.938-2.496.874-1.442-.104-2.281-.984-2.189-2.276.066-.926.533-1.521 1.388-1.816.448-.145.697-.182 2.317-.271.933-.055 1.19-.215 1.24-.704l.021-.298c.049-.681-.482-1.102-1.515-1.176-1.061-.076-1.607.281-1.764 1.145l-1.143-.082c.079-.706.244-1.104.596-1.448.528-.495 1.38-.734 2.426-.66 1.755.126 2.632.873 2.54 2.138l-.3 4.19c-.025.353.178.573.573.6.067.005.122.01.246-.009zm-1.719-3.856c-.393.15-.628.189-1.85.264-1.238.089-1.755.435-1.808 1.183-.052.72.434 1.18 1.319 1.243.666.048 1.24-.13 1.733-.518.361-.289.487-.512.514-.893zm4.594-6.096-.27 3.754c.589-.765 1.309-1.082 2.288-1.012 1.89.135 2.944 1.647 2.779 3.96-.17 2.367-1.504 3.816-3.382 3.68-.992-.07-1.685-.516-2.17-1.385l-.065.912-1.02-.074.711-9.916zm1.724 3.788c-1.21-.087-2.064.946-2.183 2.618-.12 1.673.577 2.817 1.787 2.905 1.238.088 2.16-.954 2.277-2.572.122-1.7-.615-2.861-1.88-2.951m5.33 6.685-1.142-.082.71-9.916 1.144.082zm2.909-2.99c-.037.707.029 1.123.271 1.55.338.626.926.996 1.648 1.048.912.065 1.586-.379 1.966-1.295l1.142.082c-.396 1.53-1.592 2.374-3.224 2.257-2.013-.144-3.136-1.66-2.967-4.014s1.557-3.77 3.542-3.628c1.334.095 2.371.88 2.75 2.083.165.546.2 1.204.123 2.292zm4.092-.637c.092-1.278-.646-2.234-1.802-2.317-1.143-.082-2.007.717-2.197 2.03zm-67.722-4.345a8.2 8.2 0 0 1 4.35-6.692l.054-.784a2.01 2.01 0 0 1 2.141-1.866l4.627.319a2.01 2.01 0 0 1 1.866 2.142l-.055.784a8.206 8.206 0 1 1-12.983 6.097m10.289-2.523c.259.018.413-.301.244-.503l-1.816-2.191a.29.29 0 0 0-.413-.029l-2.092 1.922c-.196.177-.091.516.173.534l.924.063.19 3.036a1.014 1.014 0 0 0 .527 1.861l1.498 2.261-.7.609c-.197.173-.078.506.185.53l2.83.267a.29.29 0 0 0 .31-.27l.126-2.842c.013-.264-.304-.425-.499-.255l-.715.623-2.004-1.769a1.01 1.01 0 0 0-.323-.922l.609-2.989z" fill="#fff"/></g></svg>
