<svg xmlns="http://www.w3.org/2000/svg" viewBox="0 0 300 186" width="300px" height="186px" xmlns:bx="https://boxy-svg.com">
  <defs>
    <bx:export>
      <bx:file format="png" width="600" height="372"></bx:file>
    </bx:export>
  </defs>
  <rect width="300" height="186" style="fill: rgb(66, 84, 245); stroke: rgb(40, 55, 199); stroke-width: 32px;"></rect>
  <g style="" transform="matrix(8.59397, 0, 0, 8.59397, 72.6502, 15.6543)">
    <path d="M 9 2.222 C 3.783 2.222 0.523 7.87 3.13 12.389 C 4.34 14.485 6.58 15.778 9 15.778 C 14.218 15.778 17.48 10.13 14.869 5.611 C 13.661 3.515 11.422 2.222 9 2.222 M 9 4.481 C 12.479 4.481 14.653 8.248 12.913 11.259 C 12.106 12.658 10.616 13.519 9 13.519 C 5.522 13.519 3.35 9.752 5.087 6.741 C 5.895 5.342 7.385 4.481 9 4.481 M 9 6.741 C 7.262 6.741 6.173 8.622 7.044 10.13 C 7.448 10.828 8.193 11.259 9 11.259 C 10.74 11.259 11.827 9.378 10.956 7.87 C 10.553 7.172 9.808 6.741 9 6.741" fill="#fff" style=""></path>
  </g>
</svg>