<svg xmlns="http://www.w3.org/2000/svg" width="299.729" height="185.327" viewBox="0 0 299.729 185.327"><g stroke-miterlimit="10"><path d="M0 185V0h300v185z" fill="#e81c48"/><g fill-opacity=".102"><path d="M299.713 130.493c-.034 1.972.02 3.949-.115 5.917-1.534-.1-11.704-2.382-21.514-9.042-25.23-17.06-23.144-36.236-41.447-51.95-2.164-1.784-3.827-4.61-9.23-5.664-5.318-.985-7.212-1.13-11.63-4.902-.157-.13-15.567-14.247-18.338-17.107-8.287-8.478-8.193-10.371-12.134-14.334-13.572-13.607-8.186-11.715-38.418-28.967-3.042-1.857-.238-4.276-.238-4.276l73.373.006s.945.138 1.314.215c4.08.835 6.557 2.678 10.507 4.238.681.23 4.17 5.752 4.17 5.752s-1.51-6.954-2.264-7.287c-1.217-.639-2.05-2.9-2.05-2.9s12.946-.224 13.566.334c7.135 6.424 1.202.553 11.927 11.793 7.554 7.752 12.904 7.192 25.215 16.456 6.884 5.27 15.1 14.738 17.077 24.465.34 1.805.285 24.138.09 25.459-6.704-6.274-6.804-7.733-10.004-8.374-9.524-2.002-8.962-20.645-15.738-29.965-5.6-7.649-16.06-13.182-23.615-15.835-2.95-1.075-3.628-3.042-4.534-3.988-2.57-2.808-6.284-2.655-10.292-2.96.24.133 13.921 5.751 24.977 21.83 10.316 15.186 7.781 19.567 12.71 30.37 2.147 4.833 6.633 12.767 11.64 17.12 4.071 3.402 15.157 10.492 14.978 12.775 0 .196.067 12.062-.11 13.423-4.898-2.274-9.11-6.4-12.512-11.247-11.107-15.797-26.246-50.754-42.46-62.951-3.647-2.864-5.381-2.398-13.856-10.406-13.985-12.763-10.092-10.291-35.423-19.738-5.601-2.12-6.984-3.242-9.772-4.188-4.073-1.493-8.6-1.841-14.599-3.878-.38-.129-6.115-1.084-6.681-.232-.51.767.005 1.912 1.523 2.723 20.365 10.523 25.33 15.116 31.138 22.857 4.095 5.342 16.413 16.56 20.174 21.586 3.018 3.925 4.372 7.56 16.146 17.89 33.04 28.858 16.748 21.066 38.756 44.124 12.691 13.119 14.88 13.852 27.464 19.907.32.125.175.64.229.952"/><path d="M164.24 182.408s-14.22-18.175-27.206-23.598c-14.259-5.963-29.467-7.01-42.54-8.833-4.724-.604-7.607-3.085-16.345-4.51-.156-.025-42.238-6.485-43.276-6.25.299 1.006.812 1.888 1.324 2.75 8.315 13.58 9.58 11.907 19.226 20.69 9.156 8.416 22.614 12.486 33.348 18.805.427.25 1.838.764 1.838.764l-85.763-.035S.034 176.17.011 175.763c.068-3.156-.092-6.319.08-9.47 1.874.065 3.924.061 5.498 1.504 4.331 4.044 4.654 10.324 5.234 11.048.466.41 1.067.476 1.576.782 1.09.592 6.126 1.74 7.864 1.037 1.472-.594-.206-2.956-.526-3.548-6.816-12.424-9.307-29.615-19.64-28.2-.007-3.59-.026-7.18.01-10.771.156.073 21.362 11.501 27.32 16.159 9.31 7.55 18.809 9.976 21.816 15.477.202-4.414-4.35-10.129-31.71-30.226-5.473-4.08-10.651-10.517-17.165-12.438-.476-.09-.34-.743-.349-4.7.943-.023 1.878.196 2.823.155 5.969-.101 7.33-1.698 12.824.081 11.129 3.74 9.845 3.487 14.966 7.97-3.564-9.352-18.667-16.027-26.832-18.224-1.22-.337-2.474-.179-3.71-.28-.096-.83-.09-17.392-.014-19.27 5.219.2 8.281-1.18 15.074 6.114 5.069 5.665 8.19 14.056 11.931 19.59 9.994 14.694 16.165 7.211 24.783 11.913 15.842 9.453 19.869 4.762 38.24 4.278 10.198.016 19.78-1.484 37.84 4.966 3.864 1.441 9.981 3.403 13.93 9.467 2.247 3.322.603 3.982 8.106 6.834 4.501 1.3 25.516 11.804 30.589 15.78-5.444-11.823-10.188-9.762-37.057-30.574-4.53-3.445-9.992-8.293-16.984-12.006-5.954-3.11-12.599-6.825-17.95-8.318-3.734-1.081-7.9.066-9.575-3.2 5.024-3.16 14.645-.36 19.124.827 10.907 2.703 12.334 3.913 19.69 6.976 5.95 2.642 9.232 3.287 16.578 8.91-1.188-2.85-12.653-15.116-31.31-21.255-4.627-1.449-10.07-1.557-17.52-3.453-18.291-4.128-18.12 1.287-26.339-8.57-5.552-6.401-15.552-10.347-23.033-11.973-6.962-1.508-11.85-.397-23.872-8.12-8.363-5.645-11.126-6.545-16.818-10.377-4.842-3.18-9.702-6.613-15.132-8.004-.454-.066-.312-.727-.357-1.12.06-7.594-.08-22.093.07-25.724 3.798 7.671 14.033 3.963 24.676 18.93 4.32 6.008 5.859 11.571 6.282 17.768.228-.875.318-1.793.412-2.697 2.364-23.117-15.566-37.195-30.046-48.718-1.519-1.33-1.44-.057-1.385-5.227.091-1.465-.094-2.932.068-4.39 12.493-1.26 19.786-1.47 31.452 23.291-1.007-4.323-2.543-8.455-4.596-12.177-3.782-6.809-7.797-13.427-12.138-19.714-.233-.36-.887-2.52-.887-2.52s106.565-.819 108.046.026c5.402 3.08 8.207 4.153 10.719 5.797 11.05 7.136 19.473 20.39 26.916 27.304 11.26 10.696 20.244 11.301 27.854 14.446 6.984 2.826 10.41 7.49 13.148 10.584 4.895 5.84 9.036 6.175 13.944 9.777 10.306 7.497 17.053 21.321 24.987 31.647 6.162 8.131 2.434.804 18.46 24.468 7.38 10.901 12.521 16.507 18.842 19.914 3.222 1.655 9.366 4.46 13.14 9.458-3.274 1.38-12.184-3.211-15.334-5.026-21.902-12.585-21.196-25.444-32.048-36.25-7.758-7.495-17.853-13.914-21.229-17.522-2.977-3.13-20.564-27.116-21.787-28.464 2.972 10.05 4.552 17.273 5.483 20.6 2.814 9.712 12.296 11.433 18.712 28.606 1.349 3.715 2.423 7.143 6.051 9.674 6.597 4.716 10.752 7.278 14.837 12.361 3.872 4.659 5.97 11.181 8.997 15.112 4.664 6.028 12.3 6.082 18.325 7.147 12.981 2.171 20.563 5.076 23.73 6.019 1.317.402 2.695.45 3.994.944a1696 1696 0 0 0-.001 6.132c-3.883.236-9.974 1.962-18.998.029-9.676-2.053-13.78-6.032-20.5-12.196-4.396-4.079-13.486-11.556-18.996-10.911.432.236.888.392 1.339.577 6.948 2.897 13.733 11.694 19.035 17.846 2.92 3.577 4.424 9.367 7.517 15.554 1.987 3.973-35.571-2.134-39.55-3.975-19.01-8.796-10.579-2.988-31.804-23.788-12.111-11.992-13.395-11.744-21.145-17.56-9.052-6.638-7.876-5.798-17.694-9.858 14.546 17.237 13.409 20.45 20.601 29.656 4.135 5.207 7.802 7.529 12.248 14.923.723 1.26 2.718 8.827 2.718 8.827M30.278.159s4.38 2.78 6.13 4.984c6.598 7.562 21.756 34.58 37.122 43.327 14.088 8.196 34.979 2.712 50.817 14.404 9.471 7.133 29.507 16.022 41.985 26.915.369.313.703.72 1.15.874-3.075-5.148-3.051-6.239-15.61-19.87-6.783-7.612-9.616-9.935-14.09-15.384-3.129-3.873-5.782-8.28-14.095-19.228-9.126-12.448-10.347-15.774-34.913-24.496C81.341 8.938 76.566 9.18 64.615.627c-.534-.383-6.873-.344-6.873-.344s9.38 16.827 13.164 19.029c3.758 2.176 13.578 4.504 14.356 4.629 3.314.617 8.112-.303 12.489 2.16 5.738 3.09 13.52 5.628 15.807 13.976-5.435 1.32-26.944.471-46.036-11.978-12.06-7.803-13.989-11.821-21.706-19.523-2.953-2.944-6.597-6.24-10.448-8.145m19.789 44.17.035-.061c-.212-.102-.264-.393-.39-.593.042.286.05.61.235.826 1.17 3.13 1.826 6.505 2.995 9.636 1.563 4.24 5.77 8.999 9.227 11.574 6.618 4.963 11.356 3.05 16.755 2.849 12.14-.733 15.846 10.018 25.005 10.527 2.317.269 9.816-1.147 21.566 2.66 7.486 2.455 13.301 7.682 18.213 7.13-5.623-1.986-9.33-5.603-14.048-9.4-7.746-6.1-19.538-9.635-24.802-10.434-5.966-1.073-9.407-4.563-11.537-6.15-12.517-9.619-12.38 4.682-39.458-14.696-1.437-1.015-2.625-2.45-3.796-3.867m72.596 62.111c-.25-3.418-1.716-6.516-3.466-9.109-13.616-19.595-39.963-17.364-55.758-24.543-22.112-10.05-12.757-27.562-22.35-40.473-2.315-3.254-4.872-6.29-6.73-10-1.556-3.207-3.24-6.33-5.189-9.198C31.469 9.258 25.101.523 25.101.523L16.83.369s3.84 6.116 7.745 10.696c3.37 4.022 7.873 8.746 10.907 16.193 2.779 6.632 6.313 14.626 6.335 22.14-.528 8.088-.015 17.93-2.655 22.566-.074.133-.252.416-.029.503 2.27 1.978 7.154.316 10.615.748 21.186 3.575 23.997 16.94 33.491 18.122.05.008 16.427.308 19.312.646 14.768 1.323 20.66 13.557 25.201 14.73m1.12-18.626c-.832-1.064-1.834-2.193-3.093-2.269.994.828 1.993 1.664 3.094 2.269m27.296 27.902c6.632 5.098 11.803 4.317 14.489 4.975 14.555 3.033 33.276 26.648 56.367 40.619 9.698 6.025 13.754 9.926 24.324 17.856.125.094.282.19.435.238-3.096-2.658-6.803-8.945-8.852-12.868-6.905-13.375-8.221-22.809-12.41-30.108-7.443-13.28-17.398-13.188-23.565-24.985-2.666-4.8-5.009-6.357-6.265-8.218-5.089-6.965-8.302-28.911-14.642-36.876-4.738-6.294-12.12-8.817-16.058-11.456-9.11-5.674-11.834-13.177-20.102-20.663-12.434-10.92-26.017-27.392-41.832-34.369-.703-.31-13.987.58-13.69.662 10.565 2.942 24.375 8.742 38.985 25.578 4.31 5.3 5.438 9.46 6.774 12.672 7.482 19.364 13.218 15.217 23.482 27.104 4.038 4.58 18.913 27.182 21.975 32.176 7.945 12.88 7.134 13.498 11.03 21.164.53 1.15 1.222 2.187 1.687 3.383-2.841-1.758-3.577-3.332-14.835-7.143-23.094-8.013-21.187-13.806-28.01-18.913-7.387-5.719-12.203.213-25.78-7.962 6.364 9.234 3.203 5.522 8.128 10.05 5.509 4.876 14.398 14.006 18.365 17.083M25.03 162.65c-2.982-2.057-6.075-4.072-9.487-4.758 2.377 3.819 3.264 8.664 5.522 12.572 2.282 3.977 4.877 7.544 7.115 11.566.204.369 46.418.818 45.458.338-18.23-9.117-37.797-11.735-48.608-19.718M299.562 32.369c-3.676-6.779-4.371-8.638-11.842-16.441-9.856-10.24-16.746-10.282-25.618-15.449-.25-.146-1.116-.259-1.116-.259s17.372-.389 19.131.539c3.84 2.025 7.72 3.95 11.1 7.031 1.81 1.528 2.468 2.597 8.456 10.588.025 1.335.111 12.622-.113 13.99"/><path d="M.075 74.188c.992.313 1.937.816 2.92 1.172 9.04 3.351 11.2 3.24 16.912 7.094 2.405 1.577 6.7 5.461 10.222 7.073 4.462 2.124 9.638 2.36 15.32 5.995 9.97 6.527 20.623 21.716 36.484 22.95-2.9 1.254-3.312 2.718-7.458 2.194-.306-.018-.63-.116-.916.062.02-.038.062-.108.084-.146-3.399-.102-4.967.8-13.399-.305-8.526-1.168-12.667-6.887-18.693-11.653-7.42-5.901-10.315-3.963-12.434-4.678-3.597-1.005-4.975-5.384-13.531-12.858-3.938-3.465-10.66-8.455-15.493-8.494-.092-.653-.021-8.211-.017-8.406m63.52 80.546.049-.233c-.848-.335-3.63-1.602-4.809-2.584 1.394.377 2.715 1.131 3.923 2.053 1.839 1.017 14.275 4.283 23.336 4.586l.08.085c3.61.05 21.094 1.835 32.057 5.807 13.79 5.017 21.995 17.316 21.995 17.316l-21.943.398s-4.678-3.038-7.395-4.605c-5.37-3.284-6.165-4.721-12.105-6.739-23.81-8.029-24.75-6.953-29.938-11.644-5.036-4.556-4.936-4.13-4.98-4.57z"/></g><g fill="none" stroke="#690d20" stroke-width="7"><path d="M107.255 72.242a8.93 8.93 0 0 1-8.93-8.93V48.625a8.93 8.93 0 0 1 8.932-8.93h14.685a8.93 8.93 0 0 1 8.932 8.93v14.686a8.93 8.93 0 0 1-8.932 8.93zm11.511-7.344a4.76 4.76 0 0 0 4.762-4.762V51.8a4.76 4.76 0 0 0-4.762-4.762h-8.336a4.76 4.76 0 0 0-4.762 4.762v8.335a4.76 4.76 0 0 0 4.762 4.762zm59.024 7.344a8.93 8.93 0 0 1-8.932-8.93V48.625c0-4.933 4-8.93 8.932-8.93h14.685a8.93 8.93 0 0 1 8.932 8.93v14.686c0 4.933-4 8.93-8.932 8.93zm11.511-7.344a4.76 4.76 0 0 0 4.762-4.762V51.8a4.76 4.76 0 0 0-4.762-4.762h-8.335a4.76 4.76 0 0 0-4.763 4.762v8.335a4.76 4.76 0 0 0 4.762 4.762z"/><path d="M168.858 119.16a8.93 8.93 0 0 1 8.932-8.933h14.685a8.93 8.93 0 0 1 8.932 8.933v14.685c0 4.932-4 8.93-8.932 8.93H177.79a8.93 8.93 0 0 1-8.932-8.93zm7.345 11.51a4.76 4.76 0 0 0 4.762 4.763h8.336a4.76 4.76 0 0 0 4.762-4.762v-8.336a4.76 4.76 0 0 0-4.762-4.762h-8.335a4.76 4.76 0 0 0-4.763 4.762zM129.84 50.093h40.138v11.75h-40.137zm-21.115 61.011v-40.14h11.748v40.139zm70.535 0v-40.14h11.746v40.139zm-49.42 9.524h40.138v11.748h-40.137z"/><path d="M98.323 119.16a8.93 8.93 0 0 1 8.932-8.933h14.688c4.932.002 8.93 4 8.93 8.933v14.685a8.93 8.93 0 0 1-8.93 8.93h-14.688a8.93 8.93 0 0 1-8.932-8.93zm7.347 11.51a4.76 4.76 0 0 0 4.762 4.763h8.336a4.76 4.76 0 0 0 4.762-4.762v-8.336a4.76 4.76 0 0 0-4.762-4.762h-8.336a4.76 4.76 0 0 0-4.762 4.762z"/></g><path d="M107.255 72.242a8.93 8.93 0 0 1-8.93-8.93V48.625a8.93 8.93 0 0 1 8.932-8.93h14.685a8.93 8.93 0 0 1 8.932 8.93v14.686a8.93 8.93 0 0 1-8.932 8.93zm11.511-7.344a4.76 4.76 0 0 0 4.762-4.762V51.8a4.76 4.76 0 0 0-4.762-4.762h-8.336a4.76 4.76 0 0 0-4.762 4.762v8.335a4.76 4.76 0 0 0 4.762 4.762zm59.024 7.344a8.93 8.93 0 0 1-8.932-8.93V48.625c0-4.933 4-8.93 8.932-8.93h14.685a8.93 8.93 0 0 1 8.932 8.93v14.686c0 4.933-4 8.93-8.932 8.93zm11.511-7.344a4.76 4.76 0 0 0 4.762-4.762V51.8a4.76 4.76 0 0 0-4.762-4.762h-8.335a4.76 4.76 0 0 0-4.763 4.762v8.335a4.76 4.76 0 0 0 4.762 4.762z" fill="#fff"/><path d="M168.858 119.16a8.93 8.93 0 0 1 8.932-8.933h14.685a8.93 8.93 0 0 1 8.932 8.933v14.685c0 4.932-4 8.93-8.932 8.93H177.79a8.93 8.93 0 0 1-8.932-8.93zm7.345 11.51a4.76 4.76 0 0 0 4.762 4.763h8.336a4.76 4.76 0 0 0 4.762-4.762v-8.336a4.76 4.76 0 0 0-4.762-4.762h-8.335a4.76 4.76 0 0 0-4.763 4.762zM129.84 50.093h40.138v11.75h-40.137zm-21.115 61.011v-40.14h11.748v40.139zm70.535 0v-40.14h11.746v40.139zm-49.42 9.524h40.138v11.748h-40.137z" fill="#fff"/><path d="M98.323 119.16a8.93 8.93 0 0 1 8.932-8.933h14.688c4.932.002 8.93 4 8.93 8.933v14.685a8.93 8.93 0 0 1-8.93 8.93h-14.688a8.93 8.93 0 0 1-8.932-8.93zm7.347 11.51a4.76 4.76 0 0 0 4.762 4.763h8.336a4.76 4.76 0 0 0 4.762-4.762v-8.336a4.76 4.76 0 0 0-4.762-4.762h-8.336a4.76 4.76 0 0 0-4.762 4.762z" fill="#fff"/><path d="M110.158 135.529a4.587 4.587 0 0 1-4.587-4.587v-8.881a4.587 4.587 0 0 1 4.587-4.587h8.88a4.587 4.587 0 0 1 4.588 4.587v8.881a4.587 4.587 0 0 1-4.587 4.587zm70.534 0a4.587 4.587 0 0 1-4.587-4.587v-8.881a4.587 4.587 0 0 1 4.587-4.587h8.883a4.587 4.587 0 0 1 4.586 4.587v8.881a4.587 4.587 0 0 1-4.586 4.587zm8.883-88.589a4.587 4.587 0 0 1 4.586 4.587v8.882a4.587 4.587 0 0 1-4.586 4.587h-8.883a4.587 4.587 0 0 1-4.587-4.587v-8.882a4.587 4.587 0 0 1 4.587-4.587zm-70.536 0a4.587 4.587 0 0 1 4.587 4.587v8.882a4.587 4.587 0 0 1-4.587 4.587h-8.881a4.587 4.587 0 0 1-4.587-4.587v-8.882a4.587 4.587 0 0 1 4.587-4.587z" fill="#e81c48"/><path d="M139.325 91.517c3.104-4.23 9.805-13.347 11.747-15.837 1.04-1.336 1.771-.676 1.459.886l-2.186 10.916s6.707.542 8.916 1.02c1.335.288 2.25 2.023.856 3.945-2.992 4.122-9 11.75-10.69 14.08-1.112 1.53-2.071 1.174-1.822-.393l.311-1.954 1.434-9.028-8.869-1.108c-1.2-.15-2.133-1.192-1.156-2.527" fill="none" stroke-opacity=".502" stroke="#000" stroke-width="6"/><path d="M139.325 91.517c3.104-4.23 9.805-13.347 11.747-15.837 1.04-1.336 1.771-.676 1.459.886l-2.186 10.916s6.707.542 8.916 1.02c1.336.288 2.25 2.023.856 3.945-2.992 4.122-9 11.75-10.69 14.08-1.112 1.53-2.071 1.174-1.822-.393l.311-1.954 1.434-9.028-8.869-1.108c-1.2-.15-2.133-1.192-1.156-2.527m-63.986 22.956a2.84 2.84 0 0 1 2.829-2.828h4.952a2.84 2.84 0 0 1 2.83 2.829v4.952a2.84 2.84 0 0 1-2.83 2.83h-4.952a2.84 2.84 0 0 1-2-.831 2.84 2.84 0 0 1-.83-2zm0-16.19a2.84 2.84 0 0 1 2.829-2.83h4.952a2.84 2.84 0 0 1 2.83 2.83v4.952a2.84 2.84 0 0 1-2.83 2.829h-4.952a2.84 2.84 0 0 1-2-.83 2.84 2.84 0 0 1-.83-2zm0-16.192a2.84 2.84 0 0 1 2.829-2.829h4.952a2.84 2.84 0 0 1 2.83 2.83v4.952a2.84 2.84 0 0 1-2.83 2.829h-4.952a2.84 2.84 0 0 1-2-.83 2.84 2.84 0 0 1-.83-2zm0-16.191a2.84 2.84 0 0 1 2.829-2.83h4.952a2.84 2.84 0 0 1 2.83 2.83v4.952a2.84 2.84 0 0 1-2.83 2.83h-4.952a2.84 2.84 0 0 1-2-.831 2.84 2.84 0 0 1-.83-2z" fill="#fff"/><path d="M59.148 98.283a2.84 2.84 0 0 1 2.829-2.83h4.952a2.84 2.84 0 0 1 2.83 2.83v4.952a2.84 2.84 0 0 1-2.83 2.829h-4.952a2.84 2.84 0 0 1-2-.83 2.84 2.84 0 0 1-.83-2zm0-16.192a2.84 2.84 0 0 1 2.829-2.829h4.952a2.84 2.84 0 0 1 2.83 2.83v4.952a2.84 2.84 0 0 1-2.83 2.829h-4.952a2.84 2.84 0 0 1-2-.83 2.84 2.84 0 0 1-.83-2zm0-16.191a2.84 2.84 0 0 1 2.829-2.83h4.952a2.84 2.84 0 0 1 2.83 2.83v4.952a2.84 2.84 0 0 1-2.83 2.83h-4.952a2.84 2.84 0 0 1-2-.831 2.84 2.84 0 0 1-.83-2z" fill-opacity=".749" fill="#fff"/><path d="M42.956 82.091a2.84 2.84 0 0 1 2.83-2.829h4.952a2.84 2.84 0 0 1 2.829 2.83v4.952a2.84 2.84 0 0 1-2.83 2.829h-4.952a2.84 2.84 0 0 1-1.999-.83 2.84 2.84 0 0 1-.83-2zm0-16.191a2.84 2.84 0 0 1 2.83-2.83h4.952a2.84 2.84 0 0 1 2.829 2.83v4.952a2.84 2.84 0 0 1-2.83 2.83h-4.952a2.84 2.84 0 0 1-1.999-.831 2.84 2.84 0 0 1-.83-2z" fill-opacity=".502" fill="#fff"/><path d="M26.765 65.9a2.84 2.84 0 0 1 2.83-2.83h4.952a2.84 2.84 0 0 1 2.829 2.83v4.952a2.84 2.84 0 0 1-2.83 2.83h-4.952a2.84 2.84 0 0 1-1.999-.831 2.84 2.84 0 0 1-.83-2z" fill-opacity=".251" fill="#fff"/><path d="M225.375 119.425a2.84 2.84 0 0 1-.83 2 2.84 2.84 0 0 1-1.998.83h-4.953a2.84 2.84 0 0 1-2.829-2.829v-4.952a2.84 2.84 0 0 1 2.83-2.83h4.952a2.84 2.84 0 0 1 2.829 2.83zm0-16.191a2.84 2.84 0 0 1-.83 2 2.84 2.84 0 0 1-1.998.83h-4.953a2.84 2.84 0 0 1-2.829-2.83v-4.952a2.84 2.84 0 0 1 2.83-2.829h4.952a2.84 2.84 0 0 1 2.829 2.83zm0-16.191a2.84 2.84 0 0 1-.83 2 2.84 2.84 0 0 1-1.998.83h-4.953a2.84 2.84 0 0 1-2.829-2.83v-4.952a2.84 2.84 0 0 1 2.83-2.829h4.952a2.84 2.84 0 0 1 2.829 2.83zm0-16.191a2.84 2.84 0 0 1-.83 1.999 2.84 2.84 0 0 1-1.998.83h-4.953a2.84 2.84 0 0 1-2.829-2.829V65.9a2.84 2.84 0 0 1 2.83-2.83h4.952a2.84 2.84 0 0 1 2.829 2.83z" fill="#fff"/><path d="M241.567 103.234a2.84 2.84 0 0 1-.83 2 2.84 2.84 0 0 1-2 .83h-4.952a2.84 2.84 0 0 1-2.829-2.83v-4.952a2.84 2.84 0 0 1 2.83-2.829h4.952a2.84 2.84 0 0 1 2.829 2.83zm0-16.191a2.84 2.84 0 0 1-.83 2 2.84 2.84 0 0 1-2 .83h-4.952a2.84 2.84 0 0 1-2.829-2.83v-4.952a2.84 2.84 0 0 1 2.83-2.829h4.952a2.84 2.84 0 0 1 2.829 2.83zm0-16.191a2.84 2.84 0 0 1-.83 1.999 2.84 2.84 0 0 1-2 .83h-4.952a2.84 2.84 0 0 1-2.829-2.829V65.9a2.84 2.84 0 0 1 2.83-2.83h4.952a2.84 2.84 0 0 1 2.829 2.83z" fill-opacity=".749" fill="#fff"/><path d="M257.758 87.043a2.84 2.84 0 0 1-.83 2 2.84 2.84 0 0 1-1.999.83h-4.952a2.84 2.84 0 0 1-2.83-2.83v-4.952a2.84 2.84 0 0 1 2.83-2.829h4.952a2.84 2.84 0 0 1 2.83 2.83zm0-16.191a2.84 2.84 0 0 1-.83 1.999 2.84 2.84 0 0 1-1.999.83h-4.952a2.84 2.84 0 0 1-2.83-2.829V65.9a2.84 2.84 0 0 1 2.83-2.83h4.952a2.84 2.84 0 0 1 2.83 2.83z" fill-opacity=".502" fill="#fff"/><path d="M273.95 70.852a2.84 2.84 0 0 1-.83 1.999 2.84 2.84 0 0 1-2 .83h-4.952a2.84 2.84 0 0 1-2.83-2.829V65.9a2.84 2.84 0 0 1 2.83-2.83h4.952a2.84 2.84 0 0 1 2.83 2.83z" fill-opacity=".251" fill="#fff"/></g></svg>
