<svg xmlns="http://www.w3.org/2000/svg" viewBox="0 0 300 186">
  <rect width="300" height="186" style="fill: rgb(107, 171, 255); stroke: rgb(69, 126, 204); stroke-width: 32;"></rect>
  <g style="" transform="matrix(8.59397, 0, 0, 8.59397, 64.058296, 7.064092)">
    <path d="M 4.352 13.766 C 4.352 14.805 5.194 15.648 6.235 15.648 L 10 15.648 C 11.039 15.648 11.882 14.805 11.882 13.766 L 11.882 10 C 11.882 8.959 11.039 8.118 10 8.118 L 6.235 8.118 C 5.194 8.118 4.352 8.959 4.352 10 L 4.352 13.766 M 8.117 13.766 C 6.668 13.766 5.762 12.195 6.487 10.942 C 6.822 10.358 7.443 10 8.117 10 C 9.567 10 10.472 11.569 9.747 12.824 C 9.411 13.406 8.789 13.766 8.117 13.766 M 7.176 9.059 L 9.058 9.059 L 9.058 5.294 C 9.058 4.569 8.273 4.116 7.647 4.479 C 7.355 4.646 7.176 4.957 7.176 5.294 L 7.176 9.059 Z M 10.941 10.942 L 10.941 12.824 L 14.706 12.824 C 15.431 12.824 15.883 12.039 15.521 11.412 C 15.352 11.121 15.041 10.942 14.706 10.942 L 10.941 10.942 Z" style="fill: rgb(255, 255, 255);"></path>
  </g>
</svg>