<svg xmlns="http://www.w3.org/2000/svg" width="300" height="185" viewBox="0 0 300 185"><g stroke-miterlimit="10"><path d="M0 185V0h300v185z" fill="#196657"/><path transform="matrix(1 0 0 1.1 0 -2.2)" d="M204.75 178.868h-20.439v-26.637h19.419v-26.638h-19.418V98.291h19.72V71.32h-19.729m.008-69.199v15.43h19.419v26.637h-19.418v26.636m-69.751.495h-19.73v26.97h19.721v27.302H95.134v26.638h19.418v26.635H94.114m20.44-176.742v15.431H95.135V44.19h19.418v26.636" fill="none" stroke="#30c9ad" stroke-width="7.518"/><path transform="matrix(1 0 0 1.1 0 -2.2)" d="m230.687 2.403-.02 5.271-6.681 9.441 21.489 30.344-21.49 30.341 21.49 30.362-21.49 30.342 21.49 30.343-7.198 10.155.074 4.863m-177.738-.151-.06-4.13-6.525-10.735 21.49-30.343-21.49-30.342 21.49-30.362-21.49-30.342 21.49-30.342-6.462-9.794-.106-4.919" fill="none" stroke="#28a58c" stroke-width="12.531"/><path transform="matrix(1 0 0 1.1 0 -2.2)" d="m277.561 183.863.138-2.337.138-.134.137-.133.136-.135.136-.134.135-.133.134-.134.133-.134.132-.135.131-.133.132-.134.13-.134.128-.133.128-.134.127-.135.125-.133.125-.134.123-.134.123-.135.12-.133.122-.134.118-.134.118-.133.116-.134.115-.135.115-.133.113-.134.11-.134.11-.134.11-.133.107-.135.106-.134.104-.133.104-.134.1-.134.102-.133.098-.135.097-.134.095-.134.094-.133.093-.134.09-.135.089-.133.088-.134.086-.134.084-.133.082-.135.082-.134.079-.134.077-.133.076-.134.073-.135.072-.133.07-.134.069-.134.067-.133.065-.134.062-.135.061-.134.06-.133.057-.134.055-.134.055-.133.05-.135.05-.134.048-.134.046-.133.044-.134.042-.135.039-.133.038-.134.037-.134.033-.133.033-.135.03-.134.027-.134.026-.133.023-.134.022-.135.02-.133.018-.134.016-.134.013-.133.01-.134.012-.135.007-.134.005-.133.004-.134v-.268l-.002-.135-.005-.134-.007-.133-.009-.134-.01-.134-.014-.135-.015-.133-.017-.134-.02-.134-.021-.133-.022-.135-.026-.134-.027-.133-.03-.134-.03-.134-.033-.135-.037-.133-.037-.134-.04-.134-.04-.133-.044-.134-.044-.135-.048-.133-.048-.134-.052-.134-.053-.134-.055-.133-.057-.135-.058-.134-.06-.133-.063-.134-.064-.134-.065-.133-.069-.135-.07-.134-.071-.134-.074-.133-.074-.134-.077-.135-.08-.133-.08-.134-.08-.134-.085-.133-.085-.135-.088-.134-.087-.134-.091-.133-.092-.134-.093-.135-.095-.133-.097-.134-.099-.134-.099-.133-.1-.134-.104-.135-.103-.134-.105-.133-.108-.134-.108-.134-.11-.133-.11-.135-.113-.134-.113-.133-.116-.134-.116-.134-.118-.135-.118-.133-.12-.134-.12-.134-.122-.133-.123-.135-.125-.134-.126-.133-.126-.134-.127-.134-.129-.135-.13-.133-.129-.134-.132-.134-.131-.133-.133-.134-.134-.135-.135-.133-.135-.134-.136-.134-.137-.134-.138-.133-.138-.135-.14-.134-.139-.133-.14-.134-.14-.134-.141-.134-.143-.134-.142-.134-.143-.134-.142-.133-.143-.135-.144-.134-.145-.133-.144-.134-.144-.134-.145-.133-.146-.135-.145-.134-.146-.134-.145-.133-.146-.134-.146-.135-.146-.133-.146-.134-.146-.134-.146-.133-.146-.134-.145-.135-.146-.134-.145-.133-.146-.134-.145-.134-.145-.133-.145-.135-.143-.134-.144-.133-.143-.134-.144-.135-.143-.134-.142-.133-.143-.134-.14-.134-.141-.133-.14-.135-.14-.134-.14-.133-.138-.134-.138-.134-.137-.135-.137-.133-.136-.134-.134-.134-.135-.133-.131-.134-.134-.135-.132-.133-.13-.134-.13-.134-.129-.134-.127-.133-.127-.135-.126-.134-.125-.133-.123-.134-.123-.135-.12-.133-.121-.134-.119-.134-.118-.134-.117-.133-.115-.135-.114-.134-.113-.133-.111-.134-.11-.134-.11-.133-.106-.135-.107-.134-.104-.134-.103-.133-.102-.134-.1-.135-.099-.133-.097-.134-.095-.134-.094-.133-.093-.134-.09-.135-.09-.134-.088-.133-.085-.134-.085-.135-.082-.133-.081-.134-.08-.134-.076-.133-.077-.134-.074-.135-.072-.134-.07-.133-.068-.134-.067-.134-.066-.133-.063-.135-.06-.134-.06-.133-.058-.134-.055-.134-.054-.135-.05-.133-.05-.134-.049-.134-.046-.133-.044-.134-.041-.135-.041-.133-.037-.134-.037-.134-.034-.134-.033-.134-.03-.134-.027-.134-.026-.133-.024-.134-.022-.135-.02-.133-.017-.134-.016-.134-.014-.134-.011-.133-.011-.135-.007-.134-.005-.133-.004-.134v-.268l.002-.135.004-.134.008-.134.009-.133.01-.134.013-.135.015-.133.016-.134.02-.134.021-.133.023-.135.025-.134.028-.134.028-.133.032-.134.033-.135.035-.133.038-.134.04-.134.04-.133.044-.134.044-.135.047-.134.05-.133.05-.134.052-.134.055-.133.057-.135.059-.134.06-.133.063-.134.063-.134.066-.135.068-.133.07-.134.07-.134.074-.133.075-.135.077-.134.079-.133.08-.134.081-.134.084-.135.085-.133.088-.134.088-.134.09-.133.092-.134.093-.135.095-.133.096-.134.1-.134.098-.134.101-.133.103-.135.103-.134.106-.133.107-.134.108-.134.11-.133.11-.135.113-.134.114-.134.114-.133.116-.134.118-.135.118-.133.12-.134.12-.134.123-.133.123-.135.124-.134.126-.134.126-.133.128-.134.128-.135.128-.133.131-.134.132-.134.132-.133.131-.134.135-.135.134-.134.136-.133.137-.134.136-.134.137-.133.138-.135.14-.134.14-.133.139-.134.141-.134.14-.135.143-.133.142-.134.143-.134.142-.133.143-.135.145-.134.143-.133.145-.134.145-.134.145-.135.146-.133.144-.134.146-.134.145-.133.146-.134.146-.135.146-.133.146-.134.146-.134.146-.134.146-.133.145-.135.146-.134.145-.133.146-.134.145-.134.145-.134.145-.134.144-.134.144-.134.142-.133.144-.135.143-.134.143-.133.142-.134.14-.134.143-.133.139-.135.14-.134.139-.134.14-.133.136-.134.138-.135.136-.133.136-.134.135-.134.134-.133.134-.134.132-.135.131-.134.132-.133.129-.134.13-.134.126-.133.128-.135.125-.134.125-.133.123-.134.123-.135.12-.134.122-.133.12-.134.117-.134.116-.133.115-.135.114-.134.114-.133.112-.134.11-.134.11-.135.106-.133.106-.134.104-.134.104-.133.102-.134.1-.135.098-.133.098-.134.096-.134.094-.134.092-.133.091-.135.09-.134.087-.133.086-.134.084-.135.084-.133.08-.134.079-.134.078-.134.077-.133.073-.135.072-.134.07-.133.069-.134.066-.134.066-.133.063-.135.06-.134.061-.134.057-.133.055-.134.055-.135.052-.133.05-.134.047-.134.046-.134.044-.133.042-.135.04-.134.038-.133.036-.134.034-.135.033-.133.03-.134.028-.134.026-.134.024-.133.022-.135.02-.134.018-.133.017-.134.013-.134.012-.133.01-.135.007-.134.006-.134.003-.133.002-.134v-.135l-.003-.133-.004-.134-.007-.134-.009-.133-.01-.134-.014-.135-.014-.134-.018-.133-.018-.134-.021-.134-.022-.134-.026-.134-.027-.134-.03-.133-.03-.134-.033-.135-.035-.134-.038-.133-.039-.134-.04-.134-.045-.133-.043-.135-.048-.134-.048-.133-.052-.134-.052-.134-.055-.135-.055-.133-.06-.134-.06-.134-.062-.133-.064-.134-.066-.135-.068-.133-.07-.134-.07-.134-.073-.134-.076-.134-.076-.134-.077-.134-.082-.133-.08-.134-.084-.135-.086-.133-.087-.134-.087-.134-.092-.134-.09-.133-.094-.135-.096-.134-.095-.133-.099-.134-.099-.134-.1-.133-.104-.135-.103-.134-.105-.134-.107-.133-.109-.134-.11-.135-.11-.133-.112-.134-.113-.134-.116-.133-.115-.135-.117-.134-.119-.134-.12-.133-.121-.134-.121-.135-.123-.133-.124-.134-.126-.134-.127-.133-.127-.134-.127-.135-.13-.134-.13-.133-.132-.134-.132-.134-.132-.133-.134-.135-.135-.134-.135-.133-.136-.134-.137-.134-.137-.135-.139-.133-.138-.134-.14-.134-.14-.133-.14-.134-.141-.135-.143-.133-.141-.134-.143-.134-.143-.135-.143-.133-.144-.134-.143-.134-.145-.133-.145-.134-.145-.135-.146-.133-.145-.134-.146-.134-.145-.134-.146-.133-.146-.135-.146-.134-.146-.133-.146-.134-.146-.134-.146-.133-.145-.135-.146-.134-.145-.134-.146-.133-.145-.134-.145-.135-.144-.133-.144-.134-.144-.134-.144-.133-.143-.135-.142-.134-.143-.134-.143-.133-.14-.134-.142-.135-.14-.133-.14-.134-.14-.134-.138-.133-.138-.134-.137-.135-.136-.134-.136-.133-.134-.134-.135-.134-.133-.133-.132-.135-.132-.134-.131-.133-.13-.134-.13-.134-.127-.135-.127-.133-.125-.134-.126-.134-.124-.133-.121-.135-.121-.134-.121-.134-.12-.133-.117-.134-.118-.135-.115-.133-.114-.134-.113-.134-.112-.133-.11-.134-.11-.135-.106-.134-.107-.133-.104-.134-.103-.134-.102-.133-.101-.135-.099-.134-.097-.133-.095-.134-.095-.134-.093-.135-.09-.133-.09-.134-.088-.134-.085-.133-.085-.135-.083-.134-.082-.133-.079-.134-.076-.134-.077-.135-.074-.133-.072-.134-.07-.134-.07-.133-.066-.134-.066-.135-.063-.133-.062-.134-.059-.134-.057-.134-.056-.133-.055-.135-.05-.134-.05-.133-.05-.134-.045-.134-.044-.133-.042-.135-.04-.134-.039-.134-.036-.133-.033-.135-.033-.134-.03-.133-.03-.134-.025-.134-.024-.133-.022-.135-.02-.134-.018-.134-.017-.133-.014-.134-.01-.135-.012-.133-.008-.134-.005-.134-.003-.133-.003-.134v-.135l.004-.134.004-.133.007-.134.009-.134.01-.133.011-.135.016-.134.017-.133.02-.134.02-.135.022-.134.025-.133.028-.134.028-.134.03-.133.034-.135.035-.134.037-.133.039-.134.041-.134.043-.135.044-.133.047-.134.05-.134.05-.133.053-.134.055-.135.055-.133.059-.134.06-.134.062-.134.065-.133.066-.135.066-.134.07-.133.071-.134.074-.134.074-.134.077-.134.077-.134.081-.134.081-.133.084-.135.085-.134.087-.133.088-.134.09-.134.092-.133.092-.135.096-.134.097-.134.097-.133.1-.134.1-.135.102-.133.105-.134.105-.134.106-.133.108-.134.11-.135.11-.134.113-.133.113-.134.115-.134.116-.134.117-.134.118-.134.121-.133.12-.134.122-.135.123-.134.124-.133.125-.134.126-.134.127-.133.129-.135.13-.134.129-.133.132-.134.131-.134.132-.135.135-.133.134-.134.135-.134.136-.133.137-.134.138-.135.138-.133.138-.134.14-.134.14-.134.14-.134.141-.134.143-.134.142-.133.142-.134.143-.135.143-.133.144-.134.145-.134.143-.134.145-.133.145-.135.145-.134.146-.133.145-.134.146-.134.146-.133.146-.135.146-.134.146-.134.145-.133.146-.134.146-.135.146-.133.146-.134.145-.134.146-.134.145-.133.145-.135.144-.134.145-.133.143-.134.143-.135.144-.133.143-.134.142-.134.143-.134.14-.133.142-.135.14-.134.14-.133.14-.134.138-.134.138-.133.137-.135.137-.134.136-.134.135-.133.134-.134.133-.135.132-.133.132-.134.132-.134.13-.133.128-.134.128-.135.127-.134.126-.133.125-.134.123-.135.123-.133.12-.134.121-.134.12-.133.119-.134.116-.135.115-.134.114-.133.113-.134.112-.134.11-.133.11-.135.108-.134.106-.133.104-.134.104-.134.102-.135.1-.133.098-.134.1-.134.095-.133.093-.134.093-.135.091-.133.09-.134.087-.134.087-.135.085-.133.082-.134.081-.134.08-.133.077-.134.077-.135.073-.133.073-.134.071-.134.068-.134.067-.133.066-.135.063-.134.061-.133.06-.134.058-.134.056-.133.055-.135.051-.134.05-.134.048-.133.046-.134.044-.135.043-.133.04-.134.039-.134.036-.133.034-.135.033-.134.03-.134.028-.133.027-.134.024-.135.022-.133.02-.134.018-.134.017-.133.014-.134.01-.135.012-.134.007-.133.007-.134.003-.134.003-.133v-.135l-.004-.134-.004-.133-.007-.134-.007-.134-.011-.135-.012-.133-.016-.134-.016-.134-.019-.133-.02-.135-.023-.134-.025-.133-.027-.134-.029-.134-.03-.135-.034-.133-.035-.134-.036-.134-.04-.133-.04-.134-.043-.135-.044-.133-.047-.134-.05-.134-.05-.134-.053-.133-.055-.135-.055-.134-.059-.133-.06-.134-.062-.134-.063-.133-.066-.135-.067-.134-.07-.134-.07-.133-.073-.135-.075-.134-.077-.133-.078-.134-.08-.134-.081-.133-.083-.135-.086-.134-.087-.134-.088-.133-.09-.134-.09-.135-.094-.133-.096-.134-.095-.134-.099-.134-.099-.133-.1-.135-.103-.134-.103-.133-.105-.134-.107-.134-.107-.133-.11-.135-.11-.134-.113-.134-.113-.133-.115-.134-.116-.135-.117-.133-.119-.134-.12-.134-.12-.133-.121-.135-.124-.134-.124-.134-.124-.133-.126-.134-.128-.135-.128-.133-.13-.134-.13-.134-.131-.133-.132-.134-.132-.135-.133-.134-.135-.133-.136-.134-.136-.134-.136-.133-.138-.135-.137-.134-.14-.133-.14-.134-.139-.134-.14-.135-.142-.133-.141-.134-.143-.134-.142-.133-.142-.135-.143-.134-.145-.133-.144-.134-.145-.134-.144-.135-.145-.133-.146-.134-.144-.134-.146-.133-.145-.134-.146-.135-.146-.133-.146-.134-.146-.134-.146-.134-.146-.133-.145-.135-.146-.134-.146-.133-.145-.134-.146-.134-.145-.134-.145-.134-.145-.134-.144-.134-.144-.133-.143-.135-.143-.134-.143-.133-.143-.134-.142-.134-.142-.133-.14-.135-.141-.134-.14-.134-.139-.133-.14-.134-.137-.135-.137-.133-.137-.134-.135-.134-.135-.133-.135-.134-.133-.135-.133-.134-.131-.133-.132-.134-.13-.134-.128-.133-.129-.135-.126-.134-.126-.133-.125-.134-.124-.135-.122-.134-.122-.133-.12-.134-.12-.134-.118-.133-.117-.135-.116-.134-.114-.133-.113-.134-.112-.134-.11-.135-.11-.133-.107-.134-.107-.134-.104-.133-.103-.134-.102-.135-.101-.133-.099-.134-.098-.134-.095-.134-.095-.133-.093-.135-.091-.134-.089-.133-.088-.134-.088-.135-.083-.133-.084-.134-.08-.134-.08-.134-.078-.133-.077-.135-.073-.134-.073-.133-.071-.134-.068-.134-.067-.133-.066-.135-.064-.134-.061-.134-.06-.133-.058-.134-.054-.135-.055-.133-.052-.134-.05-.134-.049-.133-.046-.134-.044-.135-.044-.134-.04-.133-.038-.134-.036-.135-.035-.133-.033-.134-.03-.134-.028-.133-.026-.134-.025-.135-.022-.134-.022-.133-.017-.134-.017-.134-.014-.133-.01-.135-.012-.134-.007-.133-.007-.134-.003-.134-.003-.135v-.133l.003-.134.004-.134.007-.133.008-.134.011-.135.011-.133.016-.134.016-.134.019-.134.02-.134.023-.134.025-.134.026-.133.029-.134.03-.135.034-.134.035-.133.036-.134.04-.134.04-.133.043-.135.044-.134.047-.133.048-.134.05-.134.053-.135.055-.133.055-.134.058-.134.06-.133.062-.134.064-.135.066-.133.068-.134.07-.134.07-.134.073-.134.075-.134.076-.134.077-.133.08-.134.082-.135.083-.133.085-.134.087-.134.088-.134.09-.133.091-.135.093-.134.095-.133.096-.134.098-.134.1-.133.1-.135.101-.134.105-.134.105-.133.106-.134.108-.135.11-.133.11-.134.112-.134.113-.133.115-.135.115-.134.118-.134.118-.133.119-.134.12-.135.122-.133.123-.134.124-.134.126-.133.126-.134.127-.135.129-.134.128-.133.13-.134.131-.134.132-.133.132-.135.135-.134.134-.133.135-.134.136-.134.136-.135.138-.133.138-.134.14-.134.139-.133.139-.134.14-.135.142-.133.142-.134.141-.134.143-.135.143-.133.142-.134.144-.134.145-.133.144-.134.145-.135.145-.133.145-.134.146-.134.145-.134.146-.133.146-.135.146-.134.145-.133.146-.134.146-.134.146-.133.146-.135.438-.402-.08-.537M24.64 2.406l-.074 2.092.146.133.146.134.146.135.146.133.146.134.145.134.146.133.146.134.146.135.145.134.146.133.145.134.145.135.145.133.144.134.145.134.142.133.144.134.143.135.143.134.142.133.14.134.142.134.141.133.14.135.139.134.14.133.137.134.138.134.136.135.136.133.135.134.134.134.134.133.133.134.132.135.131.133.13.134.13.134.127.135.127.133.126.134.126.134.124.133.123.134.12.135.121.133.12.134.118.134.118.134.115.133.115.135.113.134.112.133.11.134.11.134.108.133.106.135.105.134.105.134.102.133.1.134.099.135.098.133.096.134.095.134.093.133.092.135.09.134.088.134.086.133.085.134.083.135.082.133.08.134.078.134.076.133.074.134.074.135.07.134.07.133.066.134.066.134.065.133.061.135.06.134.059.133.055.134.054.134.053.135.05.133.049.134.047.134.044.133.044.135.04.134.039.133.036.134.035.134.033.135.031.133.029.134.026.134.025.133.022.134.022.135.018.133.016.134.016.134.012.134.01.133.008.135.007.134.004.133.002.134v.134l-.002.133-.003.135-.007.134-.007.134-.011.133-.011.135-.015.134-.016.133-.019.134-.02.134-.021.133-.026.135-.026.134-.029.134-.03.133-.033.134-.033.135-.037.133-.039.134-.04.134-.042.133-.044.134-.047.135-.049.134-.049.133-.053.134-.055.134-.055.133-.058.135-.059.134-.061.133-.064.134-.066.134-.066.135-.069.133-.071.134-.073.134-.075.133-.075.135-.077.134-.08.133-.081.134-.084.134-.084.135-.086.133-.088.134-.09.134-.091.133-.093.134-.095.135-.095.133-.098.134-.099.134-.1.134-.102.133-.104.135-.104.134-.107.133-.107.134-.11.134-.11.134-.112.134-.113.134-.114.134-.116.133-.117.135-.117.134-.12.133-.12.134-.122.134-.123.133-.124.135-.125.134-.126.134-.126.133-.129.134-.128.135-.13.133-.132.134-.131.134-.132.133-.134.134-.134.135-.135.134-.136.133-.137.134-.137.134-.138.134-.14.134-.137.134-.141.133-.14.134-.141.135-.142.134-.142.133-.143.134-.143.134-.143.133-.142.135-.145.134-.144.133-.145.134-.145.134-.145.135-.145.133-.146.134-.146.134-.145.133-.146.134-.146.135-.146.133-.146.134-.146.134-.146.134-.146.133-.145.135-.146.134-.144.133-.146.134-.145.135-.144.133-.145.134-.144.134-.144.134-.142.133-.143.135-.143.134-.143.133-.142.134-.14.134-.141.133-.14.135-.14.134-.139.134-.137.133-.138.134-.136.135-.137.133-.135.134-.135.134-.132.133-.133.134-.132.135-.132.134-.13.133-.129.134-.128.135-.128.133-.125.134-.125.134-.124.133-.123.134-.122.135-.12.134-.121.133-.118.134-.117.134-.116.133-.115.135-.113.134-.112.133-.11.134-.11.134-.108.135-.107.133-.105.134-.103.134-.102.133-.101.134-.1.135-.098.133-.095.134-.096.134-.093.135-.091.133-.09.134-.088.134-.088.133-.085.134-.083.135-.081.133-.08.134-.077.134-.077.134-.076.133-.072.135-.072.134-.069.133-.067.134-.066.134-.063.133-.063.135-.06.134-.058.134-.055.133-.055.134-.053.135-.05.133-.05.134-.046.134-.045.133-.043.135-.04.134-.04.134-.036.133-.035.134-.033.135-.031.133-.029.134-.027.134-.024.133-.023.134-.021.135-.019.134-.016.133-.016.134-.012.134-.01.133-.008.135-.007.134-.004.133-.002.134v.27l.005.133.006.134.007.134.011.133.011.135.014.134.017.133.017.134.021.134.022.135.024.133.027.134.028.134.031.133.032.134.034.135.036.133.039.134.04.134.043.134.044.133.046.135.048.134.05.133.052.134.054.134.055.133.058.135.06.134.062.134.063.133.066.135.066.134.069.133.071.134.072.134.074.133.077.135.077.134.08.134.081.133.082.134.085.135.087.133.088.134.088.134.092.133.093.134.093.135.097.134.096.133.1.134.1.134.102.133.104.135.104.134.106.133.108.134.11.134.11.135.111.133.114.134.114.134.115.133.116.135.119.134.12.133.12.134.121.134.123.135.123.133.125.134.126.134.127.133.128.134.129.135.13.133.13.134.133.134.131.134.134.133.134.135.135.134.136.133.137.134.137.134.138.134.138.134.14.134.14.134.14.133.141.135.141.134.143.133.142.134.143.134.143.133.144.135.143.134.145.134.144.133.145.134.145.135.146.133.145.134.146.134.146.133.146.134.146.135.145.134.146.133.146.134.146.134.146.134.146.134.145.134.146.133.145.134.145.135.145.134.143.133.145.134.143.134.144.133.143.135.142.134.143.133.142.134.14.134.14.135.141.133.14.134.138.134.138.133.138.134.137.135.136.133.135.134.134.134.134.134.133.134.131.134.132.134.13.133.13.134.128.135.127.133.126.134.125.134.124.134.123.133.121.135.121.134.12.133.12.134.116.134.116.133.115.135.113.134.112.134.11.133.11.134.109.135.106.133.105.134.105.134.102.133.1.134.1.135.098.134.096.133.096.134.092.135.092.133.09.134.088.134.088.133.084.134.084.135.08.134.081.133.078.134.077.134.074.133.074.135.071.134.07.133.066.134.066.134.065.135.062.133.06.134.058.134.056.133.055.134.053.135.05.133.05.134.046.134.045.135.044.133.04.134.039.134.037.133.035.134.033.135.03.133.03.134.027.134.024.134.023.133.022.135.018.134.017.133.014.134.014.134.01.133.008.135.007.134.004.134.004.133v.134l-.003.135-.003.133-.005.134-.008.134-.011.133-.011.135-.014.134-.017.134-.017.133-.02.134-.022.135-.025.133-.026.134-.028.134-.03.133-.034.134-.033.135-.036.134-.038.133-.041.134-.042.134-.044.133-.046.135-.048.134-.05.133-.052.134-.054.134-.055.135-.058.133-.06.134-.06.134-.064.133-.066.135-.066.134-.07.133-.07.134-.072.134-.074.135-.077.133-.076.134-.08.134-.08.133-.084.134-.085.135-.085.133-.088.134-.09.134-.09.134-.093.133-.095.135-.095.134-.097.133-.099.134-.1.134-.103.133-.103.135-.104.134-.107.134-.107.133-.11.135-.109.134-.112.133-.113.134-.114.134-.115.133-.117.135-.118.134-.119.134-.12.133-.121.134-.123.135-.124.133-.126.134-.125.134-.127.133-.127.134-.13.135-.13.134-.131.133-.132.134-.132.134-.133.133-.134.135-.135.134-.136.133-.136.134-.137.135-.138.134-.139.133-.14.134-.139.134-.14.133-.142.135-.14.134-.143.133-.143.134-.142.134-.143.135-.143.133-.145.134-.144.134-.145.133-.144.134-.145.135-.146.133-.145.134-.146.134-.145.134-.146.133-.146.135-.146.134-.146.133-.146.134-.146.134-.146.134-.145.134-.146.134-.145.134-.146.133-.145.135-.144.134-.145.133-.144.134-.143.134-.143.133-.144.135-.143.134-.142.134-.142.133-.14.134-.141.135-.14.133-.14.134-.138.134-.139.133-.137.134-.137.135-.136.134-.135.133-.135.134-.133.134-.133.134-.132.134-.131.134-.131.133-.129.134-.128.135-.127.134-.127.133-.125.134-.125.134-.123.133-.12.135-.121.134-.121.133-.119.134-.117.134-.115.135-.116.133-.113.134-.112.134-.11.133-.11.134-.108.135-.108.133-.105.134-.103.134-.103.134-.101.134-.1.134-.098.134-.096.133-.095.134-.093.135-.091.133-.09.134-.088.134-.088.134-.086.133-.083.135-.081.134-.08.133-.079.134-.076.134-.075.133-.074.135-.071.134-.07.134-.067.133-.066.134-.064.135-.062.133-.06.134-.059.134-.056.133-.055.134-.052.135-.052.134-.048.133-.048.134-.043.135-.044.133-.041.134-.04.134-.037.133-.035.134-.033.135-.03.134-.03.133-.027.134-.025.134-.023.133-.022.135-.017.134-.018.133-.014.134-.014.134-.01.135-.01.133-.006.134-.004.134-.002.133v.27l.004.133.005.134.008.134.011.135.011.133.014.134.016.134.017.133.021.134.022.135.024.133.026.134.028.134.03.134.033.133.033.135.037.134.037.133.04.134.043.134.043.133.047.135.048.134.05.134.052.133.053.134.056.135.058.133.06.134.06.134.063.133.066.135.066.134.07.134.07.133.072.134.073.135.076.133.077.134.08.134.081.133.083.134.084.135.086.134.088.133.089.134.09.134.094.133.093.135.096.134.098.133.098.134.1.134.102.135.104.133.104.134.106.134.108.133.109.135.11.134.111.133.114.134.114.134.115.135.116.133.118.134.12.134.12.133.121.134.123.135.123.133.125.134.126.134.127.134.128.133.128.135.13.134.132.133.13.134.132.134.134.133.134.135.135.134.136.134.136.133.138.135.138.134.138.133.139.134.14.134.14.133.141.135.142.134.141.134.143.133.143.134.142.135.144.133.144.134.145.134.144.133.145.134.145.135.146.134.145.133.146.134.146.134.145.133.146.135.146.134.146.133.146.134.146.135.146.134.146.133.144.134.146.134.145.133.145.135.145.134.144.133.145.134.143.134.143.135.143.133.143.134.143.134.141.133.142.134.14.135.14.133.14.134.139.134.138.134.137.133.137.135.137.134.135.133.134.134.134.134.132.134.132.134.132.134.13.134.13.133.127.135.128.134.127.133.125.134.124.134.123.133.122.135.12.134.122.134.117.133.118.134.116.135.114.133.114.134.112.134.111.133.11.134.109.135.106.134.106.133.104.134.102.134.1.134.1.134.099.134.096.133.095.134.093.135.092.134.09.133.088.134.088.134.085.133.084.135.081.134.08.133.08.134.076.134.075.135.073.133.072.134.069.134.068.133.066.134.063.135.063.133.06.134.059.134.057.134.055.134.052.134.05.134.05.133.047.134.044.135.044.133.042.134.038.134.038.134.035.133.033.135.032.134.028.133.028.134.025.134.023.133.022.135.019.134.016.134.015.133.014.134.01.135.01.133.006.134.004.134.002.133.002.134-.002.135-.004.134-.005.133-.008.134-.009.135-.012.133-.014.134-.016.134-.017.133-.02.134-.022.135-.024.134-.026.133-.028.134-.03.134-.032.133-.033.135-.038.134-.037.133-.04.134-.042.134-.044.135-.046.133-.048.134-.05.134-.052.133-.053.134-.055.135-.059.133-.059.134-.06.134-.064.135-.065.133-.066.134-.069.134-.07.133-.072.134-.074.135-.077.133-.077.134-.079.134-.08.134-.083.133-.084.135-.086.134-.088.133-.088.134-.092.134-.093.133-.093.135-.096.134-.097.134-.099.133-.1.134-.102.135-.103.133-.104.134-.106.134-.107.133-.11.135-.11.134-.11.134-.114.133-.114.134-.115.135-.117.133-.118.134-.119.134-.12.133-.121.134-.123.135-.123.134-.125.133-.126.134-.127.134-.127.133-.129.135-.13.134-.131.133-.132.134-.132.134-.132.135-.134.133-.135.134-.136.134-.137.133-.137.135-.138.134-.138.133-.14.134-.14.134-.14.135-.14.133-.142.134-.142.134-.142.133-.143.134-.143.135-.142.133-.145.134-.144.134-.145.134-.145.133-.145.135-.145.134-.146.133-.146.134-.145.134-.146.133-.146.135-.146.134-.146.134-.146.133-.146.135-.146.134-.145.133-.146.134-.145.134-.146.133-.145.135-.145.134-.143.134-.144.133-.144.134-.144.135-.143.133-.142.134-.143.134-.142.133-.141.134-.14.135-.14.134-.14.133-.139.134-.138.134-.138.133-.137.135-.136.134-.135.133-.135.134-.134.135-.132.134-.133.133-.131.134-.13.134-.13.133-.128.135-.127.134-.126.133-.126.134-.125.134-.123.135-.122.133-.12.134-.121.134-.118.133-.117.134-.116.135-.116.133-.113.134-.112.134-.112.134-.11.133-.107.135-.107.134-.106.133-.103.134-.103.134-.101.134-.1.134-.098.134-.097.134-.095.133-.093.135-.092.134-.09.133-.089.134-.087.134-.085.133-.084.135-.082.134-.08.134-.079.133-.077.134-.074.135-.074.133-.071.134-.07.134-.068.133-.065.134-.066.135-.062.134-.06.133-.058.134-.057.134-.055.134-.053.134-.052.134-.048.133-.047.134-.046.135-.043.134-.04.133-.04.134-.037.134-.036.133-.033.135-.032.134-.029.133-.027.134-.026.134-.022.135-.022.133-.02.134-.016.134-.015.133-.013.134-.011.135-.01.133-.006.134-.005.134-.002.134v.269l.004.134.005.133.007.134.011.135.011.133.013.134.015.134.02.134.019.133.022.135.023.134.026.133.028.134.03.134.032.133.033.135.036.134.039.134.04.133.041.134.044.135.046.133.047.134.05.134.052.133.053.134.055.135.058.134.06.133.061.134.063.135.064.133.066.134.07.134.07.133.072.134.074.135.075.134.077.133.08.134.08.134.083.133.084.135.086.134.088.133.088.134.09.134.094.135.093.133.096.134.098.134.099.133.098.134.102.135.104.133.104.134.106.134.107.135.11.133.11.134.11.134.113.133.115.134.115.135.116.133.118.134.118.134.121.134.12.133.124.135.123.134.125.133.125.134.127.134.128.133.128.135.13.134.131.134.132.133.132.134.133.135.134.133.135.134.273 1.981.137-1.578.137.134.139.134" fill="none" stroke="#228c77" stroke-width="12.531" stroke-linejoin="bevel"/><path d="M99.627 90.496c0-27.506 22.299-49.805 49.805-49.805s49.803 22.299 49.803 49.805-22.297 49.803-49.802 49.803c-27.506 0-49.806-22.297-49.806-49.803" fill-opacity=".51"/><path d="M105.274 90.496c0-24.388 19.77-44.158 44.157-44.158s44.159 19.77 44.159 44.157-19.769 44.159-44.158 44.159-44.158-19.769-44.158-44.158" fill="#fff"/><path d="M111.122 90.496c0-21.159 17.152-38.31 38.309-38.31 21.16 0 38.311 17.152 38.311 38.309 0 21.16-17.152 38.311-38.31 38.311s-38.31-17.152-38.31-38.31" fill="#2bb39a"/><path d="m120.009 95.394 6.24-10.065 10.871 19.325 12.08-28.787 12.278 28.383 9.462-18.721 7.446 9.864" fill="none" stroke="#fff" stroke-width="5.012" stroke-linecap="round"/></g></svg>
