<svg xmlns="http://www.w3.org/2000/svg" viewBox="0 0 300 186" xmlns:bx="https://boxy-svg.com">
  <defs>
    <bx:export>
      <bx:file format="png" width="600" height="372"></bx:file>
    </bx:export>
  </defs>
  <rect width="300" height="186" style="stroke-width: 32px; stroke: rgb(216, 66, 122); fill: rgb(240, 74, 135);"></rect>
  <g style="" transform="matrix(8.59397, 0, 0, 8.59397, 72.653854, 15.654135)">
    <path xmlns="http://www.w3.org/2000/svg" d="M 11.162 10.015 C 10.358 10.819 9.765 11.233 9.299 11.391 C 9.162 10.968 8.929 10.576 8.601 10.248 C 8.262 9.92 7.871 9.687 7.447 9.538 C 7.617 9.073 8.03 8.48 8.823 7.687 C 10.728 5.771 14.115 3.432 14.761 4.078 C 15.407 4.723 13.068 8.11 11.162 10.015 Z M 7.65 13.539 C 7.335 13.844 6.929 14 6.522 14.02 L 6.522 14.03 L 6.421 14.03 C 3.698 14.128 2.509 11.046 3.444 11.369 C 4.673 11.792 5.172 11.183 5.191 11.163 C 5.872 10.516 6.969 10.516 7.65 11.163 C 8.331 11.821 8.331 12.892 7.65 13.539 Z" id="bursh-icon" style="fill: rgb(255, 255, 255);"></path>
  </g>
</svg>