<!-- Thank you to Dillon for designing this icon! -->
<svg width="28" height="28" viewBox="0 0 28 28" fill="none" xmlns="http://www.w3.org/2000/svg"><mask id="a"><path d="m10.083 15.581 0.346 -1.694 0.052 0.571v1.136c0 0.222 -0.02 0.443 -0.06 0.661l-0.252 1.386 -0.437 1.396a3.694 3.694 0 0 1 -0.255 0.614l-0.804 1.531a3.694 3.694 0 0 1 -0.389 0.594l-0.677 0.844a2.416 2.416 0 0 1 -0.569 0.52l-0.078 0.051 -0.449 0.204 0.143 0.49a3.062 3.062 0 0 0 0.759 0.8l0.166 0.121a3.694 3.694 0 0 0 1.928 0.702l0.915 0.062a3.694 3.694 0 0 0 0.832 -0.037l1.29 -0.205a3.657 3.657 0 0 0 1.243 -0.439l0.215 -0.123a2.813 2.813 0 0 0 1.098 -1.146l0.398 -0.857 0.277 -0.796 0.381 -1.143 0.277 -1.122 0.173 -1.081 0.087 -1.204 -0.052 -1.163 -0.087 -0.959 -0.346 -1.571 -0.433 -1.306 -0.692 -1.591 -0.519 -0.877 -0.208 -0.388 0.035 -0.49 0.225 -0.51 0.433 -0.551 0.606 -0.531 0.588 -0.204 0.831 -0.041 1.211 -0.122L18.839 6.95v-0.102l-0.242 -0.306 -0.467 -0.286 -1.125 -0.265 -0.865 -0.061 -0.536 -0.122 -0.294 -0.143 -0.294 -0.53 -0.415 -0.551 -0.519 -0.49 -0.779 -0.347L12.246 3.583l-0.986 0.163 -0.64 0.224 -0.709 0.571 -0.744 1.163 -0.294 1.02 -0.069 1.163 -0.052 0.592 -0.329 1.102 -0.675 1.347 -0.917 1.918 -0.9 2.836 -0.277 1.061 -0.312 2.591 -0.173 2.326 -0.208 1.143L4.839 23.273a1.677 1.677 0 0 0 0.602 -0.112l0.072 -0.028a2.094 2.094 0 0 0 0.755 -0.5l1.165 -1.206a3.694 3.694 0 0 0 0.61 -0.842l0.969 -1.837a3.694 3.694 0 0 0 0.252 -0.602z" fill="#fff"/><path cx="360" cy="175.5" rx="20" ry="19.5" fill="#000" d="M14.037 6.483A0.739 0.72 0 0 1 13.298 7.203A0.739 0.72 0 0 1 12.559 6.483A0.739 0.72 0 0 1 14.037 6.483z"/></mask><rect width="100%" height="100%" fill="#fff" mask="url(#a)"/><path d="M7.269 24.495 6.961 24.306 6.797 26.153h3.879l-1.006 -0.399 -0.164 -0.483 -0.575 -0.084 -0.985 -0.294zm5.099 0.521 -0.346 0.037L11.858 26.153h3.879l-1.006 -0.394L14.389 24.232l-0.592 0.368 -0.79 0.308z" fill="#fff"/><path d="M21.794 3.879v3.251m-1.625 -1.625h3.251" stroke="#fff" stroke-width="1.071240105540897" stroke-linecap="round"/></svg>
