<svg version="1.1" xmlns="http://www.w3.org/2000/svg" xmlns:xlink="http://www.w3.org/1999/xlink" width="300" height="186" viewBox="0,0,300,186"><g transform="translate(-90,-87)"><g stroke-miterlimit="10"><path d="M90,273v-186h300v186z" fill="#a69c63" stroke="none" stroke-width="1" stroke-linecap="butt"/><path d="M98.82628,132.83434c0,-6.45809 5.23531,-11.69339 11.69339,-11.69339c6.45809,0 11.69339,5.23531 11.69339,11.69339c0,6.45809 -5.2353,11.69339 -11.69339,11.69339c-6.45809,0 -11.69339,-5.2353 -11.69339,-11.69339z" fill="#bfb473" stroke="none" stroke-width="0" stroke-linecap="butt"/><path d="M133.1735,132.83434c0,-5.04869 4.09277,-9.14146 9.14146,-9.14146c5.04869,0 9.14145,4.09277 9.14145,9.14146c0,5.04869 -4.09277,9.14145 -9.14145,9.14145c-5.04869,0 -9.14146,-4.09276 -9.14146,-9.14145z" fill="#bfb473" stroke="none" stroke-width="0" stroke-linecap="butt"/><path d="M162.41686,132.83434c0,-3.87419 3.14065,-7.01485 7.01484,-7.01485c3.87419,0 7.01484,3.14065 7.01484,7.01485c0,3.87419 -3.14065,7.01484 -7.01484,7.01484c-3.87419,0 -7.01484,-3.14065 -7.01484,-7.01484z" fill="#bfb473" stroke="none" stroke-width="0" stroke-linecap="butt"/><path d="M186.13103,132.83434c0,-2.4648 1.99811,-4.46291 4.46291,-4.46291c2.4648,0 4.46291,1.99811 4.46291,4.46291c0,2.4648 -1.99811,4.46291 -4.46291,4.46291c-2.4648,0 -4.46291,-1.99811 -4.46291,-4.46291z" fill="#bfb473" stroke="none" stroke-width="0" stroke-linecap="butt"/><path d="M98.82628,164.25597c0,-6.45809 5.2353,-11.69339 11.69339,-11.69339c6.45809,0 11.69339,5.2353 11.69339,11.69339c0,6.45809 -5.2353,11.69339 -11.69339,11.69339c-6.45809,0 -11.69339,-5.2353 -11.69339,-11.69339z" fill="#bfb473" stroke="none" stroke-width="0" stroke-linecap="butt"/><path d="M98.82628,195.67759c0,-6.45809 5.2353,-11.69339 11.69339,-11.69339c6.45809,0 11.69339,5.2353 11.69339,11.69339c0,6.45809 -5.2353,11.69339 -11.69339,11.69339c-6.45809,0 -11.69339,-5.2353 -11.69339,-11.69339z" fill="#bfb473" stroke="none" stroke-width="0" stroke-linecap="butt"/><path d="M98.82628,227.0992c0,-6.45809 5.2353,-11.69339 11.69339,-11.69339c6.45809,0 11.69339,5.2353 11.69339,11.69339c0,6.45809 -5.2353,11.69339 -11.69339,11.69339c-6.45809,0 -11.69339,-5.2353 -11.69339,-11.69339z" fill="#bfb473" stroke="none" stroke-width="0" stroke-linecap="butt"/><path d="M133.1735,227.0992c0,-5.04869 4.09277,-9.14146 9.14146,-9.14146c5.04869,0 9.14145,4.09277 9.14145,9.14146c0,5.04869 -4.09277,9.14145 -9.14145,9.14145c-5.04869,0 -9.14146,-4.09277 -9.14146,-9.14145z" fill="#bfb473" stroke="none" stroke-width="0" stroke-linecap="butt"/><path d="M162.41686,227.0992c0,-3.87419 3.14065,-7.01485 7.01484,-7.01485c3.87419,0 7.01484,3.14066 7.01484,7.01485c0,3.87419 -3.14065,7.01484 -7.01484,7.01484c-3.87419,0 -7.01484,-3.14065 -7.01484,-7.01484z" fill="#bfb473" stroke="none" stroke-width="0" stroke-linecap="butt"/><path d="M186.13103,227.0992c0,-2.4648 1.99812,-4.46291 4.46291,-4.46291c2.4648,0 4.46291,1.99812 4.46291,4.46291c0,2.4648 -1.99811,4.46291 -4.46291,4.46291c-2.4648,0 -4.46291,-1.99811 -4.46291,-4.46291z" fill="#bfb473" stroke="none" stroke-width="0" stroke-linecap="butt"/><path d="M98.82628,103.70478c0,-6.45809 5.23531,-11.69339 11.69339,-11.69339c6.45809,0 11.69339,5.23531 11.69339,11.69339c0,6.45809 -5.2353,11.69339 -11.69339,11.69339c-6.45809,0 -11.69339,-5.2353 -11.69339,-11.69339z" fill="#bfb473" stroke="none" stroke-width="0" stroke-linecap="butt"/><path d="M133.1735,103.70478c0,-5.04869 4.09277,-9.14146 9.14146,-9.14146c5.04869,0 9.14145,4.09277 9.14145,9.14146c0,5.04869 -4.09277,9.14145 -9.14145,9.14145c-5.04869,0 -9.14146,-4.09276 -9.14146,-9.14145z" fill="#bfb473" stroke="none" stroke-width="0" stroke-linecap="butt"/><path d="M162.41686,103.70478c0,-3.87419 3.14065,-7.01485 7.01484,-7.01485c3.87419,0 7.01484,3.14065 7.01484,7.01485c0,3.87419 -3.14065,7.01484 -7.01484,7.01484c-3.87419,0 -7.01484,-3.14065 -7.01484,-7.01484z" fill="#bfb473" stroke="none" stroke-width="0" stroke-linecap="butt"/><path d="M186.13103,103.70478c0,-2.4648 1.99811,-4.46291 4.46291,-4.46291c2.4648,0 4.46291,1.99811 4.46291,4.46291c0,2.4648 -1.99811,4.46291 -4.46291,4.46291c-2.4648,0 -4.46291,-1.99811 -4.46291,-4.46291z" fill="#bfb473" stroke="none" stroke-width="0" stroke-linecap="butt"/><path d="M98.82628,255.55034c0,-6.45809 5.23531,-11.69339 11.69339,-11.69339c6.45809,0 11.69339,5.23531 11.69339,11.69339c0,6.45809 -5.2353,11.69339 -11.69339,11.69339c-6.45809,0 -11.69339,-5.2353 -11.69339,-11.69339z" fill="#bfb473" stroke="none" stroke-width="0" stroke-linecap="butt"/><path d="M133.1735,255.55034c0,-5.04869 4.09277,-9.14146 9.14146,-9.14146c5.04869,0 9.14145,4.09277 9.14145,9.14146c0,5.04869 -4.09277,9.14145 -9.14145,9.14145c-5.04869,0 -9.14146,-4.09276 -9.14146,-9.14145z" fill="#bfb473" stroke="none" stroke-width="0" stroke-linecap="butt"/><path d="M162.41686,255.55034c0,-3.87419 3.14065,-7.01485 7.01484,-7.01485c3.87419,0 7.01484,3.14065 7.01484,7.01485c0,3.87419 -3.14065,7.01484 -7.01484,7.01484c-3.87419,0 -7.01484,-3.14065 -7.01484,-7.01484z" fill="#bfb473" stroke="none" stroke-width="0" stroke-linecap="butt"/><path d="M186.13103,255.55034c0,-2.4648 1.99811,-4.46291 4.46291,-4.46291c2.4648,0 4.46291,1.99811 4.46291,4.46291c0,2.4648 -1.99811,4.46291 -4.46291,4.46291c-2.4648,0 -4.46291,-1.99811 -4.46291,-4.46291z" fill="#bfb473" stroke="none" stroke-width="0" stroke-linecap="butt"/><path d="M133.1735,195.67713c0,-5.04869 4.09277,-9.14146 9.14146,-9.14146c5.04869,0 9.14145,4.09277 9.14145,9.14146c0,5.04869 -4.09277,9.14145 -9.14145,9.14145c-5.04869,0 -9.14146,-4.09277 -9.14146,-9.14145z" fill="#bfb473" stroke="none" stroke-width="0" stroke-linecap="butt"/><path d="M162.41686,195.67713c0,-3.87419 3.14065,-7.01485 7.01484,-7.01485c3.87419,0 7.01484,3.14066 7.01484,7.01485c0,3.87419 -3.14065,7.01484 -7.01484,7.01484c-3.87419,0 -7.01484,-3.14065 -7.01484,-7.01484z" fill="#bfb473" stroke="none" stroke-width="0" stroke-linecap="butt"/><path d="M186.13103,195.67713c0,-2.4648 1.99812,-4.46291 4.46291,-4.46291c2.4648,0 4.46291,1.99812 4.46291,4.46291c0,2.4648 -1.99811,4.46291 -4.46291,4.46291c-2.4648,0 -4.46291,-1.99811 -4.46291,-4.46291z" fill="#bfb473" stroke="none" stroke-width="0" stroke-linecap="butt"/><path d="M133.1735,163.79967c0,-5.04869 4.09277,-9.14146 9.14146,-9.14146c5.04869,0 9.14145,4.09277 9.14145,9.14146c0,5.04869 -4.09277,9.14145 -9.14145,9.14145c-5.04869,0 -9.14146,-4.09277 -9.14146,-9.14145z" fill="#bfb473" stroke="none" stroke-width="0" stroke-linecap="butt"/><path d="M162.41686,163.79967c0,-3.87419 3.14065,-7.01485 7.01484,-7.01485c3.87419,0 7.01484,3.14066 7.01484,7.01485c0,3.87419 -3.14065,7.01484 -7.01484,7.01484c-3.87419,0 -7.01484,-3.14065 -7.01484,-7.01484z" fill="#bfb473" stroke="none" stroke-width="0" stroke-linecap="butt"/><path d="M186.13103,163.79967c0,-2.4648 1.99812,-4.46291 4.46291,-4.46291c2.4648,0 4.46291,1.99812 4.46291,4.46291c0,2.4648 -1.99811,4.46291 -4.46291,4.46291c-2.4648,0 -4.46291,-1.99811 -4.46291,-4.46291z" fill="#bfb473" stroke="none" stroke-width="0" stroke-linecap="butt"/><path d="M369.05588,144.52772c-6.45808,0 -11.69338,-5.2353 -11.69338,-11.69338c0,-6.45808 5.2353,-11.69339 11.69338,-11.69339c6.45808,0 11.69339,5.23531 11.69339,11.69339c0,6.45808 -5.23531,11.69338 -11.69339,11.69338z" fill="#bfb473" stroke="none" stroke-width="0" stroke-linecap="butt"/><path d="M337.26059,141.97578c-5.04869,0 -9.14145,-4.09277 -9.14145,-9.14145c0,-5.04869 4.09277,-9.14146 9.14145,-9.14146c5.04869,0 9.14145,4.09277 9.14145,9.14146c0,5.04869 -4.09276,9.14145 -9.14145,9.14145z" fill="#bfb473" stroke="none" stroke-width="0" stroke-linecap="butt"/><path d="M310.14384,139.84919c-3.8742,0 -7.01484,-3.14065 -7.01484,-7.01484c0,-3.8742 3.14065,-7.01485 7.01484,-7.01485c3.87419,0 7.01484,3.14065 7.01484,7.01485c0,3.87419 -3.14065,7.01484 -7.01484,7.01484z" fill="#bfb473" stroke="none" stroke-width="0" stroke-linecap="butt"/><path d="M288.9816,137.29725c-2.46479,0 -4.4629,-1.99811 -4.4629,-4.4629c0,-2.4648 1.99811,-4.46291 4.4629,-4.46291c2.4648,0 4.46291,1.99812 4.46291,4.46291c0,2.4648 -1.99812,4.4629 -4.46291,4.4629z" fill="#bfb473" stroke="none" stroke-width="0" stroke-linecap="butt"/><path d="M369.05588,175.94936c-6.45808,0 -11.69339,-5.2353 -11.69339,-11.69339c0,-6.45808 5.2353,-11.69339 11.69339,-11.69339c6.45808,0 11.69339,5.23531 11.69339,11.69339c0,6.45808 -5.23531,11.69339 -11.69339,11.69339z" fill="#bfb473" stroke="none" stroke-width="0" stroke-linecap="butt"/><path d="M369.05588,207.37098c-6.45808,0 -11.69339,-5.2353 -11.69339,-11.69338c0,-6.45808 5.2353,-11.6934 11.69339,-11.6934c6.45808,0 11.69339,5.23531 11.69339,11.6934c0,6.45808 -5.23531,11.69338 -11.69339,11.69338z" fill="#bfb473" stroke="none" stroke-width="0" stroke-linecap="butt"/><path d="M369.05588,238.7926c-6.45808,0 -11.69339,-5.2353 -11.69339,-11.69339c0,-6.45808 5.2353,-11.69339 11.69339,-11.69339c6.45808,0 11.69339,5.23531 11.69339,11.69339c0,6.45808 -5.23531,11.69339 -11.69339,11.69339z" fill="#bfb473" stroke="none" stroke-width="0" stroke-linecap="butt"/><path d="M337.26059,236.24066c-5.04869,0 -9.14145,-4.09277 -9.14145,-9.14145c0,-5.04869 4.09277,-9.14145 9.14145,-9.14145c5.04869,0 9.14145,4.09277 9.14145,9.14145c0,5.04869 -4.09277,9.14145 -9.14145,9.14145z" fill="#bfb473" stroke="none" stroke-width="0" stroke-linecap="butt"/><path d="M310.14384,234.11406c-3.87419,0 -7.01485,-3.14065 -7.01485,-7.01484c0,-3.87419 3.14066,-7.01485 7.01485,-7.01485c3.87419,0 7.01484,3.14066 7.01484,7.01485c0,3.87419 -3.14066,7.01484 -7.01484,7.01484z" fill="#bfb473" stroke="none" stroke-width="0" stroke-linecap="butt"/><path d="M288.9816,231.56212c-2.46479,0 -4.4629,-1.99811 -4.4629,-4.46291c0,-2.4648 1.99811,-4.46291 4.4629,-4.46291c2.4648,0 4.46292,1.99812 4.46292,4.46291c0,2.4648 -1.99812,4.46291 -4.46292,4.46291z" fill="#bfb473" stroke="none" stroke-width="0" stroke-linecap="butt"/><path d="M369.05588,115.39816c-6.45808,0 -11.69338,-5.2353 -11.69338,-11.69338c0,-6.45808 5.2353,-11.69339 11.69338,-11.69339c6.45808,0 11.69339,5.23531 11.69339,11.69339c0,6.45808 -5.23531,11.69338 -11.69339,11.69338z" fill="#bfb473" stroke="none" stroke-width="0" stroke-linecap="butt"/><path d="M337.26059,112.84622c-5.04869,0 -9.14145,-4.09277 -9.14145,-9.14145c0,-5.04869 4.09277,-9.14146 9.14145,-9.14146c5.04869,0 9.14145,4.09277 9.14145,9.14146c0,5.04869 -4.09276,9.14145 -9.14145,9.14145z" fill="#bfb473" stroke="none" stroke-width="0" stroke-linecap="butt"/><path d="M310.14384,110.71963c-3.8742,0 -7.01484,-3.14065 -7.01484,-7.01484c0,-3.8742 3.14065,-7.01485 7.01484,-7.01485c3.87419,0 7.01484,3.14065 7.01484,7.01485c0,3.87419 -3.14065,7.01484 -7.01484,7.01484z" fill="#bfb473" stroke="none" stroke-width="0" stroke-linecap="butt"/><path d="M288.9816,108.1677c-2.46479,0 -4.4629,-1.99811 -4.4629,-4.4629c0,-2.4648 1.99811,-4.46291 4.4629,-4.46291c2.4648,0 4.46291,1.99812 4.46291,4.46291c0,2.4648 -1.99812,4.4629 -4.46291,4.4629z" fill="#bfb473" stroke="none" stroke-width="0" stroke-linecap="butt"/><path d="M369.05588,267.24372c-6.45808,0 -11.69338,-5.2353 -11.69338,-11.69338c0,-6.45808 5.2353,-11.69339 11.69338,-11.69339c6.45808,0 11.69339,5.23531 11.69339,11.69339c0,6.45808 -5.23531,11.69338 -11.69339,11.69338z" fill="#bfb473" stroke="none" stroke-width="0" stroke-linecap="butt"/><path d="M337.26059,264.69179c-5.04869,0 -9.14145,-4.09277 -9.14145,-9.14145c0,-5.04869 4.09277,-9.14146 9.14145,-9.14146c5.04869,0 9.14145,4.09277 9.14145,9.14146c0,5.04869 -4.09276,9.14145 -9.14145,9.14145z" fill="#bfb473" stroke="none" stroke-width="0" stroke-linecap="butt"/><path d="M310.14384,262.5652c-3.8742,0 -7.01484,-3.14065 -7.01484,-7.01484c0,-3.8742 3.14065,-7.01485 7.01484,-7.01485c3.87419,0 7.01484,3.14065 7.01484,7.01485c0,3.87419 -3.14065,7.01484 -7.01484,7.01484z" fill="#bfb473" stroke="none" stroke-width="0" stroke-linecap="butt"/><path d="M288.9816,260.01326c-2.46479,0 -4.4629,-1.99811 -4.4629,-4.4629c0,-2.4648 1.99811,-4.46291 4.4629,-4.46291c2.4648,0 4.46291,1.99812 4.46291,4.46291c0,2.4648 -1.99812,4.4629 -4.46291,4.4629z" fill="#bfb473" stroke="none" stroke-width="0" stroke-linecap="butt"/><path d="M337.26059,204.81859c-5.04869,0 -9.14145,-4.09277 -9.14145,-9.14145c0,-5.04869 4.09277,-9.14145 9.14145,-9.14145c5.04869,0 9.14145,4.09277 9.14145,9.14145c0,5.04869 -4.09277,9.14145 -9.14145,9.14145z" fill="#bfb473" stroke="none" stroke-width="0" stroke-linecap="butt"/><path d="M310.14384,202.69199c-3.87419,0 -7.01485,-3.14065 -7.01485,-7.01484c0,-3.87419 3.14066,-7.01485 7.01485,-7.01485c3.87419,0 7.01484,3.14066 7.01484,7.01485c0,3.87419 -3.14066,7.01484 -7.01484,7.01484z" fill="#bfb473" stroke="none" stroke-width="0" stroke-linecap="butt"/><path d="M288.9816,200.14005c-2.46479,0 -4.4629,-1.99811 -4.4629,-4.46291c0,-2.4648 1.99811,-4.46291 4.4629,-4.46291c2.4648,0 4.46292,1.99812 4.46292,4.46291c0,2.4648 -1.99812,4.46291 -4.46292,4.46291z" fill="#bfb473" stroke="none" stroke-width="0" stroke-linecap="butt"/><path d="M337.26059,172.94113c-5.04869,0 -9.14145,-4.09277 -9.14145,-9.14145c0,-5.04869 4.09277,-9.14145 9.14145,-9.14145c5.04869,0 9.14145,4.09277 9.14145,9.14145c0,5.04869 -4.09277,9.14145 -9.14145,9.14145z" fill="#bfb473" stroke="none" stroke-width="0" stroke-linecap="butt"/><path d="M310.14384,170.81453c-3.87419,0 -7.01485,-3.14065 -7.01485,-7.01484c0,-3.87419 3.14066,-7.01485 7.01485,-7.01485c3.87419,0 7.01484,3.14066 7.01484,7.01485c0,3.87419 -3.14066,7.01484 -7.01484,7.01484z" fill="#bfb473" stroke="none" stroke-width="0" stroke-linecap="butt"/><path d="M288.9816,168.26259c-2.46479,0 -4.4629,-1.99811 -4.4629,-4.46291c0,-2.4648 1.99811,-4.46291 4.4629,-4.46291c2.4648,0 4.46292,1.99812 4.46292,4.46291c0,2.4648 -1.99812,4.46291 -4.46292,4.46291z" fill="#bfb473" stroke="none" stroke-width="0" stroke-linecap="butt"/><path d="M276.73751,226.04723c-1.72196,-0.18393 -2.96876,-1.72895 -2.78484,-3.45091l9.07517,-84.96218c0.18393,-1.72195 1.72895,-2.96877 3.45091,-2.78485l84.96218,9.07517c1.72196,0.18393 2.96876,1.72895 2.78484,3.45092l-9.07517,84.96218c-0.18393,1.72195 -1.72895,2.96876 -3.45091,2.78484z" fill="none" stroke="#ffffff" stroke-width="7.5" stroke-linecap="butt"/><path d="M276.73751,226.04723c-1.72196,-0.18393 -2.96876,-1.72895 -2.78484,-3.45091l9.07517,-84.96218c0.18393,-1.72195 1.72895,-2.96877 3.45091,-2.78485l84.96218,9.07517c1.72196,0.18393 2.96876,1.72895 2.78484,3.45092l-9.07517,84.96218c-0.18393,1.72195 -1.72895,2.96876 -3.45091,2.78484z" fill="none" stroke="#568c56" stroke-width="2.5" stroke-linecap="butt"/><path d="M276.73751,226.04723c-1.72196,-0.18393 -2.96876,-1.72895 -2.78484,-3.45092l9.07516,-84.96218c0.18393,-1.72195 1.72895,-2.96876 3.45092,-2.78484l84.96218,9.07517c1.72196,0.18393 2.96876,1.72895 2.78484,3.45091l-9.07517,84.96218c-0.18393,1.72195 -1.72895,2.96877 -3.45092,2.78485z" fill="#9aff99" stroke="none" stroke-width="0" stroke-linecap="butt"/><path d="M363.9051,229.70574l-4.47777,3.6135" fill="none" stroke="#575e75" stroke-width="0.5" stroke-linecap="round"/><path d="M363.86852,231.90173l-2.16665,1.74847" fill="none" stroke="#575e75" stroke-width="0.5" stroke-linecap="round"/><path d="M123.13187,237.11479c-1.70922,0.27836 -3.32049,-0.88159 -3.59886,-2.59083l-13.73446,-84.33443c-0.27836,-1.70922 0.88159,-3.3205 2.59083,-3.59886l84.33442,-13.73446c1.70922,-0.27836 3.32049,0.88159 3.59885,2.59083l13.73447,84.33443c0.27836,1.70922 -0.88159,3.32049 -2.59083,3.59886z" fill="none" stroke="#ffffff" stroke-width="7.5" stroke-linecap="butt"/><path d="M123.13187,237.11479c-1.70922,0.27836 -3.32049,-0.88159 -3.59886,-2.59083l-13.73446,-84.33443c-0.27836,-1.70922 0.88159,-3.3205 2.59083,-3.59886l84.33442,-13.73446c1.70922,-0.27836 3.32049,0.88159 3.59885,2.59083l13.73447,84.33443c0.27836,1.70922 -0.88159,3.32049 -2.59083,3.59886z" fill="none" stroke="#8c5687" stroke-width="2.5" stroke-linecap="butt"/><path d="M123.13186,237.11478c-1.70922,0.27836 -3.32049,-0.88159 -3.59886,-2.59083l-13.73447,-84.33443c-0.27836,-1.70922 0.88159,-3.32049 2.59083,-3.59886l84.33443,-13.73446c1.70922,-0.27836 3.32049,0.88159 3.59886,2.59083l13.73447,84.33443c0.27836,1.70922 -0.88159,3.3205 -2.59083,3.59886z" fill="#ffa6f6" stroke="none" stroke-width="0" stroke-linecap="butt"/><path d="M107.71707,161.96995l-1.92331,-11.80977c-0.27571,-1.69302 0.89431,-3.29243 2.61334,-3.57239l84.29896,-13.72868c1.71903,-0.27995 3.3361,0.86555 3.61181,2.55857l1.90213,11.67979z" fill="#e394db" stroke="none" stroke-width="0" stroke-linecap="butt"/><path d="M107.88074,162.3195l90.34213,-14.71285" fill="none" stroke="#8c5687" stroke-width="1" stroke-linecap="round"/><path d="M144.94129,184.33034c0.16265,0.89856 0.2635,1.7975 0.30255,2.69679c0.0385,0.89629 0.05265,1.78616 0.04242,2.66962c-0.00427,0.23277 -0.00579,0.6089 -0.00456,1.12837c0.00069,0.51647 -0.0078,1.09337 -0.02544,1.7307c-0.01466,0.63679 -0.0522,1.30093 -0.11264,1.99241c-0.06044,0.69148 -0.15119,1.32658 -0.27224,1.90529c-0.11807,0.57818 -0.2769,1.06783 -0.47651,1.46899c-0.19715,0.39761 -0.44549,0.62352 -0.74502,0.67774c-0.29953,0.05421 -0.61567,-0.04321 -0.94845,-0.29232c-0.32978,-0.24965 -0.65269,-0.58096 -0.96873,-0.99395c-0.31359,-0.41653 -0.61923,-0.89171 -0.91693,-1.42556c-0.2977,-0.53385 -0.56641,-1.05285 -0.80614,-1.55698c-0.23728,-0.50767 -0.4452,-0.97271 -0.62374,-1.39511c-0.17608,-0.42594 -0.30692,-0.74717 -0.39252,-0.96369c-0.02466,0.20553 -0.06262,0.53412 -0.11389,0.98575c-0.04881,0.44809 -0.12232,0.95633 -0.2205,1.52473c-0.09873,0.5654 -0.21775,1.14683 -0.35707,1.74433c-0.13932,0.59749 -0.29875,1.15223 -0.47829,1.66419c-0.17655,0.51143 -0.37999,0.94266 -0.61032,1.29369c-0.23033,0.35103 -0.48777,0.55229 -0.77232,0.60379c-0.37441,0.06777 -0.7337,-0.03733 -1.07789,-0.31529c-0.34418,-0.27796 -0.66025,-0.65692 -0.94819,-1.13686c-0.28848,-0.48293 -0.55758,-1.02969 -0.80731,-1.64029c-0.25027,-0.61358 -0.46896,-1.2236 -0.65607,-1.83007c-0.18765,-0.60945 -0.35273,-1.17969 -0.49525,-1.7107c-0.14252,-0.53102 -0.24973,-0.95242 -0.32163,-1.26421c-0.17505,-0.71072 -0.34439,-1.40702 -0.50803,-2.08886c-0.16063,-0.6824 -0.30602,-1.38302 -0.43614,-2.10187c-0.04608,-0.2546 -0.10149,-0.60339 -0.16621,-1.0464c-0.06526,-0.446 -0.08847,-0.89035 -0.06961,-1.33301c0.02132,-0.4462 0.10331,-0.84773 0.24598,-1.20454c0.14512,-0.36035 0.40965,-0.59074 0.79361,-0.69118c0.32677,-0.07461 0.63571,0.00867 0.92684,0.24984c0.29113,0.24117 0.56188,0.58347 0.81228,1.0269c0.24986,0.44044 0.47503,0.94102 0.67552,1.50174c0.20294,0.55719 0.37867,1.10075 0.52717,1.63067c0.1515,0.52939 0.2754,1.01736 0.37171,1.46393c0.0963,0.44657 0.15594,0.77604 0.17892,0.98843l0.08326,0.58814c0.00968,-0.20282 0.03199,-0.52394 0.06692,-0.96333c0.03792,-0.43994 0.09125,-0.93989 0.16004,-1.49986c0.06823,-0.56297 0.14451,-1.14132 0.22884,-1.73503c0.08677,-0.59726 0.19296,-1.147 0.3186,-1.64921c0.12564,-0.50221 0.26563,-0.92505 0.42,-1.26852c0.15383,-0.34646 0.32672,-0.5448 0.5187,-0.59502c0.25189,-0.06105 0.5216,0.04479 0.80916,0.31753c0.29055,0.27221 0.57423,0.64311 0.85102,1.1127c0.27925,0.46605 0.54931,0.99253 0.81022,1.57944c0.26091,0.58692 0.49908,1.15937 0.71455,1.7174c0.21791,0.55448 0.39885,1.05843 0.54278,1.51185c0.14394,0.45342 0.24851,0.77475 0.31369,0.96403c-0.02839,-0.24233 -0.05927,-0.62651 -0.09261,-1.15253c-0.03389,-0.52901 -0.0559,-1.12052 -0.066,-1.77447c-0.01065,-0.65696 0.00173,-1.332 0.03711,-2.02513c0.03784,-0.69667 0.11145,-1.34104 0.22082,-1.93311c0.10937,-0.59207 0.26711,-1.08772 0.47325,-1.48696c0.2056,-0.40224 0.47314,-0.63317 0.80261,-0.69281c0.37441,-0.06777 0.69643,0.00232 0.96607,0.21026c0.26909,0.20495 0.48805,0.47465 0.65685,0.80911c0.16827,0.33147 0.30208,0.68618 0.40143,1.06415c0.09881,0.37497 0.17125,0.68975 0.21733,0.94435zM152.61286,197.23307c-0.76378,0.13825 -1.46681,0.05671 -2.1091,-0.24464c-0.64229,-0.30134 -1.21504,-0.73128 -1.71828,-1.28979c-0.50324,-0.55851 -0.92187,-1.20504 -1.25589,-1.93957c-0.33457,-0.73753 -0.56963,-1.48069 -0.70517,-2.22951c-0.14367,-0.79374 -0.19461,-1.63056 -0.15281,-2.51046c0.04126,-0.88289 0.20117,-1.70837 0.47975,-2.47646c0.27803,-0.77108 0.6917,-1.43371 1.241,-1.98786c0.54876,-0.55715 1.25744,-0.91434 2.12606,-1.07157c0.83867,-0.15181 1.5945,-0.05197 2.26751,0.29949c0.67546,0.34792 1.25472,0.83081 1.73776,1.44867c0.4825,0.61486 0.87182,1.31309 1.16797,2.09469c0.29614,0.7816 0.48682,1.53591 0.57201,2.2629c0.09875,0.80186 0.11947,1.62559 0.06217,2.47117c-0.0543,0.84503 -0.21785,1.62478 -0.49066,2.33924c-0.27281,0.71446 -0.67214,1.32807 -1.19799,1.84087c-0.52585,0.51279 -1.20062,0.84373 -2.02431,0.99282zM150.99957,187.03857c-0.22464,0.04066 -0.40214,0.19652 -0.53248,0.46759c-0.12735,0.27053 -0.21676,0.58831 -0.26823,0.95336c-0.04847,0.36451 -0.06796,0.74388 -0.05847,1.13811c0.00896,0.39124 0.03917,0.72914 0.09069,1.01369c0.06506,0.35943 0.16849,0.74284 0.31028,1.15025c0.1448,0.40686 0.30909,0.77617 0.49287,1.10792c0.18325,0.32875 0.38138,0.5945 0.59439,0.79722c0.21547,0.19919 0.43553,0.27844 0.66016,0.23779c0.23961,-0.04337 0.42446,-0.19283 0.55453,-0.44838c0.13306,-0.25608 0.22084,-0.56585 0.26332,-0.92927c0.04248,-0.36342 0.04905,-0.75438 0.0197,-1.17286c-0.02989,-0.42147 -0.07737,-0.81192 -0.14243,-1.17135c-0.05964,-0.32948 -0.15519,-0.68648 -0.28666,-1.07101c-0.13201,-0.38753 -0.28611,-0.74321 -0.46227,-1.06706c-0.17317,-0.32439 -0.36696,-0.58318 -0.58134,-0.77637c-0.21139,-0.19374 -0.42941,-0.27028 -0.65405,-0.22962zM169.75539,193.7589c-0.47924,0.08675 -0.95663,-0.08979 -1.43218,-0.52957c-0.47257,-0.44033 -0.91536,-0.98968 -1.3284,-1.64804c-0.41358,-0.66136 -0.78249,-1.34937 -1.10674,-2.06401c-0.32124,-0.71519 -0.57153,-1.31176 -0.75084,-1.78971c-0.06559,0.32121 -0.16092,0.7174 -0.28598,1.18858c-0.12207,0.47064 -0.27152,0.96943 -0.44835,1.49637c-0.17384,0.52641 -0.36634,1.06083 -0.57749,1.60327c-0.21169,0.53944 -0.44403,1.03313 -0.69703,1.48106c-0.25001,0.4474 -0.51507,0.82018 -0.79518,1.11835c-0.27711,0.29763 -0.56544,0.47355 -0.86496,0.52777c-0.40436,0.07319 -0.79603,-0.05698 -1.17501,-0.39051c-0.376,-0.33408 -0.72575,-0.79664 -1.04927,-1.38768c-0.32352,-0.59105 -0.6263,-1.25545 -0.90832,-1.99321c-0.27902,-0.7383 -0.52511,-1.48256 -0.73825,-2.23279c-0.21313,-0.75024 -0.39432,-1.45212 -0.54354,-2.10565c-0.14923,-0.65352 -0.26044,-1.18248 -0.33363,-1.58682c-0.06777,-0.37441 -0.11486,-0.73709 -0.14126,-1.08804c-0.02341,-0.3515 -0.0041,-0.67205 0.05793,-0.96169c0.06503,-0.29017 0.19127,-0.53265 0.37873,-0.72745c0.18992,-0.19833 0.46459,-0.33002 0.82402,-0.39507c0.34446,-0.06235 0.66253,0.01155 0.95422,0.22168c0.29469,0.2096 0.5618,0.50616 0.80136,0.88969c0.23901,0.38052 0.45784,0.8204 0.65646,1.31959c0.19809,0.4962 0.37533,1.00545 0.53175,1.52776c0.15586,0.51931 0.28982,1.02867 0.40188,1.52807c0.1145,0.49587 0.21178,0.92216 0.29181,1.27889c0.03293,-0.33076 0.09056,-0.73868 0.17289,-1.22378c0.08178,-0.4881 0.1734,-1.00735 0.27483,-1.55778c0.10089,-0.55341 0.22057,-1.10559 0.35904,-1.65653c0.14145,-0.55147 0.29091,-1.05026 0.44835,-1.49637c0.16044,-0.44665 0.32994,-0.8176 0.5085,-1.11285c0.17856,-0.29526 0.37267,-0.46186 0.58234,-0.49981l0.02247,-0.00407c0.26956,-0.04879 0.5547,0.03106 0.85538,0.23957c0.30068,0.20851 0.60742,0.49325 0.92024,0.85423c0.31281,0.36098 0.62094,0.78158 0.9244,1.26181c0.30292,0.47723 0.5925,0.96615 0.86871,1.46677c0.27568,0.49763 0.52645,0.98585 0.75232,1.46465c0.22532,0.4758 0.41545,0.88528 0.57036,1.22845c-0.06364,-0.43702 -0.12981,-0.93081 -0.19854,-1.48135c-0.06926,-0.55355 -0.11362,-1.11471 -0.13304,-1.68347c-0.01644,-0.5693 -0.00171,-1.12876 0.04419,-1.67842c0.04889,-0.55019 0.14104,-1.04943 0.27642,-1.49773c0.13485,-0.45129 0.3328,-0.82738 0.59386,-1.1283c0.26351,-0.30445 0.59744,-0.49327 1.00179,-0.56646c0.41933,-0.07591 0.75591,0.01475 1.00972,0.27196c0.25627,0.25367 0.42234,0.59017 0.49825,1.00951c0.08132,0.44929 0.13286,1.05863 0.15458,1.82804c0.02472,0.76887 0.01916,1.60972 -0.01668,2.52256c-0.03638,0.90986 -0.10557,1.83493 -0.20758,2.77521c-0.09956,0.93675 -0.24153,1.79302 -0.42591,2.56879c-0.18438,0.77578 -0.40732,1.42399 -0.66883,1.9446c-0.26204,0.51762 -0.56528,0.80761 -0.90974,0.86996zM177.63593,182.30994c0.04337,0.23961 0.08749,0.56881 0.13236,0.98757c0.04432,0.41577 0.07937,0.86569 0.10512,1.34978c0.02522,0.48111 0.02511,0.97606 -0.00034,1.48489c-0.02299,0.50528 -0.07332,0.97067 -0.15096,1.39614c-0.0782,0.42248 -0.19963,0.777 -0.36429,1.06356c-0.1652,0.28356 -0.3826,0.44974 -0.65217,0.49853c-0.32948,0.05964 -0.64003,-0.04965 -0.93167,-0.32785c-0.28919,-0.28174 -0.55843,-0.65834 -0.80772,-1.12981c-0.24684,-0.47501 -0.47075,-1.01139 -0.67175,-1.60914c-0.20101,-0.59777 -0.37738,-1.18761 -0.52911,-1.76953c-0.15228,-0.58492 -0.27818,-1.12668 -0.37771,-1.62526c-0.09707,-0.50211 -0.17001,-0.88795 -0.2188,-1.15753c-0.04879,-0.26956 -0.11033,-0.60952 -0.18461,-1.01987c-0.07482,-0.41335 -0.13628,-0.8554 -0.18436,-1.32616c-0.0451,-0.47131 -0.06842,-0.94192 -0.06996,-1.41183c0.00092,-0.47345 0.04986,-0.91229 0.14682,-1.31651c0.09696,-0.40422 0.25936,-0.74605 0.48718,-1.02547c0.22729,-0.28242 0.54311,-0.46023 0.94746,-0.53342c0.35943,-0.06506 0.68238,0.03579 0.96885,0.30255c0.28893,0.26323 0.54797,0.62621 0.77711,1.08895c0.2316,0.45921 0.43457,0.98237 0.6089,1.56948c0.17732,0.58658 0.32879,1.16701 0.45439,1.74129c0.12806,0.57075 0.23232,1.10404 0.31279,1.59988c0.08347,0.49529 0.15095,0.88522 0.20246,1.16977zM178.75429,190.9236c0.04608,0.2546 0.0263,0.48709 -0.05936,0.69747c-0.0862,0.20739 -0.21525,0.3916 -0.38717,0.55265c-0.17138,0.16403 -0.36397,0.29634 -0.57776,0.39691c-0.21381,0.10056 -0.43302,0.17118 -0.65766,0.21184c-0.32948,0.05964 -0.6597,0.02971 -0.99066,-0.0898c-0.33043,-0.11651 -0.52952,-0.36196 -0.59729,-0.73637c-0.04066,-0.22464 -0.0149,-0.4412 0.07728,-0.64967c0.09464,-0.21201 0.2271,-0.40302 0.3974,-0.57305c0.17029,-0.17003 0.36398,-0.31336 0.58106,-0.42998c0.22007,-0.11717 0.43494,-0.19473 0.64461,-0.23268c0.34446,-0.06235 0.67467,-0.03242 0.99066,0.0898c0.31544,0.11922 0.50842,0.37352 0.5789,0.7629z" fill="#000000" stroke="none" stroke-width="1" stroke-linecap="square"/><text transform="translate(135.60316,149.29084) rotate(-9.24905) scale(0.14653,0.14653)" font-size="40" xml:space="preserve" fill="#575e75" stroke="#575e75" stroke-width="1.5" stroke-linecap="butt" font-family="Sans Serif" font-weight="400" text-anchor="start"><tspan x="0" dy="0">A</tspan></text><text transform="translate(139.97511,151.24106) rotate(-9.24791) scale(0.12712,0.12712)" font-size="45" xml:space="preserve" fill="#575e75" stroke="#575e75" stroke-width="1.4" stroke-linecap="butt" font-family="Comic Sans Ms" font-weight="400" text-anchor="start"><tspan x="0" dy="0">B</tspan></text><text transform="translate(143.43638,154.14861) rotate(-9.24877) scale(0.14431,0.14431)" font-size="40" xml:space="preserve" fill="#575e75" stroke="#575e75" stroke-width="1.5" stroke-linecap="butt" font-family="Arial" font-weight="400" text-anchor="start"><tspan x="0" dy="0">C</tspan></text><path d="M129.90978,146.22675c0.13291,0.43897 0.0752,1.21601 -0.11119,1.76838c-0.30743,0.94056 -0.25802,1.05535 0.437,1.74052c0.43691,0.42015 0.8585,0.9349 0.92739,1.16933c0.0988,0.22956 0.5545,0.95372 1.00533,1.64796c1.08046,1.54359 1.13405,1.87264 0.44955,2.38331c-0.76449,0.5851 -1.17216,0.34444 -1.35729,-0.79228c-0.31178,-1.91444 -0.67073,-1.85598 -2.92174,0.53724c-1.18532,1.20636 -2.33519,2.2534 -2.60441,2.29724c-0.688,0.11205 -4.59361,-2.75243 -4.70567,-3.44043c-0.12178,-0.74782 3.1384,-6.56029 3.80691,-6.79197c0.28939,-0.10855 0.84731,-0.07658 1.23549,0.04443c0.55235,0.18639 0.81184,0.08273 1.3572,-0.52809c0.96551,-1.04772 2.19126,-1.06311 2.48143,-0.03564zM127.94389,146.9768c-0.27058,0.41255 -0.21143,0.58716 0.27556,0.93774c0.52177,0.37563 0.61151,0.361 0.78748,-0.06683c0.1106,-0.26367 0.18708,-0.73671 0.13837,-1.03585c-0.1023,-0.62816 -0.79517,-0.54604 -1.2014,0.16494zM125.54042,147.49106c-0.17949,0.02924 -0.1899,0.15375 -0.07093,0.3186c0.1141,0.13496 0.37777,0.24555 0.52733,0.22119c0.17949,-0.02924 0.18503,-0.18369 0.07093,-0.31863c-0.11898,-0.16487 -0.37776,-0.24554 -0.52732,-0.22118zM125.04309,148.58537c-0.45219,-0.32554 -0.64211,-0.17178 -1.53036,1.5389c-1.10388,2.08358 -1.05935,2.16844 1.04713,2.47022c0.91133,0.12794 1.32523,0.02982 2.29912,-0.58937c0.63929,-0.41118 1.15404,-0.83278 1.13456,-0.95242c-0.01461,-0.08974 -0.4369,-0.42015 -0.92388,-0.77073c-0.61638,-0.39091 -0.93501,-0.46185 -0.98577,-0.20793c-0.08624,0.41322 -0.89458,0.7291 -0.95303,0.37015c-0.01461,-0.08974 0.07649,-0.47306 0.20239,-0.83133c0.16135,-0.51758 0.12238,-0.75688 -0.29016,-1.02746zM128.53326,149.27593c-1.09294,-0.86603 -1.59036,-1.09209 -1.69606,-0.79851c-0.1106,0.26367 0.13708,0.65321 0.63381,1.06361c1.12285,0.86116 2.68953,1.61933 2.63107,1.26037c-0.02924,-0.17949 -0.72426,-0.86466 -1.56882,-1.52548z" fill="#575e75" stroke="none" stroke-width="1" stroke-linecap="butt"/><path d="M116.50542,152.10414c0.30413,0.55572 -1.61941,3.61044 -2.38244,3.7347c-0.86707,0.14121 -3.7879,-2.05335 -3.6468,-2.71719c0.17659,-0.88323 5.58153,-1.79907 6.02924,-1.01752z" fill="#575e75" stroke="none" stroke-width="1" stroke-linecap="butt"/><path d="M281.76015,149.50224l1.27084,-11.89768c0.18219,-1.70562 1.73378,-2.93835 3.46562,-2.75336l84.92645,9.07135c1.73183,0.18498 2.98806,1.71762 2.80588,3.42324l-1.25685,11.76673z" fill="#8be38a" stroke="none" stroke-width="0" stroke-linecap="butt"/><path d="M363.5726,153.49728c-0.23265,-0.28832 -0.18756,-0.71064 0.10076,-0.9433l1.75098,-1.41302l-1.41302,-1.75097c-0.23265,-0.28832 -0.18756,-0.71064 0.10076,-0.9433l0.36977,-0.2984c0.28832,-0.23265 0.71065,-0.18756 0.9433,0.10075l1.41301,1.75097l1.75097,-1.41302c0.28832,-0.23265 0.71064,-0.18756 0.94331,0.10076l0.2984,0.36976c0.23265,0.28832 0.18756,0.71065 -0.10076,0.9433l-1.75098,1.41301l1.41302,1.75098c0.23265,0.28832 0.18757,0.71064 -0.10075,0.94331l-0.36978,0.2984c-0.28832,0.23265 -0.71064,0.18756 -0.9433,-0.10076l-1.41302,-1.75098l-1.75097,1.41301c-0.28832,0.23265 -0.71064,0.18756 -0.94331,-0.10075z" fill="#575e75" stroke="none" stroke-width="0" stroke-linecap="butt"/><text transform="translate(312.00752,144.65557) rotate(6.09605) scale(0.14654,0.14654)" font-size="40" xml:space="preserve" fill="#575e75" stroke="#575e75" stroke-width="1.5" stroke-linecap="butt" font-family="Sans Serif" font-weight="400" text-anchor="start"><tspan x="0" dy="0">A</tspan></text><text transform="translate(315.70744,147.69331) rotate(6.09693) scale(0.12712,0.12712)" font-size="45" xml:space="preserve" fill="#575e75" stroke="#575e75" stroke-width="1.4" stroke-linecap="butt" font-family="Comic Sans Ms" font-weight="400" text-anchor="start"><tspan x="0" dy="0">B</tspan></text><text transform="translate(318.27579,151.41324) rotate(6.09633) scale(0.14431,0.14431)" font-size="40" xml:space="preserve" fill="#575e75" stroke="#575e75" stroke-width="1.5" stroke-linecap="butt" font-family="Arial" font-weight="400" text-anchor="start"><tspan x="0" dy="0">C</tspan></text><path d="M307.32809,140.19392c0.01199,0.45849 -0.24929,1.19257 -0.57524,1.67589c-0.54539,0.82566 -0.52812,0.94943 -0.03924,1.79411c0.31013,0.52079 0.58046,1.12878 0.58485,1.37309c0.03453,0.24753 0.28232,1.06646 0.53335,1.85526c0.63341,1.77451 0.598,2.106 -0.19724,2.41729c-0.89208,0.36192 -1.22152,0.02192 -1.0992,-1.12325c0.206,-1.92869 -0.15562,-1.96731 -2.95975,-0.25517c-1.46233,0.84963 -2.84831,1.55501 -3.11953,1.52604c-0.69312,-0.07403 -3.70136,-3.87002 -3.62733,-4.56315c0.08047,-0.75339 4.76272,-5.49575 5.46872,-5.54225c0.3078,-0.02809 0.83736,0.15041 1.17968,0.36983c0.48334,0.32594 0.761,0.29464 1.44857,-0.15006c1.20837,-0.75484 2.39448,-0.44526 2.40237,0.62236zM305.23379,140.39693c-0.37012,0.32622 -0.35929,0.51027 0.01755,0.97722c0.40376,0.50033 0.49416,0.50997 0.77708,0.14396c0.17643,-0.22499 0.3754,-0.66094 0.40758,-0.9623c0.0676,-0.63284 -0.6223,-0.73701 -1.20221,-0.15889zM302.77993,140.25676c-0.18082,-0.01931 -0.22383,0.098 -0.15274,0.28847c0.07432,0.16034 0.29932,0.33678 0.44999,0.35287c0.18082,0.01931 0.22703,-0.12816 0.15273,-0.28849c-0.07109,-0.19048 -0.29931,-0.33676 -0.44998,-0.35285zM302.01071,141.18042c-0.34991,-0.43361 -0.57373,-0.3356 -1.88306,1.079c-1.61595,1.71714 -1.59548,1.81074 0.35602,2.65927c0.84497,0.36456 1.27008,0.37949 2.37311,0.04014c0.72531,-0.22733 1.33329,-0.49765 1.34618,-0.61819c0.00966,-0.09041 -0.31013,-0.5208 -0.68696,-0.98777c-0.49095,-0.54012 -0.77944,-0.69284 -0.89559,-0.46141c-0.19252,0.37567 -1.05564,0.46635 -1.01701,0.10472c0.00966,-0.09041 0.19898,-0.43595 0.41519,-0.74812c0.29259,-0.45642 0.31833,-0.69751 -0.00788,-1.06762zM305.19367,142.77006c-0.82476,-1.1244 -1.24461,-1.47404 -1.42426,-1.2189c-0.17643,0.22499 -0.04069,0.6662 0.32972,1.19343c0.85491,1.12762 2.16505,2.2734 2.20368,1.91177c0.01932,-0.18082 -0.46958,-1.02551 -1.10914,-1.88629z" fill="#575e75" stroke="none" stroke-width="1" stroke-linecap="butt"/><path d="M372.84007,159.6043l-91.0146,-9.72165" fill="none" stroke="#568c56" stroke-width="1" stroke-linecap="round"/><path d="M299.12609,166.99129c0.75277,0.94584 1.55379,1.46703 2.40309,1.56357c0.44124,0.05016 0.8053,-0.01229 1.09218,-0.18734c0.28883,-0.17482 0.45167,-0.42427 0.4885,-0.74838c0.03684,-0.3241 -0.09208,-0.61661 -0.38675,-0.87753c-0.29446,-0.26287 -0.65948,-0.50509 -1.09508,-0.72667c-0.4356,-0.22157 -0.86573,-0.46525 -1.29037,-0.73107c-0.42464,-0.26581 -0.77431,-0.61703 -1.04902,-1.05367c-0.2747,-0.43664 -0.37976,-0.93903 -0.31518,-1.50718c0.10231,-0.90006 0.5655,-1.63452 1.38956,-2.20335c0.82429,-0.57079 1.7509,-0.79771 2.77982,-0.68076c0.47053,0.05349 0.91979,0.15498 1.34776,0.30449c0.42797,0.1495 0.83608,0.34323 1.22435,0.58117l-1.26783,2.07184c-0.25435,-0.2504 -0.61404,-0.49598 -1.0791,-0.73671c-0.46312,-0.24052 -0.87723,-0.38153 -1.24233,-0.42303c-0.3651,-0.0415 -0.6699,0.01285 -0.9144,0.16305c-0.24428,0.14824 -0.38294,0.36783 -0.41601,0.65873c-0.03285,0.28896 0.09796,0.56487 0.39242,0.82775c0.29467,0.26092 0.65981,0.50217 1.09542,0.72375c0.4356,0.22157 0.86921,0.46071 1.30082,0.71742c0.43161,0.25671 0.78379,0.60327 1.05654,1.0397c0.27492,0.4347 0.37998,0.93709 0.31518,1.5072c-0.10674,0.93912 -0.57504,1.71847 -1.40489,2.33806c-0.82984,0.61961 -1.74457,0.8726 -2.74421,0.75897c-0.74972,-0.08522 -1.3941,-0.34041 -1.93314,-0.76556c-0.4743,-0.36836 -0.80224,-0.68448 -0.98386,-0.94837l-0.11607,-0.17932zM310.64354,167.48171c0.07856,-0.69115 0.0703,-1.15782 -0.02478,-1.40002c-0.09291,-0.24393 -0.35902,-0.39085 -0.7983,-0.44078c-0.43929,-0.04994 -0.95897,0.06799 -1.55904,0.35378l-0.1245,1.09531l-0.23646,3.54177l-2.06629,0.14484l0.59276,-3.62289l0.68388,-7.60836l2.09556,-0.14151l-0.6347,3.86137l-0.19941,1.75424c0.17298,-0.18206 0.36491,-0.35702 0.57582,-0.52487c0.21114,-0.16981 0.53036,-0.35106 0.95768,-0.54377c0.42755,-0.19466 0.86877,-0.26611 1.32368,-0.21441c0.45491,0.0517 0.81641,0.27277 1.08451,0.66317c0.27026,0.38867 0.37078,0.88758 0.30154,1.49673l-0.28186,1.67071l-0.24218,3.61825l-2.06629,0.14484l0.61839,-3.84839zM315.20574,171.84185c-0.58963,-0.06703 -1.05057,-0.30928 -1.38282,-0.72674c-0.33226,-0.41748 -0.46232,-0.94348 -0.3902,-1.57801c0.07213,-0.63454 0.42453,-1.15118 1.05721,-1.54994c0.63268,-0.39876 1.36392,-0.55098 2.1937,-0.45666l1.01916,0.11585l0.02896,-0.25479c0.05571,-0.49005 -0.00679,-0.83633 -0.18747,-1.0388c-0.17851,-0.20421 -0.54208,-0.3375 -1.0907,-0.39985c-0.23038,-0.02618 -0.50916,-0.00943 -0.83632,0.05029c-0.32521,0.05994 -0.69341,0.1674 -1.10457,0.32238l-0.30188,-1.23276c0.46371,-0.25185 1.01672,-0.46289 1.65903,-0.63313c0.64231,-0.17024 1.16359,-0.23261 1.56382,-0.18712c1.56973,0.17843 2.26827,1.02713 2.09562,2.5461l-0.33422,2.94034c-0.06369,0.56034 0.04003,1.20498 0.31117,1.93391l-1.6668,0.49283c-0.19554,-0.50674 -0.33122,-0.95725 -0.40704,-1.35151c-0.6449,0.7672 -1.38712,1.10307 -2.22666,1.00764zM316.00915,170.38468c0.40025,0.04549 0.87845,-0.1078 1.43464,-0.45989l0.11418,-1.00452c-0.51534,-0.1812 -0.93799,-0.29054 -1.26795,-0.32805c-0.63063,-0.07168 -0.97779,0.17264 -1.04148,0.73299c-0.03307,0.2909 0.02046,0.53332 0.16058,0.72723c0.14034,0.19196 0.34035,0.3027 0.60003,0.33222zM321.39794,165.20965l1.85709,-0.18345c0.00237,0.77946 -0.01999,1.51556 -0.0671,2.20832c1.06983,-1.30427 2.00402,-1.91102 2.80255,-1.82025l-0.42965,2.31839c-0.57986,-0.06591 -1.0437,-0.06524 -1.3915,0.00201c-0.34584,0.06748 -0.71104,0.2356 -1.09559,0.50437l-0.06158,0.5418l-0.23646,3.54177l-2.05164,0.1465l0.59276,-3.62289c0.11319,-1.34379 0.14024,-2.55599 0.08111,-3.63657zM330.73678,173.7585l-2.3453,-4.47301l-0.01199,0.10543l-0.23646,3.54177l-2.06629,0.14484l0.59276,-3.62289l0.68388,-7.60836l2.09556,-0.14151l-1.01652,7.22051l3.37207,-2.94211l1.29981,1.11778l-2.90367,2.16178l2.37595,3.55097zM338.06483,163.95969c0.95864,0.10896 1.69205,0.46821 2.20024,1.07774c0.50819,0.60953 0.70824,1.38971 0.60017,2.34053c-0.10785,0.94887 -0.5604,1.72013 -1.35762,2.31378c-0.79505,0.59192 -1.71289,0.82873 -2.75353,0.71045l-0.85515,-0.0972l-0.25485,3.86007l-2.00903,-0.22837l0.59276,-3.62289l0.58333,-6.72391l3.25369,0.36984zM337.35093,165.41219l-0.73508,-0.08355l-0.50496,3.52904l1.01916,0.11585c0.49982,0.05681 0.90515,-0.06422 1.21599,-0.36311c0.3128,-0.29866 0.50393,-0.75355 0.57339,-1.36465c0.12383,-1.08945 -0.39899,-1.70063 -1.56848,-1.83357zM340.8415,171.58168c0.14536,-1.27883 0.61324,-2.32423 1.40364,-3.13619c0.79236,-0.81174 1.65027,-1.16511 2.57377,-1.06015c0.92544,0.10519 1.61074,0.48763 2.05586,1.14735c0.4473,0.65798 0.61481,1.48093 0.50252,2.46886c-0.15003,1.31983 -0.60666,2.37936 -1.36989,3.17858c-0.76325,0.79923 -1.65054,1.14136 -2.66189,1.0264c-0.82978,-0.09432 -1.48151,-0.48482 -1.95522,-1.17151c-0.47371,-0.68669 -0.65663,-1.50448 -0.54878,-2.45334zM345.61031,171.59275c0.16489,-1.45064 -0.2476,-2.23222 -1.23747,-2.34474c-1.02893,-0.11696 -1.62072,0.50499 -1.7754,1.86582c-0.08056,0.70873 0.00089,1.27963 0.24435,1.71272c0.24542,0.43331 0.60534,0.67693 1.07978,0.73086c0.47443,0.05393 0.85443,-0.08778 1.13998,-0.42515c0.28751,-0.33714 0.47042,-0.85031 0.54877,-1.53951zM348.06885,172.4032c0.14536,-1.27883 0.61325,-2.32423 1.40365,-3.13619c0.79236,-0.81174 1.65027,-1.16511 2.57377,-1.06015c0.92544,0.10519 1.61074,0.48763 2.05586,1.14735c0.4473,0.65798 0.61481,1.48093 0.50252,2.46886c-0.15003,1.31983 -0.60666,2.37936 -1.36989,3.17858c-0.76325,0.79923 -1.65054,1.14136 -2.66188,1.0264c-0.82978,-0.09432 -1.48152,-0.48482 -1.95523,-1.17151c-0.47371,-0.68669 -0.65663,-1.50448 -0.54877,-2.45334zM352.83766,172.41426c0.16489,-1.45064 -0.2476,-2.23222 -1.23747,-2.34474c-1.02893,-0.11696 -1.62073,0.50499 -1.7754,1.86582c-0.08056,0.70873 0.00089,1.27964 0.24435,1.71273c0.24542,0.43331 0.60534,0.67693 1.07978,0.73086c0.47443,0.05393 0.85443,-0.08779 1.13998,-0.42515c0.28751,-0.33714 0.47042,-0.8503 0.54877,-1.5395zM358.76322,165.03684l-1.06945,7.68616l-0.23646,3.54177l-2.06629,0.14484l0.59276,-3.62289l0.68387,-7.60836z" fill="#4d804d" stroke="none" stroke-width="1" stroke-linecap="square"/><path d="M307.4325,183.29873l0.19623,0.0223l0.71364,-1.99837l1.20012,-3.61616l1.80476,0.43356l-1.51774,3.59193l-1.31286,3.40755l-2.48533,-0.05705l-0.41175,-3.73708l-0.04592,-0.24847l-1.42063,3.54659l-2.4092,-0.0484l-0.45568,-3.74207l-0.62262,-3.76105l2.00772,-0.1515l0.24018,3.36753l0.26091,2.50665l0.19622,0.0223l1.77428,-4.12639l-0.18886,-1.13092l1.97549,-0.15516l0.25483,3.3692l0.24625,2.50498zM312.99387,185.82941c-0.58963,-0.06703 -1.05057,-0.30928 -1.38282,-0.72674c-0.33226,-0.41748 -0.46232,-0.94348 -0.3902,-1.57801c0.07213,-0.63454 0.42453,-1.15118 1.05721,-1.54994c0.63268,-0.39876 1.36392,-0.55098 2.1937,-0.45666l1.01916,0.11585l0.02896,-0.2548c0.05571,-0.49005 -0.00679,-0.83632 -0.18747,-1.0388c-0.17851,-0.20421 -0.54208,-0.3375 -1.0907,-0.39986c-0.23038,-0.02618 -0.50916,-0.00942 -0.83632,0.0503c-0.32521,0.05994 -0.69341,0.1674 -1.10457,0.32238l-0.30188,-1.23276c0.46371,-0.25185 1.01672,-0.46289 1.65903,-0.63313c0.64231,-0.17024 1.16359,-0.23261 1.56382,-0.18712c1.56973,0.17843 2.26827,1.02713 2.09562,2.5461l-0.33422,2.94035c-0.06369,0.56034 0.04003,1.20497 0.31117,1.9339l-1.6668,0.49283c-0.19554,-0.50674 -0.33122,-0.95725 -0.40704,-1.35151c-0.6449,0.7672 -1.38712,1.10307 -2.22666,1.00764zM313.79728,184.37225c0.40025,0.04549 0.87845,-0.1078 1.43464,-0.45989l0.11418,-1.00452c-0.51535,-0.1812 -0.93799,-0.29054 -1.26795,-0.32805c-0.63063,-0.07168 -0.97779,0.17265 -1.04148,0.733c-0.03307,0.2909 0.02046,0.53332 0.16058,0.72723c0.14034,0.19196 0.34035,0.3027 0.60003,0.33222zM320.94911,185.32164c0.51934,0.05903 0.8052,-0.14184 0.85758,-0.6026c0.0182,-0.1601 -0.07709,-0.32223 -0.28586,-0.48636c-0.20855,-0.16609 -0.46797,-0.33698 -0.77827,-0.51267c-0.30812,-0.17742 -0.61522,-0.37251 -0.9213,-0.58529c-0.30413,-0.21255 -0.55092,-0.48584 -0.74038,-0.81984c-0.18924,-0.33596 -0.26111,-0.70405 -0.21562,-1.10431c0.07612,-0.66968 0.43741,-1.22091 1.08385,-1.65371c0.64644,-0.4328 1.35429,-0.60547 2.12353,-0.51804c0.3612,0.04105 0.70873,0.12406 1.04258,0.24902c0.33603,0.12323 0.65394,0.29286 0.95372,0.50889l-1.21257,1.7162c-0.06341,-0.06852 -0.14565,-0.15399 -0.24672,-0.25646c-0.09912,-0.10224 -0.29277,-0.24291 -0.58092,-0.422c-0.28815,-0.1791 -0.55035,-0.28207 -0.78659,-0.30893c-0.23429,-0.02663 -0.4199,0.00566 -0.55684,0.09689c-0.13671,0.08928 -0.21562,0.22666 -0.2367,0.41213c-0.02108,0.18547 0.13062,0.3906 0.45512,0.61536c0.32472,0.22281 0.68221,0.43551 1.07252,0.63808c0.39248,0.20085 0.7413,0.49858 1.0465,0.89319c0.30541,0.39267 0.43027,0.83402 0.37456,1.32408c-0.07967,0.70092 -0.43756,1.28319 -1.07366,1.74683c-0.63415,0.46386 -1.32608,0.65317 -2.07582,0.56796c-0.48029,-0.0546 -0.9165,-0.20998 -1.30861,-0.46615c-0.38994,-0.25791 -0.66286,-0.50153 -0.81873,-0.73085l-0.23347,-0.34692l1.33995,-1.24488c0.05143,0.08693 0.12493,0.19713 0.22051,0.33061c0.09775,0.13175 0.29725,0.31659 0.59849,0.55453c0.30146,0.23598 0.60253,0.37106 0.9032,0.40524zM331.5532,184.09745c0.07856,-0.69115 0.0703,-1.15782 -0.02478,-1.40002c-0.09291,-0.24393 -0.35902,-0.39085 -0.7983,-0.44078c-0.43929,-0.04994 -0.95897,0.068 -1.55904,0.35379l-0.1245,1.09531l-0.23646,3.54177l-2.06629,0.14484l0.59276,-3.6229l0.68388,-7.60836l2.09556,-0.1415l-0.6347,3.86137l-0.19941,1.75424c0.17298,-0.18206 0.36491,-0.35702 0.57582,-0.52487c0.21114,-0.16981 0.53036,-0.35106 0.95768,-0.54376c0.42755,-0.19466 0.86877,-0.26612 1.32368,-0.21441c0.45491,0.0517 0.81641,0.27277 1.08451,0.66317c0.27026,0.38867 0.37078,0.88759 0.30154,1.49674l-0.28186,1.67071l-0.24219,3.61824l-2.06629,0.14484l0.61839,-3.84839zM337.48989,187.06532c0.28896,0.03285 0.60208,-0.00771 0.93936,-0.12164c0.33728,-0.11393 0.60427,-0.23587 0.80099,-0.36579l0.29474,-0.19195l0.59595,0.91614c-0.12083,0.15832 -0.29922,0.33581 -0.53516,0.53246c-0.23399,0.19687 -0.46712,0.36023 -0.69943,0.49006c-0.23229,0.12983 -0.53322,0.23702 -0.90276,0.32159c-0.36759,0.08479 -0.74174,0.10555 -1.12246,0.06226c-0.81026,-0.0921 -1.43533,-0.47364 -1.87522,-1.14461c-0.43967,-0.67293 -0.60436,-1.49458 -0.49407,-2.46492c0.1387,-1.22026 0.61469,-2.2499 1.42794,-3.08893c0.81521,-0.83881 1.69822,-1.20417 2.64904,-1.09609c0.72824,0.08278 1.27115,0.35214 1.62869,0.80809c0.3595,0.45617 0.49719,1.05424 0.41308,1.7942c-0.04994,0.43929 -0.18191,0.93056 -0.39594,1.47382l-0.33434,0.27941l-3.78791,-0.08052c0.04136,1.14976 0.50719,1.77524 1.39749,1.87643zM338.01819,182.4176c-0.44125,-0.05016 -0.83239,0.08535 -1.17346,0.40651c-0.33889,0.31943 -0.56501,0.75156 -0.67834,1.29637l2.58678,-0.02635c0.05547,-0.22706 0.09165,-0.41478 0.10851,-0.56316c0.07612,-0.66968 -0.20504,-1.0408 -0.84347,-1.11337zM341.96271,181.78618l1.85709,-0.18345c0.00237,0.77946 -0.01999,1.51556 -0.0671,2.20831c1.06983,-1.30427 2.00402,-1.91102 2.80255,-1.82025l-0.42965,2.31839c-0.57986,-0.06591 -1.0437,-0.06524 -1.3915,0.00201c-0.34584,0.06748 -0.71104,0.2356 -1.09559,0.50437l-0.06158,0.5418l-0.23646,3.54177l-2.05164,0.1465l0.59276,-3.62289c0.11319,-1.34379 0.14023,-2.55599 0.08111,-3.63657zM349.51549,188.43224c0.28896,0.03285 0.60208,-0.00771 0.93936,-0.12164c0.33728,-0.11393 0.60427,-0.23587 0.80099,-0.36578l0.29474,-0.19195l0.59595,0.91614c-0.12083,0.15832 -0.29922,0.33581 -0.53516,0.53246c-0.23399,0.19687 -0.46712,0.36023 -0.69943,0.49006c-0.23229,0.12983 -0.53322,0.23702 -0.90276,0.32159c-0.36759,0.08479 -0.74174,0.10555 -1.12246,0.06227c-0.81026,-0.0921 -1.43533,-0.47364 -1.87522,-1.14461c-0.43967,-0.67293 -0.60436,-1.49458 -0.49407,-2.46492c0.1387,-1.22026 0.61468,-2.2499 1.42794,-3.08893c0.81521,-0.83881 1.69822,-1.20417 2.64904,-1.09609c0.72824,0.08278 1.27115,0.35214 1.62869,0.80809c0.3595,0.45617 0.49719,1.05424 0.41308,1.7942c-0.04994,0.43929 -0.18191,0.93057 -0.39594,1.47383l-0.33434,0.27941l-3.78792,-0.08051c0.04136,1.14976 0.5072,1.77523 1.3975,1.87642zM350.04378,183.78453c-0.44125,-0.05016 -0.83239,0.08535 -1.17346,0.40651c-0.33889,0.31943 -0.56501,0.75156 -0.67834,1.29637l2.58678,-0.02635c0.05547,-0.22706 0.09165,-0.41478 0.10852,-0.56316c0.07612,-0.66968 -0.20504,-1.0408 -0.84348,-1.11337z" fill="#4d804d" stroke="none" stroke-width="1" stroke-linecap="square"/><path d="M185.42008,236.45285c-2.14511,0 -3.88407,-1.73895 -3.88407,-3.88406v-105.84076c0,-2.14511 1.73896,-3.88407 3.88407,-3.88407h105.84075c2.14511,0 3.88407,1.73896 3.88407,3.88407v105.84076c0,2.14511 -1.73895,3.88407 -3.88407,3.88407z" fill="none" stroke="#ffffff" stroke-width="7.5" stroke-linecap="butt"/><path d="M185.42008,236.45285c-2.14511,0 -3.88407,-1.73895 -3.88407,-3.88406v-105.84076c0,-2.14511 1.73896,-3.88407 3.88407,-3.88407h105.84075c2.14511,0 3.88407,1.73896 3.88407,3.88407v105.84076c0,2.14511 -1.73895,3.88407 -3.88407,3.88407z" fill="none" stroke="#8c8756" stroke-width="2.5" stroke-linecap="butt"/><path d="M185.42008,236.45285c-2.14511,0 -3.88407,-1.73896 -3.88407,-3.88407v-105.84076c0,-2.14511 1.73897,-3.88406 3.88407,-3.88406h105.84075c2.14511,0 3.88407,1.73895 3.88407,3.88407v105.84076c0,2.14511 -1.73895,3.88407 -3.88407,3.88407z" fill="#fff099" stroke="none" stroke-width="0" stroke-linecap="butt"/><path d="M181.53601,141.51259v-14.8214c0,-2.12476 1.74892,-3.84722 3.90633,-3.84722h105.79624c2.1574,0 3.90632,1.72246 3.90632,3.84722v14.65826z" fill="#e4db8c" stroke="none" stroke-width="0" stroke-linecap="butt"/><path d="M282.82893,135.66985c-0.32451,-0.32449 -0.32451,-0.85061 0,-1.17511l1.97077,-1.97077l-1.97077,-1.97075c-0.32451,-0.32449 -0.32451,-0.85061 0,-1.17511l0.41619,-0.41618c0.32451,-0.32449 0.8506,-0.32449 1.17511,0l1.97077,1.97075l1.97075,-1.97075c0.32451,-0.32449 0.8506,-0.32449 1.17511,0l0.41619,0.41618c0.32451,0.32449 0.32451,0.85061 0,1.17511l-1.97076,1.97075l1.97076,1.97077c0.32451,0.32449 0.32451,0.85061 0,1.17511l-0.41619,0.41619c-0.32451,0.32449 -0.8506,0.32449 -1.17511,0l-1.97075,-1.97076l-1.97077,1.97076c-0.32451,0.32449 -0.8506,0.32449 -1.17511,0z" fill="#575e75" stroke="none" stroke-width="0" stroke-linecap="butt"/><text transform="translate(218.15366,131.56362) scale(0.18151,0.18151)" font-size="40" xml:space="preserve" fill="#575e75" stroke="#575e75" stroke-width="1.5" stroke-linecap="butt" font-family="Sans Serif" font-weight="400" text-anchor="start"><tspan x="0" dy="0">A</tspan></text><text transform="translate(223.11045,134.8184) scale(0.15747,0.15747)" font-size="45" xml:space="preserve" fill="#575e75" stroke="#575e75" stroke-width="1.4" stroke-linecap="butt" font-family="Comic Sans Ms" font-weight="400" text-anchor="start"><tspan x="0" dy="0">B</tspan></text><text transform="translate(226.76325,139.0623) scale(0.17877,0.17877)" font-size="40" xml:space="preserve" fill="#575e75" stroke="#575e75" stroke-width="1.5" stroke-linecap="butt" font-family="Arial" font-weight="400" text-anchor="start"><tspan x="0" dy="0">C</tspan></text><path d="M211.80309,126.6839c0.07509,0.56313 -0.15018,1.50165 -0.48805,2.13985c-0.56313,1.0887 -0.52557,1.23888 0.18772,2.21494c0.45049,0.60066 0.86344,1.31394 0.90099,1.61428c0.07509,0.30032 0.48804,1.27641 0.901,2.21493c1.01361,2.10231 1.01362,2.51527 0.07509,3.0033c-1.05116,0.56313 -1.50164,0.18771 -1.50164,-1.23887c0,-2.40264 -0.45049,-2.40264 -3.67905,0.07508c-1.68935,1.23888 -3.30364,2.29002 -3.64151,2.29002c-0.86345,0 -5.06807,-4.27971 -5.06807,-5.14315c0,-0.93853 5.14315,-7.39564 6.0066,-7.54579c0.37542,-0.07509 1.05116,0.07508 1.50165,0.30032c0.6382,0.33787 0.97607,0.26278 1.76444,-0.37541c1.38903,-1.0887 2.89069,-0.86346 3.04085,0.45049zM209.25028,127.20948c-0.41296,0.45049 -0.37541,0.67575 0.15016,1.20133c0.56313,0.56313 0.67575,0.56312 0.97607,0.07508c0.18771,-0.30032 0.37541,-0.86345 0.37541,-1.23887c0,-0.78836 -0.86345,-0.82591 -1.50165,-0.03754zM206.20944,127.35966c-0.22526,0 -0.26278,0.15016 -0.15016,0.37541c0.11262,0.18771 0.41298,0.37542 0.60067,0.37542c0.22526,0 0.26278,-0.18773 0.15016,-0.37542c-0.11262,-0.22526 -0.41297,-0.37541 -0.60066,-0.37541zM205.38354,128.59851c-0.48803,-0.48803 -0.75082,-0.33787 -2.1774,1.57674c-1.76444,2.32756 -1.72691,2.44017 0.78836,3.22854c1.0887,0.33787 1.61427,0.30033 2.92821,-0.26278c0.86345,-0.37542 1.57673,-0.78836 1.57673,-0.93854c0,-0.11262 -0.45049,-0.60065 -0.97607,-1.12623c-0.67575,-0.60066 -1.05117,-0.75082 -1.1638,-0.45049c-0.18771,0.48803 -1.23887,0.71328 -1.23887,0.26278c0,-0.11262 0.18771,-0.56313 0.41296,-0.97607c0.30032,-0.60066 0.30032,-0.901 -0.15016,-1.31394zM209.51308,130.13771c-1.16379,-1.27641 -1.72691,-1.65181 -1.9146,-1.31394c-0.18771,0.30032 0.03754,0.8259 0.56313,1.42656c1.20132,1.27641 2.96576,2.51527 2.96576,2.06477c0,-0.22526 -0.7133,-1.20133 -1.61428,-2.1774z" fill="#575e75" stroke="none" stroke-width="1" stroke-linecap="butt"/><path d="M194.51174,131.20062c0.26118,0.73998 -2.69874,4.09163 -3.65635,4.09163c-1.08819,0 -4.22221,-3.26459 -3.91751,-4.0481c0.39176,-1.04467 7.18211,-1.08819 7.57387,-0.04353z" fill="#575e75" stroke="none" stroke-width="1" stroke-linecap="butt"/><path d="M181.66651,141.97255h113.38049" fill="none" stroke="#8c8756" stroke-width="1" stroke-linecap="round"/><path d="M288.22476,234.53089l5.03982,-5.03982" fill="none" stroke="#575e75" stroke-width="0.5" stroke-linecap="round"/><path d="M291.06982,234.63927l2.43861,-2.43862" fill="none" stroke="#575e75" stroke-width="0.5" stroke-linecap="round"/><path d="M211.08754,174.6881c0.96186,0.35256 1.76662,0.95995 2.41424,1.82218c0.64764,0.86223 0.97144,2.08468 0.97144,3.66735c0,1.57884 -0.5844,2.83002 -1.7532,3.75357c-1.16497,0.91971 -2.83769,1.37956 -5.01818,1.37956h-6.94382c-0.33338,0 -0.6093,-0.11305 -0.82774,-0.33914c-0.2146,-0.2261 -0.3219,-0.525 -0.3219,-0.89672v-18.83686c0,-0.21459 0.03449,-0.35639 0.10347,-0.42536c0.06898,-0.06898 0.21077,-0.10346 0.42537,-0.10346h6.71389c4.5909,0 6.88634,1.77619 6.88634,5.32859c0,0 -0.8833,3.58876 -2.64991,4.65027zM205.25888,169.47449v3.85704h0.14945c1.88157,0 2.82236,-0.62845 2.82236,-1.88541c0,-0.68596 -0.18202,-1.18605 -0.54608,-1.50027c-0.36022,-0.31422 -0.96186,-0.47135 -1.80493,-0.47135zM205.25888,176.80344v3.82831h0.53458c0.84307,0 1.46004,-0.15712 1.85092,-0.47135c0.39088,-0.31422 0.58632,-0.81432 0.58632,-1.50028c0,-0.68596 -0.18202,-1.16689 -0.54608,-1.4428c-0.36022,-0.2759 -0.96186,-0.41387 -1.80493,-0.41387zM222.97642,185.60394c-1.94289,0 -3.58113,-0.66104 -4.9147,-1.98313c-1.33358,-1.32593 -2.00038,-3.16151 -2.00038,-5.50679c0,-2.34527 0.64187,-4.23259 1.92566,-5.66197c1.2876,-1.43321 2.91243,-2.14984 4.87448,-2.14984c1.96206,0 3.47767,0.5001 4.54684,1.50028c1.06917,1.00018 1.60375,2.21688 1.60375,3.65011c0,3.17685 -1.8241,4.76525 -5.47229,4.76525h-2.03486c0,0.59014 0.16095,0.99827 0.48285,1.22436c0.32572,0.2261 0.80283,0.33915 1.43132,0.33915c1.37573,0 4.55555,-1.22611 4.71266,-0.93487c0.47135,0.8469 0.17333,1.95996 0.17333,2.53861c0,0.57865 -0.18586,1.22297 -0.55757,1.39925c0,0 -2.82818,0.81957 -4.77107,0.81957zM224.06859,176.01019c0,-0.82392 -0.40237,-1.23586 -1.20713,-1.23586c-0.37172,0 -0.69171,0.11305 -0.95995,0.33915c-0.26442,0.2261 -0.39663,0.55374 -0.39663,0.98294v0.91397h1.59226c0.64764,0 0.97146,-0.33339 0.97146,-1.00019zM237.69366,185.1326c0,0.23759 -0.82392,0.35638 -2.47173,0.35638c-1.96206,-0.08047 -2.94309,-0.20884 -2.94309,-0.38511v-10.41575h-1.50028c-0.39471,0 -0.59207,-0.67829 -0.59207,-2.03486c0,-0.35256 0.0345,-0.78368 0.10347,-1.29334c0.06898,-0.50968 0.21267,-0.76452 0.43111,-0.76452h1.55778v-2.59244c0,-0.39088 0.82774,-0.58632 2.48323,-0.58632c1.65931,0 2.48896,0.15711 2.48896,0.47135v1.88542l0.02875,0.82199h2.50622c0.33338,0 -0.57519,13.44108 -0.57519,13.44108zM248.52416,185.1326c0,0.23759 -0.82392,0.35638 -2.47174,0.35638c-1.96206,-0.08047 -2.94309,-0.20884 -2.94309,-0.38511l-2.09275,-1.33339l2.09277,-13.17507v-2.59244c0,-0.39088 0.82774,-0.58632 2.48322,-0.58632c1.65931,0 2.48898,0.15711 2.48898,0.47135v1.88542l0.02875,0.82199h2.50621c0.33338,0 0.50009,0.68787 0.50009,2.06362c0,1.37191 -0.1667,2.05785 -0.50009,2.05785h-2.09234zM258.94083,185.60394c-1.94289,0 -3.58114,-0.66104 -4.91471,-1.98313c-1.33358,-1.32593 -2.00037,-3.16151 -2.00037,-5.50679c0,-2.34527 0.64188,-4.23259 1.92565,-5.66197c1.2876,-1.43321 2.91243,-2.14984 4.87448,-2.14984c1.96206,0 3.47766,0.5001 4.54683,1.50028c1.06917,1.00018 1.60375,2.21688 1.60375,3.65011c0,3.17685 -1.82409,4.76525 -5.47229,4.76525h-2.03486c0,0.59014 0.16095,0.99827 0.48285,1.22436c0.32572,0.2261 0.80283,0.33915 1.4313,0.33915c1.37573,0 4.02184,-0.82583 4.17895,-0.53458c0.47135,0.8469 0.70703,1.55968 0.70703,2.13833c0,0.57865 -0.18586,1.08955 -0.55757,1.26582c0,0 -2.82818,0.953 -4.77107,0.953zM260.03298,176.01019c0,-0.82392 -0.40237,-1.23586 -1.20713,-1.23586c-0.37171,0 -0.69171,0.11305 -0.95995,0.33915c-0.26442,0.2261 -0.39662,0.55374 -0.39662,0.98294v0.91397h1.59225c0.64762,0 0.97146,-0.33339 0.97146,-1.00019zM273.33614,185.28205c0,0.13795 -0.8929,0.20693 -2.67866,0.20693c-1.78578,-0.04217 -2.67866,-0.12071 -2.67866,-0.23568v-9.77195h-0.79325c-0.31422,0 -0.56523,-0.19161 -0.75302,-0.57483c-0.18777,-0.38321 -0.28166,-0.85841 -0.28166,-1.42556c0,-2.11917 0.62847,-3.17875 1.88542,-3.17875c0.88139,0 1.61717,0.27018 2.20731,0.8105c0.59014,0.5365 1.84902,0.3928 2.54647,-0.08622c0.69745,-0.48286 1.40831,-0.72427 2.13258,-0.72427c1.13815,0 1.82602,0.29317 2.06361,0.87949c0.05748,0.15711 0.08623,0.38897 0.08623,0.69553c0,0.30274 -0.09389,0.84689 -0.28166,1.63248c-0.18395,0.7856 -0.37554,1.35465 -0.57482,1.70722c-0.19543,0.35256 -0.31232,0.52884 -0.35064,0.52884c-0.03832,0 -0.22036,-0.07281 -0.54608,-0.21844c-0.32189,-0.14945 -0.61122,-0.22418 -0.86797,-0.22418c-0.74343,0 -1.11515,0.58824 -1.11515,1.7647z" fill="none" stroke-opacity="0.50196" stroke="#000000" stroke-width="4.5" stroke-linecap="square"/><path d="M213.73746,170.0378c0,2.03869 -0.88331,3.58879 -2.64992,4.6503c0.96186,0.35255 1.76662,0.95995 2.41424,1.82218c0.64764,0.86223 0.97146,2.08468 0.97146,3.66735c0,1.57884 -0.5844,2.83002 -1.7532,3.75357c-1.16497,0.91971 -2.83769,1.37956 -5.01818,1.37956h-6.94382c-0.33338,0 -0.6093,-0.11305 -0.82774,-0.33914c-0.2146,-0.2261 -0.3219,-0.525 -0.3219,-0.89673v-18.83686c0,-0.21459 0.0345,-0.35639 0.10347,-0.42537c0.06899,-0.06899 0.21077,-0.10347 0.42537,-0.10347h6.71389c4.5909,0 6.88634,1.7762 6.88634,5.32859zM205.25888,169.47448v3.85704h0.14945c1.88157,0 2.82236,-0.62846 2.82236,-1.88541c0,-0.68596 -0.18202,-1.18605 -0.54608,-1.50027c-0.36022,-0.31422 -0.96186,-0.47135 -1.80494,-0.47135zM205.25888,176.80345v3.82831h0.53458c0.84307,0 1.46004,-0.15711 1.85092,-0.47135c0.39089,-0.31422 0.58632,-0.81432 0.58632,-1.50028c0,-0.68596 -0.18202,-1.16689 -0.54608,-1.44281c-0.36022,-0.2759 -0.96186,-0.41387 -1.80494,-0.41387zM227.74742,184.51753c-1.23778,0.72428 -2.8281,1.08641 -4.771,1.08641c-1.94289,0 -3.58112,-0.66103 -4.9147,-1.98313c-1.33358,-1.32593 -2.00038,-3.16151 -2.00038,-5.50679c0,-2.34527 0.64187,-4.23259 1.92566,-5.66198c1.2876,-1.43321 2.91243,-2.14984 4.87448,-2.14984c1.96206,0 3.47767,0.5001 4.54684,1.50028c1.06917,1.00018 1.60375,2.21689 1.60375,3.65011c0,3.17685 -1.8241,4.76525 -5.47229,4.76525h-2.03486c0,0.59014 0.16095,0.99826 0.48285,1.22436c0.32572,0.2261 0.80284,0.33915 1.43132,0.33915c1.37573,0 2.68058,-0.31422 3.91453,-0.94271c0.01916,-0.01916 0.1073,0.11687 0.26442,0.40811c0.47135,0.8469 0.70703,1.55968 0.70703,2.13833c0,0.57865 -0.18586,0.95612 -0.55757,1.13239zM224.06859,176.01019c0,-0.82391 -0.40237,-1.23586 -1.20713,-1.23586c-0.37173,0 -0.6917,0.11305 -0.95995,0.33915c-0.26442,0.2261 -0.39663,0.55374 -0.39663,0.98294v0.91397h1.59225c0.64764,0 0.97146,-0.33339 0.97146,-1.00019zM237.69366,185.13259c0,0.2376 -0.82391,0.35639 -2.47173,0.35639c-1.96206,-0.08047 -2.94309,-0.20884 -2.94309,-0.38511v-10.41574h-1.50028c-0.39471,0 -0.59207,-0.67829 -0.59207,-2.03486c0,-0.35255 0.0345,-0.78368 0.10347,-1.29334c0.06899,-0.50968 0.21268,-0.7645 0.43112,-0.7645h1.55777v-2.59244c0,-0.39089 0.82774,-0.58632 2.48323,-0.58632c1.65931,0 2.48897,0.15711 2.48897,0.47135v1.88541l0.02875,0.822h2.50622c0.33338,0 0.50009,0.68785 0.50009,2.0636c0,1.37191 -0.16671,2.05785 -0.50009,2.05785h-2.09234zM248.52416,185.13259c0,0.2376 -0.82391,0.35639 -2.47174,0.35639c-1.96206,-0.08047 -2.94308,-0.20884 -2.94308,-0.38511v-10.41574h-1.50027c-0.39471,0 -0.59207,-0.67829 -0.59207,-2.03486c0,-0.35255 0.03449,-0.78368 0.10347,-1.29334c0.06899,-0.50968 0.21268,-0.7645 0.43112,-0.7645h1.55776v-2.59244c0,-0.39089 0.82774,-0.58632 2.48322,-0.58632c1.65931,0 2.48898,0.15711 2.48898,0.47135v1.88541l0.02875,0.822h2.50621c0.33338,0 0.5001,0.68785 0.5001,2.0636c0,1.37191 -0.1667,2.05785 -0.5001,2.05785h-2.09234zM263.71182,184.51753c-1.23778,0.72428 -2.82811,1.08641 -4.77101,1.08641c-1.94289,0 -3.58112,-0.66103 -4.9147,-1.98313c-1.33358,-1.32593 -2.00037,-3.16151 -2.00037,-5.50679c0,-2.34527 0.64187,-4.23259 1.92565,-5.66198c1.2876,-1.43321 2.91243,-2.14984 4.87448,-2.14984c1.96206,0 3.47766,0.5001 4.54684,1.50028c1.06917,1.00018 1.60375,2.21689 1.60375,3.65011c0,3.17685 -1.8241,4.76525 -5.47229,4.76525h-2.03486c0,0.59014 0.16095,0.99826 0.48285,1.22436c0.32572,0.2261 0.80283,0.33915 1.4313,0.33915c1.37573,0 2.68058,-0.31422 3.91453,-0.94271c0.01916,-0.01916 0.1073,0.11687 0.26442,0.40811c0.47135,0.8469 0.70703,1.55968 0.70703,2.13833c0,0.57865 -0.18586,0.95612 -0.55756,1.13239zM260.03298,176.01019c0,-0.82391 -0.40237,-1.23586 -1.20712,-1.23586c-0.37171,0 -0.69171,0.11305 -0.95995,0.33915c-0.26442,0.2261 -0.39662,0.55374 -0.39662,0.98294v0.91397h1.59225c0.64762,0 0.97146,-0.33339 0.97146,-1.00019zM273.33615,185.28205c0,0.13795 -0.8929,0.20694 -2.67866,0.20694c-1.78578,-0.04217 -2.67866,-0.12071 -2.67866,-0.23568v-9.77195h-0.79326c-0.31422,0 -0.56523,-0.1916 -0.75302,-0.57483c-0.18777,-0.38321 -0.28166,-0.8584 -0.28166,-1.42557c0,-2.11917 0.62847,-3.17875 1.88541,-3.17875c0.88139,0 1.61717,0.27018 2.20731,0.8105c0.59014,0.53649 0.88523,1.14963 0.88523,1.83943c0.41004,-0.80476 0.96378,-1.44663 1.66123,-1.92565c0.69745,-0.48286 1.40831,-0.72427 2.13258,-0.72427c1.13815,0 1.82601,0.29317 2.06361,0.87949c0.05748,0.15711 0.08623,0.38897 0.08623,0.69553c0,0.30274 -0.09389,0.8469 -0.28166,1.63248c-0.18394,0.7856 -0.37555,1.35465 -0.57483,1.70722c-0.19543,0.35255 -0.31233,0.52884 -0.35065,0.52884c-0.03832,0 -0.22035,-0.07281 -0.54608,-0.21844c-0.32189,-0.14945 -0.61123,-0.22418 -0.86798,-0.22418c-0.74344,0 -1.11515,0.58825 -1.11515,1.7647z" fill="#ffffff" stroke="none" stroke-width="1" stroke-linecap="square"/><path d="M196.75925,191.17737c0.85874,0.31749 1.28811,0.74686 1.28811,1.28811c0,0.54125 -0.20562,1.211 -0.61684,2.00927c-0.4082,0.79826 -0.75139,1.19739 -1.02957,1.19739c-0.07863,0 -0.16782,-0.04232 -0.2676,-0.127c-0.09978,-0.08769 -0.33262,-0.18142 -0.69848,-0.2812c-0.36285,-0.09978 -0.6758,-0.14966 -0.93887,-0.14966c-0.89804,0 -1.62222,0.31749 -2.17254,0.95248c-0.54729,0.63499 -0.82094,1.6071 -0.82094,2.91636c0,1.30624 0.2812,2.27686 0.84362,2.91185c0.56543,0.63499 1.28206,0.95248 2.14987,0.95248c0.3568,0 0.75594,-0.04988 1.19739,-0.14966c0.44145,-0.10282 0.75442,-0.24642 0.93887,-0.43088c0.03025,-0.03327 0.09222,-0.04989 0.18596,-0.04989c0.09374,0 0.2676,0.17539 0.52159,0.52613c0.25701,0.34773 0.49286,0.80431 0.70754,1.36974c0.21771,0.56543 0.32657,1.00237 0.32657,1.31078c0,0.60474 -0.46414,1.08552 -1.39241,1.44231c-0.92828,0.35377 -2.02741,0.53067 -3.29737,0.53067c-2.04403,0 -3.72371,-0.71966 -5.03902,-2.15894c-1.31533,-1.43929 -1.97297,-3.47123 -1.97297,-6.09582c0,-2.62459 0.67732,-4.68675 2.03194,-6.18652c1.35462,-1.50279 3.04488,-2.25419 5.07077,-2.25419c0,0 2.12567,0.15874 2.98439,0.47622zM199.60449,201.35973c0,-1.88982 0.4838,-3.36842 1.45138,-4.4358c0.96758,-1.06736 2.27233,-1.60105 3.91421,-1.60105c1.64188,0 2.94207,0.53368 3.90059,1.60105c0.95852,1.06736 1.43778,2.54598 1.43778,4.4358c0,1.88982 -0.47926,3.36843 -1.43778,4.43579c-0.95852,1.06736 -2.25872,1.60105 -3.9006,1.60105c-1.64188,0 -2.9466,-0.53368 -3.9142,-1.60105c0,0 -1.45138,-2.54597 -1.45138,-4.43579zM203.66836,201.33705c0,1.42417 0.43693,2.13625 1.31078,2.13625c0.87689,0 1.31533,-0.71208 1.31533,-2.13625c0,-1.42417 -0.43843,-5.20668 -1.31533,-5.20668c0,0 -1.31078,3.78251 -1.31078,5.20667zM222.47992,207.04735c0,0.10885 -0.6622,0.16327 -1.98658,0.16327c-1.32439,0 -1.98657,-0.06955 -1.98657,-0.20864v-6.75801c0,-0.77407 -0.25551,-1.16111 -0.76651,-1.16111c-0.26307,0 -0.61078,0.17084 -1.04318,0.51252v7.42927c0,0.15421 -0.66219,0.23131 -1.98657,0.23131c-1.32439,0 -1.98658,-0.08466 -1.98658,-0.25399v-7.59256h-0.58055c-0.51101,0 -0.76651,-0.53369 -0.76651,-1.60105c0,-0.48077 0.09374,-0.9691 0.2812,-1.46499c0.24795,-0.68033 0.65011,-1.02049 1.20647,-1.02049c0.55636,0 1.09307,0.14664 1.61012,0.43994c0.52008,0.2933 0.83455,0.57147 0.9434,0.83455c0.96155,-0.84966 2.0259,-1.27448 3.19305,-1.27448c1.17018,0 2.11055,0.36285 2.82112,1.08854c0.83757,-0.72569 1.84448,-1.08854 3.0207,-1.08854c2.55504,0 3.83257,1.5557 3.83257,4.66711v7.05736c0,0.10885 -0.66219,0.16327 -1.98657,0.16327c-1.32439,0 -1.98658,-0.06955 -1.98658,-0.20864v-6.75801c0,-0.77407 -0.2555,-1.16111 -0.7665,-1.16111c-0.27818,0 -0.63347,0.17084 -1.06586,0.51252zM240.77894,207.04735c0,0.10885 -0.66219,0.16327 -1.98657,0.16327c-1.32439,0 -1.98657,-0.06955 -1.98657,-0.20864v-6.75801c0,-0.77407 -0.25551,-1.16111 -0.76651,-1.16111c-0.26307,0 -0.61078,0.17084 -1.04318,0.51252v7.42927c0,0.15421 -0.6622,0.23131 -1.98658,0.23131c-1.32439,0 -1.98657,-0.08466 -1.98657,-0.25399v-7.59256h-0.58055c-0.51101,0 -0.76651,-0.53369 -0.76651,-1.60105c0,-0.48077 0.09374,-0.9691 0.2812,-1.46499c0.24795,-0.68033 0.6501,-1.02049 1.20646,-1.02049c0.55636,0 1.09308,0.14664 1.61013,0.43994c0.52008,0.2933 0.83455,0.57147 0.9434,0.83455c0.96155,-0.84966 2.02589,-1.27448 3.19305,-1.27448c1.17018,0 2.11056,0.36285 2.82113,1.08854c0.83756,-0.72569 1.84447,-1.08854 3.0207,-1.08854c2.55504,0 3.83257,1.5557 3.83257,4.66711v7.05736c0,0.10885 -0.6622,0.16327 -1.98658,0.16327c-1.32439,0 -1.98657,-0.06955 -1.98657,-0.20864v-6.75801c0,-0.77407 -0.25551,-1.16111 -0.76651,-1.16111c-0.27818,0 -0.63345,0.17084 -1.06586,0.51252zM253.5718,207.39658c-1.53303,0 -2.82567,-0.52159 -3.87792,-1.56477c-1.05225,-1.04621 -1.57839,-2.49456 -1.57839,-4.34508c0,-1.85052 0.50648,-3.3397 1.51942,-4.46754c1.01597,-1.13088 2.29803,-1.69629 3.84617,-1.69629c1.54814,0 2.74402,0.3946 3.58764,1.18378c0.84363,0.78919 1.26544,1.74922 1.26544,2.88009c0,2.50666 -1.43929,3.75999 -4.31787,3.75999h-1.6056c0,0.46566 0.127,0.78768 0.38099,0.96609c0.25701,0.17841 0.63347,0.26761 1.12936,0.26761c1.08551,0 3.17338,-0.65162 3.29737,-0.42182c0.37192,0.66824 0.55787,1.23066 0.55787,1.68725c0,0.45658 -0.14664,0.75441 -0.43994,0.89352c0,0 -2.23152,0.85721 -3.76454,0.85721zM254.43356,199.82671c0,-0.6501 -0.31748,-0.97515 -0.95247,-0.97515c-0.2933,0 -0.54578,0.08919 -0.75744,0.2676c-0.20864,0.1784 -0.31296,0.43693 -0.31296,0.77559v0.72116h1.25636c0.51101,0 0.76651,-0.26307 0.76651,-0.78919zM264.69446,207.02466c0,0.10885 -0.55636,0.16329 -1.66909,0.16329c-1.54814,-0.04537 -2.32221,-0.13002 -2.32221,-0.25399v-7.52452h-0.60323c-0.40215,0 -0.66522,-0.34017 -0.7892,-1.0205c-0.03327,-0.2026 -0.04988,-0.40365 -0.04988,-0.60323c0,-0.48077 0.09374,-0.96155 0.2812,-1.44231c0.27818,-0.68033 0.71057,-1.0205 1.29717,-1.0205c0.58963,0 1.11575,0.1391 1.57839,0.41728c0.46564,0.27818 0.77709,0.55636 0.93432,0.83455c0.97364,-0.83455 2.13323,-1.25183 3.47879,-1.25183c1.34858,0 2.32373,0.36435 2.92545,1.09307c0.60474,0.72569 0.90711,1.91705 0.90711,3.57404v6.96664c0,0.18444 -0.66219,0.27668 -1.98657,0.27668c-1.32137,0 -1.98204,-0.09222 -1.98204,-0.27668v-6.71265c0,-0.77407 -0.27062,-1.16111 -0.81187,-1.16111c-0.15723,0 -0.37494,0.06653 -0.65312,0.19958c-0.27818,0.13002 -0.45658,0.22677 -0.53519,0.29027zM277.97969,207.02466c0,0.18748 -0.65011,0.2812 -1.9503,0.2812c-1.54814,-0.0635 -2.32221,-0.1648 -2.32221,-0.30388v-8.21847h-1.18379c-0.31144,0 -0.46717,-0.53519 -0.46717,-1.6056c0,-0.27818 0.02721,-0.61835 0.08165,-1.0205c0.05442,-0.40215 0.16782,-0.60323 0.34016,-0.60323h1.22914v-2.04554c0,-0.30841 0.65313,-0.46263 1.95938,-0.46263c1.30926,0 1.9639,0.12397 1.9639,0.37192v1.48767l0.02268,0.64858h1.97752c0.26307,0 0.3946,0.54276 0.3946,1.62829c0,1.08249 -0.13153,1.62373 -0.3946,1.62373h-1.65095zM284.64317,204.1219c0.46564,0 0.69848,-0.16177 0.69848,-0.48531c0,-0.23282 -0.40215,-0.53519 -1.20647,-0.90711c-1.93518,-0.78919 -2.90277,-2.08183 -2.90277,-3.87792c0,-1.14599 0.41728,-2.01984 1.25183,-2.62157c0.83756,-0.60474 1.83993,-0.90711 3.00708,-0.90711c1.17018,0 2.16045,0.12397 2.97081,0.37192c0.81337,0.24795 1.22007,0.57299 1.22007,0.97515c0,0.33866 -0.1663,0.78768 -0.49891,1.34706c-0.33262,0.55636 -0.5609,0.85722 -0.68488,0.90259c-0.66522,-0.3689 -1.38487,-0.55334 -2.15894,-0.55334c-0.41728,0 -0.62591,0.14665 -0.62591,0.43995c0,0.18444 0.08013,0.34318 0.24039,0.47623c0.16327,0.13002 0.46111,0.29178 0.89352,0.4853c0.43541,0.19352 0.79524,0.36888 1.07946,0.52613c0.28725,0.15421 0.60928,0.37042 0.96609,0.6486c0.74384,0.58661 1.11575,1.35311 1.11575,2.29954c0,1.2367 -0.41122,2.23907 -1.23368,3.00708c-0.81943,0.765 -2.05764,1.14751 -3.71464,1.14751c-1.0976,0 -2.09543,-0.18596 -2.99348,-0.55788c-0.89804,-0.37192 -1.34706,-0.88293 -1.34706,-1.53303c0,-0.4324 0.10432,-0.88745 0.31296,-1.3652c0.20864,-0.48077 0.42181,-0.79979 0.63952,-0.95702c0,0 2.2451,1.13842 2.97079,1.13842z" fill="none" stroke-opacity="0.50196" stroke="#000000" stroke-width="4" stroke-linecap="square"/><path d="M193.77483,190.70113c1.13088,0 2.12568,0.15875 2.9844,0.47623c0.85874,0.31748 1.28811,0.74686 1.28811,1.28811c0,0.54125 -0.20562,1.211 -0.61684,2.00926c-0.4082,0.79826 -0.75139,1.19738 -1.02957,1.19738c-0.07863,0 -0.16782,-0.04232 -0.26759,-0.127c-0.09978,-0.08769 -0.33262,-0.18142 -0.69848,-0.28121c-0.36285,-0.09978 -0.6758,-0.14967 -0.93887,-0.14967c-0.89804,0 -1.62222,0.31748 -2.17254,0.95246c-0.54729,0.63499 -0.82094,1.60711 -0.82094,2.91638c0,1.30624 0.2812,2.27686 0.84362,2.91185c0.56543,0.63499 1.28206,0.95246 2.14987,0.95246c0.3568,0 0.75594,-0.04988 1.19739,-0.14967c0.44145,-0.10282 0.75441,-0.24643 0.93887,-0.43089c0.03023,-0.03326 0.09222,-0.04989 0.18596,-0.04989c0.09374,0 0.2676,0.17536 0.52159,0.52613c0.25701,0.34773 0.49286,0.80432 0.70755,1.36974c0.21771,0.56543 0.32657,1.00237 0.32657,1.31078c0,0.60474 -0.46414,1.08552 -1.39242,1.44231c-0.92828,0.35377 -2.02741,0.53067 -3.29737,0.53067c-2.04403,0 -3.72371,-0.71963 -5.03902,-2.15894c-1.31531,-1.4393 -1.97297,-3.47123 -1.97297,-6.09582c0,-2.62459 0.67732,-4.68676 2.03194,-6.18653c1.35462,-1.50279 3.04488,-2.25417 5.07077,-2.25417zM201.05588,205.79552c-0.9676,-1.06737 -1.45138,-2.54597 -1.45138,-4.43579c0,-1.88982 0.4838,-3.36843 1.45138,-4.4358c0.9676,-1.06736 2.27233,-1.60105 3.9142,-1.60105c1.64188,0 2.94207,0.53368 3.9006,1.60105c0.95852,1.06736 1.43778,2.54598 1.43778,4.4358c0,1.88982 -0.47926,3.36843 -1.43778,4.43579c-0.95851,1.06737 -2.25872,1.60105 -3.9006,1.60105c-1.64188,0 -2.94662,-0.53369 -3.9142,-1.60105zM204.97914,199.2008c-0.87385,0 -1.31078,0.71209 -1.31078,2.13626c0,1.42417 0.43693,2.13625 1.31078,2.13625c0.87689,0 1.31531,-0.71208 1.31531,-2.13625c0,-1.42417 -0.43843,-2.13626 -1.31531,-2.13626zM222.47992,207.04735c0,0.10885 -0.66219,0.16327 -1.98658,0.16327c-1.32439,0 -1.98658,-0.06955 -1.98658,-0.20864v-6.75802c0,-0.77407 -0.25551,-1.16111 -0.7665,-1.16111c-0.26307,0 -0.6108,0.17084 -1.04318,0.51252v7.42927c0,0.15421 -0.66219,0.23131 -1.98658,0.23131c-1.32439,0 -1.98658,-0.08465 -1.98658,-0.25399v-7.59256h-0.58056c-0.51101,0 -0.7665,-0.53369 -0.7665,-1.60105c0,-0.48077 0.09374,-0.9691 0.2812,-1.46499c0.24795,-0.68033 0.6501,-1.02049 1.20646,-1.02049c0.55636,0 1.09307,0.14665 1.61012,0.43994c0.52008,0.2933 0.83455,0.57147 0.94339,0.83455c0.96155,-0.84966 2.0259,-1.27448 3.19305,-1.27448c1.17018,0 2.11056,0.36285 2.82112,1.08854c0.83757,-0.72569 1.84448,-1.08854 3.0207,-1.08854c2.55504,0 3.83256,1.55571 3.83256,4.6671v7.05736c0,0.10885 -0.66219,0.16327 -1.98658,0.16327c-1.32439,0 -1.98658,-0.06955 -1.98658,-0.20864v-6.75802c0,-0.77407 -0.25551,-1.16111 -0.7665,-1.16111c-0.27818,0 -0.63346,0.17084 -1.06586,0.51252zM240.77894,207.04735c0,0.10885 -0.66219,0.16327 -1.98658,0.16327c-1.32439,0 -1.98658,-0.06955 -1.98658,-0.20864v-6.75802c0,-0.77407 -0.25551,-1.16111 -0.7665,-1.16111c-0.26307,0 -0.6108,0.17084 -1.04318,0.51252v7.42927c0,0.15421 -0.66219,0.23131 -1.98658,0.23131c-1.32439,0 -1.98658,-0.08465 -1.98658,-0.25399v-7.59256h-0.58056c-0.51101,0 -0.7665,-0.53369 -0.7665,-1.60105c0,-0.48077 0.09374,-0.9691 0.2812,-1.46499c0.24795,-0.68033 0.6501,-1.02049 1.20646,-1.02049c0.55636,0 1.09307,0.14665 1.61012,0.43994c0.52008,0.2933 0.83455,0.57147 0.94339,0.83455c0.96155,-0.84966 2.0259,-1.27448 3.19305,-1.27448c1.17018,0 2.11056,0.36285 2.82112,1.08854c0.83756,-0.72569 1.84447,-1.08854 3.0207,-1.08854c2.55504,0 3.83256,1.55571 3.83256,4.6671v7.05736c0,0.10885 -0.66219,0.16327 -1.98658,0.16327c-1.32439,0 -1.98658,-0.06955 -1.98658,-0.20864v-6.75802c0,-0.77407 -0.25551,-1.16111 -0.7665,-1.16111c-0.27818,0 -0.63346,0.17084 -1.06586,0.51252zM257.33632,206.53936c-0.97666,0.57147 -2.23151,0.85722 -3.76452,0.85722c-1.53303,0 -2.82567,-0.52158 -3.87792,-1.56477c-1.05225,-1.04621 -1.57838,-2.49456 -1.57838,-4.34508c0,-1.85052 0.50646,-3.3397 1.51942,-4.46754c1.01597,-1.13088 2.29803,-1.69629 3.84617,-1.69629c1.54814,0 2.74402,0.3946 3.58764,1.18378c0.84363,0.78919 1.26544,1.74922 1.26544,2.88009c0,2.50666 -1.4393,3.75999 -4.31787,3.75999h-1.6056c0,0.46566 0.127,0.78768 0.38099,0.96609c0.25701,0.17841 0.63346,0.26761 1.12936,0.26761c1.08552,0 2.11509,-0.24795 3.08872,-0.74384c0.01512,-0.01512 0.08466,0.09223 0.20864,0.32203c0.37192,0.66824 0.55788,1.23066 0.55788,1.68724c0,0.45658 -0.14665,0.75441 -0.43994,0.89352zM254.43356,199.82671c0,-0.6501 -0.31748,-0.97515 -0.95247,-0.97515c-0.2933,0 -0.54578,0.08919 -0.75744,0.2676c-0.20864,0.1784 -0.31296,0.43693 -0.31296,0.77559v0.72116h1.25636c0.51101,0 0.76651,-0.26307 0.76651,-0.78919zM264.69446,207.02466c0,0.10885 -0.55636,0.16327 -1.66909,0.16327c-1.54814,-0.04536 -2.32221,-0.13002 -2.32221,-0.25399v-7.52452h-0.60323c-0.40215,0 -0.66522,-0.34017 -0.78919,-1.0205c-0.03326,-0.2026 -0.04989,-0.40367 -0.04989,-0.60323c0,-0.48077 0.09374,-0.96155 0.2812,-1.44231c0.27818,-0.68033 0.71057,-1.02049 1.29717,-1.02049c0.58963,0 1.11575,0.1391 1.57838,0.41728c0.46564,0.27818 0.77709,0.55636 0.93432,0.83455c0.97363,-0.83455 2.13323,-1.25182 3.47879,-1.25182c1.34858,0 2.32373,0.36435 2.92545,1.09307c0.60474,0.72569 0.90711,1.91704 0.90711,3.57403v6.96664c0,0.18444 -0.66219,0.27668 -1.98658,0.27668c-1.32137,0 -1.98204,-0.09222 -1.98204,-0.27668v-6.71265c0,-0.77407 -0.27062,-1.16111 -0.81187,-1.16111c-0.15723,0 -0.37494,0.06653 -0.65312,0.19957c-0.27818,0.13002 -0.45658,0.22679 -0.53519,0.29027zM277.97969,207.02466c0,0.18748 -0.6501,0.2812 -1.95029,0.2812c-1.54814,-0.06349 -2.32221,-0.1648 -2.32221,-0.30388v-8.21847h-1.18379c-0.31144,0 -0.46717,-0.53519 -0.46717,-1.6056c0,-0.27818 0.02721,-0.61835 0.08165,-1.0205c0.05442,-0.40215 0.16782,-0.60323 0.34017,-0.60323h1.22914v-2.04553c0,-0.30841 0.65313,-0.46263 1.95937,-0.46263c1.30926,0 1.9639,0.12397 1.9639,0.37192v1.48767l0.02268,0.6486h1.97752c0.26307,0 0.3946,0.54276 0.3946,1.62827c0,1.0825 -0.13153,1.62373 -0.39459,1.62373h-1.65095zM281.67236,202.98347c1.25485,0.75896 2.24511,1.13843 2.9708,1.13843c0.46564,0 0.69848,-0.16177 0.69848,-0.48531c0,-0.23282 -0.40214,-0.53519 -1.20646,-0.90711c-1.93518,-0.78919 -2.90277,-2.08183 -2.90277,-3.87792c0,-1.14599 0.41728,-2.01984 1.25183,-2.62157c0.83756,-0.60474 1.83993,-0.90711 3.00708,-0.90711c1.17018,0 2.16046,0.12397 2.97081,0.37192c0.81337,0.24795 1.22007,0.57299 1.22007,0.97515c0,0.33866 -0.1663,0.78768 -0.49891,1.34706c-0.33262,0.55636 -0.5609,0.85722 -0.68488,0.90259c-0.66522,-0.3689 -1.38487,-0.55334 -2.15894,-0.55334c-0.41728,0 -0.62591,0.14665 -0.62591,0.43995c0,0.18445 0.08013,0.34318 0.24039,0.47623c0.16327,0.13002 0.46111,0.29179 0.89352,0.4853c0.43541,0.19352 0.79524,0.3689 1.07946,0.52613c0.28725,0.15421 0.60927,0.37041 0.96608,0.6486c0.74384,0.58661 1.11575,1.35311 1.11575,2.29954c0,1.2367 -0.41122,2.23907 -1.23368,3.0071c-0.81943,0.765 -2.05764,1.14751 -3.71464,1.14751c-1.09761,0 -2.09543,-0.18596 -2.99349,-0.55788c-0.89804,-0.37192 -1.34706,-0.88293 -1.34706,-1.53303c0,-0.4324 0.10432,-0.88745 0.31296,-1.3652c0.20864,-0.48077 0.42181,-0.79978 0.63952,-0.95701z" fill="#ffffff" stroke="none" stroke-width="1" stroke-linecap="square"/></g></g></svg>
