<svg version="1.1" xmlns="http://www.w3.org/2000/svg" xmlns:xlink="http://www.w3.org/1999/xlink" width="300.97963" height="185.31336" viewBox="0,0,300.97963,185.31336"><defs><linearGradient x1="311.92663" y1="204.43027" x2="311.92663" y2="220.94754" gradientUnits="userSpaceOnUse" id="color-1"><stop offset="0" stop-color="#004d1e"/><stop offset="1" stop-color="#004d1e" stop-opacity="0"/></linearGradient><linearGradient x1="311.92663" y1="204.63434" x2="311.92663" y2="188.11704" gradientUnits="userSpaceOnUse" id="color-2"><stop offset="0" stop-color="#004d1e"/><stop offset="1" stop-color="#004d1e" stop-opacity="0"/></linearGradient><linearGradient x1="311.92663" y1="193.0303" x2="311.92663" y2="215.8097" gradientUnits="userSpaceOnUse" id="color-3"><stop offset="0" stop-color="#00ff73"/><stop offset="1" stop-color="#00fffe"/></linearGradient><linearGradient x1="215.54591" y1="214.78292" x2="205.98142" y2="214.78292" gradientUnits="userSpaceOnUse" id="color-4"><stop offset="0" stop-color="#595959" stop-opacity="0"/><stop offset="1" stop-color="#595959"/></linearGradient><linearGradient x1="196.44756" y1="214.78292" x2="206.01205" y2="214.78292" gradientUnits="userSpaceOnUse" id="color-5"><stop offset="0" stop-color="#595959" stop-opacity="0"/><stop offset="1" stop-color="#595959"/></linearGradient><linearGradient x1="317.74493" y1="110.16622" x2="340.18464" y2="163.79244" gradientUnits="userSpaceOnUse" id="color-6"><stop offset="0" stop-color="#cefffe"/><stop offset="1" stop-color="#f4c6ff"/></linearGradient><linearGradient x1="139.58698" y1="188.93451" x2="149.15147" y2="188.93451" gradientUnits="userSpaceOnUse" id="color-7"><stop offset="0" stop-color="#595959" stop-opacity="0"/><stop offset="1" stop-color="#595959"/></linearGradient><linearGradient x1="158.68532" y1="188.93451" x2="149.12084" y2="188.93451" gradientUnits="userSpaceOnUse" id="color-8"><stop offset="0" stop-color="#595959" stop-opacity="0"/><stop offset="1" stop-color="#595959"/></linearGradient><radialGradient cx="283.20389" cy="148.28476" r="8.25865" gradientUnits="userSpaceOnUse" id="color-9"><stop offset="0" stop-color="#b0d0ff"/><stop offset="1" stop-color="#0066ff"/></radialGradient><radialGradient cx="283.20389" cy="124.40892" r="8.25864" gradientUnits="userSpaceOnUse" id="color-10"><stop offset="0" stop-color="#b0ffff"/><stop offset="1" stop-color="#00ffff"/></radialGradient><radialGradient cx="259.35899" cy="148.28476" r="8.25865" gradientUnits="userSpaceOnUse" id="color-11"><stop offset="0" stop-color="#efb0ff"/><stop offset="1" stop-color="#cc00ff"/></radialGradient><radialGradient cx="259.35899" cy="124.40892" r="8.25864" gradientUnits="userSpaceOnUse" id="color-12"><stop offset="0" stop-color="#b0ffda"/><stop offset="1" stop-color="#00ff95"/></radialGradient></defs><g transform="translate(-89.51018,-87.34332)"><g stroke-miterlimit="10"><path d="M89.51018,272.65668v-185.31336h300.97963v185.31336z" fill="#666666" stroke="none" stroke-width="0" stroke-linecap="butt" stroke-linejoin="miter"/><path d="M252.07283,233.83963c-1.25166,1.72082 -4.27559,2.60693 -6.22405,2.87211c-3.12169,0.42487 -7.4142,-3.65019 -9.09378,-3.50941c-3.01115,0.2524 -5.55854,1.32333 -8.60537,1.15991c-2.91315,-0.15624 -4.78881,-1.02031 -7.18897,-2.45912c-1.88471,-1.12981 -4.42037,-0.06866 -6.57214,-0.51413c-1.21855,-0.25227 -2.67721,-0.36367 -3.5008,-1.29652c-1.01772,-1.15274 -1.49662,-3.57763 -3.03109,-3.47761c-4.36288,0.28439 -5.93933,1.5006 -10.48341,0.4708c-9.96231,-2.25771 -5.73273,-7.89742 -5.49581,-13.41653c0.06895,-1.60621 -1.5137,-0.94913 -2.07144,-2.23434c-0.49538,-1.14154 -0.45501,-2.45562 -0.50344,-3.69907c-0.20596,-5.28771 2.48117,-13.93503 7.65009,-16.22497c0.97178,-2.30554 2.85966,-2.77274 6.5302,-2.51174c0.73534,0.05228 1.03166,1.22759 1.76044,1.33865c0.56057,0.08542 0.91492,-0.76458 1.47617,-0.84539c0.66092,-0.09517 1.34297,0.11871 1.97527,0.33335c0.84358,0.28638 1.7256,1.54387 2.67388,1.74014c0.28147,0.05825 5.02422,-0.89218 5.30991,-0.86071c2.57288,0.28341 6.14783,6.91738 7.36021,9.45607c0.30556,0.63984 0.47884,1.28987 0.84306,1.98416c0.13598,0.25922 0.48726,0.96127 0.55881,0.67742c0.41367,-1.64104 1.87918,-2.19881 3.19817,-2.72823c5.25433,-2.10893 6.63525,2.4117 9.90279,6.03851c0.90371,1.00308 1.87763,1.95636 2.95475,2.77041c0.12091,0.09138 0.06247,-0.3017 0.13746,-0.43343c0.45252,-0.79497 0.91229,-1.58881 1.43924,-2.33652c0.28306,-0.40164 5.19766,-1.31777 5.60643,-1.04509c4.33227,2.89008 8.20979,9.66424 11.23192,13.51604c0.57533,0.73328 1.46102,3.56182 2.45352,3.94747c0.37811,0.14692 1.36378,-1.41118 1.59537,-1.66513c0.99419,-1.09013 4.56692,-5.22423 6.22457,-4.56989l4.91602,1.94054c0.24196,1.533 1.19674,3.14696 1.00885,4.63115c-0.02865,0.22635 -0.08388,0.44968 -0.17227,0.66925c-0.14043,0.34884 -0.3364,0.6808 -0.57008,0.99959c-0.24855,0.36978 -0.54745,0.71343 -0.89557,1.02051c-0.87903,0.87499 -1.91612,1.67047 -2.64193,2.48492c-3.46297,3.8859 -6.91697,7.36619 -12.25489,6.90911c-1.93725,-0.16589 -4.60744,-5.53993 -5.40598,-5.50671c-0.07517,0.00312 -0.14706,0.01525 -0.21625,0.03491c-0.42397,1.69872 -1.07924,3.23881 -1.87987,4.33953z" fill="#4d4d4d" stroke="none" stroke-width="0.5" stroke-linecap="butt" stroke-linejoin="miter"/><path d="M260.91002,226.46944c-2.25406,0 -4.08133,-1.82727 -4.08133,-4.08133v-35.71163c0,-2.25406 1.82727,-4.08133 4.08133,-4.08133h102.03323c2.25406,0 4.08133,1.82727 4.08133,4.08133v35.71163c0,2.25406 -1.82727,4.08133 -4.08133,4.08133z" fill="#000000" stroke="#272727" stroke-width="5" stroke-linecap="butt" stroke-linejoin="miter"/><path d="M111.48915,108.51185c0.82586,-0.46456 1.5941,-0.6982 2.3488,-0.81406c0.47805,-0.0935 0.97202,-0.1425 1.47744,-0.1425c0.2476,0 0.49246,0.01176 0.73405,0.03475c0.6445,0.00531 1.30964,0.0158 2.02122,-0.03475c1.35747,-0.09645 1.92526,-1.93546 3.00543,-2.76326c4.45465,-3.41395 10.81131,0.15789 12.25427,4.38152c0.56791,1.66229 3.53653,-0.15543 5.26802,0.14073c5.40259,0.92406 12.61035,4.57251 12.93881,10.48501c0.14365,2.58582 -2.44961,3.41079 -3.03295,5.30765c-0.36596,1.19003 1.45695,2.24378 2.63472,2.64748c1.97892,0.67831 3.31968,1.14939 5.22406,2.29201c2.68995,1.61397 6.18516,7.3394 5.93533,10.58728c-0.04368,0.5679 -1.12158,2.89691 -0.90947,3.39942c1.04006,2.46401 4.65533,3.72899 3.4603,7.31407c-0.81292,2.43877 -2.22813,4.86536 -4.27788,6.41681c-1.04154,0.78834 -2.60837,-0.14691 -3.91272,-0.21737c-3.12186,-0.16865 -9.22517,-0.43618 -11.43994,-2.76124c-4.63435,-4.86513 -3.58689,-6.42886 -9.82448,-10.58672c-0.68392,-0.45589 -0.12666,1.73351 -0.62869,2.38433c-0.58699,0.76096 -1.58363,1.09342 -2.41805,1.57023c-1.39969,0.79983 -2.66825,2.16659 -4.27788,2.25602c-0.10799,0.006 -6.60213,-3.69749 -6.69593,-3.82625c-0.7741,-1.0626 -0.67404,-2.54229 -0.95656,-3.82625c-0.73835,-3.35558 2.13885,-6.56881 2.44307,-9.62209c0.01201,-0.12056 -2.25761,0.49953 -2.52546,0.48678c-1.47373,-0.07018 -3.63541,-0.41926 -4.87041,-1.36575c-1.4165,-1.08557 -3.85491,-3.40106 -4.13999,-5.33214c-0.3947,-2.67361 0.90721,-3.72076 0.10722,-5.12074c-2.25551,-1.33117 -3.7686,-3.7864 -3.7686,-6.59504c0,-2.49035 1.18957,-4.70284 3.03149,-6.10028c0.23559,-0.22807 0.49828,-0.42888 0.79476,-0.59565z" fill="#4d4d4d" stroke="none" stroke-width="0.5" stroke-linecap="butt" stroke-linejoin="miter"/><path d="M259.32935,220.94754v-16.51729h105.19456v16.51729z" fill="url(#color-1)" stroke="none" stroke-width="0" stroke-linecap="butt" stroke-linejoin="miter"/><path d="M259.32935,204.63434v-16.51728h105.19456v16.51728z" fill="url(#color-2)" stroke="none" stroke-width="0" stroke-linecap="butt" stroke-linejoin="miter"/><path d="M325.24876,113.61349c3.43079,-1.92986 8.85612,-1.1824 12.54862,-2.26076c11.06404,-3.23115 25.98268,-4.18382 26.98926,9.58391c0.04868,0.66586 1.19235,0.60361 1.76484,0.9471c2.09611,1.25766 4.71599,5.05592 5.28727,7.62671c0.66848,3.00817 -1.87038,4.94755 -2.1635,7.58564c-0.04935,0.44421 0.72254,0.53727 1.01803,0.8726c0.81986,0.9304 1.09905,3.03046 1.44812,4.42674c1.2171,4.86842 2.91651,8.0426 -0.10181,12.71568c-0.44646,0.69122 0.67733,3.2169 0.30933,3.9529c-1.14964,2.29929 -2.70358,4.93442 -5.14235,5.74734c-1.22066,0.40689 -10.54781,-1.60692 -12.2486,-4.1581c-1.6576,-2.4864 -2.11978,-5.86674 -1.09727,-8.56465c0.50005,-1.3194 1.13472,-1.90814 2.08969,-2.8631c0.47681,-0.47681 2.14238,-1.0217 1.53593,-1.31651c-4.48427,-2.1799 -9.61653,-1.57925 -13.75201,-5.11155c-1.51188,-1.29136 0.07329,-5.45468 -1.90515,-5.65252c-1.95362,-0.19536 -4.31887,0.14924 -6.35972,-0.10412c-5.23546,-0.64996 -17.09299,-5.73837 -15.6251,-13.07782c0.24496,-1.22483 1.36199,-1.76036 1.60696,-2.98519c-0.01906,-0.22025 -0.02878,-0.44317 -0.02878,-0.66836c0,-2.49035 1.18957,-4.70284 3.03149,-6.10028c0.23559,-0.22807 0.49828,-0.42888 0.79476,-0.59565z" fill="#4d4d4d" stroke="none" stroke-width="0.5" stroke-linecap="butt" stroke-linejoin="miter"/><path d="M143.84793,229.70604c-1.90231,-0.8514 -3.69826,-1.9984 -5.70693,-2.55419c-0.30233,-0.08366 -0.16916,0.6066 -0.2976,0.89279c-0.38821,0.86503 -1.32465,2.87438 -2.11743,3.32741c-1.58713,0.90693 -3.34987,1.54666 -5.14235,1.90515c-1.75837,0.35168 -5.56292,-2.55994 -6.69593,-3.82625c-0.57663,-0.64447 0.00752,-2.40144 -0.85595,-2.44908c-1.12244,-0.06193 -2.0392,1.11132 -3.16161,1.17367c-1.9038,0.10577 -5.65566,-2.26584 -6.69593,-3.82625c-1.61439,-2.42159 -1.14405,-5.4287 -2.75699,-8.03848c-1.5194,-2.45844 -4.37152,-4.44264 -5.63671,-6.81488c-3.48359,-6.53173 -5.77086,-13.96058 -2.53889,-21.15767c1.60129,-3.56582 1.87398,-4.29031 6.00075,-5.48235c0.71357,-0.20612 1.19303,-1.0643 1.93463,-1.1055c1.9038,-0.10577 5.65566,2.26584 6.69593,3.82625c1.73086,2.5963 0.38714,2.95336 0.95656,5.08073c0.69862,2.61009 2.44685,5.46201 3.12477,7.67342c0.37412,1.22037 0.34846,8.69573 1.77465,8.75758c1.12628,0.04884 2.03021,-0.51962 3.2452,-0.24963c0.2232,0.0496 0.41098,0.59894 0.54639,0.41469c2.70143,-3.67598 2.12176,-5.35113 8.14449,-5.35113c0.70109,0 1.35279,-0.73788 2.02918,-0.55341c4.23013,1.15367 4.8711,4.39017 7.00566,7.32919c2.49678,3.43774 7.64911,5.98688 7.64911,10.72863c0,1.63971 0.81406,5.54785 -0.90592,6.5307z" fill="#4d4d4d" stroke="none" stroke-width="0.5" stroke-linecap="butt" stroke-linejoin="miter"/><path d="M281.57122,98.76445c0.26412,0.03963 0.57304,0.12482 0.91936,0.24939c0.85418,0.23163 1.67606,0.61377 2.42367,1.14642c4.50716,2.47867 11.16333,7.51582 13.24268,9.48541c4.6411,4.3961 6.1293,5.26896 4.59946,10.79213c-0.35072,1.26621 0.07479,3.14465 -1.06719,3.79442c-7.27056,4.13688 -14.57929,3.29747 -22.76407,3.52746c-1.04077,0.02924 -0.12796,2.206 -0.76718,3.02785c-0.53229,0.68436 -1.60329,0.72239 -2.25826,1.29042c-0.65496,0.56806 -0.84408,1.62292 -1.59683,2.05307c-3.24723,1.85556 -9.40602,-0.73319 -13.07849,-0.54745c-2.62466,0.13275 -5.20103,2.55078 -7.69418,1.71973c-3.4236,-1.1412 -6.87507,-8.28313 -5.38112,-11.81415c2.16096,-5.10751 5.58246,-6.51373 10.58172,-5.9521c0.86437,0.09711 3.26872,1.22175 3.9018,0.74192c0.55947,-0.42402 -0.07397,-1.45585 0.2167,-2.09484c0.96646,-2.1246 3.34187,-4.18289 5.83205,-4.77969c1.20799,-0.2895 2.61623,-0.40375 3.93239,-0.30249c0.11335,0.00871 2.45285,0.73153 2.44074,0.69317c-0.39863,-0.4008 -0.74374,-0.83475 -1.03532,-1.29295c-1.88333,-2.95961 -1.53323,-6.93078 1.05028,-9.51429c1.51488,-1.51488 3.50686,-2.26186 5.49228,-2.24094c0.33273,-0.03573 0.6689,-0.03357 1.00951,0.01753z" fill="#4d4d4d" stroke="none" stroke-width="0.5" stroke-linecap="butt" stroke-linejoin="miter"/><path d="M257.37701,205.20908l8.81774,0.34011l4.20436,-10.15297l8.19492,20.41348l8.02003,-16.8762l5.20433,10.0797l6.31433,-7.42l3.40337,2.99766l6.80944,0.02728l5.81907,6.77581l9.2175,-18.36365l7.21935,13.35548l6.01511,-9.21962l8.78137,15.18524l8.21235,-12.30302l3.09019,5.15268l9.77577,0.00802" fill="none" stroke="url(#color-3)" stroke-width="3" stroke-linecap="round" stroke-linejoin="miter"/><path d="M116.0064,219.13066c-2.25406,0 -4.08133,-1.50418 -4.08133,-4.34804c0,-2.84386 1.82727,-4.34805 4.08133,-4.34805h123.12009c2.25406,0 4.08133,1.50419 4.08133,4.34805c0,2.84386 -1.82727,4.34804 -4.08133,4.34804z" fill="#000000" stroke="#272727" stroke-width="5" stroke-linecap="butt" stroke-linejoin="miter"/><path d="M192.87143,222.60516c-2.25406,0 -4.08133,-1.82727 -4.08133,-4.08133v-7.48243c0,-2.25406 1.82727,-4.08133 4.08133,-4.08133h26.52864c2.25406,0 4.08133,1.82727 4.08133,4.08133v7.48243c0,2.25406 -1.82727,4.08133 -4.08133,4.08133z" fill="#414141" stroke="#272727" stroke-width="5" stroke-linecap="butt" stroke-linejoin="miter"/><path d="M205.98142,219.98643v-10.407h9.5645v10.407z" fill="url(#color-4)" stroke="#272727" stroke-width="0" stroke-linecap="butt" stroke-linejoin="miter"/><path d="M196.44756,219.98643v-10.407h9.56449v10.407z" fill="url(#color-5)" stroke="#272727" stroke-width="0" stroke-linecap="butt" stroke-linejoin="miter"/><path d="M98.4736,104.76954c0,-2.80881 2.27699,-5.08581 5.08581,-5.08581c2.80881,0 5.08582,2.277 5.08582,5.08582c0,2.80881 -2.277,5.08581 -5.08581,5.08581c-2.80881,0 -5.08581,-2.27699 -5.08581,-5.08581z" fill="#303030" stroke="#212121" stroke-width="2" stroke-linecap="butt" stroke-linejoin="miter"/><path d="M105.00488,103.32407l-2.89095,2.89094" fill="none" stroke="#212121" stroke-width="2" stroke-linecap="round" stroke-linejoin="miter"/><path d="M102.11393,103.32407l2.89095,2.89094" fill="none" stroke="#212121" stroke-width="2" stroke-linecap="round" stroke-linejoin="miter"/><path d="M376.4406,109.85534c-2.80881,0 -5.08581,-2.27699 -5.08581,-5.08581c0,-2.80881 2.277,-5.08581 5.08582,-5.08581c2.80881,0 5.08581,2.277 5.08581,5.08582c0,2.80881 -2.27699,5.08581 -5.08581,5.08581z" fill="#303030" stroke="#212121" stroke-width="2" stroke-linecap="butt" stroke-linejoin="miter"/><path d="M377.88606,106.21501l-2.89094,-2.89094" fill="none" stroke="#212121" stroke-width="2" stroke-linecap="round" stroke-linejoin="miter"/><path d="M374.99512,106.21501l2.89094,-2.89094" fill="none" stroke="#212121" stroke-width="2" stroke-linecap="round" stroke-linejoin="miter"/><path d="M103.5594,250.14472c2.80881,0 5.08582,2.27699 5.08582,5.08581c0,2.80881 -2.277,5.08582 -5.08581,5.08582c-2.80881,0 -5.08581,-2.277 -5.08581,-5.08581c0,-2.80881 2.27699,-5.08581 5.08581,-5.08581z" fill="#303030" stroke="#212121" stroke-width="2" stroke-linecap="butt" stroke-linejoin="miter"/><path d="M105.00488,256.67601l-2.89095,-2.89094" fill="none" stroke="#212121" stroke-width="2" stroke-linecap="round" stroke-linejoin="miter"/><path d="M260.91002,226.46944c-2.25406,0 -4.08133,-1.82727 -4.08133,-4.08133v-35.71163c0,-2.25406 1.82727,-4.08133 4.08133,-4.08133h102.03323c2.25406,0 4.08133,1.82727 4.08133,4.08133v35.71163c0,2.25406 -1.82727,4.08133 -4.08133,4.08133z" fill="none" stroke="#272727" stroke-width="5" stroke-linecap="butt" stroke-linejoin="miter"/><path d="M102.11394,256.67599l2.89095,-2.89094" fill="none" stroke="#212121" stroke-width="2" stroke-linecap="round" stroke-linejoin="miter"/><path d="M376.4406,260.31632c-2.80881,0 -5.08581,-2.277 -5.08581,-5.08581c0,-2.80881 2.277,-5.08581 5.08582,-5.08581c2.80881,0 5.08581,2.15365 5.08581,5.08581c0,2.93216 -2.277,5.08581 -5.08582,5.08581z" fill="#303030" stroke="#212121" stroke-width="2" stroke-linecap="butt" stroke-linejoin="miter"/><path d="M374.99512,256.67599l2.89094,-2.89094" fill="none" stroke="#212121" stroke-width="2" stroke-linecap="round" stroke-linejoin="miter"/><path d="M374.99513,253.78507l2.89094,2.89094" fill="none" stroke="#212121" stroke-width="2" stroke-linecap="round" stroke-linejoin="miter"/><path d="M119.51638,131.64334c-6.50813,-1.06534 -10.92037,-7.20485 -9.85503,-13.71298c1.06534,-6.50813 7.20485,-10.92037 13.71298,-9.85503c6.50813,1.06534 10.92037,7.20485 9.85503,13.71298c-1.06534,6.50813 -7.20485,10.92037 -13.71298,9.85503z" fill="#414141" stroke="#272727" stroke-width="5" stroke-linecap="butt" stroke-linejoin="miter"/><path d="M115.86765,142.29105c5.83107,-3.08047 13.05529,-0.85068 16.13578,4.98038c3.08047,5.83107 0.85068,13.05529 -4.98038,16.13578c-5.83107,3.08047 -13.05529,0.85067 -16.13578,-4.98039c-3.08047,-5.83107 -0.85068,-13.05529 4.98038,-16.13577z" fill="#414141" stroke="#272727" stroke-width="5" stroke-linecap="butt" stroke-linejoin="miter"/><path d="M111.40313,118.2155l7.99725,1.30911" fill="none" stroke="#272727" stroke-width="5" stroke-linecap="round" stroke-linejoin="miter"/><path d="M130.44285,148.09591l-7.16527,3.78531" fill="none" stroke="#272727" stroke-width="5" stroke-linecap="round" stroke-linejoin="miter"/><path d="M147.08595,112.6306c0,-2.41395 2.54667,-4.71386 5.64797,-4.71386c12.45578,0 60.24439,0 83.01054,0c3.70825,0 5.84124,1.75183 5.84124,4.61979c0,11.54059 0,41.1541 0,47.421c0,2.27839 -2.09191,4.41279 -5.73386,4.41279c-22.5875,0 -70.4465,0 -83.01054,0c-3.15474,0 -5.75534,-1.70645 -5.75534,-4.50688c0,-11.378 0,-40.81497 0,-47.23282z" fill="#000000" stroke="#272727" stroke-width="5" stroke-linecap="butt" stroke-linejoin="miter"/><path d="M155.56778,149.98858c1.5967,0 12.1261,0 15.04447,0c0.47535,0 0.74878,0.19299 0.74878,0.50893c0,1.27134 0,4.53365 0,5.22403c0,0.25099 -0.26815,0.48613 -0.73502,0.48613c-2.89547,0 -13.43391,0 -15.04447,0c-0.4044,0 -0.73777,-0.18799 -0.73777,-0.49649c0,-1.25343 0,-4.4963 0,-5.20331c0,-0.26593 0.32647,-0.51929 0.72401,-0.51929z" fill="#18ff00" stroke="#0dbd00" stroke-width="2" stroke-linecap="butt" stroke-linejoin="miter"/><path d="M191.50849,156.41172c-1.61057,0 -12.149,0 -15.04447,0c-0.46685,0 -0.73502,-0.23514 -0.73502,-0.48613c0,-0.69038 0,-3.95269 0,-5.22403c0,-0.31595 0.27343,-0.50893 0.74878,-0.50893c2.91837,0 13.44779,0 15.04448,0c0.39755,0 0.72401,0.25337 0.72401,0.5193c0,0.707 0,3.94986 0,5.2033c0,0 -0.33337,0.49649 -0.73778,0.49649z" fill="#18ff00" stroke="#0dbd00" stroke-width="2" stroke-linecap="butt" stroke-linejoin="miter"/><path d="M213.13145,155.71116c0,0.3085 -0.33336,0.49649 -0.73777,0.49649c-1.61057,0 -12.149,0 -15.04447,0c-0.46686,0 -0.73502,-0.23514 -0.73502,-0.48613c0,-0.69038 0,-3.95269 0,-5.22403c0,-0.31595 0.27343,-0.50893 0.74878,-0.50893c2.91837,0 13.44779,0 15.04448,0c0.39755,0 0.72402,0.5193 0.72402,0.5193c0,0 -0.00002,3.94986 -0.00002,5.2033z" fill="#18ff00" stroke="#0dbd00" stroke-width="2" stroke-linecap="butt" stroke-linejoin="miter"/><path d="M217.49941,150.50785c0,-0.26593 0.32647,-0.5193 0.72401,-0.5193c1.59669,0 12.1261,0 15.04447,0c0.47535,0 0.74878,0.19299 0.74878,0.50893c0,1.27134 0,4.53365 0,5.22403c0,0.25099 -0.26815,0.48613 -0.73502,0.48613c-2.89548,0 -13.43391,0 -15.04448,0c-0.40441,0 -0.73777,-0.188 -0.73777,-0.49649c0,-1.25344 0.00001,-5.2033 0.00001,-5.2033z" fill="#18ff00" stroke="#0dbd00" stroke-width="2" stroke-linecap="butt" stroke-linejoin="miter"/><path d="M155.56778,138.50982c1.5967,0 12.1261,0 15.04447,0c0.47535,0 0.74878,0.19299 0.74878,0.50893c0,1.27134 0,4.53365 0,5.22403c0,0.25099 -0.26815,0.48613 -0.73502,0.48613c-2.89547,0 -13.43391,0 -15.04447,0c-0.4044,0 -0.73777,-0.18799 -0.73777,-0.49649c0,-1.25343 0,-4.4963 0,-5.20331c0,-0.26593 0.32647,-0.51929 0.72401,-0.51929z" fill="#c7ff00" stroke="#a7d400" stroke-width="2" stroke-linecap="butt" stroke-linejoin="miter"/><path d="M213.13145,144.23242c0,0.3085 -0.33336,0.49649 -0.73777,0.49649c-1.61057,0 -12.149,0 -15.04447,0c-0.46686,0 -0.73502,-0.23514 -0.73502,-0.48613c0,-0.69038 0,-3.95269 0,-5.22403c0,-0.31595 0.27343,-0.50893 0.74878,-0.50893c2.91837,0 13.44779,0 15.04448,0c0.39755,0 0.72402,0.5193 0.72402,0.5193c0,0 -0.00002,3.94986 -0.00002,5.2033z" fill="#c7ff00" stroke="#a7d400" stroke-width="2" stroke-linecap="butt" stroke-linejoin="miter"/><path d="M217.49941,139.02911c0,-0.26593 0.32647,-0.5193 0.72401,-0.5193c1.59669,0 12.1261,0 15.04447,0c0.47535,0 0.74878,0.19299 0.74878,0.50893c0,1.27134 0,4.53365 0,5.22403c0,0.25099 -0.26815,0.48613 -0.73502,0.48613c-2.89548,0 -13.43391,0 -15.04448,0c-0.40441,0 -0.73777,-0.188 -0.73777,-0.49649c0,-1.25344 0.00001,-5.2033 0.00001,-5.2033z" fill="#c7ff00" stroke="#a7d400" stroke-width="2" stroke-linecap="butt" stroke-linejoin="miter"/><path d="M155.56778,127.03108c1.5967,0 12.1261,0 15.04447,0c0.47535,0 0.74878,0.19299 0.74878,0.50893c0,1.27134 0,4.53365 0,5.22403c0,0.25099 -0.26815,0.48613 -0.73502,0.48613c-2.89547,0 -13.43391,0 -15.04447,0c-0.4044,0 -0.73777,-0.18799 -0.73777,-0.49649c0,-1.25343 0,-4.4963 0,-5.20331c0,-0.26593 0.32647,-0.51929 0.72401,-0.51929z" fill="#ffe100" stroke="#ffc400" stroke-width="2" stroke-linecap="butt" stroke-linejoin="miter"/><path d="M213.13145,132.75368c0,0.3085 -0.33336,0.49649 -0.73777,0.49649c-1.61057,0 -12.149,0 -15.04447,0c-0.46686,0 -0.73502,-0.23514 -0.73502,-0.48613c0,-0.69038 0,-3.95269 0,-5.22403c0,-0.31595 0.27343,-0.50893 0.74878,-0.50893c2.91837,0 13.44779,0 15.04448,0c0.39755,0 0.72402,0.5193 0.72402,0.5193c0,0 -0.00002,3.94986 -0.00002,5.2033z" fill="#ffe100" stroke="#ffc400" stroke-width="2" stroke-linecap="butt" stroke-linejoin="miter"/><path d="M213.13145,121.27494c0,0.3085 -0.33336,0.49649 -0.73777,0.49649c-1.61057,0 -12.149,0 -15.04447,0c-0.46686,0 -0.73502,-0.23514 -0.73502,-0.48613c0,-0.69038 0,-3.95269 0,-5.22403c0,-0.31595 0.27343,-0.50893 0.74878,-0.50893c2.91837,0 13.44779,0 15.04448,0c0.39755,0 0.72402,0.5193 0.72402,0.5193c0,0 -0.00002,3.94986 -0.00002,5.2033z" fill="#ff0000" stroke="#b90000" stroke-width="2" stroke-linecap="butt" stroke-linejoin="miter"/><path d="M136.7424,254.82365c0,0.51236 -1.27337,0.76854 -3.82012,0.76854c-2.54675,0 -3.82013,-0.25617 -3.82013,-0.76854v-19.36436h-4.62635c-0.43701,0 -0.74593,-0.59273 -0.92677,-1.7782c-0.07534,-0.56259 -0.11301,-1.14026 -0.11301,-1.73299c0,-0.59273 0.03767,-1.1704 0.11302,-1.73299c0.18083,-1.18546 0.48976,-1.7782 0.92678,-1.7782h16.77994c0.43701,0 0.74594,0.59273 0.92678,1.7782c0.07534,0.56259 0.11302,1.14026 0.11302,1.73299c0,0.59273 -0.03767,1.1704 -0.11301,1.73299c-0.18083,1.18546 -0.48976,1.7782 -0.92677,1.7782h-4.51332zM142.76295,236.38608c0,-0.28632 1.1051,-0.42948 3.3153,-0.42948c2.21019,0 3.3153,0.14316 3.3153,0.42948v11.26448c0,1.28593 0.4119,1.9289 1.2357,1.9289c0.61784,0 1.31357,-0.27126 2.08713,-0.81376v-12.37963c0,-0.25617 1.09254,-0.38427 3.27763,-0.38427c2.18508,0 3.27763,0.12809 3.27763,0.38428v12.65088h1.00212c0.87404,0 1.31105,0.83637 1.31105,2.50908c0,0.84892 -0.17831,1.71039 -0.53496,2.58443c-0.51739,1.13021 -1.21309,1.69532 -2.08713,1.69532c-1.72295,0 -2.99633,-0.70575 -3.82012,-2.11727l-0.03767,0.03767c-1.56723,1.3864 -3.2525,2.0796 -5.05583,2.0796c-2.4915,0 -4.32998,-0.62287 -5.51546,-1.86863c-1.18045,-1.24574 -1.77066,-3.31027 -1.77066,-6.19358zM171.99995,255.20792c0,0.18083 -0.92426,0.27126 -2.77279,0.27126c-2.57186,-0.07534 -3.8578,-0.21599 -3.8578,-0.42195v-12.50018h-1.00212c-0.66808,0 -1.1051,-0.5651 -1.31105,-1.69532c-0.05525,-0.33656 -0.08287,-0.67059 -0.08287,-1.00212c0,-0.79869 0.15572,-1.59737 0.46715,-2.39606c0.46213,-1.13021 1.18045,-1.69532 2.15494,-1.69532c0.97952,0 1.85355,0.23106 2.6221,0.6932c0.77356,0.46213 1.29095,0.92426 1.55216,1.3864c1.61746,-1.3864 3.54386,-2.0796 5.77917,-2.0796c2.24033,0 3.86031,0.60529 4.85992,1.81588c1.00463,1.20556 1.50696,3.18469 1.50696,5.93741v11.5734c0,0.30642 -1.10007,0.45962 -3.30022,0.45962c-2.19513,0 -3.29269,-0.1532 -3.29269,-0.45962v-11.15146c0,-1.28593 -0.44957,-1.9289 -1.34872,-1.9289c-0.26121,0 -0.62287,0.1105 -1.08501,0.33153c-0.46213,0.21599 -0.7585,0.37674 -0.8891,0.48223zM193.52766,255.82578c-2.54675,0 -4.69416,-0.8665 -6.44222,-2.59949c-1.74806,-1.73801 -2.6221,-4.14412 -2.6221,-7.21831c0,-3.07419 0.84138,-5.5481 2.52415,-7.42175c1.68779,-1.87867 3.81761,-2.818 6.38948,-2.818c2.57186,0 4.55854,0.65552 5.96001,1.96658c1.40147,1.31105 2.10219,2.90591 2.10219,4.78457c0,4.16422 -2.39103,6.24632 -7.1731,6.24632h-2.6673c0,0.77356 0.21097,1.30854 0.63292,1.6049c0.42697,0.29637 1.05235,0.44456 1.87616,0.44456c1.80333,0 3.51372,-0.4119 5.13118,-1.2357c0.02511,-0.02511 0.14064,0.1532 0.34659,0.53497c0.61784,1.11012 0.92678,2.04443 0.92678,2.80293c0,0.7585 -0.24362,1.25328 -0.73087,1.48435c0,0 -3.70711,1.42405 -6.25387,1.42405zM194.95927,243.25023c0,-1.07998 -0.52743,-1.61997 -1.5823,-1.61997c-0.48725,0 -0.90668,0.14818 -1.2583,0.44456c-0.3466,0.29637 -0.5199,0.72584 -0.5199,1.28844v1.19803h2.08713c0.84892,0 1.27337,-0.43701 1.27337,-1.31105zM212.39379,246.03057c0.48725,0.38679 1.32863,0.91422 2.52415,1.5823c1.20054,0.66808 2.34583,1.00212 3.43586,1.00212c1.09505,0 1.64257,-0.42446 1.64257,-1.27337c0,-0.38679 -0.15572,-0.72836 -0.46715,-1.02473c-0.30642,-0.29637 -0.87152,-0.63543 -1.69532,-1.0172c-0.8238,-0.38679 -1.44165,-0.68817 -1.85355,-0.90418c-0.4119,-0.22101 -0.95943,-0.58268 -1.64257,-1.08501c-0.67812,-0.50232 -1.19802,-1.02473 -1.55969,-1.56723c-1.02473,-1.46174 -1.53709,-3.32534 -1.53709,-5.5908c0,-2.26545 0.84138,-4.17426 2.52415,-5.72643c1.68276,-1.55718 3.88795,-2.33578 6.61553,-2.33578c1.85355,0 3.56395,0.20092 5.13118,0.60278c1.56723,0.39684 2.37597,0.91673 2.4262,1.5597c0,0.07534 0,0.15069 0,0.22603c0,0.90418 -0.28381,2.04443 -0.85143,3.42079c-0.56259,1.37133 -0.95943,2.13485 -1.19049,2.29057c-1.6476,-0.84892 -3.12191,-1.27337 -4.42291,-1.27337c-1.29599,0 -1.94397,0.46213 -1.94397,1.3864c0,0.56762 0.4772,1.06993 1.4316,1.50696c0.20594,0.10548 0.49981,0.24864 0.88157,0.42948c0.38679,0.17581 0.83134,0.38679 1.33366,0.63292c0.50232,0.24613 1.04231,0.55506 1.61998,0.92678c0.57767,0.37171 1.20304,0.8665 1.87616,1.48435c1.36129,1.28593 2.04193,2.98377 2.04193,5.09351c0,2.75269 -0.7585,5.00309 -2.27549,6.75116c-1.517,1.74806 -3.8578,2.64721 -7.02241,2.69744c-1.54212,0 -2.93856,-0.12809 -4.18933,-0.38427c-1.24574,-0.25617 -2.33327,-0.75598 -3.26255,-1.49941c-0.92426,-0.74845 -1.3864,-1.65011 -1.3864,-2.70497c0,-1.05487 0.19339,-2.10219 0.58017,-3.142c0.38679,-1.04482 0.79869,-1.73299 1.2357,-2.06452zM238.12292,255.17024c0,0.23106 -1.07496,0.3466 -3.22488,0.3466c-2.1449,0 -3.21734,-0.17831 -3.21734,-0.53496v-26.43196c0,-0.17581 0.39934,-0.3014 1.19803,-0.37674c0.79869,-0.08037 1.46677,-0.12055 2.00425,-0.12055c2.15996,0 3.23995,0.23106 3.23995,0.6932v7.71561c1.44165,-0.43701 2.53671,-0.65552 3.28516,-0.65552c1.95402,0 3.49614,0.5224 4.62635,1.56723c1.13021,1.03979 1.69532,2.97372 1.69532,5.80177v11.95768c0,0.23106 -1.00212,0.3466 -3.00637,0.3466c-2.26545,-0.07534 -3.39818,-0.20343 -3.39818,-0.38427v-11.33983c0,-1.26081 -0.40939,-1.89122 -1.22816,-1.89122c-0.56762,0 -1.22565,0.26874 -1.97411,0.80623zM253.44198,241.43436c-0.71831,-1.28593 -1.07746,-2.33327 -1.07746,-3.142c0,-0.80874 0.2185,-1.32863 0.65552,-1.5597c1.46174,-0.64296 3.47102,-0.96445 6.02782,-0.96445c2.56182,0 4.37016,0.59776 5.42504,1.79327c1.05487,1.19551 1.5823,2.96367 1.5823,5.30448v6.09563h1.31105c0.43701,0 0.7786,0.2587 1.02473,0.77609c0.24613,0.51236 0.3692,1.21812 0.3692,2.11727c0,0.89915 -0.22603,1.78573 -0.67812,2.65977c-0.45209,0.87404 -1.0624,1.31105 -1.83095,1.31105c-1.39143,0 -2.51159,-0.37171 -3.36051,-1.11514c-0.38176,-0.31143 -0.67561,-0.68565 -0.88157,-1.12268c-1.18546,1.49188 -3.02647,2.23782 -5.52299,2.23782c-1.87365,0 -3.45344,-0.66808 -4.73937,-2.00425c-1.28593,-1.33616 -1.9289,-2.91847 -1.9289,-4.7469c0,-4.18933 2.50657,-6.28399 7.5197,-6.28399h2.1248v-0.39181c0,-0.66808 -0.1105,-1.09756 -0.33153,-1.28843c-0.21599,-0.19087 -0.72333,-0.28632 -1.52202,-0.28632c-0.97952,0 -2.36844,0.20344 -4.16673,0.61031zM256.53124,248.53965c0,0.56259 0.1532,0.99207 0.45962,1.28844c0.30642,0.29637 0.69822,0.44456 1.17542,0.44456c0.4772,0 0.9092,-0.19339 1.29599,-0.58017v-2.9687h-1.08501c-1.23067,0 -1.84602,0.60529 -1.84602,1.81588zM279.40708,255.40383c0,0.18083 -1.1704,0.27126 -3.5112,0.27126c-2.3408,-0.05525 -3.5112,-0.15822 -3.5112,-0.30893v-12.80911h-1.03979c-0.4119,0 -0.74092,-0.25115 -0.98705,-0.75347c-0.24613,-0.50232 -0.3692,-1.12518 -0.3692,-1.86863c0,-2.77782 0.8238,-4.16673 2.47141,-4.16673c1.15532,0 2.11978,0.35414 2.89336,1.0624c0.77356,0.70324 1.16035,1.50696 1.16035,2.41113c0.53748,-1.05487 1.26332,-1.89625 2.17755,-2.52415c0.91422,-0.63292 1.84602,-0.94938 2.7954,-0.94938c1.49188,0 2.39355,0.38428 2.70498,1.15282c0.07534,0.20594 0.11302,0.50985 0.11302,0.91171c0,0.39684 -0.12306,1.11012 -0.3692,2.13987c-0.24111,1.02975 -0.49227,1.77569 -0.75347,2.23782c-0.25617,0.46213 -0.40939,0.6932 -0.45962,0.6932c-0.05023,0 -0.28884,-0.09544 -0.71579,-0.28632c-0.42195,-0.1959 -0.8012,-0.29385 -1.13774,-0.29385c-0.97449,0 -1.46174,0.77105 -1.46174,2.31317zM286.22993,228.74581c0,-0.4119 1.1704,-0.61784 3.5112,-0.61784c2.1901,0.07534 3.28516,0.24362 3.28516,0.50483v14.81336l3.81259,-7.06008c0.18083,-0.38679 1.27337,-0.58017 3.27763,-0.58017c2.00927,0 3.29771,0.12809 3.86533,0.38428l-5.01816,8.18276l5.7867,10.835c0.05023,0.10548 -0.43199,0.18836 -1.44668,0.24864c-1.01468,0.0653 -1.85607,0.09795 -2.52414,0.09795c-2.47141,0 -3.79752,-0.11553 -3.97836,-0.3466l-3.82012,-8.5595v8.52183c0,0.33656 -1.12518,0.50483 -3.37558,0.50483c-2.25038,0 -3.37558,-0.15572 -3.37558,-0.46715zM312.65647,228.94172c0,-0.13059 0.56008,-0.25368 1.68025,-0.3692c1.12017,-0.11553 2.03941,-0.17329 2.75772,-0.17329c2.85317,0 4.34505,0.37171 4.47565,1.11514l3.31531,16.97583l3.12693,-16.97583c0.15572,-0.74342 1.75057,-1.11514 4.78458,-1.11514c0.74342,0 1.68025,0.05274 2.81046,0.15822c1.13523,0.10046 1.70285,0.21348 1.70285,0.33907l-6.8265,25.54287c-0.10548,0.4119 -0.86399,0.68064 -2.27549,0.80623c-2.1901,0.23106 -4.17929,0.27628 -5.96755,0.13562c-1.78323,-0.14064 -2.72758,-0.39181 -2.83307,-0.75347zM338.50312,253.03253c0,-0.71831 0.18083,-1.53458 0.5425,-2.4488c0.36167,-0.91422 0.70826,-1.6476 1.03979,-2.20015c0.33656,-0.55254 0.52995,-0.82882 0.58017,-0.82882c1.49188,0.89915 3.06163,1.34873 4.70923,1.34873c1.02975,0 1.85858,-0.20594 2.48647,-0.61784c0.62789,-0.4119 0.94185,-0.98203 0.94185,-1.71038c0,-0.73337 -0.28884,-1.20304 -0.8665,-1.40901c-0.57767,-0.20594 -1.49691,-0.34912 -2.75772,-0.42948h-1.3864c-0.31143,0 -0.60278,-0.37925 -0.87404,-1.13774c-0.26623,-0.7585 -5.22159,2.3609 -5.22159,1.64258c0,-1.21059 5.18141,-5.68624 5.89973,-5.71135l1.12268,-0.03767c0.6932,0 1.41905,-0.19841 2.17755,-0.59524c0.7585,-0.40185 1.13775,-0.91171 1.13775,-1.52955c0,-1.07998 -0.96445,-1.61998 -2.89336,-1.61998c-1.44165,0 -2.83055,0.28381 -4.16673,0.85143c-1.15532,-2.08462 -1.73299,-3.71213 -1.73299,-4.88253c0,-1.1704 0.81627,-2.04946 2.4488,-2.63716c1.63253,-0.59273 3.68199,-0.8891 6.14838,-0.8891c2.47141,0 4.40031,0.51487 5.7867,1.54463c1.39143,1.02473 2.08713,2.4262 2.08713,4.2044c0,3.10935 -1.33868,5.50038 -4.01603,7.17311c3.24497,1.31105 4.86745,3.53632 4.86745,6.67581c0,2.44127 -0.86399,4.41538 -2.59196,5.92232c-1.72295,1.50193 -4.19184,2.2529 -7.40667,2.2529c-2.02936,0 -3.88041,-0.28884 -5.55313,-0.8665c-1.67271,-0.57767 -2.50908,-1.26584 -2.50908,-2.06452z" fill="none" stroke-opacity="0.50196" stroke="#000000" stroke-width="8" stroke-linecap="square" stroke-linejoin="round"/><path d="M136.74242,254.82367c0,0.51236 -1.27337,0.76854 -3.82012,0.76854c-2.54675,0 -3.82013,-0.25617 -3.82013,-0.76854v-19.36436h-4.62635c-0.43701,0 -0.74593,-0.59273 -0.92677,-1.7782c-0.07534,-0.56259 -0.11301,-1.14026 -0.11301,-1.73299c0,-0.59273 0.03767,-1.1704 0.11302,-1.73299c0.18083,-1.18546 0.48976,-1.7782 0.92678,-1.7782h16.77994c0.43701,0 0.74594,0.59273 0.92678,1.7782c0.07534,0.56259 0.11302,1.14026 0.11302,1.73299c0,0.59273 -0.03767,1.1704 -0.11301,1.73299c-0.18083,1.18546 -0.48976,1.7782 -0.92677,1.7782h-4.51332zM142.76298,236.38608c0,-0.28632 1.1051,-0.42948 3.3153,-0.42948c2.21019,0 3.3153,0.14316 3.3153,0.42948v11.26448c0,1.28593 0.4119,1.9289 1.2357,1.9289c0.61784,0 1.31357,-0.27126 2.08713,-0.81376v-12.37963c0,-0.25617 1.09254,-0.38427 3.27763,-0.38427c2.18508,0 3.27763,0.12809 3.27763,0.38428v12.65088h1.00212c0.87404,0 1.31105,0.83637 1.31105,2.50908c0,0.84892 -0.17831,1.71039 -0.53496,2.58443c-0.51739,1.13021 -1.21309,1.69532 -2.08713,1.69532c-1.72295,0 -2.99633,-0.70575 -3.82012,-2.11727l-0.03767,0.03767c-1.56723,1.3864 -3.2525,2.0796 -5.05583,2.0796c-2.4915,0 -4.32998,-0.62287 -5.51546,-1.86863c-1.18045,-1.24574 -1.77066,-3.31027 -1.77066,-6.19358zM171.99997,255.20794c0,0.18083 -0.92426,0.27126 -2.77279,0.27126c-2.57186,-0.07534 -3.8578,-0.21599 -3.8578,-0.42195v-12.50018h-1.00212c-0.66808,0 -1.1051,-0.5651 -1.31105,-1.69532c-0.05525,-0.33656 -0.08287,-0.67059 -0.08287,-1.00212c0,-0.79869 0.15572,-1.59737 0.46715,-2.39606c0.46213,-1.13021 1.18045,-1.69532 2.15494,-1.69532c0.97952,0 1.85355,0.23106 2.6221,0.6932c0.77356,0.46213 1.29095,0.92426 1.55216,1.3864c1.61746,-1.3864 3.54386,-2.0796 5.77917,-2.0796c2.24033,0 3.86031,0.60529 4.85992,1.81588c1.00463,1.20556 1.50696,3.18469 1.50696,5.93741v11.5734c0,0.30642 -1.10007,0.45962 -3.30022,0.45962c-2.19513,0 -3.29269,-0.1532 -3.29269,-0.45962v-11.15146c0,-1.28593 -0.44957,-1.9289 -1.34872,-1.9289c-0.26121,0 -0.62287,0.1105 -1.08501,0.33153c-0.46213,0.21599 -0.7585,0.37674 -0.8891,0.48223zM199.78154,254.40171c-1.62248,0.94938 -3.7071,1.42407 -6.25386,1.42407c-2.54675,0 -4.69416,-0.8665 -6.44222,-2.59949c-1.74806,-1.73801 -2.6221,-4.14412 -2.6221,-7.21831c0,-3.07419 0.84138,-5.5481 2.52415,-7.42175c1.68779,-1.87867 3.81761,-2.818 6.38948,-2.818c2.57186,0 4.55854,0.65552 5.96001,1.96658c1.40147,1.31105 2.10219,2.90591 2.10219,4.78457c0,4.16422 -2.39103,6.24632 -7.1731,6.24632h-2.6673c0,0.77356 0.21097,1.30854 0.63292,1.6049c0.42697,0.29637 1.05235,0.44456 1.87616,0.44456c1.80333,0 3.51372,-0.4119 5.13118,-1.2357c0.02511,-0.02511 0.14064,0.1532 0.34659,0.53497c0.61784,1.11012 0.92678,2.04443 0.92678,2.80293c0,0.7585 -0.24362,1.25328 -0.73087,1.48435zM194.95929,243.25026c0,-1.07998 -0.52743,-1.61997 -1.5823,-1.61997c-0.48725,0 -0.90668,0.14818 -1.2583,0.44456c-0.3466,0.29637 -0.5199,0.72584 -0.5199,1.28844v1.19803h2.08713c0.84892,0 1.27337,-0.43701 1.27337,-1.31105zM212.39382,246.03059c0.48725,0.38679 1.32863,0.91422 2.52415,1.5823c1.20054,0.66808 2.34583,1.00212 3.43586,1.00212c1.09505,0 1.64257,-0.42446 1.64257,-1.27337c0,-0.38679 -0.15572,-0.72836 -0.46715,-1.02473c-0.30642,-0.29637 -0.87152,-0.63543 -1.69532,-1.0172c-0.8238,-0.38679 -1.44165,-0.68817 -1.85355,-0.90418c-0.4119,-0.22101 -0.95943,-0.58268 -1.64257,-1.08501c-0.67812,-0.50232 -1.19802,-1.02473 -1.55969,-1.56723c-1.02473,-1.46174 -1.53709,-3.32534 -1.53709,-5.5908c0,-2.26545 0.84138,-4.17426 2.52415,-5.72643c1.68276,-1.55718 3.88795,-2.33578 6.61553,-2.33578c1.85355,0 3.56395,0.20092 5.13118,0.60278c1.56723,0.39684 2.37597,0.91673 2.4262,1.5597c0,0.07534 0,0.15069 0,0.22603c0,0.90418 -0.28381,2.04443 -0.85143,3.42079c-0.56259,1.37133 -0.95943,2.13485 -1.19049,2.29057c-1.6476,-0.84892 -3.12191,-1.27337 -4.42291,-1.27337c-1.29599,0 -1.94397,0.46213 -1.94397,1.3864c0,0.56762 0.4772,1.06993 1.4316,1.50696c0.20594,0.10548 0.49981,0.24864 0.88157,0.42948c0.38679,0.17581 0.83134,0.38679 1.33366,0.63292c0.50232,0.24613 1.04231,0.55506 1.61998,0.92678c0.57767,0.37171 1.20304,0.8665 1.87616,1.48435c1.36129,1.28593 2.04193,2.98377 2.04193,5.09351c0,2.75269 -0.7585,5.00309 -2.27549,6.75116c-1.517,1.74806 -3.8578,2.64721 -7.02241,2.69744c-1.54212,0 -2.93856,-0.12809 -4.18933,-0.38427c-1.24574,-0.25617 -2.33327,-0.75598 -3.26255,-1.49941c-0.92426,-0.74845 -1.3864,-1.65011 -1.3864,-2.70497c0,-1.05487 0.19339,-2.10219 0.58017,-3.142c0.38679,-1.04482 0.79869,-1.73299 1.2357,-2.06452zM238.12294,255.17027c0,0.23106 -1.07496,0.3466 -3.22488,0.3466c-2.1449,0 -3.21734,-0.17831 -3.21734,-0.53496v-26.43196c0,-0.17581 0.39934,-0.3014 1.19803,-0.37674c0.79869,-0.08037 1.46677,-0.12055 2.00425,-0.12055c2.15996,0 3.23995,0.23106 3.23995,0.6932v7.71561c1.44165,-0.43701 2.53671,-0.65552 3.28516,-0.65552c1.95402,0 3.49614,0.5224 4.62635,1.56723c1.13021,1.03979 1.69532,2.97372 1.69532,5.80177v11.95768c0,0.23106 -1.00212,0.3466 -3.00637,0.3466c-2.26545,-0.07534 -3.39818,-0.20343 -3.39818,-0.38427v-11.33983c0,-1.26081 -0.40939,-1.89122 -1.22816,-1.89122c-0.56762,0 -1.22565,0.26874 -1.97411,0.80623zM253.442,241.43438c-0.71831,-1.28593 -1.07746,-2.33327 -1.07746,-3.142c0,-0.80874 0.2185,-1.32863 0.65552,-1.5597c1.46174,-0.64296 3.47102,-0.96445 6.02782,-0.96445c2.56182,0 4.37016,0.59776 5.42504,1.79327c1.05487,1.19551 1.5823,2.96367 1.5823,5.30448v6.09563h1.31105c0.43701,0 0.7786,0.2587 1.02473,0.77609c0.24613,0.51236 0.3692,1.21812 0.3692,2.11727c0,0.89915 -0.22603,1.78573 -0.67812,2.65977c-0.45209,0.87404 -1.0624,1.31105 -1.83095,1.31105c-1.39143,0 -2.51159,-0.37171 -3.36051,-1.11514c-0.38176,-0.31143 -0.67561,-0.68565 -0.88157,-1.12268c-1.18546,1.49188 -3.02647,2.23782 -5.52299,2.23782c-1.87365,0 -3.45344,-0.66808 -4.73937,-2.00425c-1.28593,-1.33616 -1.9289,-2.91847 -1.9289,-4.7469c0,-4.18933 2.50657,-6.28399 7.5197,-6.28399h2.1248v-0.39181c0,-0.66808 -0.1105,-1.09756 -0.33153,-1.28843c-0.21599,-0.19087 -0.72333,-0.28632 -1.52202,-0.28632c-0.97952,0 -2.36844,0.20344 -4.16673,0.61031zM256.53126,248.53968c0,0.56259 0.1532,0.99207 0.45962,1.28844c0.30642,0.29637 0.69822,0.44456 1.17542,0.44456c0.4772,0 0.9092,-0.19339 1.29599,-0.58017v-2.9687h-1.08501c-1.23067,0 -1.84602,0.60529 -1.84602,1.81588zM279.4071,255.40385c0,0.18083 -1.1704,0.27126 -3.5112,0.27126c-2.3408,-0.05525 -3.5112,-0.15822 -3.5112,-0.30893v-12.80911h-1.03979c-0.4119,0 -0.74092,-0.25115 -0.98705,-0.75347c-0.24613,-0.50232 -0.3692,-1.12518 -0.3692,-1.86863c0,-2.77782 0.8238,-4.16673 2.47141,-4.16673c1.15532,0 2.11978,0.35414 2.89336,1.0624c0.77356,0.70324 1.16035,1.50696 1.16035,2.41113c0.53748,-1.05487 1.26332,-1.89625 2.17755,-2.52415c0.91422,-0.63292 1.84602,-0.94938 2.7954,-0.94938c1.49188,0 2.39355,0.38428 2.70498,1.15282c0.07534,0.20594 0.11302,0.50985 0.11302,0.91171c0,0.39684 -0.12306,1.11012 -0.3692,2.13987c-0.24111,1.02975 -0.49227,1.77569 -0.75347,2.23782c-0.25617,0.46213 -0.40939,0.6932 -0.45962,0.6932c-0.05023,0 -0.28884,-0.09544 -0.71579,-0.28632c-0.42195,-0.1959 -0.8012,-0.29385 -1.13774,-0.29385c-0.97449,0 -1.46174,0.77105 -1.46174,2.31317zM286.22995,228.74583c0,-0.4119 1.1704,-0.61784 3.5112,-0.61784c2.1901,0.07534 3.28516,0.24362 3.28516,0.50483v14.81336l3.81259,-7.06008c0.18083,-0.38679 1.27337,-0.58017 3.27763,-0.58017c2.00927,0 3.29771,0.12809 3.86533,0.38428l-5.01816,8.18276l5.7867,10.835c0.05023,0.10548 -0.43199,0.18836 -1.44668,0.24864c-1.01468,0.0653 -1.85607,0.09795 -2.52414,0.09795c-2.47141,0 -3.79752,-0.11553 -3.97836,-0.3466l-3.82012,-8.5595v8.52183c0,0.33656 -1.12518,0.50483 -3.37558,0.50483c-2.25038,0 -3.37558,-0.15572 -3.37558,-0.46715zM312.65649,228.94174c0,-0.13059 0.56008,-0.25368 1.68025,-0.3692c1.12017,-0.11553 2.03941,-0.17329 2.75772,-0.17329c2.85317,0 4.34505,0.37171 4.47565,1.11514l3.31531,16.97583l3.12693,-16.97583c0.15572,-0.74342 1.75057,-1.11514 4.78458,-1.11514c0.74342,0 1.68025,0.05274 2.81046,0.15822c1.13523,0.10046 1.70285,0.21348 1.70285,0.33907l-6.8265,25.54287c-0.10548,0.4119 -0.86399,0.68064 -2.27549,0.80623c-2.1901,0.23106 -4.17929,0.27628 -5.96755,0.13562c-1.78323,-0.14064 -2.72758,-0.39181 -2.83307,-0.75347zM338.50314,252.89476c0,-0.71831 0.18083,-1.53458 0.5425,-2.4488c0.36167,-0.91422 0.70826,-1.6476 1.03979,-2.20015c0.33656,-0.55254 0.52995,-0.82882 0.58017,-0.82882c1.49188,0.89915 3.06163,1.34873 4.70923,1.34873c1.02975,0 1.85858,-0.20594 2.48647,-0.61784c0.62789,-0.4119 0.94185,-0.98203 0.94185,-1.71038c0,-0.73337 -0.28884,-1.20304 -0.8665,-1.40901c-0.57767,-0.20594 -1.49691,-0.34912 -2.75772,-0.42948h-1.3864c-0.31143,0 -0.60278,-0.37925 -0.87404,-1.13774c-0.26623,-0.7585 -0.39934,-1.49691 -0.39934,-2.21522c0,-1.21059 0.35916,-1.82844 1.07747,-1.85355l1.12268,-0.03767c0.6932,0 1.41905,-0.19841 2.17755,-0.59524c0.7585,-0.40185 1.13775,-0.91171 1.13775,-1.52955c0,-1.07998 -0.96445,-1.61998 -2.89336,-1.61998c-1.44165,0 -2.83055,0.28381 -4.16673,0.85143c-1.15532,-2.08462 -1.73299,-3.71213 -1.73299,-4.88253c0,-1.1704 0.81627,-2.04946 2.4488,-2.63716c1.63253,-0.59273 3.68199,-0.8891 6.14838,-0.8891c2.47141,0 4.40031,0.51487 5.7867,1.54463c1.39143,1.02473 2.08713,2.4262 2.08713,4.2044c0,3.10935 -1.33868,5.50038 -4.01603,7.17311c3.24497,1.31105 4.86745,3.53632 4.86745,6.67581c0,2.44127 -0.86399,4.41538 -2.59196,5.92232c-1.72295,1.50193 -4.19184,2.2529 -7.40667,2.2529c-2.02936,0 -3.88041,-0.28884 -5.55313,-0.8665c-1.67271,-0.57767 -2.50908,-1.26584 -2.50908,-2.06452z" fill="#ffffff" stroke="none" stroke-width="1" stroke-linecap="square" stroke-linejoin="round"/><path d="M316.06078,110.936c14.38334,-7.12668 31.82065,-1.24401 38.94734,13.13932c7.12668,14.38333 1.24401,31.82065 -13.13933,38.94734c-14.38334,7.12668 -31.82064,1.24401 -38.94733,-13.13933c-7.12668,-14.38333 -1.24401,-31.82064 13.13933,-38.94733z" fill="url(#color-6)" stroke="#212121" stroke-width="5" stroke-linecap="butt" stroke-linejoin="miter"/><path d="M319.8981,136.97932c0,-5.00739 4.05929,-9.06668 9.06669,-9.06668c5.0074,0 9.06669,4.05929 9.06669,9.06668c0,5.00739 -4.05929,9.06669 -9.06669,9.06669c-5.0074,0 -9.06669,-4.05929 -9.06669,-9.06669z" fill="#414141" stroke="#272727" stroke-width="4" stroke-linecap="butt" stroke-linejoin="miter"/><path d="M351.64891,133.90087c0.07194,0.53418 0.12566,1.07464 0.16052,1.62083c0.48305,7.57051 -2.77127,14.51587 -8.17746,19.03453" fill="none" stroke="#4d4d4d" stroke-width="1" stroke-linecap="butt" stroke-linejoin="miter"/><path d="M329.89027,159.85182c-8.3299,0.34074 -15.84526,-3.83436 -20.117,-10.3876" fill="none" stroke="#4d4d4d" stroke-width="1" stroke-linecap="butt" stroke-linejoin="miter"/><path d="M310.25255,123.79256c3.85584,-5.46431 10.06083,-9.19886 17.2546,-9.65787c0.6191,-0.03951 1.23401,-0.05402 1.84375,-0.04439" fill="none" stroke="#4d4d4d" stroke-width="1" stroke-linecap="butt" stroke-linejoin="miter"/><path d="M345.53396,136.18198c0.2373,4.89943 -1.68253,9.41914 -4.93452,12.62171" fill="none" stroke="#4d4d4d" stroke-width="1" stroke-linecap="butt" stroke-linejoin="miter"/><path d="M328.27643,153.55467c-5.96126,-0.24029 -11.19317,-3.66171 -13.91378,-8.6961" fill="none" stroke="#4d4d4d" stroke-width="1" stroke-linecap="butt" stroke-linejoin="miter"/><path d="M314.6687,128.56221c2.68206,-4.54594 7.48249,-7.73519 13.13662,-8.13062" fill="none" stroke="#4d4d4d" stroke-width="1" stroke-linecap="butt" stroke-linejoin="miter"/><path d="M344.16497,140.0173l9.83692,-23.10085l3.48427,1.46253l-8.28768,19.74416z" fill="#414141" stroke="#272727" stroke-width="2.5" stroke-linecap="butt" stroke-linejoin="miter"/><path d="M353.71249,122.62802c-1.33091,0 -2.40983,-1.07892 -2.40983,-2.40983v-9.84014c0,-1.33091 1.07891,-2.40983 2.40983,-2.40983h6.82786c1.33091,0 2.40983,1.07891 2.40983,2.40983v7.22949c0,1.33091 -1.07891,2.40983 -2.40983,2.40983z" fill="#414141" stroke="#272727" stroke-width="4" stroke-linecap="butt" stroke-linejoin="miter"/><path d="M116.0064,193.28224c-2.25406,0 -4.08133,-1.50419 -4.08133,-4.34805c0,-2.84386 1.82727,-4.34805 4.08133,-4.34805h123.12009c2.25406,0 4.08133,1.50419 4.08133,4.34805c0,2.84386 -1.82727,4.34805 -4.08133,4.34805z" fill="#000000" stroke="#272727" stroke-width="5" stroke-linecap="butt" stroke-linejoin="miter"/><path d="M135.73282,196.75674c-2.25406,0 -4.08133,-1.82727 -4.08133,-4.08133v-7.48244c0,-2.25406 1.82727,-4.08133 4.08133,-4.08133h26.52864c2.25406,0 4.08133,1.82727 4.08133,4.08133v7.48244c0,2.25406 -1.82727,4.08133 -4.08133,4.08133z" fill="#414141" stroke="#272727" stroke-width="5" stroke-linecap="butt" stroke-linejoin="miter"/><path d="M139.58698,194.13801v-10.407h9.56449v10.407z" fill="url(#color-7)" stroke="#272727" stroke-width="0" stroke-linecap="butt" stroke-linejoin="miter"/><path d="M149.12084,194.13801v-10.407h9.56449v10.407z" fill="url(#color-8)" stroke="#272727" stroke-width="0" stroke-linecap="butt" stroke-linejoin="miter"/><path d="M278.69917,156.5434c-2.07323,0 -3.75392,-1.68069 -3.75392,-3.75392v-9.00942c0,-2.07323 1.68069,-3.75392 3.75392,-3.75392h9.00943c2.07323,0 3.75392,1.68069 3.75392,3.75392v9.00942c0,2.07323 -1.68069,3.75392 -3.75392,3.75392z" fill="url(#color-9)" stroke="#272727" stroke-width="4" stroke-linecap="butt" stroke-linejoin="miter"/><path d="M278.69917,132.66755c-2.07323,0 -3.75392,-1.68069 -3.75392,-3.75392v-9.00942c0,-2.07323 1.68069,-3.75392 3.75392,-3.75392h9.00943c2.07323,0 3.75392,1.68069 3.75392,3.75392v9.00942c0,2.07323 -1.68069,3.75392 -3.75392,3.75392z" fill="url(#color-10)" stroke="#272727" stroke-width="4" stroke-linecap="butt" stroke-linejoin="miter"/><path d="M254.85427,156.5434c-2.07323,0 -3.75392,-1.68069 -3.75392,-3.75392v-9.00942c0,-2.07323 1.68069,-3.75392 3.75392,-3.75392h9.00943c2.07323,0 3.75392,1.68069 3.75392,3.75392v9.00942c0,2.07323 -1.68069,3.75392 -3.75392,3.75392z" fill="url(#color-11)" stroke="#272727" stroke-width="4" stroke-linecap="butt" stroke-linejoin="miter"/><path d="M254.85428,132.66755c-2.07323,0 -3.75392,-1.68069 -3.75392,-3.75392v-9.00942c0,-2.07323 1.68069,-3.75392 3.75392,-3.75392h9.00942c2.07323,0 3.75392,1.68069 3.75392,3.75392v9.00942c0,2.07323 -1.68069,3.75392 -3.75392,3.75392z" fill="url(#color-12)" stroke="#272727" stroke-width="4" stroke-linecap="butt" stroke-linejoin="miter"/></g></g></svg>
