<svg version="1.1" xmlns="http://www.w3.org/2000/svg" xmlns:xlink="http://www.w3.org/1999/xlink" width="300" height="186" viewBox="0,0,300,186"><g transform="translate(-90,-87)"><g stroke-miterlimit="10"><path d="M390,87.00001v185.99999h-300v-185.99999z" fill="#005fff" stroke="none" stroke-width="0" stroke-linecap="butt"/><path d="M389.24138,87.00001c0.54188,0 0.75245,128.78884 0.75245,128.78884c0,0 -50.28398,9.35007 -72.11706,6.78756c-21.83308,-2.56251 -33.83152,-24.5794 -52.67534,-21.43415c-18.84381,3.14525 -20.50947,30.78946 -37.9632,36.56276c-17.45371,5.7733 -26.24992,-12.10122 -45.34905,-9.00492c-19.09913,3.0963 -24.59256,22.33908 -44.89611,23.63518c-20.30356,1.2961 -46.98692,0.09311 -46.98692,-17.76967c0,-51.89192 0,-147.56557 0,-147.56557c0,0 237.02088,0 299.23523,0z" fill="#006bff" stroke="none" stroke-width="0" stroke-linecap="butt"/><path d="M384.27497,87.00001c4.46955,0 10.55146,92.52986 -27.19272,104.59874c-16.99807,5.43521 -27.76746,-18.00166 -41.67324,-20.4701c-13.90576,-2.46844 -18.76602,1.50953 -35.5373,6.76436c-16.77128,5.25483 -24.19284,-14.35148 -43.08589,-6.21906c-18.89306,8.13242 -25.53431,35.47775 -38.45661,41.31864c-12.9223,5.84088 -20.58124,-11.59749 -34.14313,-8.50354c-13.56191,3.09396 -7.75494,22.77161 -27.94378,22.66779c-20.18884,-0.10382 -46.2423,-8.87342 -46.2423,-23.04927c0,-41.18125 0,-117.10755 0,-117.10755c0,0 238.79515,0 294.27497,0z" fill="#0077ff" stroke="none" stroke-width="0" stroke-linecap="butt"/><path d="M372.47423,87.00001c7.07895,0 -2.59116,37.59183 -38.24112,57.15075c-7.71371,4.23203 -42.33166,-3.07799 -58.88351,-2.18467c-30.25524,1.63291 -47.21346,9.79647 -61.98391,18.31909c-25.95127,14.97402 -26.83576,21.2691 -50.54686,29.14438c-18.59731,6.17682 -40.5113,-10.22548 -54.58084,-13.11682c-12.47965,-2.56461 -18.23799,9.03222 -18.23799,3.73762c0,-32.72145 0,-93.05033 0,-93.05033c0,0 230.63936,0 282.47423,0z" fill="#0084ff" stroke="none" stroke-width="0" stroke-linecap="butt"/><path d="M338.45361,87.00001c7.07895,0 -11.35405,18.2746 -47.00401,29.96109c-21.81366,7.15079 -55.23296,5.94883 -78.08391,13.82697c-25.95127,8.94701 -30.44401,19.55915 -54.1551,24.26465c-35.09307,6.96427 -69.21058,-5.72481 -69.21058,-12.45492c0,-19.55116 0,-55.59782 0,-55.59782c0,0 196.61874,0 248.45361,0z" fill="#0090ff" stroke="none" stroke-width="0" stroke-linecap="butt"/><g stroke="none" stroke-width="1" stroke-linecap="butt"><path d="M381.78325,161.73834l-14.58685,0.53552l6.82917,-12.9006z" fill="#99dfff"/><path d="M365.63338,169.58052l-14.13005,-3.66124l10.23535,-10.40675z" fill="#66cfff"/><path d="M348.34844,172.49775l-12.3861,-7.72319l12.88126,-6.86556z" fill="#33beff"/><path d="M336.11302,171.19872l-14.55489,-1.10371l8.23283,-12.05337z" fill="#33beff"/><path d="M324.50118,177.08996l-14.13504,3.64196l3.91295,-14.06242z" fill="#33beff"/><path d="M315.24655,186.35662l-11.88218,8.47801l-1.40165,-14.52922z" fill="#33beff"/><path d="M307.12531,203.51772l-14.08906,3.81592l3.73931,-14.10958z" fill="#66cfff"/><path d="M294.79539,216.3133l-14.58686,0.53551l6.82917,-12.9006z" fill="#33beff"/><path d="M278.64552,224.15548l-14.13006,-3.66125l10.23535,-10.40674z" fill="#66cfff"/><path d="M261.36057,227.07271l-12.3861,-7.72319l12.88126,-6.86556z" fill="#99dfff"/><path d="M249.12516,225.77367l-14.55489,-1.1037l8.23283,-12.05336z" fill="#33beff"/><path d="M237.51331,231.66492l-14.13501,3.64196l3.91295,-14.06243z" fill="#66cfff"/><path d="M228.25868,240.93159l-11.88218,8.47801l-1.40163,-14.52923z" fill="#33beff"/><path d="M362.46457,178.29725l14.58685,-0.53552l-6.82917,12.9006z" fill="#33beff"/><path d="M373.33846,169.90579l13.82354,-4.68747l-2.85176,14.31538z" fill="#33beff"/><path d="M221.62716,262.64421l11.78644,-8.61061l1.56433,14.51261z" fill="#33beff"/><path d="M230.03676,245.54744l14.43478,-2.16798l-5.33936,13.58508z" fill="#33beff"/><path d="M244.55453,235.33512l14.36403,2.5957l-9.42953,11.14212z" fill="#33beff"/><path d="M262.19102,230.17903l12.47184,7.58392l-12.80352,7.00946z" fill="#66cfff"/><path d="M276.07965,231.12978l14.33093,2.77257l-9.56615,11.02504z" fill="#33beff"/><path d="M289.97253,227.02835l14.58685,-0.53551l-6.82917,12.90059z" fill="#66cfff"/><path d="M300.84642,218.63689l13.82357,-4.68748l-2.85178,14.31539z" fill="#33beff"/><path d="M308.61502,208.06925l11.78645,-8.61061l1.56432,14.51262z" fill="#33beff"/><path d="M317.02462,190.97248l14.43478,-2.16798l-5.33936,13.58508z" fill="#99dfff"/><path d="M331.5424,180.76015l14.36403,2.5957l-9.42953,11.14212z" fill="#66cfff"/><path d="M349.17889,175.60406l12.47184,7.58392l-12.80353,7.00946z" fill="#99dfff"/></g><g stroke="none" stroke-width="1" stroke-linecap="butt"><path d="M99.34462,176.68292l13.23947,0.62026l-7.15647,11.15586z" fill="#99dfff"/><path d="M114.55179,170.81013l12.50828,4.38309l-10.04968,8.64132z" fill="#33beff"/><path d="M130.41303,169.47964l10.62261,7.92647l-12.17562,5.23667z" fill="#66cfff"/><path d="M141.38586,171.5818l13.0864,2.10109l-8.3624,10.28293z" fill="#33beff"/><path d="M152.33904,167.1306l13.06594,-2.22483l-4.60573,12.42801z" fill="#33beff"/><path d="M161.41495,159.44661l11.39373,-6.77137l0.16781,13.25294z" fill="#33beff"/><path d="M170.06324,144.5335l13.03751,-2.38571l-4.45219,12.48384z" fill="#33beff"/><path d="M182.18913,133.88929l13.23947,0.62025l-7.15647,11.15586z" fill="#99dfff"/><path d="M197.39631,128.01649l12.50828,4.38309l-10.04968,8.64132z" fill="#66cfff"/><path d="M213.25754,126.68602l10.6226,7.92645l-12.17562,5.23667z" fill="#33beff"/><path d="M224.23037,128.78818l13.08639,2.10108l-8.36239,10.28293z" fill="#33beff"/><path d="M235.18355,124.33697l13.06592,-2.22483l-4.60573,12.42802z" fill="#33beff"/><path d="M244.25946,116.65298l11.39371,-6.77136l0.16782,13.25294z" fill="#66cfff"/><path d="M118.0793,163.16281l-13.23947,-0.62026l7.15648,-11.15586z" fill="#66cfff"/><path d="M107.60449,169.93222l-12.86327,3.19446l3.66468,-12.73729z" fill="#33beff"/><path d="M251.90454,97.50858l-11.31714,6.8986l-0.31628,-13.25021z" fill="#33beff"/><path d="M243.00019,112.34166l-13.2255,0.86839l5.86026,-11.88804z" fill="#33beff"/><path d="M229.09028,120.48268l-12.8007,-3.43667l9.37623,-9.36773z" fill="#66cfff"/><path d="M212.74139,123.81236l-10.71073,-7.80694l12.11617,-5.37277z" fill="#99dfff"/><path d="M200.24627,121.90015l-12.75734,-3.5942l9.49098,-9.25146z" fill="#33beff"/><path d="M187.36464,124.55906l-13.23947,-0.62026l7.15647,-11.15585z" fill="#33beff"/><path d="M176.88984,131.32848l-12.86328,3.19446l3.66468,-12.73729z" fill="#66cfff"/><path d="M169.06001,140.30221l-11.31713,6.8986l-0.31629,-13.25022z" fill="#33beff"/><path d="M160.15567,155.13529l-13.22552,0.86839l5.86026,-11.88804z" fill="#66cfff"/><path d="M146.24577,163.2763l-12.80069,-3.43667l9.37623,-9.36773z" fill="#99dfff"/><path d="M129.89687,166.60599l-10.71073,-7.80694l12.11617,-5.37277z" fill="#33beff"/></g><path d="M115.85175,253.50127v-25.65119c0,-0.89679 0.40716,-1.34517 1.22148,-1.34517h6.96556c3.9067,0 6.72332,0.80659 8.4499,2.41978c1.73172,1.60803 2.59759,3.94277 2.59759,7.00421c0,2.53059 -0.81948,4.85245 -2.45843,6.96556c-0.81433,1.05141 -2.01519,1.89408 -3.60261,2.52801c-1.58227,0.63393 -3.42738,0.9509 -5.53534,0.9509v7.08925c0,0.31439 -0.49478,0.53086 -1.48434,0.64939c-0.98956,0.11855 -1.84254,0.17781 -2.55894,0.17781c0,0 -3.59487,-0.26285 -3.59487,-0.78855zM123.48991,233.39317v6.25432h0.51024c0.92256,0 1.7008,-0.28862 2.33474,-0.86587c0.63393,-0.5824 0.9509,-1.40187 0.9509,-2.45843c0,-1.05656 -0.21904,-1.80904 -0.65713,-2.25743c-0.43293,-0.4484 -1.20345,-0.67258 -2.31154,-0.67258zM139.87478,239.84072c-0.73701,-1.31941 -1.10553,-2.394 -1.10553,-3.2238c0,-0.82978 0.22419,-1.36322 0.67259,-1.6003c1.4998,-0.65971 3.56138,-0.98956 6.18474,-0.98956c2.62852,0 4.48393,0.61332 5.56626,1.83996c1.08233,1.22664 1.6235,3.04083 1.6235,5.44257v6.25432h1.34518c0.4484,0 0.79886,0.26544 1.0514,0.79628c0.25255,0.5257 0.37882,1.24983 0.37882,2.17239c0,0.92256 -0.23192,1.83223 -0.69578,2.72901c-0.46385,0.89679 -1.09006,1.34518 -1.87861,1.34518c-1.42764,0 -2.57698,-0.38139 -3.44799,-1.14418c-0.3917,-0.31954 -0.69321,-0.70351 -0.90452,-1.15191c-1.21633,1.53073 -3.10525,2.29609 -5.66676,2.29609c-1.92243,0 -3.54334,-0.68547 -4.86275,-2.05643c-1.31941,-1.37095 -1.97911,-2.99445 -1.97911,-4.87048c0,-4.29839 2.57181,-6.44759 7.71546,-6.44759h2.18012v-0.40201c0,-0.68547 -0.11338,-1.12614 -0.34016,-1.32199c-0.22162,-0.19585 -0.74217,-0.29377 -1.56165,-0.29377c-1.00502,0 -2.43009,0.20873 -4.2752,0.62621zM143.04446,247.131c0,0.57724 0.1572,1.0179 0.47159,1.32199c0.31439,0.30409 0.7164,0.45612 1.20602,0.45612c0.48962,0 0.93286,-0.19842 1.32972,-0.59528v-3.04598h-1.11325c-1.26271,0 -1.89408,0.62105 -1.89408,1.86315zM166.51581,254.17388c0,0.18554 -1.20086,0.27831 -3.60261,0.27831c-2.40174,-0.0567 -3.60261,-0.16235 -3.60261,-0.31697v-13.14256h-1.06686c-0.42262,0 -0.76021,-0.2577 -1.01275,-0.7731c-0.25255,-0.51539 -0.37882,-1.15448 -0.37882,-1.91726c0,-2.85013 0.84525,-4.2752 2.53574,-4.2752c1.18541,0 2.17497,0.36336 2.96868,1.09006c0.7937,0.72156 1.19056,1.54618 1.19056,2.47389c0.55147,-1.08233 1.29622,-1.94562 2.23424,-2.58986c0.93802,-0.64939 1.89408,-0.9741 2.86817,-0.9741c1.53072,0 2.45585,0.39428 2.7754,1.18283c0.07731,0.21131 0.11596,0.52313 0.11596,0.93544c0,0.40716 -0.12627,1.13902 -0.37881,2.19558c-0.24739,1.05656 -0.50509,1.82191 -0.7731,2.29608c-0.26285,0.47416 -0.42005,0.71124 -0.47159,0.71124c-0.05154,0 -0.29635,-0.09792 -0.73443,-0.29378c-0.43293,-0.20101 -0.82205,-0.30151 -1.16737,-0.30151c-0.99987,0 -1.4998,0.79113 -1.4998,2.37339zM182.62335,253.97288c0,0.31954 -1.1081,0.47932 -3.3243,0.47932c-2.63882,-0.10824 -3.95823,-0.28089 -3.95823,-0.51797v-14.00843h-2.01777c-0.53086,0 -0.79628,-0.91225 -0.79628,-2.73674c0,-0.47416 0.04639,-1.05399 0.13916,-1.73946c0.09277,-0.68547 0.28604,-1.02821 0.57982,-1.02821h2.09508v-3.48664c0,-0.5257 1.11325,-0.78855 3.33975,-0.78855c2.23166,0 3.34749,0.21131 3.34749,0.63393v2.53574l0.03865,1.10553h3.37068c0.4484,0 0.67259,0.92513 0.67259,2.7754c0,1.84511 -0.22419,2.76767 -0.67259,2.76767h-2.81405zM195.32649,253.97288c0,0.21131 -1.2086,0.31697 -3.6258,0.31697c-2.41205,0 -3.61807,-0.09277 -3.61807,-0.27831v-19.43553c0,-0.18039 1.20602,-0.27058 3.61807,-0.27058c2.4172,0 3.6258,0.07731 3.6258,0.23193zM195.32649,232.20261c0,0.18554 -1.2086,0.27831 -3.6258,0.27831c-2.41205,0 -3.61807,-0.07988 -3.61807,-0.23966v-5.69769c0,-0.26285 1.20602,-0.39428 3.61807,-0.39428c2.4172,0 3.6258,0.07988 3.6258,0.23966zM205.38254,244.39426c0,2.58728 0.97667,3.88092 2.93002,3.88092c1.26787,0 2.32443,-0.24997 3.16968,-0.7499c0.3917,0 0.71382,0.68032 0.96636,2.04096c0.25255,1.35549 0.37882,2.27804 0.37882,2.76766c0,0.48962 -0.067,0.81175 -0.20101,0.96637c-1.39672,0.87102 -3.30883,1.30652 -5.73635,1.30652c-2.42751,0 -4.49424,-0.90194 -6.2002,-2.70582c-1.7008,-1.80904 -2.5512,-4.27777 -2.5512,-7.40622c0,-3.12845 0.83751,-5.65388 2.51255,-7.5763c1.67504,-1.92757 3.90412,-2.89137 6.68725,-2.89137c2.78828,0 4.72359,0.67259 5.80592,2.01777c0.23708,0.28862 0.35562,0.7164 0.35562,1.28333c0,0.56694 -0.10566,1.26014 -0.31697,2.07962c-0.47416,1.69049 -1.09521,2.66717 -1.86315,2.93002c-0.10308,0.02577 -0.25512,0.03865 -0.45612,0.03865c-0.19585,0 -0.44067,-0.1572 -0.73444,-0.47159c-1.02563,-1.03079 -1.85027,-1.54619 -2.47389,-1.54619c-0.61847,0 -1.15191,0.31697 -1.6003,0.9509c-0.4484,0.63393 -0.67259,1.66215 -0.67259,3.08464zM222.87667,253.89557c0,0.23708 -1.34518,0.35562 -4.03554,0.35562c-2.11312,-0.02577 -3.16968,-0.13143 -3.16968,-0.31697v-26.95772c0,-0.3917 1.28076,-0.58755 3.84227,-0.58755c2.24196,0.07731 3.36295,0.20874 3.36295,0.39428zM234.98823,254.60681c-2.61305,0 -4.81636,-0.88905 -6.60994,-2.66717c-1.79357,-1.78326 -2.69036,-4.252 -2.69036,-7.40622c0,-3.15422 0.86329,-5.69253 2.58986,-7.61496c1.73172,-1.92757 3.917,-2.89137 6.55582,-2.89137c2.63882,0 4.67721,0.67259 6.11516,2.01777c1.43795,1.34518 2.15692,2.98156 2.15692,4.90913c0,4.27262 -2.45328,6.40893 -7.35984,6.40893h-2.73674c0,0.7937 0.21647,1.34261 0.64939,1.64668c0.43809,0.30409 1.07975,0.45612 1.925,0.45612c1.85027,0 3.60519,-0.42262 5.26476,-1.26787c0.02577,-0.02577 0.14431,0.1572 0.35562,0.54889c0.63393,1.13902 0.9509,2.09765 0.9509,2.8759c0,0.77825 -0.24997,1.28591 -0.7499,1.52299c0,0 -3.8036,1.46118 -6.41665,1.46118zM236.45711,241.7039c0,-1.1081 -0.54117,-1.66215 -1.6235,-1.66215c-0.49993,0 -0.93029,0.15204 -1.29106,0.45612c-0.35562,0.30409 -0.53344,0.74474 -0.53344,1.32199v1.22922h2.14147c0.87102,0 1.30652,-0.4484 1.30652,-1.34518zM266.18152,237.50602c0.49993,0 0.7499,0.92514 0.7499,2.77541c0,0.55147 0.77407,1.20345 0.65553,1.95593c-0.11855,0.75248 -1.16834,1.12871 -1.48273,1.12871h-5.0251v3.95823h7.28253c0.4484,0 0.7499,0.57982 0.90452,1.73946c0.08246,0.50508 0.12369,1.0411 0.12369,1.60803c0,0.56694 -0.07988,1.29879 -0.23966,2.19558c-0.15977,0.89679 -0.42263,1.34518 -0.78856,1.34518h-13.53684c-1.00502,0 -1.50753,-0.40974 -1.50753,-1.22922v-25.45019c0,-0.68547 0.30409,-1.02821 0.91225,-1.02821h14.17078c0.55147,0 0.82721,1.16738 0.82721,3.50211c0,2.33474 -0.27573,3.50211 -0.82721,3.50211h-7.32118v3.99688zM280.90241,253.97288c0,0.18554 -0.94833,0.27831 -2.84498,0.27831c-2.63882,-0.07731 -3.95823,-0.22162 -3.95823,-0.43293v-12.8256h-1.02821c-0.68547,0 -1.13386,-0.57982 -1.34517,-1.73945c-0.0567,-0.34532 -0.08504,-0.68805 -0.08504,-1.02821c0,-0.81948 0.15977,-1.63895 0.47932,-2.45843c0.47416,-1.15963 1.21117,-1.73946 2.21104,-1.73946c1.00502,0 1.90181,0.23708 2.69036,0.71124c0.7937,0.47416 1.32457,0.94833 1.59258,1.42249c1.65957,-1.42249 3.63611,-2.13373 5.92962,-2.13373c2.29866,0 3.96081,0.62105 4.98644,1.86315c1.03079,1.23695 1.54619,3.2676 1.54619,6.09196v11.87469c0,0.31439 -1.12871,0.47159 -3.38614,0.47159c-2.25228,0 -3.37841,-0.1572 -3.37841,-0.47159v-11.44176c0,-1.31941 -0.46128,-1.97911 -1.38384,-1.97911c-0.26801,0 -0.63908,0.11338 -1.11325,0.34016c-0.47416,0.22162 -0.77825,0.38655 -0.91225,0.49478zM301.72263,254.21254c-2.55636,0 -4.53547,-0.82463 -5.93735,-2.4739c-1.39671,-1.64926 -2.09506,-4.08965 -2.09506,-7.32118c0,-3.23153 0.91739,-5.76469 2.75219,-7.5995c1.8348,-1.8348 4.2752,-2.75221 7.32118,-2.75221c3.05114,0 5.56626,0.67259 7.54538,2.01778v19.71384c0,1.95335 -0.7937,3.45057 -2.38113,4.49166c-1.58227,1.0411 -3.61292,1.56165 -6.09196,1.56165c-2.47905,0 -4.69525,-0.31697 -6.6486,-0.9509c-0.26801,-0.63393 -0.40201,-1.20087 -0.40201,-1.7008c0,-1.69049 0.27831,-2.93002 0.83494,-3.71857c1.7678,0.76278 3.65415,1.14418 5.65904,1.14418c1.45341,0 2.18012,-0.51282 2.18012,-1.53846v-1.19056c-1.13387,0.21131 -2.04612,0.31697 -2.73674,0.31697zM303.54711,240.51334c-1.7678,0 -2.65171,1.33487 -2.65171,4.00462c0,1.65957 0.34274,2.73932 1.02821,3.23926c0.4484,0.34532 0.89679,0.51797 1.34518,0.51797c0.4484,0 0.84525,-0.03865 1.19056,-0.11597v-7.52219c-0.31954,-0.08246 -0.62362,-0.12369 -0.91225,-0.12369zM322.10844,253.97288c0,0.21131 -1.2086,0.31697 -3.6258,0.31697c-2.41205,0 -3.61807,-0.09277 -3.61807,-0.27831v-19.43553c0,-0.18039 1.20602,-0.27058 3.61807,-0.27058c2.4172,0 3.6258,0.07731 3.6258,0.23193zM322.10844,232.20261c0,0.18554 -1.2086,0.27831 -3.6258,0.27831c-2.41205,0 -3.61807,-0.07988 -3.61807,-0.23966v-5.69769c0,-0.26285 1.20602,-0.39428 3.61807,-0.39428c2.4172,0 3.6258,0.07988 3.6258,0.23966zM333.94262,253.97288c0,0.18554 -0.94833,0.27831 -2.84498,0.27831c-2.63882,-0.07731 -3.95823,-0.22162 -3.95823,-0.43293v-12.8256h-1.02821c-0.68547,0 -1.13387,-0.57982 -1.34518,-1.73945c-0.0567,-0.34532 -0.08504,-0.68805 -0.08504,-1.02821c0,-0.81948 0.15978,-1.63895 0.47932,-2.45843c0.47416,-1.15963 1.21117,-1.73946 2.21104,-1.73946c1.00502,0 1.90181,0.23708 2.69036,0.71124c0.7937,0.47416 1.32457,0.94833 1.59257,1.42249c1.65957,-1.42249 3.63611,-2.13373 5.92962,-2.13373c2.29866,0 3.96081,0.62105 4.98645,1.86315c1.03079,1.23695 1.54618,3.2676 1.54618,6.09196v11.87469c0,0.31439 -1.12871,0.47159 -3.38614,0.47159c-2.25228,0 -3.37841,-0.1572 -3.37841,-0.47159v-11.44176c0,-1.31941 -0.46128,-1.97911 -1.38384,-1.97911c-0.26801,0 -0.63908,0.11338 -1.11325,0.34016c-0.47416,0.22162 -0.77825,0.38655 -0.91225,0.49478zM356.03079,254.60681c-2.61305,0 -4.81636,-0.88905 -6.60993,-2.66717c-1.79357,-1.78326 -2.69037,-4.252 -2.69037,-7.40622c0,-3.15422 0.86329,-5.69253 2.58986,-7.61496c1.73172,-1.92757 3.917,-2.89137 6.55582,-2.89137c2.63882,0 4.67721,0.67259 6.11516,2.01777c1.43795,1.34518 2.15692,2.98156 2.15692,4.90913c0,4.27262 -2.45328,6.40893 -7.35983,6.40893h-2.73674c0,0.7937 0.21647,1.34261 0.64939,1.64668c0.43809,0.30409 1.07975,0.45612 1.925,0.45612c1.85027,0 3.60519,-0.42262 5.26476,-1.26787c0.02577,-0.02577 0.14431,0.1572 0.35562,0.54889c0.63393,1.13902 0.9509,2.09765 0.9509,2.8759c0,0.77825 -0.24997,1.28591 -0.7499,1.52299c0,0 -3.80361,1.46118 -6.41666,1.46118zM357.49965,241.7039c0,-1.1081 -0.54116,-1.66215 -1.62349,-1.66215c-0.49993,0 -0.9303,0.15204 -1.29107,0.45612c-0.35562,0.30409 -0.53344,0.74474 -0.53344,1.32199v1.22922h2.14147c0.87102,0 1.30652,-0.4484 1.30652,-1.34518z" fill="none" stroke-opacity="0.50196" stroke="#000000" stroke-width="7.5" stroke-linecap="round"/><path d="M119.44663,254.28985c-2.39658,0 -3.59488,-0.26285 -3.59488,-0.78855v-25.65119c0,-0.89679 0.40716,-1.34518 1.22148,-1.34518h6.96556c3.90669,0 6.72332,0.80659 8.44989,2.41978c1.73172,1.60803 2.59759,3.94277 2.59759,7.00421c0,2.53059 -0.81948,4.85244 -2.45843,6.96556c-0.81433,1.05141 -2.01519,1.89408 -3.60261,2.52801c-1.58226,0.63394 -3.42738,0.9509 -5.53534,0.9509v7.08925c0,0.31439 -0.49478,0.53086 -1.48434,0.64939c-0.98956,0.11854 -1.84254,0.17781 -2.55894,0.17781zM123.48991,233.39317v6.25432h0.51024c0.92256,0 1.7008,-0.28862 2.33474,-0.86587c0.63394,-0.5824 0.9509,-1.40187 0.9509,-2.45843c0,-1.05656 -0.21904,-1.80904 -0.65713,-2.25743c-0.43293,-0.44839 -1.20345,-0.67259 -2.31154,-0.67259zM139.87478,239.84072c-0.73701,-1.31941 -1.10553,-2.39401 -1.10553,-3.2238c0,-0.82978 0.22419,-1.36322 0.67259,-1.6003c1.4998,-0.65971 3.56138,-0.98956 6.18473,-0.98956c2.62851,0 4.48393,0.61332 5.56626,1.83996c1.08233,1.22664 1.6235,3.04083 1.6235,5.44257v6.25432h1.34518c0.44839,0 0.79886,0.26543 1.05141,0.79628c0.25255,0.5257 0.37882,1.24984 0.37882,2.17239c0,0.92256 -0.23193,1.83223 -0.69578,2.72901c-0.46385,0.89679 -1.09006,1.34518 -1.87861,1.34518c-1.42764,0 -2.57697,-0.38139 -3.44799,-1.14418c-0.3917,-0.31954 -0.6932,-0.70351 -0.90452,-1.15191c-1.21633,1.53073 -3.10525,2.29608 -5.66676,2.29608c-1.92242,0 -3.54334,-0.68548 -4.86275,-2.05643c-1.31941,-1.37095 -1.97911,-2.99445 -1.97911,-4.87048c0,-4.29839 2.57182,-6.44759 7.71546,-6.44759h2.18012v-0.40201c0,-0.68548 -0.11339,-1.12613 -0.34016,-1.32199c-0.22162,-0.19585 -0.74217,-0.29378 -1.56165,-0.29378c-1.00502,0 -2.43009,0.20874 -4.2752,0.62621zM143.04446,247.131c0,0.57724 0.1572,1.0179 0.47159,1.32199c0.31439,0.30409 0.7164,0.45612 1.20602,0.45612c0.48963,0 0.93286,-0.19843 1.32972,-0.59528v-3.04599h-1.11325c-1.26271,0 -1.89408,0.62105 -1.89408,1.86316zM166.51581,254.17388c0,0.18554 -1.20087,0.27831 -3.60261,0.27831c-2.40174,-0.0567 -3.60261,-0.16235 -3.60261,-0.31696v-13.14256h-1.06687c-0.42262,0 -0.76021,-0.2577 -1.01275,-0.7731c-0.25255,-0.51539 -0.37882,-1.15449 -0.37882,-1.91727c0,-2.85013 0.84525,-4.2752 2.53574,-4.2752c1.18541,0 2.17497,0.36335 2.96867,1.09006c0.7937,0.72156 1.19056,1.54618 1.19056,2.4739c0.55147,-1.08233 1.29622,-1.94562 2.23424,-2.58986c0.93802,-0.64939 1.89408,-0.97409 2.86817,-0.97409c1.53072,0 2.45584,0.39428 2.7754,1.18283c0.07731,0.21131 0.11597,0.52313 0.11597,0.93544c0,0.40716 -0.12627,1.13902 -0.37882,2.19558c-0.24739,1.05656 -0.50508,1.82192 -0.7731,2.29608c-0.26285,0.47416 -0.42005,0.71124 -0.47159,0.71124c-0.05154,0 -0.29636,-0.09792 -0.73444,-0.29378c-0.43293,-0.20101 -0.82205,-0.30151 -1.16736,-0.30151c-0.99987,0 -1.4998,0.79113 -1.4998,2.37339zM182.62335,253.97288c0,0.31954 -1.1081,0.47932 -3.3243,0.47932c-2.63882,-0.10824 -3.95823,-0.28089 -3.95823,-0.51797v-14.00843h-2.01777c-0.53086,0 -0.79628,-0.91225 -0.79628,-2.73674c0,-0.47416 0.04639,-1.05399 0.13916,-1.73945c0.09277,-0.68548 0.28604,-1.02821 0.57982,-1.02821h2.09508v-3.48664c0,-0.5257 1.11325,-0.78855 3.33975,-0.78855c2.23166,0 3.34749,0.21131 3.34749,0.63394v2.53574l0.03865,1.10553h3.37068c0.44839,0 0.67259,0.92513 0.67259,2.7754c0,1.84511 -0.22419,2.76767 -0.67259,2.76767h-2.81406zM195.32649,253.97288c0,0.21131 -1.2086,0.31696 -3.6258,0.31696c-2.41205,0 -3.61807,-0.09277 -3.61807,-0.27831v-19.43553c0,-0.18039 1.20602,-0.27058 3.61807,-0.27058c2.4172,0 3.6258,0.07731 3.6258,0.23193zM195.32649,232.20261c0,0.18554 -1.2086,0.27831 -3.6258,0.27831c-2.41205,0 -3.61807,-0.07988 -3.61807,-0.23966v-5.69769c0,-0.26285 1.20602,-0.39428 3.61807,-0.39428c2.4172,0 3.6258,0.07988 3.6258,0.23966zM205.38254,244.39426c0,2.58728 0.97667,3.88092 2.93002,3.88092c1.26787,0 2.32443,-0.24997 3.16968,-0.7499c0.3917,0 0.71382,0.68032 0.96637,2.04096c0.25255,1.35549 0.37882,2.27804 0.37882,2.76767c0,0.48963 -0.067,0.81175 -0.20101,0.96637c-1.39672,0.87102 -3.30883,1.30652 -5.73635,1.30652c-2.42751,0 -4.49424,-0.90194 -6.2002,-2.70582c-1.7008,-1.80904 -2.5512,-4.27778 -2.5512,-7.40622c0,-3.12845 0.83751,-5.65388 2.51255,-7.5763c1.67504,-1.92757 3.90411,-2.89137 6.68725,-2.89137c2.78828,0 4.72359,0.67259 5.80592,2.01777c0.23708,0.28862 0.35562,0.7164 0.35562,1.28333c0,0.56694 -0.10566,1.26014 -0.31696,2.07962c-0.47416,1.69049 -1.09521,2.66717 -1.86316,2.93002c-0.10308,0.02577 -0.25512,0.03865 -0.45612,0.03865c-0.19585,0 -0.44067,-0.1572 -0.73444,-0.47159c-1.02563,-1.03079 -1.85027,-1.54618 -2.4739,-1.54618c-0.61847,0 -1.15191,0.31696 -1.6003,0.9509c-0.44839,0.63394 -0.67259,1.66215 -0.67259,3.08464zM222.87667,253.89557c0,0.23708 -1.34518,0.35562 -4.03554,0.35562c-2.11312,-0.02577 -3.16968,-0.13142 -3.16968,-0.31696v-26.95772c0,-0.3917 1.28076,-0.58755 3.84227,-0.58755c2.24197,0.07731 3.36295,0.20874 3.36295,0.39428zM241.4049,253.14567c-1.66473,0.97409 -3.80362,1.46114 -6.41666,1.46114c-2.61305,0 -4.81636,-0.88905 -6.60993,-2.66717c-1.79357,-1.78326 -2.69036,-4.252 -2.69036,-7.40622c0,-3.15421 0.86329,-5.69254 2.58986,-7.61496c1.73172,-1.92757 3.917,-2.89137 6.55582,-2.89137c2.63882,0 4.67721,0.67259 6.11516,2.01777c1.43796,1.34518 2.15692,2.98156 2.15692,4.90913c0,4.27262 -2.45328,6.40893 -7.35983,6.40893h-2.73674c0,0.7937 0.21646,1.34261 0.64939,1.64668c0.43809,0.30409 1.07975,0.45612 1.925,0.45612c1.85027,0 3.60519,-0.42262 5.26476,-1.26787c0.02577,-0.02577 0.14431,0.1572 0.35562,0.54889c0.63394,1.13902 0.9509,2.09766 0.9509,2.8759c0,0.77825 -0.24997,1.28591 -0.7499,1.52299zM236.45711,241.7039c0,-1.1081 -0.54117,-1.66215 -1.6235,-1.66215c-0.49993,0 -0.93029,0.15204 -1.29107,0.45612c-0.35562,0.30409 -0.53344,0.74474 -0.53344,1.32199v1.22922h2.14147c0.87102,0 1.30652,-0.44839 1.30652,-1.34518zM266.18152,237.50602c0.49993,0 0.7499,0.92513 0.7499,2.7754c0,0.55147 -0.05927,1.20345 -0.17781,1.95593c-0.11854,0.75248 -0.33501,1.12871 -0.64939,1.12871h-5.0251v3.95823h7.28253c0.44839,0 0.7499,0.57982 0.90452,1.73945c0.08246,0.50508 0.12369,1.0411 0.12369,1.60803c0,0.56694 -0.07988,1.2988 -0.23966,2.19558c-0.15978,0.89679 -0.42262,1.34518 -0.78855,1.34518h-13.53684c-1.00502,0 -1.50753,-0.40974 -1.50753,-1.22922v-25.45019c0,-0.68548 0.30409,-1.02821 0.91225,-1.02821h14.17078c0.55147,0 0.82721,1.16737 0.82721,3.50211c0,2.33474 -0.27573,3.50211 -0.82721,3.50211h-7.32118v3.99689zM280.90241,253.97288c0,0.18554 -0.94833,0.27831 -2.84498,0.27831c-2.63882,-0.07731 -3.95823,-0.22162 -3.95823,-0.43293v-12.8256h-1.02821c-0.68548,0 -1.13387,-0.57982 -1.34518,-1.73945c-0.0567,-0.34532 -0.08504,-0.68805 -0.08504,-1.02821c0,-0.81948 0.15978,-1.63895 0.47932,-2.45843c0.47416,-1.15964 1.21117,-1.73945 2.21104,-1.73945c1.00502,0 1.90181,0.23708 2.69036,0.71124c0.7937,0.47416 1.32457,0.94833 1.59257,1.42249c1.65957,-1.42249 3.63611,-2.13373 5.92962,-2.13373c2.29866,0 3.96081,0.62105 4.98645,1.86316c1.03079,1.23695 1.54618,3.2676 1.54618,6.09196v11.87469c0,0.31439 -1.12871,0.47159 -3.38614,0.47159c-2.25227,0 -3.37842,-0.1572 -3.37842,-0.47159v-11.44176c0,-1.31941 -0.46127,-1.97911 -1.38384,-1.97911c-0.268,0 -0.63909,0.11339 -1.11325,0.34016c-0.47416,0.22162 -0.77825,0.38655 -0.91225,0.49478zM301.72263,254.21254c-2.55636,0 -4.53547,-0.82463 -5.93735,-2.4739c-1.39671,-1.64926 -2.09506,-4.08966 -2.09506,-7.32118c0,-3.23153 0.9174,-5.76469 2.75219,-7.59949c1.8348,-1.8348 4.2752,-2.75221 7.32118,-2.75221c3.05114,0 5.56626,0.67259 7.54538,2.01777v19.71384c0,1.95335 -0.7937,3.45057 -2.38113,4.49166c-1.58226,1.0411 -3.61292,1.56165 -6.09196,1.56165c-2.47905,0 -4.69525,-0.31696 -6.64859,-0.9509c-0.268,-0.63394 -0.40201,-1.20087 -0.40201,-1.7008c0,-1.69049 0.27831,-2.93002 0.83494,-3.71857c1.76781,0.76278 3.65415,1.14418 5.65903,1.14418c1.45341,0 2.18012,-0.51282 2.18012,-1.53845v-1.19056c-1.13387,0.21131 -2.04612,0.31696 -2.73674,0.31696zM303.54711,240.51334c-1.76781,0 -2.65171,1.33487 -2.65171,4.00461c0,1.65957 0.34274,2.73932 1.02821,3.23926c0.44839,0.34532 0.89679,0.51797 1.34518,0.51797c0.44839,0 0.84525,-0.03865 1.19056,-0.11597v-7.52219c-0.31954,-0.08246 -0.62363,-0.12369 -0.91225,-0.12369zM322.10844,253.97288c0,0.21131 -1.2086,0.31696 -3.6258,0.31696c-2.41205,0 -3.61807,-0.09277 -3.61807,-0.27831v-19.43553c0,-0.18039 1.20602,-0.27058 3.61807,-0.27058c2.4172,0 3.6258,0.07731 3.6258,0.23193zM322.10844,232.20261c0,0.18554 -1.2086,0.27831 -3.6258,0.27831c-2.41205,0 -3.61807,-0.07988 -3.61807,-0.23966v-5.69769c0,-0.26285 1.20602,-0.39428 3.61807,-0.39428c2.4172,0 3.6258,0.07988 3.6258,0.23966zM333.94262,253.97288c0,0.18554 -0.94833,0.27831 -2.84498,0.27831c-2.63882,-0.07731 -3.95823,-0.22162 -3.95823,-0.43293v-12.8256h-1.02821c-0.68548,0 -1.13387,-0.57982 -1.34518,-1.73945c-0.0567,-0.34532 -0.08504,-0.68805 -0.08504,-1.02821c0,-0.81948 0.15978,-1.63895 0.47932,-2.45843c0.47416,-1.15964 1.21117,-1.73945 2.21104,-1.73945c1.00502,0 1.90181,0.23708 2.69036,0.71124c0.7937,0.47416 1.32457,0.94833 1.59257,1.42249c1.65957,-1.42249 3.63611,-2.13373 5.92962,-2.13373c2.29866,0 3.96081,0.62105 4.98645,1.86316c1.03079,1.23695 1.54618,3.2676 1.54618,6.09196v11.87469c0,0.31439 -1.12871,0.47159 -3.38614,0.47159c-2.25227,0 -3.37842,-0.1572 -3.37842,-0.47159v-11.44176c0,-1.31941 -0.46127,-1.97911 -1.38384,-1.97911c-0.268,0 -0.63909,0.11339 -1.11325,0.34016c-0.47416,0.22162 -0.77825,0.38655 -0.91225,0.49478zM362.44744,253.14567c-1.66473,0.97409 -3.80362,1.46114 -6.41666,1.46114c-2.61305,0 -4.81636,-0.88905 -6.60993,-2.66717c-1.79357,-1.78326 -2.69036,-4.252 -2.69036,-7.40622c0,-3.15421 0.86329,-5.69254 2.58986,-7.61496c1.73172,-1.92757 3.917,-2.89137 6.55582,-2.89137c2.63882,0 4.67721,0.67259 6.11516,2.01777c1.43796,1.34518 2.15692,2.98156 2.15692,4.90913c0,4.27262 -2.45328,6.40893 -7.35983,6.40893h-2.73674c0,0.7937 0.21646,1.34261 0.64939,1.64668c0.43809,0.30409 1.07975,0.45612 1.925,0.45612c1.85027,0 3.60519,-0.42262 5.26476,-1.26787c0.02577,-0.02577 0.14431,0.1572 0.35562,0.54889c0.63394,1.13902 0.9509,2.09766 0.9509,2.8759c0,0.77825 -0.24997,1.28591 -0.7499,1.52299zM357.49968,241.7039c0,-1.1081 -0.54117,-1.66215 -1.6235,-1.66215c-0.49993,0 -0.93029,0.15204 -1.29107,0.45612c-0.35562,0.30409 -0.53344,0.74474 -0.53344,1.32199v1.22922h2.14147c0.87102,0 1.30652,-0.44839 1.30652,-1.34518z" fill="#ffffff" stroke="none" stroke-width="1" stroke-linecap="round"/><path d="" fill="#ffffff" stroke="none" stroke-width="1" stroke-linecap="butt"/><path d="" fill="#ffffff" stroke="none" stroke-width="1" stroke-linecap="butt"/><g><path d="M299.78579,200.00129c1.91931,1.46325 1.65435,5.03782 -0.59178,7.984c-2.00702,2.63254 -4.91675,3.87264 -6.88279,3.06292c-0.20246,-0.08338 -85.70437,-65.21482 -85.71755,-65.22487c-1.91931,-1.46325 -1.65434,-5.0378 0.59178,-7.984c2.24613,-2.94619 5.62289,-4.14837 7.5422,-2.68512c0.09709,0.07402 84.96107,64.77304 85.05815,64.84707z" fill="none" stroke-opacity="0.50196" stroke="#000000" stroke-width="7.5" stroke-linecap="butt"/><g><path d="M216.16646,153.12155l8.13396,-10.66912l65.16811,49.68318l-8.13398,10.66913z" fill="#000000" stroke="none" stroke-width="0.5" stroke-linecap="butt"/><path d="M207.18546,137.83933c2.24613,-2.94619 5.62289,-4.14836 7.5422,-2.68511c1.91931,1.46325 1.65434,5.03782 -0.5918,7.984c-2.24613,2.94619 -5.62289,4.14836 -7.5422,2.68511c-1.91931,-1.46325 -1.65434,-5.0378 0.5918,-7.984z" fill="#ffffff" stroke="none" stroke-width="0" stroke-linecap="butt"/><path d="M206.882,146.0432l8.13398,-10.66913l13.9852,10.66211c0,0 -0.06214,3.04348 -2.41009,6.4506c-2.14466,3.11212 -5.72388,4.21851 -5.72388,4.21851z" fill="#ffffff" stroke="none" stroke-width="0" stroke-linecap="butt"/><path d="M214.43842,135.16586c0,0 3.80059,2.51317 -0.1517,7.77394c-3.95362,5.26252 -7.70687,2.43053 -7.70687,2.43053" fill="none" stroke="#999999" stroke-width="1" stroke-linecap="round"/><path d="M291.65179,210.67039c-1.91931,-1.46325 -1.65432,-5.0378 0.5918,-7.98401c2.24613,-2.94618 5.62288,-4.14835 7.54219,-2.68511c1.91931,1.46325 1.65435,5.03782 -0.59178,7.984c-2.24613,2.94618 -5.62288,4.14835 -7.54219,2.68509z" fill="#ffffff" stroke="none" stroke-width="0" stroke-linecap="butt"/><path d="M277.37823,199.78849c0,0 3.57924,-1.1064 6.01224,-3.99868c2.66363,-3.16645 2.12173,-6.67043 2.12173,-6.67043l13.9852,10.66211l-8.13398,10.6691z" fill="#ffffff" stroke="none" stroke-width="0" stroke-linecap="butt"/></g></g><g stroke-linecap="butt"><path d="M185.13109,111.76048c2.09856,-0.08013 3.99507,-1.27341 4.97549,-3.13061l2.23307,-4.22099c1.05788,-1.99526 4.07368,-1.3076 4.16072,0.94773l0.18877,4.77205c0.07936,2.09802 1.27135,3.99456 3.12741,4.97588l4.22,2.23285c1.99526,1.05788 1.30861,4.0739 -0.94735,4.16393l-4.77243,0.18556c-2.09676,0.08092 -3.99148,1.27307 -4.97187,3.12825l-2.23584,4.21937c-1.05588,1.99571 -4.07092,1.30924 -4.16093,-0.94673l-0.18555,-4.7724c-0.08129,-2.09761 -1.27473,-3.99279 -3.13126,-4.97251l-4.22099,-2.23307c-1.99526,-1.05788 -1.30762,-4.07368 0.94837,-4.16372z" fill="none" stroke-opacity="0.50196" stroke="#000000" stroke-width="7"/><path d="M185.13109,111.76048c2.09856,-0.08013 3.99507,-1.27341 4.97549,-3.13061l2.23307,-4.22099c1.05788,-1.99526 4.07368,-1.3076 4.16072,0.94773l0.18877,4.77205c0.07936,2.09802 1.27135,3.99456 3.12741,4.97588l4.22,2.23285c1.99526,1.05788 1.30861,4.0739 -0.94735,4.16393l-4.77243,0.18556c-2.09676,0.08092 -3.99148,1.27307 -4.97187,3.12825l-2.23584,4.21937c-1.05588,1.99571 -4.07092,1.30924 -4.16093,-0.94673l-0.18555,-4.7724c-0.08129,-2.09761 -1.27473,-3.99279 -3.13126,-4.97251l-4.22099,-2.23307c-1.99526,-1.05788 -1.30762,-4.07368 0.94837,-4.16372z" fill="#ffffff" stroke="none" stroke-width="1"/></g><g stroke-linecap="butt"><path d="M184.09072,169.89833c0.74596,-0.97008 0.91789,-2.26433 0.45107,-3.39551l-1.05919,-2.57307c-0.49982,-1.21733 0.93185,-2.31229 1.97474,-1.51103l2.20835,1.6933c0.96953,0.74609 2.26332,0.91862 3.39449,0.45264l2.57258,-1.0588c1.21733,-0.49982 2.31275,0.93148 1.5126,1.97576l-1.69489,2.20731c-0.74492,0.96956 -0.9167,2.26259 -0.45078,3.39301l1.05741,2.57369c0.50075,1.21658 -0.93008,2.31166 -1.97436,1.51152l-2.2073,-1.69489c-0.97008,-0.74507 -2.26379,-0.91644 -3.3944,-0.44966l-2.57307,1.05918c-1.21733,0.49982 -2.31229,-0.93185 -1.51215,-1.97613z" fill="none" stroke-opacity="0.50196" stroke="#000000" stroke-width="5.5"/><path d="M184.09072,169.89833c0.74596,-0.97008 0.91789,-2.26433 0.45107,-3.39551l-1.05919,-2.57307c-0.49982,-1.21733 0.93185,-2.31229 1.97474,-1.51103l2.20835,1.6933c0.96953,0.74609 2.26332,0.91862 3.39449,0.45264l2.57258,-1.0588c1.21733,-0.49982 2.31275,0.93148 1.5126,1.97576l-1.69489,2.20731c-0.74492,0.96956 -0.9167,2.26259 -0.45078,3.39301l1.05741,2.57369c0.50075,1.21658 -0.93008,2.31166 -1.97436,1.51152l-2.2073,-1.69489c-0.97008,-0.74507 -2.26379,-0.91644 -3.3944,-0.44966l-2.57307,1.05918c-1.21733,0.49982 -2.31229,-0.93185 -1.51215,-1.97613z" fill="#ffffff" stroke="none" stroke-width="1"/></g><g stroke-linecap="butt"><path d="M237.23115,118.88863c1.22174,-0.06948 2.31365,-0.7853 2.86464,-1.87795l1.25509,-2.4834c0.59464,-1.17393 2.35908,-0.80606 2.4343,0.50692l0.16184,2.7781c0.06905,1.22142 0.78407,2.31337 1.87608,2.86492l2.4828,1.25497c1.17393,0.59464 0.80667,2.35917 -0.50666,2.43616l-2.77835,0.15998c-1.22066,0.06992 -2.31157,0.78506 -2.86256,1.87655l-1.25671,2.48247c-0.59347,1.17414 -2.35746,0.80699 -2.43443,-0.50632l-0.15997,-2.77835c-0.07016,-1.22117 -0.78605,-2.31231 -1.8783,-2.8629l-2.48338,-1.25509c-1.17393,-0.59464 -0.80608,-2.35908 0.50725,-2.43604z" fill="none" stroke-opacity="0.50196" stroke="#000000" stroke-width="6"/><path d="M237.23115,118.88863c1.22174,-0.06948 2.31365,-0.7853 2.86464,-1.87795l1.25509,-2.4834c0.59464,-1.17393 2.35908,-0.80606 2.4343,0.50692l0.16184,2.7781c0.06905,1.22142 0.78407,2.31337 1.87608,2.86492l2.4828,1.25497c1.17393,0.59464 0.80667,2.35917 -0.50666,2.43616l-2.77835,0.15998c-1.22066,0.06992 -2.31157,0.78506 -2.86256,1.87655l-1.25671,2.48247c-0.59347,1.17414 -2.35746,0.80699 -2.43443,-0.50632l-0.15997,-2.77835c-0.07016,-1.22117 -0.78605,-2.31231 -1.8783,-2.8629l-2.48338,-1.25509c-1.17393,-0.59464 -0.80608,-2.35908 0.50725,-2.43604z" fill="#ffffff" stroke="none" stroke-width="1"/></g></g></g></svg>
