<svg xmlns="http://www.w3.org/2000/svg" width="300" height="186" viewBox="0 0 300 186"><path d="M0 186V0h300v186z" fill="#fcb103"/><path d="M265.54 30.664v38.913c0 3.567-2.919 6.485-6.486 6.485H220.11c-3.567 0-6.453-2.918-6.453-6.485l.032-51.884c0-3.567 2.886-6.485 6.453-6.485h25.942zm-177.98 86v44.913c0 4.117-3.368 7.485-7.485 7.485h-44.95c-4.117 0-7.448-3.369-7.448-7.485l.038-59.884c0-4.117 3.33-7.485 7.448-7.485h29.941zM69.077 31.243v44.912c0 4.117-3.368 7.486-7.485 7.486h-44.95c-4.117 0-7.448-3.369-7.448-7.486l.038-59.883c0-4.117 3.33-7.485 7.448-7.485h29.941zm57.2-4.8v35.312c0 3.237-2.648 5.886-5.885 5.886H85.05c-3.237 0-5.856-2.649-5.856-5.886l.03-47.083c0-3.237 2.619-5.885 5.856-5.885h23.541zm46.157-4.067v27.18a4.543 4.543 0 0 1-4.53 4.53h-27.202c-2.492 0-4.508-2.039-4.508-4.53l.023-36.24c0-2.49 2.016-4.53 4.507-4.53h18.12zm120 102.288v44.913c0 4.117-3.369 7.485-7.486 7.485h-44.95c-4.117 0-7.448-3.368-7.448-7.485l.038-59.884c0-4.117 3.33-7.485 7.448-7.485h29.941zm-70 11.2v35.313c0 3.237-2.649 5.885-5.886 5.885h-35.342c-3.237 0-5.856-2.649-5.856-5.885l.03-47.084c0-3.237 2.619-5.885 5.856-5.885h23.541zm-57 9.489v27.179a4.543 4.543 0 0 1-4.53 4.53h-27.202c-2.492 0-4.508-2.039-4.508-4.53l.023-36.24c0-2.49 2.016-4.53 4.507-4.53h18.12z" fill-opacity=".251" fill="#fff"/><path d="m251.198 82.623-7.526 53.295c-.69 4.886-5.252 8.319-10.137 7.629l-53.34-7.533c-4.886-.69-8.274-5.245-7.584-10.13l10.08-71.055c.69-4.886 5.206-8.325 10.092-7.635l35.53 5.018z" fill="none" stroke-opacity=".149" stroke="#000" stroke-width="8.5"/><path d="m251.198 82.623-7.526 53.295c-.69 4.886-5.252 8.319-10.137 7.629l-53.34-7.533c-4.886-.69-8.274-5.245-7.584-10.13l10.08-71.055c.69-4.886 5.206-8.325 10.092-7.635l35.53 5.018z" fill="#fff"/><path d="M219.843 113.62c.042-.383.036-1.02-.019-2.118-.032-.62-.225-3.787-.275-4.673-.141-2.48-.252-4.906-.34-7.643-.165-5.27.197-7.49 1.542-7.892.649-.194 1.305.085 2.181.743.465.348 2.423 2.038 2.299 1.935 2.215 1.856 3.914 2.757 5.739 2.733 1.9-.026 3.06.358 3.397 1.248.315.833-.225 1.727-1.264 2.53-2.054 1.593-5.275 2.379-7.472 1.458-.964-.41-1.428-.78-2.681-1.953l-.105-.096c-.044.73.023 2.165.22 4.756.128 1.678.953 11.549 1.204 14.674v.015c.19 3.303-3.094 5.432-7.19 4.854-4.009-.566-7.41-3.517-7.58-6.696-.192-3.308 3.095-5.445 7.188-4.867a10.3 10.3 0 0 1 3.153.988zm-21.734 4.372c.043-.389.035-1.036-.025-2.161-.03-.576-.22-3.68-.276-4.67a312 312 0 0 1-.332-7.589c-.166-5.27.197-7.488 1.541-7.89.651-.194 1.306.082 2.181.743.467.348 2.424 2.037 2.3 1.933 2.213 1.856 3.911 2.757 5.734 2.733 1.898-.03 3.06.353 3.397 1.243.315.834-.225 1.726-1.262 2.53-2.056 1.595-5.276 2.378-7.469 1.452-.961-.41-1.426-.778-2.679-1.953l-.104-.095c-.045.73.022 2.165.219 4.754.128 1.68.95 11.553 1.203 14.676l.001.016c.176 3.303-3.109 5.44-7.19 4.864-4.004-.565-7.404-3.522-7.587-6.712-.18-3.306 3.108-5.438 7.196-4.86a10.2 10.2 0 0 1 3.153.986z" fill="#bf8b11" fill-rule="evenodd"/><path d="m219.453 82.695 3.457-24.477 21.02 27.934z" fill="#fcb103"/><path d="m122.942 71.816 11.944 52.482c1.095 4.811-1.945 9.643-6.756 10.738l-52.526 11.955c-4.811 1.094-9.6-1.956-10.695-6.767L49.027 70.237c-1.094-4.81 1.902-9.633 6.713-10.727l34.988-7.963z" fill="none" stroke-opacity=".149" stroke="#000" stroke-width="8.5"/><path d="m122.942 71.816 11.944 52.482c1.095 4.811-1.945 9.643-6.756 10.738l-52.526 11.955c-4.811 1.094-9.6-1.956-10.695-6.767L49.027 70.237c-1.094-4.81 1.902-9.633 6.713-10.727l34.988-7.963z" fill="#fff"/><path d="m95.375 132.521-7.932-34.852 8.713-1.983 7.932 34.852z" fill="#bf8b11"/><path d="m110.237 97.154-34.853 7.932-1.983-8.713 34.853-7.932z" fill="#bf8b11"/><path d="m93.303 83.187-5.485-24.104 29.59 18.619z" fill="#fcb103"/><path d="M187.96 65.7v53.824c0 4.934-4.036 8.97-8.97 8.97h-53.87c-4.934 0-8.926-4.036-8.926-8.97l.045-71.766c0-4.934 3.992-8.971 8.926-8.971h35.883z" fill="none" stroke-opacity=".149" stroke="#000" stroke-width="8.5"/><path d="M187.96 65.7v53.824c0 4.934-4.036 8.97-8.97 8.97h-53.87c-4.934 0-8.926-4.036-8.926-8.97l.045-71.766c0-4.934 3.992-8.971 8.926-8.971h35.883z" fill="#fff"/><path d="M156.52 70.228V45.47l24.756 24.757z" fill="#fcb103"/><path d="M153.555 81.881s1.008 1.369 1.776 3c1.684 3.73 2.767 9.266 2.167 15.89-.553 6.11-1.074 10.032-2.86 13.142-.245.426.703.973.703.973-.402 0-.934.05-.934.05.04.504.874.656.874.656-1.006.493-1.394-.054-1.477-.201.059.146.147.283.234.395.163.038.26.084.26.084 2.07.75 3.4 2.223 3.4 2.223h-8.815c.359-.366.773-.66 1.194-.895-.467.25-.899.55-1.194.895h-6.057c-.12 0-5.214-5.364-5.375-11.696s1.57-12.432 2.888-15.261c1.53-3.285 4.086-9.518 4.267-10.26.18-.74.007-3.754 1.165-5.251.805-1.04 2.38-1.543 3.423-1.543l4.166 1.664c1.655 1.83-.27 4.053-.27 4.053s-.677 1.346.185 1.733c0 .32.28.35.28.35m-.43 33.48c.041.147.111.281.192.399q.112-.017.217-.02a2.6 2.6 0 0 1-.409-.379m-1.08 1.082.035-.035c-.22.062-.487.146-.776.25.272-.092.524-.162.741-.215" fill="#e3a066"/><path d="M154.298 115.87c2.07.75 3.4 2.223 3.4 2.223h-8.815c.359-.366.773-.66 1.194-.895-.467.25-.899.55-1.194.895h-6.057c-.12 0-5.214-5.364-5.375-11.696s1.57-12.432 2.888-15.261c1.53-3.285 4.086-9.518 4.267-10.26.18-.74.007-3.754 1.165-5.251.805-1.04 2.38-1.543 3.423-1.543l4.166 1.664c.14-.131.454.567 1.068.877.657.333 1.58.817 3.098 1.028 1.52.212 2.829.62 3.385 1.21.557.59.842 1.24.842 1.24s-.707-1.104-4.918-.68c-3.204.165-3.475.646-3.948.954-.095.415-.098.938.388 1.157 0 .32.28.35.28.35s1.008 1.368 1.776 2.999c1.684 3.73 2.767 9.266 2.167 15.89-.553 6.11-1.074 10.032-2.86 13.142-.245.426.703.973.703.973-.402 0-.934.05-.934.05.04.504.874.656.874.656-1.006.493-1.394-.054-1.477-.201.059.146.147.283.234.395.163.038.26.084.26.084m-2.253.573.035-.035c-.22.062-.487.146-.776.25.272-.092.524-.162.741-.215m1.272-.683q.112-.017.217-.02a2.6 2.6 0 0 1-.41-.38c.042.148.112.282.193.4" fill="#bf8b11"/><path d="M153.09 79.799s-.677 1.346.185 1.733c0 .32.28.35.28.35s1.008 1.368 1.776 2.999c1.684 3.73 2.767 9.266 2.167 15.89-.553 6.11-1.074 10.032-2.86 13.142-.245.426.703.973.703.973-.402 0-.934.05-.934.05.04.504.874.656.874.656-1.006.493-1.394-.054-1.477-.201.059.146.147.283.234.396.163.037.26.083.26.083 2.07.75 3.4 2.223 3.4 2.223h-8.815c.359-.366.773-.66 1.194-.895-.467.25-.899.55-1.194.895h-6.057c-.12 0-5.214-5.364-5.375-11.696s1.57-12.432 2.888-15.261c1.53-3.285 4.086-9.518 4.267-10.26.18-.74.007-3.754 1.165-5.251.805-1.04 2.38-1.543 3.423-1.543 0 0 1.54.09 2.293.391.601.24 1.873 1.273 1.873 1.273 1.655 1.83-.27 4.053-.27 4.053m.035 35.562c.041.147.111.281.192.399q.112-.017.217-.02a2.6 2.6 0 0 1-.409-.379m-1.08 1.082.035-.035c-.22.062-.487.146-.776.25.272-.092.524-.162.741-.215" fill="#bf8b11"/><g fill="#fff" fill-rule="evenodd"><path d="M45.099 145.957a6.86 6.86 0 0 0 2.299-6.46l-1.003-5.479c-.47-2.592 2.788-4.14 4.496-2.137l3.618 4.237a6.87 6.87 0 0 0 6.457 2.3l5.48-1.002c2.591-.471 4.14 2.787 2.138 4.499l-4.238 3.614a6.87 6.87 0 0 0-2.296 6.456l.999 5.48c.474 2.59-2.784 4.139-4.496 2.137l-3.615-4.237a6.86 6.86 0 0 0-6.459-2.295L43 154.072c-2.592.471-4.14-2.787-2.137-4.498z" stroke-opacity=".129" stroke="#000" stroke-width="5.4"/><path d="M45.099 145.957a6.86 6.86 0 0 0 2.299-6.46l-1.003-5.479c-.47-2.592 2.788-4.14 4.496-2.137l3.618 4.237a6.87 6.87 0 0 0 6.457 2.3l5.48-1.002c2.591-.471 4.14 2.787 2.138 4.499l-4.238 3.614a6.87 6.87 0 0 0-2.296 6.456l.999 5.48c.474 2.59-2.784 4.139-4.496 2.137l-3.615-4.237a6.86 6.86 0 0 0-6.459-2.295L43 154.072c-2.592.471-4.14-2.787-2.137-4.498z"/></g><g fill="#fff" fill-rule="evenodd"><path d="M221.75 33.665a7.92 7.92 0 0 0 .353-7.912l-2.96-5.712c-1.397-2.704 1.678-5.516 4.243-3.88l5.428 3.453a7.93 7.93 0 0 0 7.91.356l5.712-2.96c2.704-1.397 5.516 1.678 3.883 4.245l-3.456 5.427a7.93 7.93 0 0 0-.353 7.905l2.957 5.716c1.4 2.7-1.674 5.512-4.242 3.88l-5.426-3.456a7.93 7.93 0 0 0-7.91-.35l-5.712 2.96c-2.703 1.397-5.516-1.678-3.883-4.245z" stroke-opacity=".129" stroke="#000" stroke-width="6.4"/><path d="M221.75 34.065a7.92 7.92 0 0 0 .353-7.912l-2.96-5.712c-1.397-2.704 1.678-5.516 4.243-3.88l5.428 3.453a7.93 7.93 0 0 0 7.91.356l5.712-2.96c2.704-1.397 5.516 1.678 3.883 4.245l-3.456 5.427a7.93 7.93 0 0 0-.353 7.905l2.957 5.716c1.4 2.7-1.674 5.512-4.242 3.88l-5.426-3.456a7.93 7.93 0 0 0-7.91-.35l-5.712 2.96c-2.703 1.397-5.516-1.678-3.883-4.245z"/></g><g fill="#fff" fill-rule="evenodd"><path d="M253.771 106.344a6.3 6.3 0 0 0 3.65-5.129l.488-5.09c.234-2.407 3.5-2.957 4.505-.76l2.134 4.648a6.3 6.3 0 0 0 5.125 3.65l5.09.489c2.407.234 2.958 3.5.76 4.509l-4.648 2.13a6.3 6.3 0 0 0-3.646 5.125l-.492 5.09c-.23 2.407-3.496 2.957-4.506.76l-2.13-4.648a6.3 6.3 0 0 0-5.128-3.646l-5.09-.488c-2.407-.234-2.957-3.5-.76-4.51z" stroke-opacity=".129" stroke="#000" stroke-width="6"/><path d="M253.771 106.344a6.3 6.3 0 0 0 3.65-5.129l.488-5.09c.234-2.407 3.5-2.957 4.505-.76l2.134 4.648a6.3 6.3 0 0 0 5.125 3.65l5.09.489c2.407.234 2.958 3.5.76 4.509l-4.648 2.13a6.3 6.3 0 0 0-3.646 5.125l-.492 5.09c-.23 2.407-3.496 2.957-4.506.76l-2.13-4.648a6.3 6.3 0 0 0-5.128-3.646l-5.09-.488c-2.407-.234-2.957-3.5-.76-4.51z"/></g></svg>
