<svg xmlns="http://www.w3.org/2000/svg" width="300" height="185.859" viewBox="18 0 300 185.859"><g stroke-miterlimit="10"><path d="M18 185.762V0h299.876v185.762z" fill="#246a5e"/><g stroke-width="0"><path d="m0 108.355 37.597 6.586 9.152 63.917-12.25 6.904L0 185.107z" fill="#349a87"/><path d="m20.847 185.17 31.812-25.567 31.813 25.566-.174.593H21.021zM140.278 4.181l-31.813 25.567L76.652 4.181 77.88.001h61.17zM259.36 26.145l-38.838 6.805L205.344 0h57.76zm54.063 159.617-20.326-16.335 12.151-41.367h30.628v57.8z" fill="#3fb8a2"/><path d="m204.058 153.187 57.783 10.123 3.215 22.452h-76.004zm-17.38-55.949-42.867-24.16 7.526-52.56 47.518-8.326 21.841 47.416z" fill="#349a87"/><path d="m184.868 105.466-28.98 22.645-28.425-23.49 11.412-37.16 35.478.521z" fill="#3fb8a2"/><path d="m145.948 170.568-11.1-37.788 29.06-23.355 29.06 23.355-11.1 37.788zM26.865 91.092 11.998 40.481 50.92 9.201l38.921 31.28-14.866 50.611z" fill="#349a87"/><path d="m52.584 94.08 16.109-34.969 35.044 6.14 5.55 38.764-31.614 17.817z" fill="#3fb8a2"/><path d="m285.08 46.402 27.758 43.465-28.794 42.633-45.553-17.116.64-53.212z" fill="#349a87"/><path d="m279.255 15.566 34.968 6.654 5.084 38.842-31.826 17.351-24.753-28.118zm-28.993 68.216 20.471 32.056-21.235 31.442-33.596-12.624.472-39.243z" fill="#3fb8a2"/><path d="m54.642 114.155 33.887-12.18 20.944 31.887-20.944 31.886-33.887-12.18zm8.053-106.25L48.67 0h21.171z" fill="#349a87"/><path d="M37.81 0v8.107L.412 21.548 0 20.921V.251z" fill="#3fb8a2"/></g><path d="M138.438 123.752v-56h74v56z" fill="#246a5e"/><path d="M211.038 67.675v59.606a6.465 6.465 0 0 1-6.465 6.465h-73.27a6.465 6.465 0 0 1-6.466-6.465V55.902c0-2.179 2.078-4.047 3.911-4.047h19.156c1.704 0 3.572.778 4.618 1.824l4.988 4.989c.796.795 2.828 1.807 4.562 1.807h40.506c3.91 0 8.46 3.638 8.46 7.2zm-37.013 49.204-17.55-39.138c-1.257-2.803-3.838-3-5.028-.335l-17.26 38.672c-.726 1.626-.327 2.583.705 2.583h3.654c.682 0 1.902-.747 2.23-1.481l5.59-12.527h15.092l5.696 12.703c.296.659 1.346 1.305 2.309 1.305h3.513c.773 0 1.558-.648 1.05-1.782zm25.511-26.234h-3.373c-.737 0-1.287.872-1.287 1.263v.95a13.9 13.9 0 0 0-7.543-2.213c-7.724 0-14.007 6.284-14.007 14.008s6.283 14.008 14.007 14.008c2.776 0 5.364-.815 7.543-2.214v.897c0 .397.548 1.317 1.287 1.317h3.514c.698 0 1.664-1.109 1.664-2.863V94.157c0-1.698-1.063-3.512-1.805-3.512z" fill="none" stroke-opacity=".506" stroke="#000" stroke-width="9.5"/><path d="M162.195 56.125s2.078-4.048 3.911-4.048h19.156c1.704 0 3.572.778 4.617 1.824 1.676 1.676 3.09 2.28 1.26 2.277z" fill="none" stroke-opacity=".506" stroke="#000" stroke-width="9.5"/><path d="M194.876 104.653c0 4.16-3.384 7.543-7.543 7.543s-7.542-3.384-7.542-7.543 3.383-7.542 7.542-7.542c4.16 0 7.543 3.383 7.543 7.542" fill="#fff"/><path d="M211.038 67.675v59.606a6.465 6.465 0 0 1-6.465 6.465h-73.27a6.465 6.465 0 0 1-6.466-6.465V55.902c0-2.179 2.078-4.047 3.911-4.047h19.156c1.704 0 3.572.778 4.618 1.824l4.988 4.989c.796.795 2.828 1.807 4.562 1.807h40.506c3.91 0 8.46 3.638 8.46 7.2m-37.013 49.204-17.55-39.138c-1.257-2.803-3.838-3-5.028-.335l-17.26 38.672c-.726 1.626-.327 2.583.705 2.583h3.654c.682 0 1.902-.747 2.23-1.481l5.59-12.527h15.092l5.696 12.703c.296.659 1.346 1.305 2.309 1.305h3.513c.773 0 1.558-.648 1.05-1.782m25.511-26.234h-3.373c-.737 0-1.287.872-1.287 1.263v.95a13.9 13.9 0 0 0-7.543-2.213c-7.724 0-14.007 6.284-14.007 14.008s6.283 14.008 14.007 14.008c2.776 0 5.364-.815 7.543-2.214v.897c0 .397.548 1.317 1.287 1.317h3.514c.698 0 1.664-1.109 1.664-2.863V94.157c0-1.698-1.063-3.512-1.805-3.512" fill="#fff"/><path d="M157.083 98.188h-6.385c-.86 0-1.093-.79-.602-1.891l2.725-6.106c.462-1.035 1.759-.876 2.257.236l2.744 6.118c.434.967-.053 1.643-.739 1.643m5.112-42.063s2.078-4.048 3.91-4.048h19.157c1.704 0 3.572.778 4.617 1.824 1.676 1.676 3.09 2.28 1.26 2.277z" fill="#fff"/><g fill="#fff" fill-rule="evenodd"><path d="M105.76 34.993a4.32 4.32 0 0 0-.858-4.234l-2.321-2.633c-1.096-1.246.16-3.14 1.733-2.614l3.33 1.112a4.32 4.32 0 0 0 4.233-.856l2.633-2.32c1.246-1.097 3.14.16 2.616 1.734l-1.114 3.328a4.33 4.33 0 0 0 .857 4.231l2.32 2.635c1.097 1.244-.159 3.139-1.734 2.614l-3.328-1.114a4.32 4.32 0 0 0-4.233.86l-2.632 2.32c-1.246 1.097-3.14-.16-2.616-1.734z" stroke-opacity=".502" stroke="#000" stroke-width="7.5"/><path d="M105.76 34.993a4.32 4.32 0 0 0-.858-4.234l-2.321-2.633c-1.096-1.246.16-3.14 1.733-2.614l3.33 1.112a4.32 4.32 0 0 0 4.233-.856l2.633-2.32c1.246-1.097 3.14.16 2.616 1.734l-1.114 3.328a4.33 4.33 0 0 0 .857 4.231l2.32 2.635c1.097 1.244-.159 3.139-1.734 2.614l-3.328-1.114a4.32 4.32 0 0 0-4.233.86l-2.632 2.32c-1.246 1.097-3.14-.16-2.616-1.734z"/></g><g fill="#fff" fill-rule="evenodd"><path d="M76.071 58.732a6.18 6.18 0 0 0 3.083-5.355l-.002-5.02c.002-2.373 3.142-3.218 4.331-1.165l2.522 4.34a6.18 6.18 0 0 0 5.352 3.085l5.02-.001c2.373.002 3.218 3.14 1.166 4.334l-4.342 2.519a6.19 6.19 0 0 0-3.08 5.35l-.003 5.02c.002 2.373-3.137 3.218-4.33 1.166l-2.52-4.342a6.18 6.18 0 0 0-5.353-3.08l-5.02.002c-2.373-.002-3.218-3.141-1.166-4.334z" stroke-opacity=".502" stroke="#000" stroke-width="7.5"/><path d="M76.071 58.732a6.18 6.18 0 0 0 3.083-5.355l-.002-5.02c.002-2.373 3.142-3.218 4.331-1.165l2.522 4.34a6.18 6.18 0 0 0 5.352 3.085l5.02-.001c2.373.002 3.218 3.14 1.166 4.334l-4.342 2.519a6.19 6.19 0 0 0-3.08 5.35l-.003 5.02c.002 2.373-3.137 3.218-4.33 1.166l-2.52-4.342a6.18 6.18 0 0 0-5.353-3.08l-5.02.002c-2.373-.002-3.218-3.141-1.166-4.334z"/></g><g fill="#fff" fill-rule="evenodd"><path d="M235.913 139.724a4.32 4.32 0 0 0-2.43-3.573l-3.158-1.53c-1.493-.724-1.068-2.957.587-3.08l3.5-.264a4.32 4.32 0 0 0 3.573-2.427l1.53-3.158c.724-1.493 2.957-1.068 3.082.587l.261 3.5a4.33 4.33 0 0 0 2.428 3.57l3.158 1.532c1.494.723 1.068 2.955-.587 3.08l-3.5.262a4.32 4.32 0 0 0-3.57 2.43l-1.53 3.158c-.725 1.493-2.958 1.068-3.083-.587z" stroke-opacity=".502" stroke="#000" stroke-width="7.5"/><path d="M235.913 139.724a4.32 4.32 0 0 0-2.43-3.573l-3.158-1.53c-1.493-.724-1.068-2.957.587-3.08l3.5-.264a4.32 4.32 0 0 0 3.573-2.427l1.53-3.158c.724-1.493 2.957-1.068 3.082.587l.261 3.5a4.33 4.33 0 0 0 2.428 3.57l3.158 1.532c1.494.723 1.068 2.955-.587 3.08l-3.5.262a4.32 4.32 0 0 0-3.57 2.43l-1.53 3.158c-.725 1.493-2.958 1.068-3.083-.587z"/></g><g fill="#fff" fill-rule="evenodd"><path d="M260.035 107.68a4.26 4.26 0 0 0-2.98-3.04l-3.33-.931c-1.575-.443-1.553-2.682.03-3.09l3.349-.867a4.26 4.26 0 0 0 3.04-2.978l.932-3.33c.442-1.575 2.682-1.553 3.092.03l.865 3.349a4.26 4.26 0 0 0 2.978 3.038l3.33.934c1.575.44 1.552 2.68-.03 3.09l-3.35.864a4.26 4.26 0 0 0-3.037 2.98l-.932 3.331c-.442 1.575-2.682 1.552-3.092-.03z" stroke-opacity=".502" stroke="#000" stroke-width="7.5"/><path d="M260.035 107.68a4.26 4.26 0 0 0-2.98-3.04l-3.33-.931c-1.575-.443-1.553-2.682.03-3.09l3.349-.867a4.26 4.26 0 0 0 3.04-2.978l.932-3.33c.442-1.575 2.682-1.553 3.092.03l.865 3.349a4.26 4.26 0 0 0 2.978 3.038l3.33.934c1.575.44 1.552 2.68-.03 3.09l-3.35.864a4.26 4.26 0 0 0-3.037 2.98l-.932 3.331c-.442 1.575-2.682 1.552-3.092-.03z"/></g></g></svg>
