<svg xmlns="http://www.w3.org/2000/svg" width="306.5" height="192.5" viewBox="5 6 300 183"><g stroke-miterlimit="10"><path d="M3.25 189.987v-186h300v186z" fill="#748bee"/><g fill="none" stroke-opacity=".502" stroke="#8ca1ff" stroke-width="6.5" stroke-linejoin="round">
<rect x="0" y="0" width="1000px" height="1000px" fill="#748bee"></rect>
<path d="m145.559 24.012-22.217 15.475-22.219-15.475V3.987h44.436z"/><path d="m122.923 69.527-22.219 15.475-22.217-15.475v-30.95l22.217-15.475 22.219 15.476z"/><path d="M100.286 24.012 78.068 39.487 55.85 24.012V3.987h44.435zm124.371 132.96-22.217 15.474-22.219-15.474v-30.95l22.219-15.474 22.217 15.474z"/><path d="m202.021 111.458-22.219 15.475-22.218-15.475v-30.95l22.218-15.474 22.219 15.475z"/><path d="m179.383 156.971-22.218 15.475-22.217-15.474v-30.95l22.217-15.474 22.218 15.474zm118.782-57.466L275.947 84.03V53.08l22.218-15.474zM275.109 84.03l-22.217 15.475-22.22-15.475V53.08l22.22-15.474 22.217 15.475z"/><path d="m297.746 38.516-22.218 15.475-22.217-15.475V7.567h44.435zm-45.273 0-22.22 15.475-22.218-15.475V7.567h44.437zM14.128 179.274c-7.241-5.043-3.074-39.392-3.074-39.392l22.217 15.475v30.95s-11.585-1.77-19.143-7.033zm19.981-23.917 22.218-15.475 22.219 15.475v30.95H34.109z"/><path d="M11.473 109.843 33.69 94.369l22.218 15.474v30.95L33.69 156.267l-22.217-15.474zm67.91 45.514 22.218-15.475 22.218 15.475v30.95H79.384z"/><path d="m56.746 109.843 22.219-15.474 22.217 15.474v30.95l-22.217 15.474-22.22-15.474z"/></g><g fill="none" stroke="#677ee6" stroke-width="6.5" stroke-linejoin="round"><path d="M162.466 3.987h44.436v20.025l-22.217 15.475-22.219-15.476z"/><path d="m185.104 38.578 22.217-15.476 22.218 15.476v30.949l-22.218 15.475-22.217-15.475z"/><path d="M207.74 3.987h44.437v20.025l-22.219 15.475-22.218-15.475zM83.37 126.022l22.217-15.474 22.217 15.474v30.95l-22.216 15.474-22.218-15.474z"/><path d="m106.005 80.509 22.218-15.475 22.219 15.475v30.95l-22.219 15.474-22.217-15.475z"/><path d="m128.643 126.022 22.217-15.474 22.219 15.474v30.95l-22.218 15.474-22.219-15.474zM9.861 37.606l22.218 15.475V84.03L9.861 99.505zm23.055 15.475 22.219-15.475 22.218 15.475V84.03L55.135 99.505 32.916 84.03z"/><path d="M10.28 7.567h44.436v30.95L32.498 53.991 10.28 38.516zm45.274 0h44.435v30.95L77.773 53.991 55.555 38.516zm219.2 178.74v-30.95l22.219-15.475s4.165 34.348-3.076 39.392c-7.557 5.263-19.143 7.032-19.143 7.032zm-.838 0h-44.435v-30.95l22.218-15.475 22.217 15.475z"/><path d="m296.554 140.793-22.219 15.474-22.217-15.474v-30.95l22.217-15.474 22.219 15.474zm-67.911 45.513h-44.436v-30.949l22.217-15.475 22.219 15.475z"/><path d="m251.28 140.793-22.218 15.474-22.219-15.474v-30.95l22.219-15.474 22.218 15.474z"/></g><g fill="none" stroke="#576fd9" stroke-width="6.5" stroke-linejoin="round"><path d="M155.856 3.987h44.436v20.025l-22.218 15.475-22.218-15.476z"/><path d="m178.493 38.578 22.218-15.476 22.217 15.476v30.949l-22.217 15.475-22.218-15.475z"/><path d="M201.13 3.987h44.436v20.025l-22.219 15.475-22.217-15.475zM76.759 126.022l22.217-15.474 22.218 15.474v30.95l-22.218 15.474-22.217-15.474z"/><path d="m99.394 80.509 22.219-15.475 22.218 15.475v30.95l-22.218 15.474-22.218-15.475z"/><path d="m122.033 126.022 22.216-15.474 22.22 15.474v30.95l-22.22 15.474-22.217-15.474zM3.25 37.606l22.219 15.475V84.03L3.25 99.505zm23.056 15.475 22.218-15.475 22.218 15.475V84.03L48.524 99.505 26.306 84.03z"/><path d="M3.669 7.567h44.436v30.95L25.888 53.991 3.669 38.516zm45.274 0h44.436v30.95L71.162 53.991 48.944 38.516zm230.896 182.42v-30.95l22.219-15.474s4.166 34.348-3.076 39.392c-7.557 5.263-19.143 7.032-19.143 7.032zm-.838 0h-44.435v-30.95l22.218-15.474 22.217 15.475z"/><path d="m301.639 144.473-22.219 15.475-22.217-15.475v-30.949l22.217-15.475 22.219 15.475zm-67.911 45.514h-44.436v-30.95l22.217-15.474 22.219 15.475z"/><path d="m256.365 144.473-22.218 15.475-22.219-15.475v-30.949l22.219-15.475 22.218 15.475z"/></g><path d="M20.792 148.237q0-1.122.66-2.615.657-1.5 1.44-2.038 1.47 1.083 2.985 1.083l1.205-.19q2.091-.62 2.168-3.341v-9.89h-3.1q-.66 0-.932-1.675a11.4 11.4 0 0 1 0-3.335q.273-1.667.932-1.667h9.23q.78 0 1.168.447t.387 1.068v18.31q0 3.805-2.547 5.783-2.538 1.978-6.093 1.978-3.548 0-5.525-1.046-1.979-1.045-1.978-2.872zm20.526-5.972q.735.585 2.54 1.591 1.81 1.008 3.455 1.008 1.651 0 1.652-1.28 0-.584-.47-1.031-.463-.448-1.705-1.023a51 51 0 0 1-1.864-.91q-.621-.333-1.652-1.091-1.023-.757-1.57-1.576-1.545-2.205-1.545-5.624 0-3.417 2.539-5.76 2.538-2.349 6.654-2.349 2.796 0 5.16.606 2.364.6 2.44 1.57v.227q0 1.364-.855 3.44-.85 2.07-1.198 2.304-2.486-1.28-4.448-1.28-1.956 0-1.956 1.394 0 .856 1.44 1.516.31.159.887.432.584.266 1.34.636.76.37 1.63.932.871.561 1.888 1.493 2.054 1.94 2.054 5.124 0 4.153-2.29 6.79-2.288 2.637-7.062 2.713-2.327 0-4.214-.386-1.881-.386-3.282-1.508-1.395-1.13-1.394-2.721 0-1.592.583-3.16.585-1.577 1.243-2.077zm31.139 9.852q-5.45 0-8.882-3.57-3.434-3.57-3.433-10.412 0-6.852 3.47-10.383 3.47-3.532 8.959-3.532 5.493 0 8.867 3.471 3.38 3.47 3.38 10.52 0 7.04-3.456 10.473-3.448 3.433-8.905 3.433zm.023-20.447q-1.866 0-3.13 1.713c-.84 1.136.345 2.733.345 4.79s-1.202 3.635-.398 4.736q1.203 1.645 3.16 1.645 1.963 0 3.183-1.668 1.22-1.674 1.22-4.774 0-3.108-1.258-4.775-1.26-1.667-3.122-1.667zm36.707 19.204q0 .819-3.653.819-3.645 0-3.956-.584l-6.48-12.103v12.065q0 .698-3.592.698-3.585 0-3.585-.698v-25.957q0-.583 3.062-.583 1.204 0 2.812.212 1.614.212 1.963.796l6.207 11.951v-12.186q0-.735 3.607-.735 3.615 0 3.615.735zm13.424-13.232q-1.083-1.94-1.083-3.16t.659-1.57q2.204-.97 6.063-.97 3.864 0 5.457 1.804 1.59 1.804 1.59 5.336v6.131h1.32q.66 0 1.03.78.372.774.372 2.13 0 1.357-.682 2.675-.684 1.32-1.842 1.32-2.1 0-3.38-1.123a3.2 3.2 0 0 1-.887-1.129q-1.788 2.25-5.555 2.251-2.826 0-4.767-2.016-1.94-2.016-1.94-4.774-.001-6.32 7.564-6.32h2.137v-.395q0-1.008-.334-1.296-.327-.288-1.53-.288-1.48 0-4.192.614zm3.108 7.147q0 .848.462 1.296.462.447 1.182.447t1.304-.584v-2.986h-1.092q-1.857 0-1.856 1.827zm22.615 6.707q0 .273-2.79.273-3.88-.114-3.88-.425v-12.572h-1.008q-1.008 0-1.318-1.705a6 6 0 0 1-.084-1.008q0-1.205.47-2.41.698-1.705 2.168-1.705 1.478 0 2.637.697 1.168.698 1.56 1.394 2.44-2.091 5.814-2.091 3.38 0 4.888 1.826 1.515 1.819 1.516 5.972v11.641q0 .462-3.32.462-3.31 0-3.311-.462v-11.216q0-1.94-1.357-1.94-.393 0-1.091.333-.699.326-.894.485zm23.093-26.692q0-.584 3.062-.584 1.044 0 2.425.136 1.38.137 1.379.364v20.455h1.357q.97 0 1.28 1.743.076.508.076 1.38 0 .87-.538 2.114-.78 1.705-2.486 1.705-1.28 0-2.273-.5-.986-.508-1.334-1.053l-.35-.5q-2.136 2.053-5.357 2.053t-5.51-2.675q-2.29-2.675-2.288-7.465 0-4.797 2.402-7.412 2.409-2.622 6.018-2.622 1.046 0 2.137.235zm-1.281 13.346c-1.45 0-5.292 1.217-5.292 3.829 0 1.318 3.324 2.36 3.738 2.946q.621.872 1.38.872.757 0 1.455-.66v-6.6q-.66-.387-1.281-.387zm39.109 13.656q-3.374 0-3.646-1.083l-1.28-5.01h-6.17l-1.121 4.813q-.235 1.205-3.73 1.205-1.863 0-2.758-.213-.886-.212-.886-.333l6.866-26.268q0-.31 5.313-.31 5.32 0 5.32.31l6.715 26.306q0 .273-1.79.432-1.779.15-2.833.151zm-10.126-11.019h4.078l-1.75-8.033h-.228zm26.148 10.906c0 .182-1.712.273-4.066.273q-3.532-.084-3.532-.311v-12.884h-1.046q-.621 0-.993-.758-.37-.758-.371-1.88 0-4.19 2.486-4.19 1.743 0 2.91 1.068 1.167 1.062 1.167 2.425.81-1.59 2.19-2.538 1.38-.955 2.812-.955 2.25 0 2.72 1.16.114.31.114.916 0 .6-.37 2.153-.364 1.552-.76 2.25-.385.698-.461.698-.075 0-.72-.288-.636-.296-1.144-.296-1.47 0-1.47 2.327zm14.83 0q0 .273-3.53.273c-2.355-.056-4.333-.16-4.333-.311 0 0-.99-13.137-1.238-13.642q-.37-.758-.371-1.88 0-4.19 2.486-4.19 1.743 0 2.91 1.068 1.167 1.062 1.167 2.425.81-1.59 2.19-2.538 1.38-.955 2.812-.955 2.25 0 2.72 1.16.114.31.114.916 0 .6-.371 2.153-.363 1.553-.758 2.25-.387.698-.462.698t-.72-.288q-.636-.296-1.144-.296-1.47 0-1.47 2.327zm9.31-14.051q-1.082-1.94-1.082-3.16t.66-1.57q2.205-.97 6.062-.97 3.864 0 5.457 1.804 1.591 1.804 1.59 5.336v6.131h1.32q.66 0 1.03.78.37.774.372 2.13 0 1.357-.682 2.675-.683 1.32-1.841 1.32-2.1 0-3.38-1.123a3.2 3.2 0 0 1-.887-1.129q-1.79 2.25-5.555 2.251-2.829 0-4.767-2.016-1.94-2.016-1.94-4.774 0-6.32 7.563-6.32h2.137v-.395q0-1.008-.333-1.296-.327-.288-1.531-.288-1.479 0-4.191.614zm3.109 7.147q0 .848.462 1.296.462.447 1.183.447.72 0 1.303-.584v-2.986h-1.091q-1.857 0-1.857 1.827zm13.15-12.263q0-.432 3.546-.432 3.555 0 3.676.387l2.789 9.162 2.675-9.238q.16-.31 2.41-.31 5.16 0 4.926.507l-9.117 25.957q-.038.235-2.114.235t-3.866-.136q-1.78-.137-1.705-.334l3.38-8.147z" fill="none" stroke-opacity=".502" stroke="#000" stroke-width="8.5" stroke-linecap="square" stroke-linejoin="round"/><path d="M20.792 148.237q0-1.122.66-2.615.657-1.5 1.44-2.038 1.47 1.083 2.985 1.083l1.205-.19q2.091-.62 2.168-3.341v-9.89h-3.1q-.66 0-.932-1.675a11.4 11.4 0 0 1 0-3.335q.273-1.667.932-1.667h9.23q.78 0 1.168.447t.387 1.068v18.31q0 3.805-2.547 5.783-2.538 1.978-6.093 1.978-3.548 0-5.525-1.046-1.979-1.045-1.978-2.872m20.526-5.972q.735.585 2.54 1.591 1.81 1.008 3.455 1.008 1.651 0 1.652-1.28 0-.584-.47-1.031-.463-.448-1.705-1.023a51 51 0 0 1-1.864-.91q-.621-.333-1.652-1.091-1.023-.757-1.57-1.576-1.545-2.205-1.545-5.624 0-3.417 2.539-5.76 2.538-2.349 6.654-2.349 2.796 0 5.16.606 2.364.6 2.44 1.57v.227q0 1.364-.855 3.44-.85 2.07-1.198 2.304-2.486-1.28-4.448-1.28-1.956 0-1.956 1.394 0 .856 1.44 1.516.31.159.887.432.584.266 1.34.636.76.37 1.63.932.871.561 1.888 1.493 2.054 1.94 2.054 5.124 0 4.153-2.29 6.79-2.288 2.637-7.062 2.713-2.327 0-4.214-.386-1.881-.386-3.282-1.508-1.395-1.13-1.394-2.721 0-1.592.583-3.16.585-1.577 1.243-2.077m31.139 9.852q-5.45 0-8.882-3.57-3.434-3.57-3.433-10.412 0-6.852 3.47-10.383 3.47-3.532 8.959-3.532 5.493 0 8.867 3.471 3.38 3.47 3.38 10.52 0 7.04-3.456 10.473-3.448 3.433-8.905 3.433m.023-20.447q-1.866 0-3.13 1.713-1.258 1.704-1.258 4.79 0 3.084 1.205 4.736 1.203 1.645 3.16 1.645 1.963 0 3.183-1.668 1.22-1.674 1.22-4.774 0-3.108-1.258-4.775-1.26-1.667-3.122-1.667m36.707 19.204q0 .819-3.653.819-3.645 0-3.956-.584l-6.48-12.103v12.065q0 .698-3.592.698-3.585 0-3.585-.698v-25.957q0-.583 3.062-.583 1.204 0 2.812.212 1.614.212 1.963.796l6.207 11.951v-12.186q0-.735 3.607-.735 3.615 0 3.615.735zm13.424-13.232q-1.083-1.94-1.083-3.16t.659-1.57q2.204-.97 6.063-.97 3.864 0 5.457 1.804 1.59 1.804 1.59 5.336v6.131h1.32q.66 0 1.03.78.372.774.372 2.13 0 1.357-.682 2.675-.684 1.32-1.842 1.32-2.1 0-3.38-1.123a3.2 3.2 0 0 1-.887-1.129q-1.788 2.25-5.555 2.251-2.826 0-4.767-2.016-1.94-2.016-1.94-4.774-.001-6.32 7.564-6.32h2.137v-.395q0-1.008-.334-1.296-.327-.288-1.53-.288-1.48 0-4.192.614m3.108 7.147q0 .848.462 1.296.462.447 1.182.447t1.304-.584v-2.986h-1.092q-1.857 0-1.856 1.827m22.615 6.707q0 .273-2.79.273-3.88-.114-3.88-.425v-12.572h-1.008q-1.008 0-1.318-1.705a6 6 0 0 1-.084-1.008q0-1.205.47-2.41.698-1.705 2.168-1.705 1.478 0 2.637.697 1.168.698 1.56 1.394 2.44-2.091 5.814-2.091 3.38 0 4.888 1.826 1.515 1.819 1.516 5.972v11.641q0 .462-3.32.462-3.31 0-3.311-.462v-11.216q0-1.94-1.357-1.94-.393 0-1.091.333-.699.326-.894.485zm23.093-26.692q0-.584 3.062-.584 1.044 0 2.425.136 1.38.137 1.379.364v20.455h1.357q.97 0 1.28 1.743.076.508.076 1.38 0 .87-.538 2.114-.78 1.705-2.486 1.705-1.28 0-2.273-.5-.986-.508-1.334-1.053l-.35-.5q-2.136 2.053-5.357 2.053t-5.51-2.675q-2.29-2.675-2.288-7.465 0-4.797 2.402-7.412 2.409-2.622 6.018-2.622 1.046 0 2.137.235zm-1.281 13.346q-2.175 0-2.175 3.918 0 1.977.62 2.857.622.872 1.38.872t1.456-.66v-6.6q-.66-.389-1.281-.387m39.109 13.656q-3.374 0-3.646-1.083l-1.28-5.01h-6.17l-1.121 4.813q-.235 1.205-3.73 1.205-1.863 0-2.758-.213-.886-.212-.886-.333l6.866-26.268q0-.31 5.313-.31 5.32 0 5.32.31l6.715 26.306q0 .273-1.79.432-1.779.15-2.833.151m-10.126-11.019h4.078l-1.75-8.033h-.228zm25.613 10.906q0 .273-3.531.273-3.532-.084-3.532-.311v-12.884h-1.046q-.621 0-.993-.758-.37-.758-.371-1.88 0-4.19 2.486-4.19 1.743 0 2.91 1.068 1.167 1.062 1.167 2.425.81-1.59 2.19-2.538 1.38-.955 2.812-.955 2.25 0 2.72 1.16.114.31.114.916 0 .6-.37 2.153-.364 1.552-.76 2.25-.385.698-.461.698-.075 0-.72-.288-.637-.296-1.144-.296-1.47 0-1.47 2.327zm15.366 0q0 .273-3.531.273-3.532-.084-3.532-.311v-12.884h-1.046q-.621 0-.993-.758-.37-.758-.371-1.88 0-4.19 2.486-4.19 1.743 0 2.91 1.068 1.167 1.062 1.167 2.425.81-1.59 2.19-2.538 1.38-.955 2.812-.955 2.25 0 2.72 1.16.114.31.114.916 0 .6-.371 2.153-.363 1.552-.758 2.25-.387.698-.462.698t-.72-.288q-.636-.296-1.144-.296-1.47 0-1.47 2.327zm9.31-14.051q-1.083-1.94-1.083-3.16t.66-1.57q2.205-.97 6.062-.97 3.864 0 5.457 1.804 1.591 1.804 1.59 5.336v6.131h1.32q.66 0 1.03.78.37.774.372 2.13 0 1.357-.682 2.675-.683 1.32-1.841 1.32-2.1 0-3.38-1.123a3.2 3.2 0 0 1-.887-1.129q-1.79 2.25-5.555 2.251-2.829 0-4.767-2.016-1.94-2.016-1.94-4.774 0-6.32 7.563-6.32h2.137v-.395q0-1.008-.333-1.296-.327-.288-1.531-.288-1.479 0-4.191.614m3.108 7.147q0 .848.462 1.296.462.447 1.183.447.72 0 1.303-.584v-2.986h-1.091q-1.857 0-1.857 1.827m13.15-12.263q0-.432 3.546-.432 3.555 0 3.676.387l2.789 9.162 2.675-9.238q.16-.31 2.41-.31 5.16 0 4.926.507l-9.117 25.957q-.038.235-2.114.235t-3.866-.136q-1.78-.137-1.705-.334l3.38-8.147z" fill="#fff"/><path d="M90.86 101.37a2.74 2.74 0 0 1 2.74-2.74h7.31a.917.917 0 0 0 .913-.914V82.591c0-.727.289-1.425.804-1.939l6.978-7.6-6.978-7.604a2.74 2.74 0 0 1-.804-1.938V48.381a.91.91 0 0 0-.914-.912h-7.308a2.741 2.741 0 1 1 0-5.482h7.31a6.4 6.4 0 0 1 6.394 6.395v13.991l8.112 8.738a2.74 2.74 0 0 1 0 3.876l-8.112 8.74v13.99a6.4 6.4 0 0 1-6.396 6.394h-7.308a2.74 2.74 0 0 1-2.74-2.74zm-21.781-2.74a2.741 2.741 0 1 1 0 5.481h-7.308a6.4 6.4 0 0 1-6.396-6.395V83.725l-8.112-8.738a2.74 2.74 0 0 1 0-3.876l8.112-8.738V48.382a6.4 6.4 0 0 1 6.396-6.397h7.308a2.742 2.742 0 0 1 0 5.483h-7.308a.91.91 0 0 0-.914.914v15.127c0 .726-.29 1.423-.804 1.938l-6.978 7.602 6.978 7.602a2.74 2.74 0 0 1 .804 1.94v15.125a.91.91 0 0 0 .914.914z" fill="none" stroke-opacity=".502" stroke="#000" stroke-width="10" stroke-linejoin="round"/><path d="M90.86 101.37a2.74 2.74 0 0 1 2.74-2.74h7.31a.917.917 0 0 0 .913-.914V82.591c0-.727.289-1.425.804-1.939l6.978-7.6-6.978-7.604a2.74 2.74 0 0 1-.804-1.938V48.381a.91.91 0 0 0-.914-.912h-7.308a2.741 2.741 0 1 1 0-5.482h7.31a6.4 6.4 0 0 1 6.394 6.395v13.991l8.112 8.738a2.74 2.74 0 0 1 0 3.876l-8.112 8.74v13.99a6.4 6.4 0 0 1-6.396 6.394h-7.308a2.74 2.74 0 0 1-2.74-2.74zm-21.781-2.74a2.741 2.741 0 1 1 0 5.481h-7.308a6.4 6.4 0 0 1-6.396-6.395V83.725l-8.112-8.738a2.74 2.74 0 0 1 0-3.876l8.112-8.738V48.382a6.4 6.4 0 0 1 6.396-6.397h7.308a2.742 2.742 0 0 1 0 5.483h-7.308a.91.91 0 0 0-.914.914v15.127c0 .726-.29 1.423-.804 1.938l-6.978 7.602 6.978 7.602a2.74 2.74 0 0 1 .804 1.94v15.125a.91.91 0 0 0 .914.914z" fill="#fff" stroke="#fff" stroke-width="2"/><path d="M228.801 101.03a3.08 3.08 0 0 1 3.083-3.08h8.216a1.03 1.03 0 0 0 1.027-1.028V49.174a1.027 1.027 0 0 0-1.028-1.024h-8.216a3.082 3.082 0 1 1 0-6.164h8.217a7.2 7.2 0 0 1 7.19 7.19v47.746a7.2 7.2 0 0 1-7.192 7.188h-8.215a3.08 3.08 0 0 1-3.083-3.08zm-21.659-3.083a3.082 3.082 0 0 1 0 6.165h-8.216a7.2 7.2 0 0 1-7.191-7.19V49.177a7.2 7.2 0 0 1 7.192-7.192h8.215a3.082 3.082 0 0 1 0 6.165h-8.216c-.568 0-1.028.46-1.028 1.027v47.745c0 .568.46 1.028 1.028 1.028h8.218z" fill="none" stroke-opacity=".502" stroke="#000" stroke-width="10" stroke-linejoin="round"/><path d="M228.801 101.03a3.08 3.08 0 0 1 3.083-3.08h8.216a1.03 1.03 0 0 0 1.027-1.028V49.174a1.027 1.027 0 0 0-1.028-1.024h-8.216a3.082 3.082 0 1 1 0-6.164h8.217a7.2 7.2 0 0 1 7.19 7.19v47.746a7.2 7.2 0 0 1-7.192 7.188h-8.215a3.08 3.08 0 0 1-3.083-3.08zm-21.659-3.083a3.082 3.082 0 0 1 0 6.165h-8.216a7.2 7.2 0 0 1-7.191-7.19V49.177a7.2 7.2 0 0 1 7.192-7.192h8.215a3.082 3.082 0 0 1 0 6.165h-8.216c-.568 0-1.028.46-1.028 1.027v47.745c0 .568.46 1.028 1.028 1.028h8.218z" fill="#fff" stroke="#fff" stroke-width="2"/><path d="M158.46 70.571h8.67a1.24 1.24 0 0 1 .945 2.042l-19.526 22.728V75.526h-8.67a1.24 1.24 0 0 1-.945-2.038l19.526-22.732z" fill="none" stroke-opacity=".502" stroke="#000" stroke-width="8.5" stroke-linecap="round" stroke-linejoin="round"/><path d="M158.46 70.571h8.67a1.24 1.24 0 0 1 .945 2.042l-19.526 22.728V75.526h-8.67a1.24 1.24 0 0 1-.945-2.038l19.526-22.732z" fill="#fff"/></g></svg>