<svg version="1.1" xmlns="http://www.w3.org/2000/svg" xmlns:xlink="http://www.w3.org/1999/xlink" width="300" height="186" viewBox="0,0,300,186"><defs><linearGradient x1="90" y1="-49.31507" x2="390" y2="180" gradientUnits="userSpaceOnUse" id="color-1"><stop offset="0.4" stop-color="#ff6680"/><stop offset="1" stop-color="#2d8eff"/></linearGradient><linearGradient x1="192.90414" y1="64.43056" x2="339.71304" y2="102.55649" gradientUnits="userSpaceOnUse" id="color-2"><stop offset="0.7" stop-color="#ff6680"/><stop offset="1" stop-color="#2d8eff"/></linearGradient><linearGradient x1="231.55968" y1="197.06008" x2="373.77142" y2="210.27631" gradientUnits="userSpaceOnUse" id="color-3"><stop offset="0" stop-color="#ff3355"/><stop offset="1" stop-color="#004f99"/></linearGradient><linearGradient x1="105.13606" y1="132.39584" x2="240.4206" y2="123.19985" gradientUnits="userSpaceOnUse" id="color-4"><stop offset="0.4" stop-color="#ff6680"/><stop offset="0.7" stop-color="#2d8eff"/></linearGradient><linearGradient x1="105.39984" y1="136.2831" x2="261.93604" y2="125.642" gradientUnits="userSpaceOnUse" id="color-5"><stop offset="0" stop-color="#ff3355"/><stop offset="1" stop-color="#004f99"/></linearGradient><linearGradient x1="137.60671" y1="135.13475" x2="257.85989" y2="126.96067" gradientUnits="userSpaceOnUse" id="color-6"><stop offset="0.1" stop-color="#ff4d6a"/><stop offset="0.6" stop-color="#2568cc"/></linearGradient><linearGradient x1="137.60671" y1="135.13475" x2="257.85989" y2="126.96067" gradientUnits="userSpaceOnUse" id="color-7"><stop offset="0" stop-color="#ff3355"/><stop offset="1" stop-color="#004f99"/></linearGradient><linearGradient x1="59.26312" y1="135.51316" x2="236.79218" y2="123.44644" gradientUnits="userSpaceOnUse" id="color-8"><stop offset="0.5" stop-color="#ff6680"/><stop offset="0.8" stop-color="#2d8eff"/></linearGradient><linearGradient x1="107.72579" y1="170.49307" x2="225.38592" y2="162.49448" gradientUnits="userSpaceOnUse" id="color-9"><stop offset="0" stop-color="#ff3355"/><stop offset="1" stop-color="#004f99"/></linearGradient><linearGradient x1="132.47588" y1="166.90051" x2="173.42386" y2="164.11809" gradientUnits="userSpaceOnUse" id="color-10"><stop offset="0" stop-color="#ff6680"/><stop offset="1" stop-color="#b973aa"/></linearGradient><linearGradient x1="132.47588" y1="166.90051" x2="173.42386" y2="164.11809" gradientUnits="userSpaceOnUse" id="color-11"><stop offset="0" stop-color="#ff3355"/><stop offset="1" stop-color="#794178"/></linearGradient></defs><g transform="translate(-89.99999,-87)"><g stroke-miterlimit="10"><path d="M390,87v186h-300v-186z" fill="url(#color-1)" fill-rule="nonzero" stroke="none" stroke-width="1" stroke-linecap="butt" stroke-linejoin="miter"/><path d="M383.67826,131.55849c-10.16454,8.56812 -29.65883,-17.18967 -28.40664,-4.43018c1.27488,12.98578 33.42131,22.78765 20.05279,25.99771c-13.36852,3.21006 -37.8765,-9.30837 -54.0178,-26.32065c-16.14031,-17.01342 -6.39219,-22.20318 6.11392,-14.44469c10.34906,6.42011 20.88857,0.96426 10.09645,-9.78937c-2.66818,-2.65856 -17.78716,-15.41706 -17.78716,-15.41706l29.35051,0.12129c0,0 8.44997,10.12534 9.57191,11.37957c13.48102,15.06897 34.89157,24.58543 25.02602,32.90338M195.9841,146.89581c-2.65239,14.94388 -18.1898,-6.04146 -24.31852,-9.9497c-9.6761,-6.16995 -14.87233,1.16894 -4.06345,9.12188c5.53568,4.07313 3.5158,11.29149 -6.18398,8.56698c-6.68624,-1.8785 -17.97468,-5.97323 -31.31952,-13.77948c-17.07772,-9.9895 -18.65752,-24.15674 1.56893,-14.88475c6.11589,2.80297 16.05545,-1.57149 6.66058,-6.76011c-19.42916,-10.73658 -35.07018,-15.74781 -34.08244,-22.37943c0.99366,-6.67256 24.17938,-3.67286 48.84031,4.04128c24.53265,7.67435 44.53708,36.78547 42.89809,46.02334M206.71109,164.14007c-3.18721,2.20258 -8.9232,0.73457 -8.9232,-3.1839c0,-3.9162 1.48803,-8.76484 7.22303,-6.11992c3.99437,1.84098 4.88738,7.09897 1.70017,9.30382M330.31073,227.48839c4.92784,-7.2593 21.1323,3.46818 39.54707,-16.33684c12.92547,-13.90343 25.51742,1.47484 10.46451,10.51599c-8.76236,5.26254 -14.6217,12.90732 -7.85257,12.37174c6.76715,-0.53216 13.4593,-5.33986 16.163,1.80118c2.39682,6.32801 -8.1565,14.42649 -22.39731,12.66284c-7.54077,-0.93356 -12.36993,5.54113 -5.57515,7.78692c11.0953,3.66352 -17.45661,9.90794 -26.74791,6.3644c-15.47425,-5.90159 -17.53262,-17.9504 -3.92037,-17.78665c13.61324,0.16261 29.08651,-1.31563 21.57831,-4.23004c-7.50919,-2.91214 -27.84123,-3.4534 -21.25959,-13.14953M222.22185,166.77702c12.57222,12.26258 26.1677,9.62221 25.97923,17.98337c-0.24373,10.78775 -12.83272,4.57914 -14.16286,8.98543c-1.68438,5.58548 24.62441,11.75657 17.59577,21.07063c-7.2625,9.62562 -27.77807,-5.19659 -30.47289,0.38662c-3.67072,7.60726 25.82825,5.45016 23.02883,17.22606c-3.5977,15.13947 -56.39784,-13.19046 -64.66091,-21.36969c-8.26307,-8.18036 -5.6314,-20.64534 9.28732,-10.07023c14.91871,10.57511 18.58351,-0.1592 8.53245,-6.01531c-13.61719,-7.93588 -26.08974,-20.63966 -23.60313,-26.31951c5.17551,-11.81229 36.45163,24.19313 46.71287,17.26131c3.39739,-2.29355 -2.28827,-4.52001 -4.49959,-6.84539c-9.5567,-10.04295 1.06766,-17.36138 6.26291,-12.29328M197.94577,98.6392c-3.60164,-13.6055 55.50089,16.16741 66.98077,26.55944c11.48086,10.39317 7.06021,22.55341 -1.25022,17.83669c-8.31142,-4.71445 -12.56136,2.17756 -3.52862,10.19986c13.49878,11.98968 4.24896,19.73566 -7.47564,14.2548c-19.45876,-9.09687 -56.22615,-40.21726 -53.84512,-46.37811c2.38301,-6.16085 35.67703,17.09189 35.09386,6.60661c-0.58219,-10.48414 -32.79078,-17.05663 -35.97503,-29.07928M278.49044,160.71509c-3.11222,-4.15159 -3.02143,-7.14218 -0.09276,-9.49031c3.77038,-3.02016 6.93194,-0.28769 8.64001,2.6506c1.70708,2.93601 6.17904,8.03595 4.2006,10.00542c-1.97745,1.9672 -8.71303,2.21735 -12.74885,-3.16572M278.57628,183.5687c7.62661,2.10024 15.96961,9.09005 18.2944,16.35162c4.36737,13.62939 11.20162,19.57988 18.81047,22.05309c11.69104,3.80477 -1.34199,17.4876 -17.68853,8.07006c-3.60165,-2.07636 -10.41813,-7.69027 -11.85583,-11.78045c-2.38004,-6.77717 -6.44054,-3.41815 -3.67467,1.88305c7.89402,15.13151 -10.60759,11.29604 -12.08377,-10.37725c-0.7894,-11.58372 -10.84441,-11.56894 -15.04502,-17.48646c-3.8878,-5.47859 5.88105,-13.49748 23.24296,-8.7148zM192.32424,235.17411c30.86562,17.7787 52.98862,16.01504 59.55052,24.44443c7.02568,9.02864 -11.25589,10.83209 -42.12052,0c-17.26521,-6.05851 -12.85443,1.11436 -6.41389,4.42335c4.47788,2.30151 -23.69311,2.84986 -28.98544,0.413c-4.9985,-2.30156 -8.73838,-4.66895 -10.59419,-6.09172c-15.36867,-11.77931 -8.89656,-18.1744 5.98663,-9.84849c5.47647,3.06451 12.29297,-0.93243 6.60138,-3.93213c-12.70838,-6.69529 -25.76609,-27.33609 -12.52781,-24.06349c10.15171,2.51074 18.96933,9.16282 28.50333,14.65506M300.48515,119.28454c10.80297,16.07531 -6.24122,25.63839 -15.15751,10.31016c-10.49016,-18.03795 -27.709,-25.54174 -26.60778,-31.35463c1.49986,-7.91541 32.20563,6.82265 41.76529,21.04447M366.40713,171.54833c3.85524,10.28401 -12.51597,9.39593 -20.37052,12.34672c-7.81113,2.93601 9.57348,5.51043 9.37909,15.00643c-0.17367,8.38845 -11.69697,11.90098 -26.51405,10.52281c-14.5467,-1.35316 -19.74985,-8.01776 -17.55433,-13.81815c2.64351,-6.97843 17.18232,0.80962 17.48526,-2.42773c0.54765,-5.82768 -19.48245,-7.77555 -28.17574,-14.57091c-10.40037,-8.13032 -1.17128,-16.02413 7.44209,-11.34152c15.05883,8.18718 26.66206,2.73702 17.53755,-1.35316c-9.1245,-4.09018 -14.95916,-5.76287 -16.86656,-12.1193c-1.90838,-6.3553 6.13266,-14.63686 12.69358,-7.85742c18.23519,18.8453 42.75599,19.77659 44.94362,25.6111zM122.15626,240.51624c-12.20613,1.37249 27.09425,15.09853 25.30823,22.99006c-1.78602,7.89153 -34.48897,-4.45065 -43.87102,-13.38263c-14.78254,-14.06831 -6.94082,-19.99947 0,-20.69083c9.79648,-0.97564 -0.44009,-11.14821 -11.09504,-19.33881c-4.67918,-3.59668 3.17439,-13.10403 4.54893,-12.74698c2.89815,0.75001 5.74989,1.72096 8.53639,2.90644c11.22727,4.79973 40.49041,22.6478 43.64901,41.7933c1.4752,8.95245 -14.86839,-2.90304 -27.0765,-1.53055M258.50572,222.27816c8.15255,-5.7947 8.72289,21.9553 33.13515,24.49332c19.81399,2.05703 16.65145,12.74585 11.31509,14.16837c-5.33636,1.42253 -26.44841,12.25141 -36.73502,-2.32232c-1.51946,-2.15273 -2.93975,-4.67977 -4.19054,-7.62283c-3.60165,-8.47601 -9.13042,-24.73439 -3.52468,-28.71654M116.29001,147.51099c10.20302,2.01951 47.81409,23.89634 41.68043,35.14235c-6.13168,11.246 -19.94226,-8.29976 -22.76734,-3.58644c-6.5027,10.85029 29.60751,15.78307 30.94752,26.06253c1.34099,10.28173 -29.32333,3.69561 -43.35889,-8.4942c-14.03656,-12.19094 -22.94299,-25.28589 -10.99144,-26.28768c11.94957,-1.00065 -4.41177,-11.22667 -8.61435,-14.43332c-6.77603,-5.16816 -3.17142,-11.62694 13.10407,-8.40323" fill-opacity="0.102" fill="#ffffff" fill-rule="evenodd" stroke="none" stroke-width="1" stroke-linecap="butt" stroke-linejoin="miter"/><path d="M172.43818,256.8104c-2.23467,0 -3.352,-0.25 -3.352,-0.75l-0.786,-15.09l-4.594,15.274c-0.098,0.304 -0.95066,0.456 -2.558,0.456c-1.60734,0 -2.43566,-0.14 -2.485,-0.42l-4.74,-15.464l-0.53,15.016c-0.02466,0.378 -0.50233,0.63533 -1.433,0.772c-0.926,0.13734 -1.698,0.206 -2.316,0.206c-0.612,0 -1.20467,-0.03667 -1.778,-0.11c-1.20533,-0.17667 -1.796,-0.49034 -1.772,-0.941l0.867,-24.462c0,-0.60267 1.529,-0.904 4.587,-0.904c0.90667,0 2.01166,0.06866 3.315,0.206c1.304,0.13666 2.03167,0.406 2.183,0.808l4.212,11.856l3.69,-11.893c0.22466,-0.65133 1.95666,-0.977 5.196,-0.977c0.92667,0 2.03433,0.06866 3.323,0.206c1.29334,0.13734 1.94,0.38234 1.94,0.735c0,0 2.455,16.396 2.647,20.71c0.09,2.03 -1.552,3.98 -1.552,3.98c0,0.274 -0.49,0.47467 -1.47,0.602c-0.97534,0.12267 -1.84,0.184 -2.594,0.184zM178.72118,238.1474c0,-0.27934 1.14666,-0.419 3.44,-0.419c2.298,0 3.48633,0.125 3.565,0.375l2.705,8.887l2.595,-8.96c0.10267,-0.20134 0.88166,-0.302 2.337,-0.302c3.33733,0 4.93,0.16434 4.778,0.493l-8.843,25.175c-0.024,0.152 -0.70734,0.228 -2.05,0.228c-1.34267,0 -2.59267,-0.04434 -3.75,-0.133c-1.15067,-0.088 -1.70166,-0.19567 -1.653,-0.323l3.278,-7.902zM225.99118,237.2434c0,2.60734 -1.12933,4.58966 -3.388,5.947c1.23,0.45 2.259,1.22666 3.087,2.33c0.828,1.10267 1.242,2.666 1.242,4.69c0,2.018 -0.74733,3.618 -2.242,4.8c-1.49,1.17533 -3.629,1.763 -6.417,1.763h-8.879c-0.39821,0.01279 -0.78301,-0.14469 -1.058,-0.433c-0.27466,-0.29 -0.412,-0.67234 -0.412,-1.147v-24.087c0,-0.27466 0.044,-0.456 0.132,-0.544c0.088,-0.088 0.26933,-0.132 0.544,-0.132h8.585c5.87,0 8.80534,2.271 8.806,6.813zM215.14918,236.5234v4.932h0.191c2.40667,0 3.61,-0.80334 3.61,-2.41c0,-0.87733 -0.233,-1.51733 -0.699,-1.92c-0.46,-0.40133 -1.22933,-0.602 -2.308,-0.602zM215.14918,245.8954v4.895h0.684c1.078,0 1.867,-0.201 2.367,-0.603c0.5,-0.40133 0.75,-1.04067 0.75,-1.918c0,-0.87733 -0.233,-1.49233 -0.699,-1.845c-0.46,-0.35333 -1.22933,-0.53 -2.308,-0.53zM232.68918,256.8104c-2.00867,-0.02466 -3.013,-0.125 -3.013,-0.301v-25.631c0,-0.37267 1.21767,-0.559 3.653,-0.559c2.13134,0.074 3.197,0.199 3.197,0.375v25.778c0,0.22534 -1.279,0.338 -3.837,0.338zM241.55118,254.5534c-1.568,-1.73 -2.352,-4.126 -2.352,-7.188c0,-3.06267 0.784,-5.459 2.352,-7.189c1.568,-1.73 3.68234,-2.595 6.343,-2.595c2.66066,0 4.768,0.865 6.322,2.595c1.554,1.73 2.33067,4.12633 2.33,7.189c-0.00067,3.06267 -0.77733,5.45867 -2.33,7.188c-1.55266,1.72933 -3.66,2.59434 -6.322,2.595c-2.66,0 -4.77434,-0.865 -6.343,-2.595zM248.15918,239.8664c-1.416,0 -2.374,5.154 -2.374,7.462c0,2.308 0.708,3.462 2.124,3.462c1.42133,0 2.132,-1.154 2.132,-3.462c0,-2.308 -0.71067,-3.462 -2.132,-3.462zM265.39218,247.4384c0,2.46 0.92867,3.69 2.786,3.69c1.20533,0 2.21,-0.23766 3.014,-0.713c0.372,0 0.67834,0.64666 0.919,1.94c0.24,1.29 0.36,2.16734 0.36,2.632c0,0.466 -0.06366,0.77233 -0.191,0.919c-1.328,0.828 -3.146,1.242 -5.454,1.242c-2.308,0 -4.273,-0.85766 -5.895,-2.573c-1.61734,-1.72 -2.426,-4.067 -2.426,-7.041c0,-2.97534 0.79633,-5.37634 2.389,-7.203c1.59334,-1.83334 3.71267,-2.75 6.358,-2.75c2.65067,0 4.49067,0.63967 5.52,1.919c0.226,0.274 0.33866,0.68067 0.338,1.22c0,0.54 -0.10033,1.199 -0.301,1.977c-0.45067,1.60734 -1.04134,2.536 -1.772,2.786c-0.14256,0.02803 -0.28775,0.04043 -0.433,0.037c-0.18667,0 -0.41934,-0.14933 -0.698,-0.448c-0.976,-0.98 -1.76033,-1.47 -2.353,-1.47c-0.588,-0.00066 -1.095,0.30067 -1.521,0.904c-0.42667,0.60267 -0.64,1.58 -0.64,2.932zM275.17518,230.7314c0,-0.402 1.14166,-0.603 3.425,-0.603c2.13666,0.07333 3.205,0.23766 3.205,0.493v14.45l3.719,-6.887c0.176,-0.37733 1.24167,-0.566 3.197,-0.566c1.96,0 3.217,0.125 3.771,0.375l-4.895,7.983l5.645,10.57c0.04867,0.102 -0.42167,0.18266 -1.411,0.242c-0.99,0.06333 -1.811,0.095 -2.463,0.095c-2.41,0 -3.70333,-0.11266 -3.88,-0.338l-3.727,-8.35v8.314c0,0.328 -1.09767,0.492 -3.293,0.492c-2.19533,0 -3.293,-0.152 -3.293,-0.456zM295.19918,249.9964c2.034,1.23 3.639,1.845 4.815,1.845c0.75466,0 1.132,-0.262 1.132,-0.786c0,-0.378 -0.65166,-0.868 -1.955,-1.47c-3.13666,-1.28 -4.705,-3.375 -4.705,-6.285c0,-1.85734 0.67666,-3.27334 2.03,-4.248c1.356,-0.98 2.98,-1.47 4.872,-1.47c1.89733,0 3.50234,0.20067 4.815,0.602c1.318,0.402 1.977,0.92866 1.977,1.58c0,0.54934 -0.26934,1.27733 -0.808,2.184c-0.54,0.90133 -0.91,1.38867 -1.11,1.462c-1.06989,-0.59547 -2.27559,-0.90413 -3.5,-0.896c-0.67534,0 -1.013,0.23767 -1.013,0.713c0,0.29866 0.13,0.55566 0.39,0.771c0.264,0.21067 0.74633,0.473 1.447,0.787c0.5951,0.25918 1.17895,0.54344 1.75,0.852c0.46533,0.24934 0.987,0.6 1.565,1.052c1.206,0.95 1.80867,2.192 1.808,3.726c0,2.00466 -0.66633,3.629 -1.999,4.873c-1.328,1.24 -3.33466,1.86 -6.02,1.86c-1.77866,0 -3.39567,-0.30133 -4.851,-0.904c-1.45533,-0.60267 -2.183,-1.43067 -2.183,-2.484c0,-0.70134 0.169,-1.439 0.507,-2.213c0.33866,-0.77934 0.684,-1.296 1.036,-1.55zM320.90918,254.3444c-0.73402,0.00027 -1.43808,-0.29114 -1.95721,-0.81008c-0.51913,-0.51894 -0.81079,-1.22289 -0.81079,-1.95692v-4.41h-4.41c-0.73402,0 -1.43798,-0.29166 -1.95692,-0.81079c-0.51894,-0.51913 -0.81035,-1.22319 -0.81008,-1.95721v-0.691c-0.00027,-0.73403 0.29114,-1.43808 0.81008,-1.95721c0.51894,-0.51913 1.22289,-0.81079 1.95692,-0.81079h4.41v-4.41c0,-1.52817 1.23883,-2.767 2.767,-2.767h0.692c1.52817,0 2.767,1.23883 2.767,2.767v4.41h4.41c0.7342,-0.00027 1.4384,0.29127 1.95756,0.81043c0.51916,0.51916 0.8107,1.22337 0.81043,1.95757v0.691c0.00027,0.7342 -0.29127,1.4384 -0.81043,1.95756c-0.51916,0.51916 -1.22337,0.8107 -1.95756,0.81044h-4.41v4.41c0,1.52817 -1.23883,2.767 -2.767,2.767z" fill="none" fill-rule="nonzero" stroke-opacity="0.502" stroke="#000000" stroke-width="7" stroke-linecap="square" stroke-linejoin="round"/><path d="M172.43818,256.8104c-2.23467,0 -3.352,-0.25 -3.352,-0.75l-0.786,-15.09l-4.594,15.274c-0.098,0.304 -0.95066,0.456 -2.558,0.456c-1.60734,0 -2.43566,-0.14 -2.485,-0.42l-4.74,-15.464l-0.53,15.016c-0.02466,0.378 -0.50233,0.63533 -1.433,0.772c-0.926,0.13734 -1.698,0.206 -2.316,0.206c-0.612,0 -1.20467,-0.03667 -1.778,-0.11c-1.20533,-0.17667 -1.796,-0.49034 -1.772,-0.941l0.867,-24.462c0,-0.60267 1.529,-0.904 4.587,-0.904c0.90667,0 2.01166,0.06866 3.315,0.206c1.304,0.13666 2.03167,0.406 2.183,0.808l4.212,11.856l3.69,-11.893c0.22466,-0.65133 1.95666,-0.977 5.196,-0.977c0.92667,0 2.03433,0.06866 3.323,0.206c1.29334,0.13734 1.94,0.38234 1.94,0.735l1.095,24.69c0,0.274 -0.49,0.47467 -1.47,0.602c-0.97534,0.12267 -1.84,0.184 -2.594,0.184M178.72118,238.1474c0,-0.27934 1.14666,-0.419 3.44,-0.419c2.298,0 3.48633,0.125 3.565,0.375l2.705,8.887l2.595,-8.96c0.10267,-0.20134 0.88166,-0.302 2.337,-0.302c3.33733,0 4.93,0.16434 4.778,0.493l-8.843,25.175c-0.024,0.152 -0.70734,0.228 -2.05,0.228c-1.34267,0 -2.59267,-0.04434 -3.75,-0.133c-1.15067,-0.088 -1.70166,-0.19567 -1.653,-0.323l3.278,-7.902zM225.99118,237.2434c0,2.60734 -1.12933,4.58966 -3.388,5.947c1.23,0.45 2.259,1.22666 3.087,2.33c0.828,1.10267 1.242,2.666 1.242,4.69c0,2.018 -0.74733,3.618 -2.242,4.8c-1.49,1.17533 -3.629,1.763 -6.417,1.763h-8.879c-0.39821,0.01279 -0.78301,-0.14469 -1.058,-0.433c-0.27466,-0.29 -0.412,-0.67234 -0.412,-1.147v-24.087c0,-0.27466 0.044,-0.456 0.132,-0.544c0.088,-0.088 0.26933,-0.132 0.544,-0.132h8.585c5.87,0 8.80534,2.271 8.806,6.813M215.14918,236.5234v4.932h0.191c2.40667,0 3.61,-0.80334 3.61,-2.41c0,-0.87733 -0.233,-1.51733 -0.699,-1.92c-0.46,-0.40133 -1.22933,-0.602 -2.308,-0.602zM215.14918,245.8954v4.895h0.684c1.078,0 1.867,-0.201 2.367,-0.603c0.5,-0.40133 0.75,-1.04067 0.75,-1.918c0,-0.87733 -0.233,-1.49233 -0.699,-1.845c-0.46,-0.35333 -1.22933,-0.53 -2.308,-0.53zM232.68918,256.8104c-2.00867,-0.02466 -3.013,-0.125 -3.013,-0.301v-25.631c0,-0.37267 1.21767,-0.559 3.653,-0.559c2.13134,0.074 3.197,0.199 3.197,0.375v25.778c0,0.22534 -1.279,0.338 -3.837,0.338M241.55118,254.5534c-1.568,-1.73 -2.352,-4.126 -2.352,-7.188c0,-3.06267 0.784,-5.459 2.352,-7.189c1.568,-1.73 3.68234,-2.595 6.343,-2.595c2.66066,0 4.768,0.865 6.322,2.595c1.554,1.73 2.33067,4.12633 2.33,7.189c-0.00067,3.06267 -0.77733,5.45867 -2.33,7.188c-1.55266,1.72933 -3.66,2.59434 -6.322,2.595c-2.66,0 -4.77434,-0.865 -6.343,-2.595M247.90918,243.8664c-1.416,0 -2.124,1.154 -2.124,3.462c0,2.308 0.708,3.462 2.124,3.462c1.42133,0 2.132,-1.154 2.132,-3.462c0,-2.308 -0.71067,-3.462 -2.132,-3.462M265.39218,247.4384c0,2.46 0.92867,3.69 2.786,3.69c1.20533,0 2.21,-0.23766 3.014,-0.713c0.372,0 0.67834,0.64666 0.919,1.94c0.24,1.29 0.36,2.16734 0.36,2.632c0,0.466 -0.06366,0.77233 -0.191,0.919c-1.328,0.828 -3.146,1.242 -5.454,1.242c-2.308,0 -4.273,-0.85766 -5.895,-2.573c-1.61734,-1.72 -2.426,-4.067 -2.426,-7.041c0,-2.97534 0.79633,-5.37634 2.389,-7.203c1.59334,-1.83334 3.71267,-2.75 6.358,-2.75c2.65067,0 4.49067,0.63967 5.52,1.919c0.226,0.274 0.33866,0.68067 0.338,1.22c0,0.54 -0.10033,1.199 -0.301,1.977c-0.45067,1.60734 -1.04134,2.536 -1.772,2.786c-0.14256,0.02803 -0.28775,0.04043 -0.433,0.037c-0.18667,0 -0.41934,-0.14933 -0.698,-0.448c-0.976,-0.98 -1.76033,-1.47 -2.353,-1.47c-0.588,-0.00066 -1.095,0.30067 -1.521,0.904c-0.42667,0.60267 -0.64,1.58 -0.64,2.932M275.17518,230.7314c0,-0.402 1.14166,-0.603 3.425,-0.603c2.13666,0.07333 3.205,0.23766 3.205,0.493v14.45l3.719,-6.887c0.176,-0.37733 1.24167,-0.566 3.197,-0.566c1.96,0 3.217,0.125 3.771,0.375l-4.895,7.983l5.645,10.57c0.04867,0.102 -0.42167,0.18266 -1.411,0.242c-0.99,0.06333 -1.811,0.095 -2.463,0.095c-2.41,0 -3.70333,-0.11266 -3.88,-0.338l-3.727,-8.35v8.314c0,0.328 -1.09767,0.492 -3.293,0.492c-2.19533,0 -3.293,-0.152 -3.293,-0.456zM295.19918,249.9964c2.034,1.23 3.639,1.845 4.815,1.845c0.75466,0 1.132,-0.262 1.132,-0.786c0,-0.378 -0.65166,-0.868 -1.955,-1.47c-3.13666,-1.28 -4.705,-3.375 -4.705,-6.285c0,-1.85734 0.67666,-3.27334 2.03,-4.248c1.356,-0.98 2.98,-1.47 4.872,-1.47c1.89733,0 3.50234,0.20067 4.815,0.602c1.318,0.402 1.977,0.92866 1.977,1.58c0,0.54934 -0.26934,1.27733 -0.808,2.184c-0.54,0.90133 -0.91,1.38867 -1.11,1.462c-1.06989,-0.59547 -2.27559,-0.90413 -3.5,-0.896c-0.67534,0 -1.013,0.23767 -1.013,0.713c0,0.29866 0.13,0.55566 0.39,0.771c0.264,0.21067 0.74633,0.473 1.447,0.787c0.5951,0.25918 1.17895,0.54344 1.75,0.852c0.46533,0.24934 0.987,0.6 1.565,1.052c1.206,0.95 1.80867,2.192 1.808,3.726c0,2.00466 -0.66633,3.629 -1.999,4.873c-1.328,1.24 -3.33466,1.86 -6.02,1.86c-1.77866,0 -3.39567,-0.30133 -4.851,-0.904c-1.45533,-0.60267 -2.183,-1.43067 -2.183,-2.484c0,-0.70134 0.169,-1.439 0.507,-2.213c0.33866,-0.77934 0.684,-1.296 1.036,-1.55M320.90918,254.3454c-0.73402,0.00027 -1.43808,-0.29114 -1.95721,-0.81008c-0.51913,-0.51894 -0.81079,-1.22289 -0.81079,-1.95692v-4.41h-4.41c-0.73402,0 -1.43798,-0.29166 -1.95692,-0.81079c-0.51894,-0.51913 -0.81035,-1.22319 -0.81008,-1.95721v-0.691c-0.00027,-0.73403 0.29114,-1.43808 0.81008,-1.95721c0.51894,-0.51913 1.22289,-0.81079 1.95692,-0.81079h4.41v-4.41c0,-1.52817 1.23883,-2.767 2.767,-2.767h0.692c1.52817,0 2.767,1.23883 2.767,2.767v4.41h4.41c0.7342,-0.00027 1.4384,0.29127 1.95756,0.81043c0.51916,0.51916 0.8107,1.22337 0.81043,1.95757v0.691c0.00027,0.7342 -0.29127,1.43841 -0.81043,1.95757c-0.51916,0.51916 -1.22337,0.8107 -1.95756,0.81043h-4.41v4.41c0,1.52817 -1.23883,2.767 -2.767,2.767z" fill="#ffffff" fill-rule="nonzero" stroke="none" stroke-width="1" stroke-linecap="butt" stroke-linejoin="miter"/><path d="M363.88896,198.30424c-0.03265,0.3717 -0.21306,0.71476 -0.50079,0.95234l-2.46791,2.04879c-0.60071,0.49377 -1.48711,0.41125 -1.98633,-0.18494l-2.04158,-2.46671c-0.24033,-0.28642 -0.35658,-0.65681 -0.32305,-1.0292c0.03603,-0.37229 0.21617,-0.71695 0.50199,-0.95834c0.18014,-0.12249 0.45275,-0.37109 3.29055,-0.10689c2.8402,0.26421 3.08038,0.55243 3.21128,0.71096c0.23778,0.28823 0.35188,0.66051 0.31585,1.034" fill="#231f20" fill-rule="nonzero" stroke="none" stroke-width="1" stroke-linecap="butt" stroke-linejoin="miter" opacity="0.1"/><g fill-rule="nonzero" stroke-linecap="butt" stroke-linejoin="miter"><path d="M232.83387,183.35386c0.05601,-0.60605 0.35058,-1.16499 0.81886,-1.55375c0.46828,-0.38877 1.07187,-0.5755 1.67787,-0.51905l4.56954,0.42513c1.14088,0.10568 1.65969,0.73016 2.17729,1.35465l2.0728,2.49673c0.5176,0.62448 1.0364,1.24897 2.17848,1.35465l6.85371,0.63649c1.14088,0.10568 1.76537,-0.41192 2.38985,-0.92952l2.49793,-2.07281c0.62448,-0.5176 1.24777,-1.03641 2.38985,-0.92952l112.51274,10.4553c0.60628,0.056 1.16541,0.35074 1.55421,0.81929c0.3888,0.46855 0.57538,1.07245 0.5186,1.67865l-2.12324,22.84409c-0.056,0.60628 -0.35074,1.16541 -0.81928,1.55421c-0.46855,0.3888 -1.07245,0.57538 -1.67865,0.5186l-112.51153,-10.45649c-1.14209,-0.10568 -1.76657,0.41192 -2.39105,0.93072l-2.49674,2.0716c-0.62448,0.5188 -1.24896,1.03641 -2.38985,0.92952l-6.85491,-0.6365c-1.14088,-0.10568 -1.65969,-0.73016 -2.17729,-1.35465l-2.07281,-2.49673c-0.5176,-0.62448 -1.0364,-1.24897 -2.17848,-1.35465l-4.56834,-0.42393c-0.60628,-0.056 -1.1654,-0.35074 -1.5542,-0.81929c-0.3888,-0.46855 -0.57538,-1.07245 -0.5186,-1.67865z" fill="none" stroke-opacity="0.50196" stroke="#ffffff" stroke-width="5"/><path d="M232.83387,183.35386c0.05601,-0.60605 0.35058,-1.16499 0.81886,-1.55375c0.46828,-0.38877 1.07187,-0.5755 1.67787,-0.51905l4.56954,0.42513c1.14088,0.10568 1.65969,0.73016 2.17729,1.35465l2.0728,2.49673c0.5176,0.62448 1.0364,1.24897 2.17848,1.35465l6.85371,0.63649c1.14088,0.10568 1.76537,-0.41192 2.38985,-0.92952l2.49793,-2.07281c0.62448,-0.5176 1.24777,-1.03641 2.38985,-0.92952l112.51274,10.4553c0.60628,0.056 1.16541,0.35074 1.55421,0.81929c0.3888,0.46855 0.57538,1.07245 0.5186,1.67865l-2.12324,22.84409c-0.056,0.60628 -0.35074,1.16541 -0.81928,1.55421c-0.46855,0.3888 -1.07245,0.57538 -1.67865,0.5186l-112.51153,-10.45649c-1.14209,-0.10568 -1.76657,0.41192 -2.39105,0.93072l-2.49674,2.0716c-0.62448,0.5188 -1.24896,1.03641 -2.38985,0.92952l-6.85491,-0.6365c-1.14088,-0.10568 -1.65969,-0.73016 -2.17729,-1.35465l-2.07281,-2.49673c-0.5176,-0.62448 -1.0364,-1.24897 -2.17848,-1.35465l-4.56834,-0.42393c-0.60628,-0.056 -1.1654,-0.35074 -1.5542,-0.81929c-0.3888,-0.46855 -0.57538,-1.07245 -0.5186,-1.67865z" fill="url(#color-2)" stroke="url(#color-3)" stroke-width="0.5"/><text transform="translate(235.99936,198.73183) rotate(5.30928) scale(0.57359,0.57359)" font-size="16" xml:space="preserve" fill="#ffffff" stroke="none" stroke-width="1" font-family="&quot;Helvetica Neue&quot;, Helvetica, sans-serif" font-weight="500" text-anchor="start"><tspan x="0" dy="0">block</tspan></text><text transform="translate(262.27027,201.1732) rotate(5.30928) scale(0.57359,0.57359)" font-size="16" xml:space="preserve" fill="#ffffff" stroke="none" stroke-width="1" font-family="&quot;Helvetica Neue&quot;, Helvetica, sans-serif" font-weight="500" text-anchor="start"><tspan x="0" dy="0">name</tspan></text><path d="M298.88742,210.23068c-5.04704,-0.46893 -8.75833,-4.94049 -8.28942,-9.98753c0.46893,-5.04704 4.94049,-8.75835 9.98753,-8.28942l4.56954,0.42513c3.28369,0.27972 6.16528,2.29862 7.5496,5.28934c1.38432,2.99072 1.05879,6.49409 -0.85285,9.17857c-1.91164,2.68447 -5.11587,4.1379 -8.39487,3.80785z" fill="#00ff00" stroke="#ffffff" stroke-width="0.5"/><path d="M326.30225,212.77785c-3.28368,-0.27972 -6.16528,-2.29862 -7.54959,-5.28934c-1.38432,-2.99072 -1.05881,-6.4941 0.85283,-9.17857c1.91164,-2.68447 5.11586,-4.13789 8.39487,-3.80784l33.12526,3.07799c3.28369,0.27972 6.16528,2.29861 7.5496,5.28934c1.38432,2.99072 1.0588,6.49409 -0.85284,9.17856c-1.91164,2.68447 -5.11587,4.1379 -8.39488,3.80785z" fill="#0069cc" stroke="#004f99" stroke-width="0.5"/><text transform="translate(323.94968,206.90519) rotate(5.30928) scale(0.57359,0.57359)" font-size="16" xml:space="preserve" fill="#ffffff" stroke="none" stroke-width="1" font-family="&quot;Helvetica Neue&quot;, Helvetica, sans-serif" font-weight="500" text-anchor="start"><tspan x="0" dy="0">myself</tspan></text><path d="M359.04561,209.15104c-0.21558,-0.02301 -0.41393,-0.12843 -0.55363,-0.29423l-2.0596,-2.46911c-0.28025,-0.35029 -0.23245,-0.85966 0.10809,-1.15169c0.35188,-0.29182 5.38977,0.17654 5.6828,0.52841c0.28133,0.35017 0.23404,0.86041 -0.10688,1.15289l-2.46792,2.04639c-0.16881,0.13883 -0.38504,0.20647 -0.60287,0.18855" fill="#ffffff" stroke="none" stroke-width="1"/></g><g fill-rule="nonzero" stroke-linecap="butt" stroke-linejoin="miter"><path d="M104.4846,122.80595c-0.38859,-5.72468 3.93648,-10.68075 9.66107,-11.07061l135.80337,-9.23155c2.74952,-0.18755 5.46088,0.72524 7.5372,2.53742c2.07632,1.81218 3.3474,4.37517 3.53341,7.1248l2.11377,31.09926c0.07616,1.14452 -0.78771,2.13508 -1.93196,2.21526l-129.58307,8.80834c-1.03653,0.06995 -1.51982,0.6232 -2.00196,1.17642l-1.93312,2.21529c-0.48331,0.55209 -0.96541,1.10648 -2.00308,1.1776l-6.21918,0.42204c-1.03651,0.07111 -1.59091,-0.41217 -2.14417,-0.89545l-2.21412,-1.93197c-0.55324,-0.48328 -1.10764,-0.96657 -2.14418,-0.89661l-4.14611,0.28214c-1.14476,0.07746 -2.13579,-0.78728 -2.21411,-1.93198z" fill="none" stroke-opacity="0.50196" stroke="#ffffff" stroke-width="5"/><path d="M106.87935,158.05246c-0.07746,-1.14518 0.78796,-2.1364 1.93314,-2.21413l4.14611,-0.28214c1.03654,-0.06995 1.59091,0.41217 2.14418,0.89661l2.21412,1.93197c0.55324,0.48328 1.10765,0.96657 2.14417,0.89545l6.21917,-0.42204c1.03767,-0.07114 1.51981,-0.62435 2.00425,-1.17762l1.93196,-2.21527c0.48215,-0.55206 0.96542,-1.10647 2.00193,-1.17758l90.70817,-6.16468c0.54983,-0.0375 1.09203,0.14498 1.50729,0.50732c0.41524,0.36234 0.66951,0.87483 0.70684,1.42467l1.40955,20.73281c0.0375,0.54983 -0.14499,1.09204 -0.50733,1.50729c-0.36234,0.41524 -0.87482,0.66951 -1.42466,0.70683l-90.70814,6.16584c-1.03651,0.07111 -1.5198,0.62434 -2.00308,1.1776l-1.93198,2.21412c-0.48327,0.55441 -0.96656,1.10765 -2.00309,1.1776l-6.2203,0.42322c-1.03654,0.06995 -1.58975,-0.41218 -2.14417,-0.89545l-2.21415,-1.93314c-0.55208,-0.48215 -1.10646,-0.96542 -2.14415,-0.89545l-4.1461,0.28214c-1.14476,0.07746 -2.13579,-0.78729 -2.21411,-1.93199z" fill="none" stroke-opacity="0.50196" stroke="#ffffff" stroke-width="5"/><path d="M104.4846,122.80595c-0.38859,-5.72468 3.93648,-10.68075 9.66107,-11.07061l135.80337,-9.23155c2.74952,-0.18755 5.46088,0.72524 7.5372,2.53742c2.07632,1.81218 3.3474,4.37517 3.53341,7.1248l2.11377,31.09926c0.07616,1.14452 -0.78771,2.13508 -1.93196,2.21526l-129.58307,8.80834c-1.03653,0.06995 -1.51982,0.6232 -2.00196,1.17642l-1.93312,2.21529c-0.48331,0.55209 -0.96541,1.10648 -2.00308,1.1776l-6.21918,0.42204c-1.03651,0.07111 -1.59091,-0.41217 -2.14417,-0.89545l-2.21412,-1.93197c-0.55324,-0.48328 -1.10764,-0.96657 -2.14418,-0.89661l-4.14611,0.28214c-1.14476,0.07746 -2.13579,-0.78728 -2.21411,-1.93198z" fill="url(#color-4)" stroke="url(#color-5)" stroke-width="0.5"/><text transform="translate(109.67806,137.67953) rotate(-3.88945) scale(0.51952,0.51952)" font-size="16" xml:space="preserve" fill="#ffffff" stroke="none" stroke-width="1" font-family="&quot;Helvetica Neue&quot;, Helvetica, sans-serif" font-weight="500" text-anchor="start"><tspan x="0" dy="0">define</tspan></text><path d="M136.76144,122.69528c-0.07746,-1.14476 0.78728,-2.13579 1.93198,-2.21412l4.14725,-0.28215c1.03653,-0.06995 1.58975,0.41217 2.14415,0.89544l2.21414,1.93314c0.55206,0.48215 1.10648,0.96542 2.14417,0.89545l6.21915,-0.4232c1.03653,-0.06995 1.51981,-0.62436 2.00309,-1.17761l1.93198,-2.21411c0.48328,-0.55324 0.96658,-1.10649 2.00308,-1.17761l93.29888,-6.34244c1.14496,-0.07615 2.13571,0.78839 2.21529,1.93312l1.4084,20.73284c0.0375,0.54983 -0.14499,1.09204 -0.50732,1.50729c-0.36233,0.41524 -0.87482,0.6695 -1.42467,0.70683l-93.29887,6.34244c-1.03769,0.06998 -1.51981,0.62436 -2.00426,1.17763l-1.93197,2.21412c-0.48328,0.55324 -0.96541,1.10762 -2.00195,1.17757l-6.2203,0.42323c-1.03653,0.06995 -1.59091,-0.41216 -2.14417,-0.8966l-2.21413,-1.93198c-0.55324,-0.48328 -1.10765,-0.96655 -2.14416,-0.89545l-4.14609,0.28213c-1.14518,0.07745 -2.13641,-0.78795 -2.21414,-1.93313z" fill="url(#color-6)" stroke="url(#color-7)" stroke-width="0.5"/><text transform="translate(141.85377,136.01311) rotate(-3.88945) scale(0.51952,0.51952)" font-size="16" xml:space="preserve" fill="#ffffff" stroke="none" stroke-width="1" font-family="&quot;Helvetica Neue&quot;, Helvetica, sans-serif" font-weight="500" text-anchor="start"><tspan x="0" dy="0">block</tspan></text><text transform="translate(165.69992,134.3921) rotate(-3.88945) scale(0.51952,0.51952)" font-size="16" xml:space="preserve" fill="#ffffff" stroke="none" stroke-width="1" font-family="&quot;Helvetica Neue&quot;, Helvetica, sans-serif" font-weight="500" text-anchor="start"><tspan x="0" dy="0">name</tspan></text><path d="M201.92486,139.09507c-2.74952,0.18754 -5.46087,-0.72524 -7.53719,-2.53742c-2.07632,-1.81218 -3.3474,-4.37517 -3.53342,-7.1248c-0.18786,-2.74971 0.72478,-5.46138 2.53698,-7.53795c1.8122,-2.07658 4.37538,-3.34781 7.12523,-3.53384l10.88526,-0.73976c2.74952,-0.18755 5.46088,0.72523 7.5372,2.53741c2.07632,1.81218 3.3474,4.37518 3.53342,7.12481c0.18786,2.74971 -0.72478,5.46138 -2.53698,7.53795c-1.8122,2.07657 -4.37538,3.34781 -7.12524,3.53384z" fill="#4389f1" stroke="#004f99" stroke-width="0.5"/><text transform="translate(197.32196,132.24258) rotate(-3.88945) scale(0.51952,0.51952)" font-size="16" xml:space="preserve" fill="#ffffff" stroke="none" stroke-width="1" font-family="&quot;Helvetica Neue&quot;, Helvetica, sans-serif" font-weight="500" text-anchor="start"><tspan x="0" dy="0">color</tspan></text><path d="M237.6902,136.66359c-2.74971,0.18786 -5.46137,-0.72478 -7.53794,-2.53698c-2.07657,-1.8122 -3.34782,-4.37538 -3.53384,-7.12522c-0.18754,-2.74952 0.72523,-5.4609 2.53742,-7.53722c1.81218,-2.07632 4.37517,-3.34739 7.1248,-3.53341l6.2203,-0.42323c2.74952,-0.18755 5.46089,0.72524 7.53721,2.53741c2.07632,1.81218 3.3474,4.37517 3.53342,7.1248c0.18754,2.74933 -0.72509,5.46052 -2.53701,7.53681c-1.81193,2.07628 -4.37464,3.34748 -7.12406,3.5338z" fill="#4389f1" stroke="#004f99" stroke-width="0.5"/><text transform="translate(233.0912,129.81106) rotate(-3.88945) scale(0.51952,0.51952)" font-size="16" xml:space="preserve" fill="#ffffff" stroke="none" stroke-width="1" font-family="&quot;Helvetica Neue&quot;, Helvetica, sans-serif" font-weight="500" text-anchor="start"><tspan x="0" dy="0">text</tspan></text><path d="M106.87935,158.05246c-0.07746,-1.14518 0.78796,-2.1364 1.93314,-2.21413l4.14611,-0.28214c1.03654,-0.06995 1.59091,0.41217 2.14418,0.89661l2.21412,1.93197c0.55324,0.48328 1.10765,0.96657 2.14417,0.89545l6.21917,-0.42204c1.03767,-0.07114 1.51981,-0.62435 2.00425,-1.17762l1.93196,-2.21527c0.48215,-0.55206 0.96542,-1.10647 2.00193,-1.17758l90.70817,-6.16468c0.54983,-0.0375 1.09203,0.14498 1.50729,0.50732c0.41524,0.36234 0.66951,0.87483 0.70684,1.42467l1.40955,20.73281c0.0375,0.54983 -0.14499,1.09204 -0.50733,1.50729c-0.36234,0.41524 -0.87482,0.66951 -1.42466,0.70683l-90.70814,6.16584c-1.03651,0.07111 -1.5198,0.62434 -2.00308,1.1776l-1.93198,2.21412c-0.48327,0.55441 -0.96656,1.10765 -2.00309,1.1776l-6.2203,0.42322c-1.03654,0.06995 -1.58975,-0.41218 -2.14417,-0.89545l-2.21415,-1.93314c-0.55208,-0.48215 -1.10646,-0.96542 -2.14415,-0.89545l-4.1461,0.28214c-1.14476,0.07746 -2.13579,-0.78729 -2.21411,-1.93199z" fill="url(#color-8)" stroke="url(#color-9)" stroke-width="0.5"/><text transform="translate(111.96858,171.37516) rotate(-3.88945) scale(0.51952,0.51952)" font-size="16" xml:space="preserve" fill="#ffffff" stroke="none" stroke-width="1" font-family="&quot;Helvetica Neue&quot;, Helvetica, sans-serif" font-weight="500" text-anchor="start"><tspan x="0" dy="0">set</tspan></text><path d="M135.11321,175.05279c-1.14476,0.07746 -2.13578,-0.78727 -2.21412,-1.93197l-0.84527,-12.43947c-0.07746,-1.14476 0.78728,-2.13578 1.93198,-2.21412l36.80185,-2.50259c1.14399,-0.0776 2.13651,0.78799 2.21413,1.93314l0.84527,12.43947c0.0375,0.54983 -0.14498,1.09204 -0.50732,1.50729c-0.36234,0.41524 -0.87482,0.66951 -1.42466,0.70683z" fill="url(#color-10)" stroke="url(#color-11)" stroke-width="0.5"/><text transform="translate(138.40668,169.578) rotate(-3.88945) scale(0.51952,0.51952)" font-size="16" xml:space="preserve" fill="#ffffff" stroke="none" stroke-width="1" font-family="&quot;Helvetica Neue&quot;, Helvetica, sans-serif" font-weight="500" text-anchor="start"><tspan x="0" dy="0">color</tspan></text><text transform="translate(177.80465,166.8998) rotate(-3.88945) scale(0.51952,0.51952)" font-size="16" xml:space="preserve" fill="#ffffff" stroke="none" stroke-width="1" font-family="&quot;Helvetica Neue&quot;, Helvetica, sans-serif" font-weight="500" text-anchor="start"><tspan x="0" dy="0">to</tspan></text><path d="M198.33715,170.58198c-4.58031,0.31133 -8.54574,-3.14935 -8.85707,-7.72965c-0.31133,-4.58031 3.14935,-8.54575 7.72965,-8.85708l15.03252,-1.02192c4.58031,-0.31133 8.54574,3.14935 8.85707,7.72966c0.31133,4.58031 -3.14935,8.54574 -7.72966,8.85707z" fill="#ffffff" stroke="#004f99" stroke-width="0.5"/><text transform="translate(195.43009,165.70179) rotate(-3.88945) scale(0.51952,0.51952)" font-size="16" xml:space="preserve" fill="#575e75" stroke="none" stroke-width="1" font-family="&quot;Helvetica Neue&quot;, Helvetica, sans-serif" font-weight="500" text-anchor="start"><tspan x="0" dy="0">value</tspan></text><path d="M168.28607,163.91756c0.02434,0.33739 -0.08792,0.67021 -0.31029,0.92393l-1.9093,2.18827c-0.46529,0.52858 -1.2695,0.58376 -1.80263,0.12368l-2.18366,-1.91053c-0.25632,-0.22152 -0.41374,-0.53608 -0.43736,-0.874c-0.02204,-0.33858 0.08904,-0.67254 0.30904,-0.9297c0.14344,-0.13553 0.35181,-0.39595 2.92868,-0.57117c2.57686,-0.17522 2.83293,0.04827 2.97272,0.17081c0.25491,0.22351 0.41076,0.54013 0.43166,0.87874" fill="#231f20" stroke="none" stroke-width="1" opacity="0.1"/><path d="M165.15674,166.93905c-0.19638,0.01138 -0.3894,-0.05464 -0.53767,-0.18392l-2.19868,-1.9091c-0.30181,-0.27206 -0.33284,-0.73469 -0.0701,-1.04463c0.27227,-0.31244 4.84474,-0.62391 5.15836,-0.35051c0.30181,0.27206 0.33284,0.73467 0.0701,1.04463l-1.9093,2.18827c-0.13053,0.14942 -0.31483,0.24117 -0.51272,0.25528" fill="#ffffff" stroke="none" stroke-width="1"/></g><g fill-rule="nonzero" stroke-linecap="butt" stroke-linejoin="miter"><path d="M282.2505,135.83593c1.29209,-0.31198 2.3216,-1.27792 2.70128,-2.53449l0.8646,-2.85872c0.41107,-1.35168 2.36775,-1.30908 2.70027,0.05641l0.7057,2.89113c0.30832,1.27165 1.28243,2.28073 2.55578,2.64749l2.89463,0.83562c1.36968,0.39542 1.31455,2.32355 -0.07368,2.66086l-2.94013,0.71264c-1.29118,0.31229 -2.3199,1.27765 -2.69964,2.53337l-0.86714,2.85684c-0.40826,1.35219 -2.36356,1.30981 -2.69887,-0.05616l-0.70404,-2.89225c-0.30932,-1.27071 -1.28347,-2.2786 -2.55629,-2.64472l-2.89629,-0.83449c-1.36943,-0.3968 -1.31429,-2.32493 0.07394,-2.66225z" fill="none" stroke-opacity="0.502" stroke="#000000" stroke-width="5"/><path d="M282.2505,135.83593c1.29209,-0.31198 2.3216,-1.27792 2.70128,-2.53449l0.8646,-2.85872c0.41107,-1.35168 2.36775,-1.30908 2.70027,0.05641l0.7057,2.89113c0.30832,1.27165 1.28243,2.28073 2.55578,2.64749l2.89463,0.83562c1.36968,0.39542 1.31455,2.32355 -0.07368,2.66086l-2.94013,0.71264c-1.29118,0.31229 -2.3199,1.27765 -2.69964,2.53337l-0.86714,2.85684c-0.40826,1.35219 -2.36356,1.30981 -2.69887,-0.05616l-0.70404,-2.89225c-0.30932,-1.27071 -1.28347,-2.2786 -2.55629,-2.64472l-2.89629,-0.83449c-1.36943,-0.3968 -1.31429,-2.32493 0.07394,-2.66225z" fill="#ffffff" stroke="none" stroke-width="1"/></g><g fill-rule="nonzero" stroke-linecap="butt" stroke-linejoin="miter"><path d="M328.71317,152.52783c0.77258,1.30365 2.19441,2.09846 3.7307,2.08546l3.49534,-0.02869c1.65342,-0.0111 2.24448,2.13822 0.81835,2.96529l-3.01898,1.75295c-1.32855,0.76877 -2.14461,2.17467 -2.14102,3.68864l0.00606,3.44227c0.00286,1.62882 -2.18225,2.22425 -3.01469,0.82434l-1.76106,-2.96549c-0.77261,-1.30256 -2.19356,-2.09668 -3.72888,-2.08403l-3.49405,0.02528c-1.65307,0.01434 -2.24395,-2.13335 -0.81818,-2.96366l3.02079,-1.75154c1.32718,-0.76952 2.14186,-2.17509 2.13774,-3.68827l-0.00787,-3.4437c-0.00121,-1.62903 2.18388,-2.22444 3.01631,-0.82453z" fill="none" stroke-opacity="0.502" stroke="#000000" stroke-width="5"/><path d="M328.71317,152.52783c0.77258,1.30365 2.19441,2.09846 3.7307,2.08546l3.49534,-0.02869c1.65342,-0.0111 2.24448,2.13822 0.81835,2.96529l-3.01898,1.75295c-1.32855,0.76877 -2.14461,2.17467 -2.14102,3.68864l0.00606,3.44227c0.00286,1.62882 -2.18225,2.22425 -3.01469,0.82434l-1.76106,-2.96549c-0.77261,-1.30256 -2.19356,-2.09668 -3.72888,-2.08403l-3.49405,0.02528c-1.65307,0.01434 -2.24395,-2.13335 -0.81818,-2.96366l3.02079,-1.75154c1.32718,-0.76952 2.14186,-2.17509 2.13774,-3.68827l-0.00787,-3.4437c-0.00121,-1.62903 2.18388,-2.22444 3.01631,-0.82453z" fill="#ffffff" stroke="none" stroke-width="1"/></g><g fill-rule="nonzero" stroke-linecap="butt" stroke-linejoin="miter"><path d="M312.38253,118.07842c2.15625,0.10609 4.21343,-0.92867 5.39768,-2.7151l2.69547,-4.06381c1.27801,-1.92042 4.29987,-0.9561 4.17136,1.32707l-0.26952,4.83492c-0.12178,2.12566 0.91567,4.14715 2.72191,5.30373l4.10515,2.63209c1.9425,1.24548 0.94532,4.2287 -1.37233,4.11801l-4.90778,-0.23717c-2.15498,-0.10521 -4.2106,0.92903 -5.39454,2.71411l-2.69855,4.05971c-1.27389,1.92251 -4.29367,0.95919 -4.16929,-1.32605l0.27263,-4.83593c0.11979,-2.12466 -0.91829,-4.14431 -2.72402,-5.29964l-4.10829,-2.63109c-1.94144,-1.24752 -0.94426,-4.23073 1.3734,-4.12004z" fill="none" stroke-opacity="0.502" stroke="#000000" stroke-width="5"/><path d="M312.38253,118.07842c2.15625,0.10609 4.21343,-0.92867 5.39768,-2.7151l2.69547,-4.06381c1.27801,-1.92042 4.29987,-0.9561 4.17136,1.32707l-0.26952,4.83492c-0.12178,2.12566 0.91567,4.14715 2.72191,5.30373l4.10515,2.63209c1.9425,1.24548 0.94532,4.2287 -1.37233,4.11801l-4.90778,-0.23717c-2.15498,-0.10521 -4.2106,0.92903 -5.39454,2.71411l-2.69855,4.05971c-1.27389,1.92251 -4.29367,0.95919 -4.16929,-1.32605l0.27263,-4.83593c0.11979,-2.12466 -0.91829,-4.14431 -2.72402,-5.29964l-4.10829,-2.63109c-1.94144,-1.24752 -0.94426,-4.23073 1.3734,-4.12004z" fill="#ffffff" stroke="none" stroke-width="1"/></g></g></g></svg>
